<svg xmlns="http://www.w3.org/2000/svg" viewBox="0 0 148.5 148.5"><defs><style>.cls-1{isolation:isolate;}.cls-2{fill:#414042;stroke:#fff;stroke-miterlimit:10;stroke-width:4.5px;}.cls-3,.cls-5{fill:#939598;}.cls-4{fill:#e6e7e8;}.cls-5{opacity:0.23;mix-blend-mode:color-dodge;}</style></defs><title>Ico_Mou</title><g class="cls-1"><g id="Layer_2" data-name="Layer 2"><g id="Layer_1-2" data-name="Layer 1"><circle class="cls-2" cx="74.25" cy="74.25" r="72"/><path class="cls-3" d="M60.79,61.1l8,18.06a1.43,1.43,0,0,0,.27-.66Q73,61.15,76.82,43.79c.4-1.79.79-3.59,1.18-5.38,0-.28.27-.3.47-.31a2.2,2.2,0,0,0,1.58-.92c.19-.22.36-.46.57-.66a1,1,0,0,1,1.7.12,8.17,8.17,0,0,1,.83,1.47c.44.82.88.93,1.66.4a3.22,3.22,0,0,0,1-1.37c.29-.63.47-1.3.77-1.92a1,1,0,0,1,1.67-.28A17.79,17.79,0,0,1,90,37.08c.27.34.52.7.83,1,.14.15.32.29.18.54q2,5.86,4,11.74Q104,76.84,113,103.3l2.12,6.23c0,.14.09.27.13.42s0,.28-.22.29H29.5c-.23,0-.29-.14-.22-.34l.12-.36q6-16,11.92-32l6-16.26a2.27,2.27,0,0,1,.26-.57.41.41,0,0,1,.41-.06,1.91,1.91,0,0,0,2-.58c.19-.17.36-.36.54-.52a1,1,0,0,1,1.49,0,3.11,3.11,0,0,1,.67.9c.62,1.1,1.48,1.17,2.32.2a5.1,5.1,0,0,0,.65-1.07c.16-.34.32-.68.51-1,.38-.68.76-.78,1.44-.38a5.18,5.18,0,0,1,1.17,1.12A7.35,7.35,0,0,0,60.79,61.1Z"/><path class="cls-4" d="M91,38.64a4.8,4.8,0,0,1-1-1.07c-.43-.57-.85-1.14-1.28-1.7A4.34,4.34,0,0,0,88,35a.56.56,0,0,0-1,.19,9.65,9.65,0,0,0-.46,1.16A7.71,7.71,0,0,1,85.77,38a2.8,2.8,0,0,1-1.62,1.2.76.76,0,0,1-1-.38,10.48,10.48,0,0,1-.51-1.07,3.08,3.08,0,0,0-.73-1.08c-.41-.35-.66-.35-1,0a5.2,5.2,0,0,0-.35.44A2.49,2.49,0,0,1,78,38.41a2.12,2.12,0,0,1-.73-2.14,11,11,0,0,1,.39-2.41,83,83,0,0,1,3.11-9.58,15.79,15.79,0,0,1,1.5-2.81,4.39,4.39,0,0,1,.66-.76,1.46,1.46,0,0,1,1.9-.2A4.29,4.29,0,0,1,86,21.6a14.87,14.87,0,0,1,1.91,3.15,42,42,0,0,1,3.43,11.16A8.82,8.82,0,0,1,91.53,38C91.51,38.29,91.47,38.61,91,38.64Z"/><path class="cls-4" d="M60.79,61.1A.57.57,0,0,1,60,61c-.3-.29-.6-.58-.88-.89s-.64-.71-1-1.07c-.15-.16-.32-.33-.49-.48-.58-.5-.93-.43-1.27.25-.24.49-.44,1-.7,1.47A2.69,2.69,0,0,1,54,61.63a.9.9,0,0,1-1.26-.48c-.13-.21-.24-.44-.35-.66a2.4,2.4,0,0,0-.53-.69c-.48-.44-.77-.43-1.23,0-.19.2-.37.4-.56.59a2.15,2.15,0,0,1-1.2.62,1.31,1.31,0,0,1-1.28-.33,3.6,3.6,0,0,1-.08-2.27,6.25,6.25,0,0,1,.24-1,54.82,54.82,0,0,1,3-7.63,8.87,8.87,0,0,1,1.7-2.46,1.65,1.65,0,0,1,2.32-.24,6.87,6.87,0,0,1,2.06,2.23,27.52,27.52,0,0,1,3.91,10.42A8.19,8.19,0,0,1,60.79,61.1Z"/><path class="cls-5" d="M81.64,110.23H29.49c-.22,0-.29-.13-.22-.34l.12-.35q6-16,11.92-32l6.06-16.27a1.68,1.68,0,0,1,.26-.56.4.4,0,0,1,.41-.07,1.9,1.9,0,0,0,2-.58c.18-.17.35-.35.54-.52a1,1,0,0,1,1.48,0,3.29,3.29,0,0,1,.68.89c.62,1.1,1.47,1.18,2.32.2a5,5,0,0,0,.64-1.07c.17-.33.32-.67.51-1,.39-.68.76-.78,1.44-.37a5.18,5.18,0,0,1,1.17,1.12,7.91,7.91,0,0,0,2,1.8l8,18"/></g></g></g></svg>