<svg xmlns="http://www.w3.org/2000/svg" xmlns:xlink="http://www.w3.org/1999/xlink" viewBox="0 0 148.5 148.5"><defs><style>.cls-1{fill:none;}.cls-2{isolation:isolate;}.cls-3{fill:#414042;stroke:#fff;stroke-miterlimit:10;stroke-width:4.5px;}.cls-4,.cls-6{fill:#939598;}.cls-5{fill:#e6e7e8;}.cls-6{opacity:0.23;mix-blend-mode:color-dodge;}.cls-7{fill:#47a541;}.cls-8{clip-path:url(#clip-path);}.cls-9{fill:#594a42;}</style><clipPath id="clip-path"><path class="cls-1" d="M41.28,114.79l5.56-1.2a.58.58,0,0,0,.42-.79c-1-2.43-4.18-11.12-2.77-16.4,1.65-6.17,1.47-12.69,4.78-13.65s7.73-2.34,9.21-4.6l.05-.07a.59.59,0,0,0-.86-.78,7.16,7.16,0,0,1-1.61.91,51.49,51.49,0,0,1-8,2.25.59.59,0,0,1-.7-.47c-.35-2-1.6-8.56-3.51-12a26.4,26.4,0,0,0-3.31-4.13.59.59,0,0,0-1,.69,42.3,42.3,0,0,1,3.26,7,25.78,25.78,0,0,1,.67,11.17c-.3,1.86-.92,4.6-1.27,6.11a.59.59,0,0,1-1,.28,17.8,17.8,0,0,0-6.46-4.11A19.61,19.61,0,0,0,28,83.59a60.69,60.69,0,0,1,9.41,4.89c4.08,2.8,3.44,5.49,3.44,5.49s-1.92,8.43-1.05,14.69l.78,5.63A.6.6,0,0,0,41.28,114.79Z"/></clipPath></defs><title>Ico_Fea</title><g class="cls-2"><g id="Layer_2" data-name="Layer 2"><g id="Layer_1-2" data-name="Layer 1"><circle class="cls-3" cx="74.25" cy="74.25" r="72"/><path class="cls-4" d="M65.22,63l8,18.05a1.51,1.51,0,0,0,.28-.65l7.74-34.71c.4-1.79.79-3.59,1.18-5.38,0-.28.27-.3.48-.32A2.19,2.19,0,0,0,84.47,39a7.4,7.4,0,0,1,.58-.66,1,1,0,0,1,1.69.12A8.87,8.87,0,0,1,87.58,40c.43.82.87.93,1.65.4a3.12,3.12,0,0,0,1-1.38c.29-.62.48-1.29.78-1.91a1,1,0,0,1,1.67-.29,19.73,19.73,0,0,1,1.73,2.14,10,10,0,0,0,.82,1c.14.15.32.29.19.54q2,5.86,4,11.74,9,26.46,18,52.92c.7,2.07,1.41,4.15,2.11,6.23a2.8,2.8,0,0,1,.13.41.21.21,0,0,1-.21.3H33.92c-.22,0-.29-.14-.22-.34s.08-.24.13-.36l11.91-32L51.8,63.14a1.73,1.73,0,0,1,.26-.57.4.4,0,0,1,.41-.06,1.92,1.92,0,0,0,2-.58c.18-.18.35-.36.54-.53a1,1,0,0,1,1.48,0,3.29,3.29,0,0,1,.68.89c.62,1.11,1.47,1.18,2.32.21a5.51,5.51,0,0,0,.64-1.07c.17-.34.33-.68.51-1,.39-.67.76-.77,1.44-.37a5.18,5.18,0,0,1,1.17,1.12A7.72,7.72,0,0,0,65.22,63Z"/><path class="cls-5" d="M95.47,40.5a5.12,5.12,0,0,1-1-1.08c-.43-.56-.85-1.13-1.28-1.7a4.57,4.57,0,0,0-.76-.82c-.4-.32-.74-.27-1,.19a9.71,9.71,0,0,0-.47,1.16,7.36,7.36,0,0,1-.74,1.58A2.87,2.87,0,0,1,88.57,41a.77.77,0,0,1-1-.38c-.2-.34-.34-.71-.51-1.07a3,3,0,0,0-.73-1.08c-.4-.36-.66-.35-1,0A2.51,2.51,0,0,0,85,39a2.54,2.54,0,0,1-2.53,1.29,2.14,2.14,0,0,1-.73-2.14,11.54,11.54,0,0,1,.39-2.41,81.13,81.13,0,0,1,3.12-9.58,14.68,14.68,0,0,1,1.5-2.82,4.22,4.22,0,0,1,.65-.75,1.46,1.46,0,0,1,1.9-.2,4.41,4.41,0,0,1,1.2,1.08,15.69,15.69,0,0,1,1.92,3.16A42.22,42.22,0,0,1,95.8,37.77a8.78,8.78,0,0,1,.15,2C95.93,40.15,95.9,40.46,95.47,40.5Z"/><path class="cls-5" d="M65.22,63a.56.56,0,0,1-.79-.1c-.31-.28-.6-.57-.89-.88s-.64-.71-1-1.07a4.45,4.45,0,0,0-.49-.48c-.58-.5-.93-.43-1.26.25-.24.48-.45,1-.71,1.47a2.67,2.67,0,0,1-1.65,1.34A.91.91,0,0,1,57.2,63c-.12-.21-.23-.44-.35-.66a2.59,2.59,0,0,0-.53-.7c-.48-.43-.76-.43-1.22,0-.19.19-.37.4-.56.59a2.17,2.17,0,0,1-1.21.62,1.32,1.32,0,0,1-1.27-.33A3.53,3.53,0,0,1,52,60.3a6.25,6.25,0,0,1,.24-1,56.1,56.1,0,0,1,3-7.63,8.92,8.92,0,0,1,1.7-2.47A1.67,1.67,0,0,1,59.21,49a6.93,6.93,0,0,1,2.07,2.24,27.69,27.69,0,0,1,3.91,10.42A9.52,9.52,0,0,1,65.22,63Z"/><path class="cls-6" d="M86.07,112.09H33.91c-.22,0-.29-.14-.22-.34a3.62,3.62,0,0,1,.13-.35l11.91-32,6.06-16.27a1.91,1.91,0,0,1,.26-.56.38.38,0,0,1,.41-.07,1.9,1.9,0,0,0,2-.58l.54-.52a1,1,0,0,1,1.49,0,3.3,3.3,0,0,1,.67.9c.62,1.1,1.48,1.18,2.32.2a4.82,4.82,0,0,0,.64-1.07c.17-.33.33-.68.51-1,.39-.68.76-.78,1.44-.38a5,5,0,0,1,1.17,1.12,7.76,7.76,0,0,0,2,1.81l8,18"/><path class="cls-7" d="M41,91.91s-15.33,4.34-19.09-4.72c-3.67-8.86,5.74-16.4,10.19-17.63,1.58-.44,1,7.66.48,7.29-1-.74-9-10.71-3-16.13,5.69-5.15,11.27-7.14,16.15-6.38,7,1.11,8.46,12.72,8.46,12.72s5.75-1.33,8.51,1.44,5.08,6.75,3.71,10.73-6.88,6.5-6.88,6.5,4.14,8.34-6,9.35c-6.32.62-4.44-1.51-8.43-2.82C41.26,91,41,91.91,41,91.91Z"/><g class="cls-8"><rect class="cls-9" x="12.79" y="52.69" width="68.28" height="59.42"/></g></g></g></g></svg>