<svg xmlns="http://www.w3.org/2000/svg" viewBox="0 0 148.5 148.5"><defs><style>.cls-1{fill:#414042;stroke:#fff;stroke-miterlimit:10;stroke-width:4.5px;}.cls-2{fill:#d12372;}.cls-3{fill:#6fc8cb;}</style></defs><title>Ico_Rin</title><g id="Layer_2" data-name="Layer 2"><g id="Layer_1-2" data-name="Layer 1"><circle class="cls-1" cx="74.25" cy="74.25" r="72"/><path class="cls-2" d="M47.39,73.19c.06-1.16.12-2.32.27-3.47a27.06,27.06,0,0,1,2.9-9.29,28.51,28.51,0,0,1,18.11-14.7,28,28,0,0,1,6-.95,28.39,28.39,0,0,1,14.67,3.15,28,28,0,0,1,5.29,3.52l.34.25a19.26,19.26,0,0,1,1.76,1.74,3.23,3.23,0,0,0,1.06,1,1.14,1.14,0,0,0,.39.48l1.65,2.14a2.51,2.51,0,0,0,.36.61,29,29,0,0,1,2.61,5l.66,1.66a2.32,2.32,0,0,1-.71.53,191.27,191.27,0,0,1-22,12.3c-1.16.56-2.32,1.09-3.49,1.61A200.62,200.62,0,0,1,53.87,87.4a17.38,17.38,0,0,1-2.54.7c-.11-.21-.21-.43-.33-.64A28.41,28.41,0,0,1,49,83c-.26-.75-.49-1.51-.73-2.27l-.53-2.65a4.59,4.59,0,0,0-.17-1C47.5,75.82,47.4,74.51,47.39,73.19Z"/><path class="cls-3" d="M47.39,73.19c0,1.32.11,2.63.19,4-1,.52-2,1.14-3,1.74A122.81,122.81,0,0,0,32,87.33a36.69,36.69,0,0,0-4.84,4.4,10.23,10.23,0,0,0-1.82,2.6c-.81,1.77-.24,3,1.63,3.53a11.51,11.51,0,0,0,3.7.31c1-.06,2.07-.15,3.1-.3a44.85,44.85,0,0,0,4.89-.93c3.45-1,6.86-2,10.26-3.12,1.75-.58,3.5-1.12,5.22-1.77l.4-.11c6.46-2.25,12.86-4.68,19.15-7.38,6.12-2.62,12.1-5.54,18-8.67q4.45-2.37,8.83-4.89c1.35-.78,2.72-1.53,4-2.38a2.3,2.3,0,0,0,.58-.31c2.88-1.7,5.71-3.49,8.54-5.27A46.1,46.1,0,0,0,121,57.3a16.81,16.81,0,0,0,2.46-2.87,5.39,5.39,0,0,0,.85-1.91,1.92,1.92,0,0,0-.81-2.05,3.26,3.26,0,0,0-1-.49,9.42,9.42,0,0,0-2.31-.35,23.72,23.72,0,0,0-4.37.28,76.54,76.54,0,0,0-8.86,1.84c-3.05.81-6.07,1.75-9.07,2.71a3.23,3.23,0,0,1-1.06-1A19.26,19.26,0,0,0,95,51.7c1.66-.64,3.36-1.17,5-1.72,4.5-1.45,9-2.76,13.67-3.8,2.6-.58,5.21-1.07,7.85-1.41a37.78,37.78,0,0,1,6.29-.32,11.9,11.9,0,0,1,3.59.64,4,4,0,0,1,.6.26,3,3,0,0,1,1.71,3.85,9.72,9.72,0,0,1-1.62,3.13,31.53,31.53,0,0,1-4.43,4.81,108.22,108.22,0,0,1-11.18,8.61c-3.68,2.57-7.48,5-11.36,7.19a2.27,2.27,0,0,0-.25.18l-.11,0q-9.52,5.4-19.44,10.07c-3.54,1.67-7.1,3.31-10.68,4.88Q70,90.15,65.34,92c-2.7,1.07-5.41,2.09-8.13,3.11l-6,2.06a156.69,156.69,0,0,1-16.34,4.49c-2.32.52-4.67.92-7,1.21a34.66,34.66,0,0,1-6.36.25,10.35,10.35,0,0,1-3.06-.57,3,3,0,0,1-.39-.14,3.15,3.15,0,0,1-2-4.31,11.88,11.88,0,0,1,2.23-3.75,43.25,43.25,0,0,1,6.29-6.11A134.87,134.87,0,0,1,39.93,77.56C42.39,76.05,44.87,74.59,47.39,73.19Z"/><path class="cls-2" d="M57.21,95.14c2.72-1,5.43-2,8.13-3.11q4.71-1.89,9.36-3.92c3.58-1.57,7.14-3.21,10.68-4.88q9.91-4.68,19.44-10.07l.11,0a27,27,0,0,1-1,7.9,28.22,28.22,0,0,1-8.41,13.75,26.2,26.2,0,0,1-4.1,3.14,33.2,33.2,0,0,1-2.92,1.61,28.83,28.83,0,0,1-17.23,2.35,28.27,28.27,0,0,1-14-6.69Z"/><path class="cls-3" d="M47.75,78.11l.53,2.65a2,2,0,0,0-.59.4A24.61,24.61,0,0,0,43.55,85a5.16,5.16,0,0,0-.88,1.43,1.5,1.5,0,0,0,1,2.18,5.15,5.15,0,0,0,1.47.25,18.58,18.58,0,0,0,3.94-.28,14,14,0,0,0,2.23-.46,17.38,17.38,0,0,0,2.54-.7,200.62,200.62,0,0,0,23.47-8.65c1.17-.52,2.33-1,3.49-1.61a191.27,191.27,0,0,0,22-12.3,2.32,2.32,0,0,0,.71-.53c.34-.25.68-.5,1-.76A22.47,22.47,0,0,0,108.28,60a4.68,4.68,0,0,0,.84-1.51,1.42,1.42,0,0,0-.86-1.86,4.3,4.3,0,0,0-1.69-.35,19,19,0,0,0-2.82.12,36.76,36.76,0,0,0-3.88.72l-1.65-2.14c.15,0,.3-.11.45-.15a62.76,62.76,0,0,1,9.51-1.89,16.39,16.39,0,0,1,4.37,0,5.29,5.29,0,0,1,2,.64,1.92,1.92,0,0,1,1,1.91,4,4,0,0,1-.6,1.74,14,14,0,0,1-2.42,3,52.72,52.72,0,0,1-7.26,5.9,8.79,8.79,0,0,0-1.1.92.53.53,0,0,0-.17.08,93.06,93.06,0,0,1-8.88,5.5C89,76.07,82.57,79.13,76.09,82c-5.31,2.35-10.67,4.59-16.18,6.43a48.13,48.13,0,0,1-7.06,1.91.48.48,0,0,0-.12,0A62.19,62.19,0,0,1,44,92a17.77,17.77,0,0,1-4.55,0,5.47,5.47,0,0,1-1.94-.59,2,2,0,0,1-1.09-1.93,3.66,3.66,0,0,1,.39-1.37,10.78,10.78,0,0,1,1.84-2.59A50.88,50.88,0,0,1,47.75,78.11Z"/><path class="cls-2" d="M104.21,67l.33,1.58c-1.3.85-2.67,1.6-4,2.38q-4.38,2.52-8.83,4.89c-5.88,3.13-11.86,6-18,8.67-6.29,2.7-12.69,5.13-19.15,7.38l-.4.11a16.6,16.6,0,0,1-1.31-1.72,48.13,48.13,0,0,0,7.06-1.91c5.51-1.84,10.87-4.08,16.18-6.43,6.48-2.86,12.87-5.92,19.07-9.37a93.06,93.06,0,0,0,8.88-5.5A.53.53,0,0,1,104.21,67Z"/></g></g></svg>