# Blender v2.80 (sub 54) OBJ File: 'all_models.blend'
# www.blender.org
mtllib volcano_2.mtl
o volcano_1_volcano_1_Cube.000
v -0.119550 -0.016780 -0.002248
v -0.080312 0.052348 0.039381
v -0.041066 0.055130 -0.071570
v -0.095149 -0.016780 -0.089580
v -0.002822 -0.016780 -0.128306
v 0.057392 0.052928 -0.059388
v 0.090778 -0.016780 -0.089666
v 0.126848 -0.016780 -0.004197
v 0.079590 0.052615 0.004730
v 0.024075 0.051873 0.083548
v 0.090778 -0.016780 0.086621
v -0.006200 -0.016780 0.116993
v -0.095149 -0.016780 0.087927
v -0.062210 0.073197 0.032230
v -0.032531 0.077221 -0.049861
v 0.054942 0.074654 0.006508
v 0.014466 0.070604 0.065871
v 0.039234 0.076359 -0.042160
v 0.014507 0.094966 -0.018882
v -0.019865 0.095563 -0.020102
v -0.016731 0.067841 -0.017668
v 0.016862 0.067849 -0.014777
v 0.018564 0.087485 0.016997
v 0.023869 0.066765 0.008333
v -0.034409 0.089103 0.019434
v 0.000949 0.084709 0.037241
v -0.005495 0.065378 0.010018
v 0.005364 0.063310 0.036355
v -0.031261 0.065487 0.020504
vt 0.676993 0.069061
vt 0.738806 0.608946
vt 0.757275 0.611212
vt 0.708637 0.069061
vt 0.823993 0.069061
vt 0.824185 0.611309
vt 0.895209 0.611209
vt 0.949761 0.069061
vt 0.996538 0.069061
vt 0.918927 0.608944
vt 0.895141 0.605073
vt 0.949761 0.069061
vt 0.823993 0.069061
vt 0.824012 0.602058
vt 0.757117 0.605072
vt 0.708637 0.069061
vt 0.761492 0.779201
vt 0.775147 0.789689
vt 0.889974 0.779193
vt 0.873287 0.761271
vt 0.873603 0.789678
vt 0.291432 0.948886
vt 0.260247 0.956830
vt 0.265446 0.198179
vt 0.309240 0.198357
vt 0.300376 0.872358
vt 0.322828 0.166573
vt 0.822338 0.747316
vt 0.774416 0.761268
vt 0.823138 0.790138
vt 0.794340 0.905319
vt 0.800622 0.925595
vt 0.821138 0.927700
vt 0.841992 0.925595
vt 0.847973 0.905319
vt 0.841378 0.877883
vt 0.819970 0.862149
vt 0.799543 0.877883
vt 0.265883 0.125892
vt 0.309326 0.093326
vt 0.227955 0.768805
vt 0.258501 0.709422
vt 0.264557 0.037143
vt 0.221570 0.092405
vt 0.290514 0.768805
vt 0.229568 0.948886
vt 0.220175 0.872358
vt 0.210260 0.165768
vt 0.222741 0.198075
vn -0.8372 0.5414 -0.0766
vn -0.7050 0.6298 0.3261
vn -0.3684 0.6710 -0.6435
vn -0.6308 0.5845 -0.5104
vn 0.0143 0.5643 -0.8254
vn 0.4940 0.6652 -0.5599
vn 0.5436 0.6072 -0.5795
vn 0.8039 0.5944 0.0199
vn 0.7502 0.6564 0.0796
vn 0.2344 0.6155 0.7525
vn 0.6141 0.5231 0.5910
vn -0.0806 0.4913 0.8673
vn -0.5845 0.5261 0.6177
vn -0.5936 0.7538 0.2817
vn -0.3646 0.7748 -0.5165
vn 0.5781 0.8056 0.1297
vn 0.1265 0.7712 0.6239
vn 0.3670 0.8167 -0.4453
vn -0.0642 0.9855 0.1568
vn 0.0010 0.9904 0.1384
vn 0.3986 0.6268 0.6695
vn -0.5810 0.5614 0.5892
vn -0.4033 0.9142 -0.0408
vn -0.8285 0.5550 -0.0745
vn 0.0887 0.9949 0.0483
vn -0.0474 0.9860 -0.1598
vn 0.0010 0.9970 0.0776
vn -0.2608 0.6283 -0.7330
vn 0.7160 0.6298 -0.3012
usemtl Volcano
s 1
f 1/1/1 2/2/2 3/3/3 4/4/4
f 5/5/5 3/6/3 6/7/6 7/8/7
f 8/9/8 9/10/9 10/11/10 11/12/11
f 12/13/12 10/14/10 2/15/2 13/16/13
f 3/3/3 2/2/2 14/17/14 15/18/15
f 10/11/10 9/10/9 16/19/16 17/20/17
f 9/10/9 6/7/6 18/21/18 16/19/16
f 13/16/13 2/2/2 1/1/1
f 7/8/7 6/7/6 9/10/9 8/9/8
f 11/12/11 10/14/10 12/13/12
f 4/4/4 3/6/3 5/5/5
f 19/22/19 20/23/20 21/24/21 22/25/22
f 23/26/23 19/22/19 22/25/22 24/27/24
f 2/15/2 10/14/10 17/28/17 14/29/14
f 6/7/6 3/6/3 15/30/15 18/21/18
f 25/31/25 20/32/20 15/18/15 14/17/14
f 20/33/20 19/34/19 18/21/18 15/30/15
f 23/35/23 26/36/26 17/20/17 16/19/16
f 19/34/19 23/35/23 16/19/16 18/21/18
f 26/37/26 25/38/25 14/29/14 17/28/17
f 24/27/24 27/39/27 28/40/28
f 22/25/22 21/24/21 27/39/27 24/27/24
f 25/41/25 26/42/26 28/43/28 29/44/29
f 26/45/26 23/26/23 24/27/24 28/40/28
f 20/46/20 25/47/25 29/48/29 21/49/21
f 21/49/21 29/44/29 28/43/28 27/39/27
