<svg xmlns="http://www.w3.org/2000/svg" viewBox="0 0 148.5 148.5"><defs><style>.cls-1{fill:#414042;}.cls-1,.cls-3{stroke:#fff;stroke-miterlimit:10;stroke-width:4.5px;}.cls-2{fill:#fff;}.cls-3{fill:none;}</style></defs><title>Asset 21</title><g id="Layer_2" data-name="Layer 2"><g id="Layer_1-2" data-name="Layer 1"><circle class="cls-1" cx="74.25" cy="74.25" r="72"/><path class="cls-2" d="M21.12,47.74a13.28,13.28,0,0,1,4.2-9.84,13.84,13.84,0,0,1,10.06-4.11,13.56,13.56,0,0,1,9.95,4.15,13.52,13.52,0,0,1,4.16,10,13.33,13.33,0,0,1-4.18,9.93,14.33,14.33,0,0,1-19.58.46A13.34,13.34,0,0,1,21.12,47.74Zm4.13.06a10.13,10.13,0,0,0,10,10.3,9.78,9.78,0,0,0,7.21-3,10.54,10.54,0,0,0,0-14.55,9.56,9.56,0,0,0-7.13-3,9.67,9.67,0,0,0-7.16,3A9.83,9.83,0,0,0,25.25,47.8Z"/><path class="cls-2" d="M54.64,61.44v-29l19.8,20.71V34.3h4.09V63.09L58.74,42.44v19Z"/><path class="cls-2" d="M62.36,99.83A13.31,13.31,0,0,1,66.56,90a13.84,13.84,0,0,1,10.06-4.11A14.2,14.2,0,0,1,90.73,100a13.35,13.35,0,0,1-4.18,9.94,14.36,14.36,0,0,1-19.59.45A13.32,13.32,0,0,1,62.36,99.83Zm4.13,0a10.06,10.06,0,0,0,17.17,7.35,10.54,10.54,0,0,0,0-14.56,10.13,10.13,0,0,0-14.29,0A9.79,9.79,0,0,0,66.49,99.88Z"/><path class="cls-2" d="M109.43,90.23H100v6.52h9.12v3.85H100v12.92h-4.1V86.38h13.55Z"/><path class="cls-2" d="M127.73,90.23h-9.45v6.52h9.12v3.85h-9.12v12.92h-4.1V86.38h13.55Z"/><line class="cls-3" x1="34.48" y1="107.92" x2="110.29" y2="42.18"/></g></g></svg>