<svg xmlns="http://www.w3.org/2000/svg" viewBox="0 0 148.5 148.5"><defs><style>.cls-1{fill:#414042;stroke:#fff;stroke-miterlimit:10;stroke-width:4.5px;}.cls-2{fill:#97bee5;opacity:0.4;}.cls-3{fill:#1c76bc;}.cls-4{fill:#1f3f1d;}</style></defs><title>Ico_Atm</title><g id="Layer_2" data-name="Layer 2"><g id="Layer_1-2" data-name="Layer 1"><circle class="cls-1" cx="74.25" cy="74.25" r="72"/><circle class="cls-2" cx="74.25" cy="74.25" r="54"/><circle class="cls-2" cx="74.25" cy="74.25" r="48.05"/><circle class="cls-2" cx="74.25" cy="74.25" r="42.1"/><circle class="cls-3" cx="74.92" cy="73.68" r="34.64"/><path class="cls-4" d="M41.77,62.11a72.29,72.29,0,0,1,15.12,3.12c.14-1.14.29-2.28.47-3.41a.93.93,0,0,1,.28-.66,1,1,0,0,1,.64-.12,44.46,44.46,0,0,0,5.65-.19,4.48,4.48,0,0,0,1.26-.25,4.36,4.36,0,0,0,1.54-1.3A36.75,36.75,0,0,0,70.45,54a2.46,2.46,0,0,1,2.33-1.7l3-.37.73-2.71A11.06,11.06,0,0,0,70,47a49.15,49.15,0,0,0-7.06.46,8.4,8.4,0,0,1-3.9-.27c-.77-.3-1.38-3.69-1.85-3.37C51.7,47.41,43.72,54.28,41.77,62.11"/><path class="cls-4" d="M91.74,104c-.74-4.2-.44-9.41-.42-13.68L88.68,90a1.92,1.92,0,0,1-.62-.17,1.76,1.76,0,0,1-.42-.69l-1.7-4.89a14.9,14.9,0,0,1-.4-2.13l2.34-2.61a28,28,0,0,1,3.65-.36l3.76.11.79-3.6a15.52,15.52,0,0,1,1.48-3.23s3.33-.81,4.72.16a5.51,5.51,0,0,0,1.29.82c1.34.47,2.69-.61,3.66-1.65a.82.82,0,0,0,.23-.36.77.77,0,0,0-.15-.54l-1.18-2.1c.34-.62,1.53-5.83,2.12-4.54,4.39,9.43.21,31.45-16.51,39.71"/><path class="cls-4" d="M52.09,86.07l6.35,2.86a21.92,21.92,0,0,0,3.53,1,15,15,0,0,1,4.27-.75A42.23,42.23,0,0,1,66.82,94L64.5,98.16l-5.07.3L55.87,97,53,94.6l-1.48-.46A12,12,0,0,1,50.28,93L47.19,89a5.64,5.64,0,0,1,3,.26c.69-.91,1.22-2.29,1.91-3.2"/></g></g></svg>