<svg xmlns="http://www.w3.org/2000/svg" xmlns:xlink="http://www.w3.org/1999/xlink" viewBox="0 0 148.5 148.5"><defs><style>.cls-1{fill:none;}.cls-2{fill:#414042;stroke:#fff;stroke-miterlimit:10;stroke-width:4.5px;}.cls-3{fill:#47a541;}.cls-4{clip-path:url(#clip-path);}.cls-5{fill:#594a42;}</style><clipPath id="clip-path"><path class="cls-1" d="M70.81,122.68l9-1.94a1,1,0,0,0,.68-1.29C79,115.52,73.72,101.39,76,92.83c2.69-10,2.4-20.61,7.77-22.16s12.56-3.81,15-7.48l.07-.11a1,1,0,0,0-1.39-1.27,11.69,11.69,0,0,1-2.61,1.49,86,86,0,0,1-13,3.64,1,1,0,0,1-1.13-.76c-.57-3.26-2.59-13.9-5.71-19.56a42.17,42.17,0,0,0-5.37-6.71A1,1,0,0,0,68,41c2.11,3.88,4.52,8.61,5.29,11.37A41.53,41.53,0,0,1,74.4,70.51c-.48,3-1.48,7.47-2.05,9.93a1,1,0,0,1-1.62.45,29.17,29.17,0,0,0-10.5-6.68,32.08,32.08,0,0,0-11-2.18s9.17,3.75,15.28,8c6.62,4.53,5.57,8.9,5.57,8.9s-3.1,13.69-1.69,23.86l1.27,9.14A1,1,0,0,0,70.81,122.68Z"/></clipPath></defs><title>Ico_Vege</title><g id="Layer_2" data-name="Layer 2"><g id="Layer_1-2" data-name="Layer 1"><circle class="cls-2" cx="74.25" cy="74.25" r="72"/><path class="cls-3" d="M70.3,85.54s-24.9,7-31-7.67c-6-14.39,9.31-26.62,16.53-28.62,2.58-.71,1.59,12.43.79,11.84C55,59.88,42,43.69,51.79,34.88,61,26.53,70.09,23.29,78,24.54c11.4,1.79,13.74,20.65,13.74,20.65s9.33-2.16,13.82,2.33,8.25,11,6,17.42S100.42,75.5,100.42,75.5,107.15,89,90.61,90.68c-10.26,1-7.2-2.45-13.69-4.58C70.77,84.08,70.3,85.54,70.3,85.54Z"/><g class="cls-4"><rect class="cls-5" x="24.55" y="33.45" width="110.87" height="96.48"/></g></g></g></svg>