<svg xmlns="http://www.w3.org/2000/svg" viewBox="0 0 148.5 148.5"><defs><style>.cls-1{fill:#414042;stroke:#fff;stroke-miterlimit:10;stroke-width:4.5px;}.cls-2{fill:#536470;}.cls-3{fill:#fff200;}</style></defs><title>Ico_Storm</title><g id="Layer_2" data-name="Layer 2"><g id="Layer_1-2" data-name="Layer 1"><circle class="cls-1" cx="74.25" cy="74.25" r="72"/><path class="cls-2" d="M71.87,77.23a18.37,18.37,0,0,1-2.69-1.94.26.26,0,0,0-.44,0l-.32.49A12.25,12.25,0,0,1,60,81.11a17.87,17.87,0,0,1-10.31-1.46,10.93,10.93,0,0,1-4.9-4.25,10.13,10.13,0,0,1-.9-2c-.17-.53-.2-.55-.68-.37a29.78,29.78,0,0,1-7,1.66,20,20,0,0,1-8.46-.54,10,10,0,0,1-7.16-7.75A17.28,17.28,0,0,1,20.32,59a9.82,9.82,0,0,1,6.47-7.73,18.93,18.93,0,0,1,8.27-1.12,9.08,9.08,0,0,1,1.17.1.64.64,0,0,0,.77-.4,13.8,13.8,0,0,1,2.29-2.92,14.89,14.89,0,0,1,8.25-4.16,16.37,16.37,0,0,1,4.74-.16,1,1,0,0,0,1-.43,31.93,31.93,0,0,1,12.31-10,30.91,30.91,0,0,1,9.88-2.72,29.66,29.66,0,0,1,11.18.8A23.3,23.3,0,0,1,99.56,38.9a.66.66,0,0,0,.81.33,11.37,11.37,0,0,1,9.14,1.45A21.85,21.85,0,0,1,115,45.1a6.93,6.93,0,0,1,1.29,2.11c.2.55.2.53.8.48a11.42,11.42,0,0,1,6.14,1.1,9.33,9.33,0,0,1,4.63,5.1A17.94,17.94,0,0,1,128.87,64a8.07,8.07,0,0,1-7.25,6.81A2.5,2.5,0,0,0,119.7,72a19.07,19.07,0,0,1-9.85,7.26,23.67,23.67,0,0,1-4.41.84,26.88,26.88,0,0,1-4.3.14,21.51,21.51,0,0,1-8.81-2.1,12.89,12.89,0,0,1-1.3-.75.69.69,0,0,0-.68,0,27.87,27.87,0,0,1-5.73,1.74c-1.14.12-2.27.27-3.42.3a18.71,18.71,0,0,1-7.37-1.26C73.17,77.83,72.52,77.52,71.87,77.23Z"/><path class="cls-3" d="M71.87,77.23c.65.29,1.3.6,2,.86a18.71,18.71,0,0,0,7.37,1.26c1.15,0,2.28-.18,3.42-.3-.28.61-.56,1.22-.85,1.83l-6.4,13.05a1,1,0,0,0-.2.76c2.69-.57,5.33-1.28,8.16-1.9-4.39,11.89-8.73,23.62-13.11,35.46a1.16,1.16,0,0,1,0-.76l3.9-22.27a.51.51,0,0,0,0-.13c.08-.57,0-.67-.58-.56-.88.17-1.75.35-2.62.54l-4.46.94-.26,0c-.49.07-.54,0-.47-.46.26-1.8.53-3.61.79-5.41Q69.28,95,70,89.8c.49-3.4,1-6.79,1.49-10.19C71.64,78.82,71.76,78,71.87,77.23Z"/></g></g></svg>