<svg xmlns="http://www.w3.org/2000/svg" viewBox="0 0 148.5 148.5"><defs><style>.cls-1{fill:#414042;stroke:#fff;stroke-miterlimit:10;stroke-width:4.5px;}.cls-2{fill:#3cb44a;}</style></defs><title>Ico_Fin</title><g id="Layer_2" data-name="Layer 2"><g id="Layer_1-2" data-name="Layer 1"><circle class="cls-1" cx="74.25" cy="74.25" r="72"/><path class="cls-2" d="M68.54,112.66a3.07,3.07,0,0,1-2-.73l-8.95-6.86-25-19.17c-.48-.36-1-.72-1.43-1.09a3,3,0,0,1-.57-4.38l5.65-7.38c.12-.16.25-.32.37-.49A3.09,3.09,0,0,1,41,72q11,8.52,22.13,17l2.5,1.92c.55.41.49.49,1-.11L70.22,86,97.64,50.15l8-10.44a3.41,3.41,0,0,1,1.73-1.33,2.94,2.94,0,0,1,2.74.54l5.81,4.44c.67.52,1.33,1,2,1.54a3.1,3.1,0,0,1,.61,4.52C113.33,56.17,108.15,63,103,69.73L80.82,98.65l-9.76,12.74A2.89,2.89,0,0,1,68.54,112.66Z"/></g></g></svg>