<svg xmlns="http://www.w3.org/2000/svg" xmlns:xlink="http://www.w3.org/1999/xlink" viewBox="0 0 258.16 156.07"><defs><style>.cls-1{fill:#27aae1;}.cls-2{fill:#414042;stroke:#fff;stroke-miterlimit:10;stroke-width:4.5px;}.cls-3{clip-path:url(#clip-path);}.cls-4{opacity:0.7;}.cls-5{fill:#92278f;}</style><clipPath id="clip-path"><circle class="cls-1" cx="123.03" cy="74.25" r="45"/></clipPath></defs><title>Ico_Ban</title><g id="Layer_2" data-name="Layer 2"><g id="Layer_1-2" data-name="Layer 1"><circle class="cls-2" cx="123.03" cy="74.25" r="72"/><circle class="cls-1" cx="123.03" cy="74.25" r="45"/><g class="cls-3"><g class="cls-4"><path class="cls-5" d="M53.05,69.35c11.4-.59,22.79-.9,34.19-1.11S110,68,121.42,67.93l17.09.07c5.7.08,11.4.11,17.09.24,11.4.21,22.79.52,34.19,1.11-11.4.6-22.79.91-34.19,1.11-5.69.14-11.39.16-17.09.24l-17.09.08c-11.39,0-22.79-.09-34.18-.32S64.45,69.94,53.05,69.35Z"/></g><g class="cls-4"><path class="cls-5" d="M53.05,35.86a55.1,55.1,0,0,1,8.55-2.48c2.85-.61,5.7-1.06,8.55-1.38s5.69-.55,8.54-.65a48.94,48.94,0,0,1,8.55.33c5.69.74,11.39,2.58,17.09,2.92a66.62,66.62,0,0,0,17.09-1.29c2.85-.52,5.7-1.08,8.55-1.46s5.69-.58,8.54-.8a157.64,157.64,0,0,1,17.09-.7c2.85.08,5.7.27,8.55.55s5.7.6,8.55,1a99.62,99.62,0,0,1,17.09,3.93V37a99.66,99.66,0,0,1-17.09,3.94c-2.85.42-5.7.77-8.55,1s-5.7.47-8.55.55a157.64,157.64,0,0,1-17.09-.7c-2.85-.22-5.69-.4-8.54-.8s-5.7-1-8.55-1.47a66.61,66.61,0,0,0-17.09-1.28c-5.7.34-11.4,2.18-17.09,2.92a48,48,0,0,1-8.55.32q-4.27-.15-8.54-.64c-2.85-.32-5.7-.77-8.55-1.38A54.07,54.07,0,0,1,53.05,37Z"/></g><g class="cls-4"><path class="cls-5" d="M258.16,55.62a116.31,116.31,0,0,1-12.82,2.48c-4.28.62-8.55,1.06-12.82,1.39s-8.55.54-12.82.63a109.76,109.76,0,0,1-12.82-.32c-8.55-.73-17.09-2.58-25.64-2.91a148,148,0,0,0-25.64,1.28c-4.27.52-8.54,1.08-12.81,1.47s-8.55.58-12.82.8c-8.55.43-17.1.88-25.64.7s-17.09-.73-25.64-1.59a214.56,214.56,0,0,1-25.64-3.93V54.48a214.56,214.56,0,0,1,25.64-3.93Q91.51,49.26,104.33,49c8.54-.19,17.09.26,25.64.7,4.27.21,8.54.39,12.82.8s8.54.94,12.81,1.46a148,148,0,0,0,25.64,1.28c8.55-.33,17.09-2.18,25.64-2.91A109.76,109.76,0,0,1,219.7,50c4.27.09,8.54.31,12.82.63s8.54.77,12.82,1.39a116.31,116.31,0,0,1,12.82,2.48Z"/></g><g class="cls-4"><path class="cls-5" d="M0,98.45A115.86,115.86,0,0,1,12.82,96c4.27-.61,8.54-1.06,12.82-1.38S34.18,94,38.46,94a107.66,107.66,0,0,1,12.82.31c8.54.74,17.09,2.58,25.63,2.92a147.91,147.91,0,0,0,25.64-1.29c4.27-.52,8.55-1.08,12.82-1.46s8.55-.58,12.82-.8c8.54-.44,17.09-.89,25.64-.7s17.09.72,25.63,1.58a216,216,0,0,1,25.64,3.93v1.14a214,214,0,0,1-25.64,3.94q-12.81,1.27-25.63,1.58c-8.55.18-17.1-.27-25.64-.7-4.27-.22-8.55-.4-12.82-.8s-8.55-1-12.82-1.47a148.9,148.9,0,0,0-25.64-1.28c-8.54.34-17.09,2.18-25.63,2.92a107.66,107.66,0,0,1-12.82.31Q32,104,25.64,103.46c-4.28-.32-8.55-.77-12.82-1.38A113.65,113.65,0,0,1,0,99.59Z"/></g><g class="cls-4"><path class="cls-5" d="M53.05,81.73c7.6-1.09,15.2-1.57,22.79-1.93,3.8-.15,7.6-.29,11.4-.32s7.59,0,11.39.16c7.6.37,15.19,1.28,22.79,1.45s15.19-.1,22.79-.64c3.8-.24,7.6-.55,11.39-.72s7.6-.3,11.4-.41c7.6-.21,15.19-.44,22.79-.35,3.8,0,7.59.13,11.39.28l5.7.22,5.7.3c7.59.45,15.19,1,22.79,2v.57c-7.6,1-15.2,1.51-22.79,2l-5.7.29-5.7.22c-3.8.16-7.59.23-11.39.28-7.6.09-15.19-.14-22.79-.35-3.8-.1-7.6-.2-11.4-.4s-7.59-.49-11.39-.73c-7.6-.54-15.19-.82-22.79-.64S106.23,84,98.63,84.39c-3.8.18-7.59.22-11.39.16s-7.6-.17-11.4-.33c-7.59-.36-15.19-.84-22.79-1.92Z"/></g><g class="cls-4"><path class="cls-5" d="M41.13,133.75c7.59-1.08,15.19-1.56,22.79-1.92,3.79-.16,7.59-.29,11.39-.33s7.6,0,11.39.16c7.6.37,15.2,1.29,22.79,1.46s15.2-.11,22.79-.64c3.8-.24,7.6-.55,11.4-.73s7.59-.3,11.39-.41c7.6-.2,15.19-.43,22.79-.34,3.8.05,7.6.12,11.4.28l5.69.22,5.7.29c7.6.45,15.19,1,22.79,2v.57c-7.6,1-15.19,1.51-22.79,2l-5.7.3-5.69.22c-3.8.15-7.6.23-11.4.28-7.6.09-15.19-.14-22.79-.35-3.8-.11-7.59-.21-11.39-.41s-7.6-.48-11.4-.72c-7.59-.54-15.19-.83-22.79-.64S94.3,136,86.7,136.41c-3.79.19-7.59.23-11.39.16s-7.6-.17-11.39-.32c-7.6-.36-15.2-.84-22.79-1.93Z"/></g><g class="cls-4"><path class="cls-5" d="M189.79,119.3c-11.4.9-22.79,1.58-34.19,2.28l-17.09.94-17.09.77c-5.7.24-11.39.69-17.09,1.08a135.36,135.36,0,0,1-17.09,0c-5.7-.33-11.4-.87-17.09-1.67a126.34,126.34,0,0,1-17.1-3.45v-1.14a126.38,126.38,0,0,1,17.1-3.46q8.53-1.19,17.09-1.67a137.26,137.26,0,0,1,17.09.06c5.7.38,11.39.84,17.09,1.08l17.09.77,17.09.94c11.4.7,22.79,1.38,34.19,2.28Z"/></g><g class="cls-4"><path class="cls-5" d="M53.05,150.38a270.33,270.33,0,0,1,34.19-4.47c11.39-.83,22.79-1.22,34.18-1.23s22.79.38,34.18,1.22a266.76,266.76,0,0,1,34.19,4.48,266.76,266.76,0,0,1-34.19,4.48q-17.08,1.24-34.18,1.21c-11.39,0-22.79-.39-34.18-1.23A268.49,268.49,0,0,1,53.05,150.38Z"/></g></g></g></g></svg>