<svg xmlns="http://www.w3.org/2000/svg" viewBox="0 0 148.5 148.5"><defs><style>.cls-1{fill:#414042;stroke:#fff;stroke-miterlimit:10;stroke-width:4.5px;}.cls-2{fill:#8b5e3c;}.cls-3{fill:#009444;}.cls-4{fill:#fff200;}.cls-5{fill:#ed1c24;}.cls-6{fill:#da1c5c;}.cls-7{fill:#27aae1;}</style></defs><title>Ico_Col</title><g id="Layer_2" data-name="Layer 2"><g id="Layer_1-2" data-name="Layer 1"><circle class="cls-1" cx="74.25" cy="74.25" r="72"/><path class="cls-2" d="M115.78,69a24,24,0,0,0-9.91-11.69,24.63,24.63,0,0,0-9.74-3.38,60.82,60.82,0,0,0-7.41-.2c-1.63-.09-3.68.15-5.72-.13a7.63,7.63,0,0,1-6-6.11,7.5,7.5,0,0,1,2-6,6.86,6.86,0,0,0,1.11-7.63,7.14,7.14,0,0,0-6.93-4.54A44,44,0,0,0,31,61.08a43.67,43.67,0,0,0-1.63,15.07,44,44,0,0,0,31.73,39.66,45.44,45.44,0,0,0,15.29,1.64,46.68,46.68,0,0,0,20.18-5.71A41,41,0,0,0,113.37,95a34.66,34.66,0,0,0,4-13.46A26.57,26.57,0,0,0,115.78,69ZM63.15,37.53A6.51,6.51,0,1,1,56.65,44,6.5,6.5,0,0,1,63.15,37.53Z"/><path class="cls-3" d="M79.13,104.46a3.69,3.69,0,0,1-.55,1.19,1.56,1.56,0,0,0-.17.37,4,4,0,0,1-.44,1,4.25,4.25,0,0,1-3.27,1.84,5.48,5.48,0,0,1-.81,0,1.14,1.14,0,0,0-.37,0,14.46,14.46,0,0,1-2,.19h-.12a1.32,1.32,0,0,0-.47.13,5.66,5.66,0,0,1-2.61.61,5.76,5.76,0,0,1-5-3,2.61,2.61,0,0,1,.3-2.88,1.41,1.41,0,0,0,.23-.35l.06-.12a2.77,2.77,0,0,0,.1-.26v0c.57-2,.94-4.63,3-5.72a3.74,3.74,0,0,1,3.06-.21,1.32,1.32,0,0,0,.44.08,5.77,5.77,0,0,1,3.26,1.23l.11.07c.23.13.45.26.67.41a1.23,1.23,0,0,0,.44.19h.2l.29,0,.43.07a4.41,4.41,0,0,1,1.22.47A4.22,4.22,0,0,1,79.13,104.46Z"/><path class="cls-4" d="M48.7,85.44h0l.1,0h0Z"/><path class="cls-4" d="M57.13,92.24a8.33,8.33,0,0,0-.16-1,1.8,1.8,0,0,1,0-.73h0a4.38,4.38,0,0,0-.75-3.39,3.68,3.68,0,0,0-1-.94,1.43,1.43,0,0,1-.43-.42,5.05,5.05,0,0,0-.49-.63A3.5,3.5,0,0,0,50.68,84,4.15,4.15,0,0,0,49,85.11l-.24.27,0,0h-.25l-.55,0a11.35,11.35,0,0,0-1.16-.1,3.76,3.76,0,0,0-3.06,1.39,5.26,5.26,0,0,0-1.06,3.62,6.62,6.62,0,0,0,1.59,3.77,7.71,7.71,0,0,0,1.23,1.13,1.67,1.67,0,0,1,.23.23,5.81,5.81,0,0,0,2.2,1.61,7.83,7.83,0,0,0,5.53-.3l.2,0a4,4,0,0,0,1.8-.72A4.32,4.32,0,0,0,57.13,92.24Zm-8.35-6.82h0Zm.1-.1a.09.09,0,0,1-.08.09h0Z"/><path class="cls-5" d="M41.06,66.59h0s0,0,.09,0h0Z"/><path class="cls-5" d="M49.49,73.38a6.39,6.39,0,0,0-.16-1,1.8,1.8,0,0,1,0-.73h0a4.39,4.39,0,0,0-.75-3.38,3.77,3.77,0,0,0-1-1,1.37,1.37,0,0,1-.42-.41,3.85,3.85,0,0,0-.5-.63,3.46,3.46,0,0,0-3.56-1.18,4,4,0,0,0-1.65,1.16l-.24.26,0,0h-.24a4.93,4.93,0,0,1-.55,0c-.39,0-.78-.09-1.17-.1a3.75,3.75,0,0,0-3,1.39,5.27,5.27,0,0,0-1.06,3.62,6.64,6.64,0,0,0,1.58,3.78,8.23,8.23,0,0,0,1.24,1.13,1.58,1.58,0,0,1,.23.22,5.75,5.75,0,0,0,2.19,1.61,7.8,7.8,0,0,0,5.54-.29l.2,0a3.94,3.94,0,0,0,1.79-.72A4.28,4.28,0,0,0,49.49,73.38Zm-8.35-6.81h0Zm.11-.1s0,.07-.08.09h0C41.2,66.51,41.25,66.46,41.25,66.47Z"/><path class="cls-6" d="M111.11,83.88a3.41,3.41,0,0,1-3.24,2.63h-.2a.33.33,0,0,0-.1,0l-.4.1c-1.41.23-2.83.41-4.25.6l-.07,0A3.95,3.95,0,0,1,99.12,87l-.1,0a1.71,1.71,0,0,1-.66-.24,4.82,4.82,0,0,1-1.11-.9l0,0a2.09,2.09,0,0,1-.79-1.17l-.07-.22A5,5,0,0,1,96,82.17a0,0,0,0,0,0,0,3.86,3.86,0,0,1,1-2.7,4.9,4.9,0,0,1,1.5-1.09l.6-.29.4-.19a.34.34,0,0,0,.09-.08h0l.08-.14.06-.15a6.46,6.46,0,0,1,.72-1.71,4.77,4.77,0,0,1,6.07-1.58,5.36,5.36,0,0,1,2.24,2.51c.53,1.06,1,2.13,1.55,3.2A5.86,5.86,0,0,1,111.11,83.88Z"/><path class="cls-7" d="M87.74,99.7h0C87.67,99.37,87.77,99.47,87.74,99.7Z"/><path class="cls-7" d="M97.09,93.82a5.37,5.37,0,0,1,.37,1.63,3.87,3.87,0,0,1,1.75,1.44,3.77,3.77,0,0,1,.35,2.91,2.94,2.94,0,0,1-.82,1.24c-.21.44-.48.87-.67,1.31-.3.69-1,.51-1.59.73a5.59,5.59,0,0,0-1.18.57c-.35.24-.67.53-1,.76a4,4,0,0,1-1.84.5,3.56,3.56,0,0,1-2.41.61,3.35,3.35,0,0,1-3-3.09,4.3,4.3,0,0,1,.4-1.94c.07-.18.15-.35.22-.53,0,0,0-.12,0-.18a.32.32,0,0,0,0-.08.64.64,0,0,1,0,.07.91.91,0,0,1,0-.23c0-.21,0-.41-.07-.62-.07-.44-.17-.87-.23-1.31a5,5,0,0,1,.6-3.47A5.63,5.63,0,0,1,91.26,92a5.31,5.31,0,0,1,4.07,0A3.69,3.69,0,0,1,97.09,93.82Z"/></g></g></svg>