<svg xmlns="http://www.w3.org/2000/svg" viewBox="0 0 148.5 148.5"><defs><style>.cls-1{fill:#414042;stroke-width:4.5px;}.cls-1,.cls-5{stroke:#fff;stroke-miterlimit:10;}.cls-2{fill:#f5a5c8;}.cls-3{fill:#2babe2;}.cls-4{fill:#4e4e4f;}.cls-5{fill:none;stroke-linecap:round;stroke-width:4.58px;}</style></defs><title>Ico_Era</title><g id="Layer_2" data-name="Layer 2"><g id="Layer_1-2" data-name="Layer 1"><circle class="cls-1" cx="74.25" cy="74.25" r="72"/><path class="cls-2" d="M89.7,110.25H52.05c-.17-.19-.33-.39-.5-.57l-12.5-12.5a8.32,8.32,0,0,1,0-12.05L62.86,61.35c.16-.16.34-.31.51-.47l.43.37,37,37c.14.13.25.28.38.42-.17.19-.34.38-.52.56L90.19,109.68A1.68,1.68,0,0,0,89.7,110.25Z"/><path class="cls-3" d="M94.66,33.68a7.33,7.33,0,0,0,1.39.3A8,8,0,0,1,99.72,36Q112.85,49.17,126,62.31a8.47,8.47,0,0,1-.1,11.66q-4.66,4.69-9.36,9.35c-.15-.14-.32-.27-.47-.42L79.14,46c-.15-.15-.29-.31-.43-.47,3.2-3.2,6.37-6.42,9.59-9.59a7.56,7.56,0,0,1,4.62-2.13c.12,0,.26,0,.34-.12Z"/><path class="cls-4" d="M78.71,45.52c.14.16.28.32.43.47L116,82.9c.15.15.32.28.47.42.09.29-.06.47-.26.66q-7.16,7.15-14.33,14.31c-.19.18-.32.65-.76.37-.13-.14-.24-.29-.38-.42l-37-37-.43-.37c-.3-.35.06-.48.23-.65Q68.86,55,74.15,49.68l3.95-4C78.27,45.55,78.42,45.31,78.71,45.52Z"/><line class="cls-5" x1="22.03" y1="108.85" x2="122.77" y2="108.85"/></g></g></svg>