<svg xmlns="http://www.w3.org/2000/svg" xmlns:xlink="http://www.w3.org/1999/xlink" viewBox="0 0 148.5 148.5"><defs><style>.cls-1{fill:none;}.cls-2{fill:#414042;stroke:#fff;stroke-miterlimit:10;stroke-width:4.5px;}.cls-3{clip-path:url(#clip-path);}.cls-4{fill:#fefefe;}.cls-5{fill:#dbebf3;}.cls-6{fill:#c6d9e0;}.cls-7{fill:#afafce;}.cls-8{fill:#a4cddc;}.cls-9{fill:#a6abbd;}.cls-10{clip-path:url(#clip-path-3);}.cls-11{fill:#475eaa;}.cls-12{fill:#b6bade;}.cls-13{fill:#458cbe;}.cls-14{fill:#2c80a9;}.cls-15{fill:#2d80aa;}.cls-16{fill:#64b7d3;}.cls-17{fill:#3082ac;}.cls-18{fill:#458cbd;}.cls-19{clip-path:url(#clip-path-5);}.cls-20{fill:#e6964c;}.cls-21{fill:#f4cfab;}.cls-22{fill:#d38e32;}.cls-23{fill:#d56431;}.cls-24{fill:#a44c25;}.cls-25{fill:#ce8f5f;}.cls-26{fill:#f29d22;}.cls-27{fill:#a56637;}.cls-28{fill:#a44d25;}.cls-29{clip-path:url(#clip-path-6);}.cls-30{clip-path:url(#clip-path-7);}.cls-31{fill:#fdfcfc;}.cls-32{fill:#fdfdfd;}.cls-33{fill:#fbfbfb;}.cls-34{fill:#84827a;}.cls-35{fill:#c5c2c2;}.cls-36{fill:#67665d;}.cls-37{fill:#c7c3c3;}.cls-38{fill:#5c674d;}.cls-39{fill:#546054;}.cls-40{fill:#545f54;}.cls-41{fill:#776752;}.cls-42{fill:#776753;}.cls-43{fill:#657144;}.cls-44{fill:#657044;}.cls-45{fill:#698950;}.cls-46{fill:#617b4b;}.cls-47{fill:#5b6f45;}.cls-48{fill:#50833c;}.cls-49{fill:#13783c;}.cls-50{fill:#78a054;}</style><clipPath id="clip-path"><circle class="cls-1" cx="74.06" cy="74.25" r="45"/></clipPath><clipPath id="clip-path-3"><rect class="cls-1" x="26.43" y="44.61" width="108" height="72" transform="translate(-33.45 80.48) rotate(-45)"/></clipPath><clipPath id="clip-path-5"><rect class="cls-1" x="45.52" y="63.71" width="108" height="72" transform="translate(-41.35 99.57) rotate(-45)"/></clipPath><clipPath id="clip-path-6"><ellipse class="cls-1" cx="74.06" cy="74.16" rx="45" ry="45.09"/></clipPath><clipPath id="clip-path-7"><polygon class="cls-1" points="105.88 182.57 54.97 131.55 131.34 55.02 182.25 106.04 105.88 182.57"/></clipPath></defs><title>Asset 20</title><g id="Layer_2" data-name="Layer 2"><g id="Layer_1-2" data-name="Layer 1"><circle class="cls-2" cx="74.25" cy="74.25" r="72"/><g class="cls-3"><path class="cls-4" d="M29.11,29.29h89.8c.16,0,.2,0,.2.2V119.1c0,.16,0,.2-.2.2H29.3c-.16,0-.2,0-.2-.2Q29.12,74.19,29.11,29.29Z"/><path class="cls-5" d="M94.57,87.43a3.84,3.84,0,0,1,2.48.91,5.46,5.46,0,0,1,1,1,1.85,1.85,0,0,1,.36,1,9,9,0,0,1-.47,3.57,10.54,10.54,0,0,1-1.5,3.18,4.81,4.81,0,0,1-2.54,2,3,3,0,0,1-3.19-1,4.85,4.85,0,0,1-1-2.86,8.71,8.71,0,0,1,.76-3.86,9.62,9.62,0,0,1,1.23-2.19A4.09,4.09,0,0,1,94,87.51,2.36,2.36,0,0,1,94.57,87.43Z"/><path class="cls-5" d="M58.88,99.61a6.27,6.27,0,0,1,3.23.72,3.82,3.82,0,0,1,2.06,2.79,5.26,5.26,0,0,1-.45,3.1,5.85,5.85,0,0,1-1.37,2,3.61,3.61,0,0,1-2.58,1,3.88,3.88,0,0,1-1.81-.56,8.19,8.19,0,0,1-1.87-1.39,5.55,5.55,0,0,1-1.62-3.16,4.53,4.53,0,0,1,.85-3.45,2.44,2.44,0,0,1,1.55-.87A7.91,7.91,0,0,1,58.88,99.61Z"/><path class="cls-5" d="M68.77,79.57A10.41,10.41,0,0,1,65.15,79a3.57,3.57,0,0,1-2.56-3,3.78,3.78,0,0,1,.61-2.77A5.08,5.08,0,0,1,64.49,72a6.65,6.65,0,0,1,2.27-1.1,3.62,3.62,0,0,1,3.32.54,4.94,4.94,0,0,1,1.52,2.19,9.84,9.84,0,0,1,.69,2.66,3.75,3.75,0,0,1-.22,1.93,2,2,0,0,1-1.64,1.2A7.59,7.59,0,0,1,68.77,79.57Z"/><path class="cls-5" d="M92.06,59.44a5,5,0,0,1-3.26-1.18,17.93,17.93,0,0,1-1.89-1.69,3.79,3.79,0,0,1-1.08-1.94,2.5,2.5,0,0,1,.35-1.79,5.45,5.45,0,0,1,1.15-1.34,2.15,2.15,0,0,1,1.12-.41,9.82,9.82,0,0,1,4.77.92,8.39,8.39,0,0,1,2.24,1.36,3.37,3.37,0,0,1,1.17,1.71,2.2,2.2,0,0,1-.19,1.47,4.46,4.46,0,0,1-1.09,1.62,4.72,4.72,0,0,1-2.66,1.23A4.44,4.44,0,0,1,92.06,59.44Z"/><path class="cls-5" d="M50.06,48.27a5,5,0,0,1,.7-2.69,3.55,3.55,0,0,1,1.37-1.32A12.7,12.7,0,0,1,55.28,43a2.63,2.63,0,0,1,2.66.7,2.88,2.88,0,0,1,.79,1.9,2.81,2.81,0,0,1-.29,1.51,1.8,1.8,0,0,1-.8.79,4,4,0,0,0-1.37,1.17,5,5,0,0,1-3,1.85,3.26,3.26,0,0,1-1.49,0,2.19,2.19,0,0,1-1.56-1.7A3.1,3.1,0,0,1,50.06,48.27Z"/><path class="cls-5" d="M46.27,69.73a4.15,4.15,0,0,1-2.34-.87A6.3,6.3,0,0,1,42.16,67a2.78,2.78,0,0,1,.35-3.44,4.29,4.29,0,0,1,2.65-1.32,3.12,3.12,0,0,1,2.85.9,3.18,3.18,0,0,1,.83,2,6.48,6.48,0,0,1-.77,3.43A1.8,1.8,0,0,1,46.27,69.73Z"/><path class="cls-5" d="M75.86,41A7.34,7.34,0,0,1,73,40.42a3,3,0,0,1-.88-.48,1.8,1.8,0,0,1-.53-1.82,5.58,5.58,0,0,1,1.25-2.38,6.84,6.84,0,0,1,1.6-1.48,2.44,2.44,0,0,1,2.37-.14,3.79,3.79,0,0,1,2.1,2.73,3.47,3.47,0,0,1-.22,2.55,2.88,2.88,0,0,1-2.07,1.54A3.2,3.2,0,0,1,75.86,41Z"/><path class="cls-5" d="M106.55,73.1a6.23,6.23,0,0,1,3,.84,1.62,1.62,0,0,1,.66,1.6,5.74,5.74,0,0,1-1.4,2.75,4.47,4.47,0,0,1-1.32,1.17,2.32,2.32,0,0,1-2.41-.11,3.89,3.89,0,0,1-1.74-2.82,2.87,2.87,0,0,1,.43-2.17,2.77,2.77,0,0,1,2.06-1.21A3.89,3.89,0,0,1,106.55,73.1Z"/><path class="cls-5" d="M76.26,110a4,4,0,0,1,.5-1.62,5.33,5.33,0,0,1,1.52-1.78,2.35,2.35,0,0,1,2.59-.14,4,4,0,0,1,2.27,3.06,2.22,2.22,0,0,1-2,2.71,6.2,6.2,0,0,1-2.77-.25,5,5,0,0,1-1.13-.42A1.72,1.72,0,0,1,76.26,110Z"/><path class="cls-6" d="M86.6,73.2a2,2,0,0,1-.69-.08,1.25,1.25,0,0,1-.81-1.2,2.81,2.81,0,0,1,1.31-2.61A2,2,0,0,1,88,69a4.8,4.8,0,0,1,2.43,1.24,2,2,0,0,1,.43.62,1,1,0,0,1-.46,1.48A4.62,4.62,0,0,1,88.6,73,13.41,13.41,0,0,1,86.6,73.2Z"/><path class="cls-7" d="M36.24,77.15a3,3,0,0,1,2.3.85,2.8,2.8,0,0,1,.79,2.69,3.44,3.44,0,0,1-.29.89.77.77,0,0,1-.7.45,3,3,0,0,1-1.7-.5A8.39,8.39,0,0,1,34.7,80a1.94,1.94,0,0,1-.61-1.27,1.31,1.31,0,0,1,.67-1.2A2.51,2.51,0,0,1,36.24,77.15Z"/><path class="cls-8" d="M52.32,89.89a2.12,2.12,0,0,1-.57,1.37A6.93,6.93,0,0,1,49,93.21l-.33.1a.52.52,0,0,1-.55-.22,1.86,1.86,0,0,1-.3-.91,6.81,6.81,0,0,1,.24-2.5,6.25,6.25,0,0,1,.57-1.45,1.29,1.29,0,0,1,1.25-.79A2.27,2.27,0,0,1,51,88a7.5,7.5,0,0,1,1.09,1.23A1.09,1.09,0,0,1,52.32,89.89Z"/><path class="cls-7" d="M105.34,103.5a1.5,1.5,0,0,1,.57-1.07,2.8,2.8,0,0,1,.53-.37.33.33,0,0,0,.2-.27,2.28,2.28,0,0,1,.26-.67,1.37,1.37,0,0,1,1.56-.77,3.06,3.06,0,0,1,1.86,1.08,1.33,1.33,0,0,1,.17,1.44,3.45,3.45,0,0,1-.66,1A7.52,7.52,0,0,1,108.3,105a1.8,1.8,0,0,1-2-.08,1.76,1.76,0,0,1-.93-1.19A2.4,2.4,0,0,1,105.34,103.5Z"/><path class="cls-9" d="M76.74,96.05a6.36,6.36,0,0,1-2.36-.59,5.34,5.34,0,0,1-1.7-1.08.9.9,0,0,1,0-1.43,3.84,3.84,0,0,1,2.17-1,3.19,3.19,0,0,1,1.62.12,1.15,1.15,0,0,1,.63.54,7,7,0,0,1,.75,2,2.06,2.06,0,0,1,0,.7.83.83,0,0,1-.88.75Z"/><path class="cls-6" d="M39.67,113.9a2.33,2.33,0,0,1-1.67-.67,1.26,1.26,0,0,1-.34-1.23,2,2,0,0,1,1.41-1.58c.5-.2,1-.47,1.47-.69a2.66,2.66,0,0,1,1.07-.28.72.72,0,0,1,.74.49,3.3,3.3,0,0,1-.06,2.49,1.68,1.68,0,0,1-.75.74,4.47,4.47,0,0,1-1.38.69C40,113.89,39.84,113.87,39.67,113.9Z"/><path class="cls-9" d="M42.29,37.53a4.07,4.07,0,0,1-.52,1.93,1.09,1.09,0,0,1-1.38.44,3.63,3.63,0,0,1-1.33-.77,3.74,3.74,0,0,1-.83-.94,1.58,1.58,0,0,1,.19-1.76,2.63,2.63,0,0,1,1.83-.91,1.77,1.77,0,0,1,1.87,1A2.1,2.1,0,0,1,42.29,37.53Z"/><path class="cls-7" d="M66.48,58.47A1.26,1.26,0,0,1,66,58.4a.72.72,0,0,1-.53-1.06,4.3,4.3,0,0,1,.68-1.1,7.16,7.16,0,0,1,1.95-1.64,2,2,0,0,1,1-.3.85.85,0,0,1,.87.66,2.32,2.32,0,0,1-.06,1.33,2.8,2.8,0,0,1-.93,1.43,2.67,2.67,0,0,1-.74.36A4.63,4.63,0,0,1,66.48,58.47Z"/><path class="cls-9" d="M112.43,61.05a3.66,3.66,0,0,1-.46,1.27A5.8,5.8,0,0,1,110.75,64l-.19.15c-.57.47-1,.26-1.36-.32a3,3,0,0,1-.36-1.09,3.34,3.34,0,0,1,.11-1.6,1.19,1.19,0,0,1,.86-.87,9.57,9.57,0,0,1,1.39-.3,1.78,1.78,0,0,1,.65.07C112.28,60.15,112.44,60.37,112.43,61.05Z"/><path class="cls-7" d="M99.49,46.08a2,2,0,0,1-1.37-.66A1.17,1.17,0,0,1,98,44a3.24,3.24,0,0,1,1.79-1.36.85.85,0,0,1,1.16.59,2.85,2.85,0,0,1,.23,1.6A1.49,1.49,0,0,1,99.49,46.08Z"/><path class="cls-8" d="M114.94,39.27a1.91,1.91,0,0,1-.06.49.94.94,0,0,1-1.16.68,2.51,2.51,0,0,1-1.49-1.08,1.54,1.54,0,0,1,.55-2.13,1.28,1.28,0,0,1,1.4.25A2.23,2.23,0,0,1,114.94,39.27Z"/></g><g class="cls-3"><g class="cls-10"><path class="cls-11" d="M117.16,128.43H.16v-117a1.27,1.27,0,0,1,.61,0H116.51c.79,0,.7-.08.7.7q0,57.87,0,115.74A1.26,1.26,0,0,1,117.16,128.43Z"/><path class="cls-12" d="M117.16,128.43V12.37c0-.94,0-.94-.94-.94H.16s-.06-.11.06-.11H117.27v116.6C117.27,128.09,117.4,128.31,117.16,128.43Z"/><path class="cls-13" d="M42.78,85.92a8.52,8.52,0,1,1-8.5,8.55A8.48,8.48,0,0,1,42.78,85.92Z"/><path class="cls-13" d="M83.9,60.68a3.87,3.87,0,0,1,1.84,1.64,4.93,4.93,0,0,1-3.24,7.55,4.73,4.73,0,0,1-4.8-1.74,4.79,4.79,0,0,1-.82-4.79A4.9,4.9,0,0,1,81.5,60a3.61,3.61,0,0,1,2.18.54c-.17.37-.52.26-.8.26a1.55,1.55,0,0,0-1.51,1,1.53,1.53,0,0,0,.35,1.78,1.62,1.62,0,0,0,1.83.42,1.69,1.69,0,0,0,.68-2.61C84.06,61.23,83.7,61.07,83.9,60.68Z"/><path class="cls-14" d="M88.27,30.16a4.16,4.16,0,0,1,4.2,4.22,4.23,4.23,0,1,1-4.2-4.22Z"/><path class="cls-14" d="M93.39,81.8a4.23,4.23,0,1,1,0,8.45,4.25,4.25,0,0,1-4.24-4.2A4.19,4.19,0,0,1,93.39,81.8Z"/><path class="cls-13" d="M56.91,111.63a4.13,4.13,0,0,1,4.23,4.24,4.24,4.24,0,0,1-8.48,0A4.11,4.11,0,0,1,56.91,111.63Z"/><path class="cls-14" d="M61.62,82.05a4.23,4.23,0,0,1,0-8.46,4.23,4.23,0,1,1,0,8.46Z"/><path class="cls-14" d="M51.25,41.58a3.5,3.5,0,0,1-3.5,3.49,3.52,3.52,0,1,1,0-7A3.52,3.52,0,0,1,51.25,41.58Z"/><path class="cls-13" d="M35.51,64.59a4.91,4.91,0,0,1-4.94-4.93,5,5,0,1,1,9.94,0A4.93,4.93,0,0,1,35.51,64.59Z"/><path class="cls-13" d="M19,27.55a3.48,3.48,0,0,1-3.56,3.53A3.54,3.54,0,0,1,15.56,24,3.49,3.49,0,0,1,19,27.55Z"/><path class="cls-15" d="M100.08,58.17A2.49,2.49,0,0,1,97.6,55.6a2.53,2.53,0,0,1,5.06.09A2.5,2.5,0,0,1,100.08,58.17Z"/><path class="cls-14" d="M108.38,107a2.77,2.77,0,0,1-2.83,2.73,2.82,2.82,0,0,1,0-5.64A2.8,2.8,0,0,1,108.38,107Z"/><path class="cls-14" d="M20.6,110a2.85,2.85,0,0,1-2.8-2.81,2.79,2.79,0,0,1,2.83-2.84,2.86,2.86,0,0,1,2.82,2.81A2.91,2.91,0,0,1,20.6,110Z"/><path class="cls-14" d="M82.89,103.3a2.69,2.69,0,0,1-.5,3,2.75,2.75,0,0,1-3.07.74,2.88,2.88,0,0,1-1.82-2.53,2.79,2.79,0,0,1,3-2.88c.11.32-.18.37-.35.49a1.72,1.72,0,0,0-.85,1.46,1.62,1.62,0,0,0,1.41,1.73,1.7,1.7,0,0,0,1.85-1.2C82.63,103.81,82.51,103.43,82.89,103.3Z"/><path class="cls-13" d="M82.89,103.3a2.07,2.07,0,0,1-.7,1.78,1.83,1.83,0,0,1-2,.34,1.77,1.77,0,0,1-1.18-1.6,1.93,1.93,0,0,1,1.22-2.1,2,2,0,0,0,.25-.13A2.15,2.15,0,0,1,82.89,103.3Z"/><path class="cls-16" d="M83.9,60.68l.51.54a1.91,1.91,0,0,1-.11,2.67A2,2,0,1,1,82,60.76a1.45,1.45,0,0,1,.7-.2h1Z"/><path class="cls-13" d="M67.86,28.9a2.24,2.24,0,1,1,0,4.47,2.2,2.2,0,0,1-2.21-2.26A2.17,2.17,0,0,1,67.86,28.9Z"/><path class="cls-17" d="M18,72.11a1.66,1.66,0,0,1-1.66-1.66A1.69,1.69,0,1,1,18,72.11Z"/><path class="cls-16" d="M42.19,91a3.53,3.53,0,0,1,7.06,0,3.53,3.53,0,1,1-7.06,0Z"/><path class="cls-18" d="M89.05,32.42a1.11,1.11,0,0,1,1.17-1.23,1.26,1.26,0,0,1,1.33,1.25,1.31,1.31,0,0,1-1.27,1.27A1.26,1.26,0,0,1,89.05,32.42Z"/><path class="cls-13" d="M94.85,82.62a1.79,1.79,0,0,1,1.71,1.72A1.75,1.75,0,0,1,94.83,86a1.71,1.71,0,0,1,0-3.41Z"/><path class="cls-16" d="M58.07,116.42a2,2,0,1,1,2-2A2,2,0,0,1,58.07,116.42Z"/><path class="cls-13" d="M62.93,78.27a2,2,0,0,1-2-2,2,2,0,0,1,4,.11A2,2,0,0,1,62.93,78.27Z"/><path class="cls-16" d="M32.94,58.87a3.44,3.44,0,0,1,3.51-3.5,3.54,3.54,0,1,1-3.51,3.5Z"/><path class="cls-16" d="M17.12,25.72a1.09,1.09,0,0,1,1.09,1.09A1.22,1.22,0,0,1,17.11,28a1.14,1.14,0,1,1,0-2.27Z"/><path class="cls-18" d="M108,106.24a1.24,1.24,0,0,1-1.23,1.28,1.31,1.31,0,0,1-1.28-1.26,1.27,1.27,0,0,1,1.33-1.25A1.13,1.13,0,0,1,108,106.24Z"/><path class="cls-13" d="M21.37,105.13a1.15,1.15,0,0,1,1.22,1.2,1.28,1.28,0,0,1-1.23,1.3,1.3,1.3,0,0,1-1.31-1.29A1.27,1.27,0,0,1,21.37,105.13Z"/><path class="cls-16" d="M68.58,32.24A1.18,1.18,0,0,1,67.34,31a1.26,1.26,0,1,1,2.52.05A1.17,1.17,0,0,1,68.58,32.24Z"/></g></g><g class="cls-3"><g class="cls-19"><path class="cls-20" d="M30.81,29.82h90v90a.94.94,0,0,1-.47,0q-44.52,0-89,0c-.6,0-.54.07-.54-.54v-89A.94.94,0,0,1,30.81,29.82Z"/><path class="cls-21" d="M30.81,29.82a2.74,2.74,0,0,1,0,.7V119c0,.81,0,.81.83.81h89.14s0,.09,0,.09h-90V30.22C30.73,30.09,30.63,29.92,30.81,29.82Z"/><path class="cls-22" d="M49.66,70.69H50a.58.58,0,0,1,.56.41,6,6,0,0,1,.28,1.11,23.64,23.64,0,0,0,1.68,5.44,1.08,1.08,0,0,1-.33,1.2.36.36,0,0,1-.41,0,1.61,1.61,0,0,1-.47-.39,9.76,9.76,0,0,0-2.85-2.09A9.3,9.3,0,0,0,45,75.53a4,4,0,0,1-.9-.19,1.05,1.05,0,0,1-.55-.42A4.62,4.62,0,0,1,43,73.78a.54.54,0,0,1,0-.43c.28-.56.57-1.12.84-1.69a.49.49,0,0,1,.46-.27A24.73,24.73,0,0,0,49,70.75,2.81,2.81,0,0,1,49.66,70.69Z"/><path class="cls-23" d="M73.19,67.09a1.76,1.76,0,0,1-1-.24,3.78,3.78,0,0,1-1.22-1,1.86,1.86,0,0,1,.24-2.8A7.5,7.5,0,0,1,72.93,62c.29-.13.59-.26.89-.37s.35-.13.42.23.15.75.23,1.12a9,9,0,0,0,.84,2.35.47.47,0,0,1,0,.56,3.62,3.62,0,0,1-1,.94A1.78,1.78,0,0,1,73.19,67.09Z"/><path class="cls-24" d="M104.47,48.82a4.64,4.64,0,0,0,2.29-.2,3.84,3.84,0,0,0,1-.53,1.81,1.81,0,0,0,.74-1,1.67,1.67,0,0,1,.41-.72c.13-.13.24-.18.41,0l2.07,1.55a.39.39,0,0,1,.07.64,2.56,2.56,0,0,1-.62.56c-.72.49-1.54.82-2.3,1.26a2.16,2.16,0,0,1-2,.18,12.54,12.54,0,0,0-1.49-.39.42.42,0,0,1-.37-.36A4.32,4.32,0,0,1,104.47,48.82Z"/><path class="cls-25" d="M86.1,43.61a1,1,0,0,1-.58,1c-1,.72-2.08,1.47-3.11,2.21a1.58,1.58,0,0,1-1.38.25,1.46,1.46,0,0,1-.9-1.11c0-.21.13-.31.27-.41.44-.3.86-.61,1.31-.89a8.67,8.67,0,0,0,1.67-1.41,3.54,3.54,0,0,1,1.43-.91c.77-.25,1.27.12,1.29.93Z"/><path class="cls-25" d="M43.45,108.31l-.9,0a1.8,1.8,0,0,1-1.25-.71A21.29,21.29,0,0,1,39,104.38a4.07,4.07,0,0,1-.45-.94c-.07-.24,0-.35.26-.29a1.34,1.34,0,0,1,.44.19c.37.23.74.47,1.09.73a3.07,3.07,0,0,0,1.08.55,2,2,0,0,1,.8.44c.77.63,1.44,1.37,2.15,2.06a1.53,1.53,0,0,1,.37.54c.13.33.05.48-.29.58A4.12,4.12,0,0,1,43.45,108.31Z"/><path class="cls-25" d="M94.21,73.16c.45.1,1,.2,1.5.35a2.6,2.6,0,0,0,1.38.11.79.79,0,0,1,.43,0,21.4,21.4,0,0,1,3.27,1.39c.21.12.48.26.47.53s-.27.41-.49.51a16.5,16.5,0,0,1-1.83.64.88.88,0,0,1-.63-.12,12.7,12.7,0,0,1-2.11-1.16c-.68-.46-1.35-.94-2-1.45a2,2,0,0,1-.43-.44c-.16-.24-.09-.38.21-.4Z"/><path class="cls-26" d="M106.38,94.77h-.23c-.72,0-.71-.08-.78-.71a1.63,1.63,0,0,1,.75-1.62A4.1,4.1,0,0,1,108,91.8a7.14,7.14,0,0,1,2.26,0c.35.07.37.07.4.44a1.86,1.86,0,0,1-.88,1.66,4.73,4.73,0,0,1-2.29.79A4.14,4.14,0,0,1,106.38,94.77Z"/><path class="cls-26" d="M56.67,35.88a2.07,2.07,0,0,1,1.75,1,9.36,9.36,0,0,1,1.46,2.78c.12.36.09.41-.26.57a1.86,1.86,0,0,1-1.53,0,4.23,4.23,0,0,1-1.75-1.55,8.24,8.24,0,0,1-.91-1.74c-.15-.4-.09-.55.26-.77A1.75,1.75,0,0,1,56.67,35.88Z"/><path class="cls-27" d="M71.68,96.58c-.59.06-1.15.15-1.72.18a18.6,18.6,0,0,0-2.55.43,1.35,1.35,0,0,1-1.55-.59,3.66,3.66,0,0,1-.45-.79.84.84,0,0,1,.27-1,1.55,1.55,0,0,1,.87-.38,10.14,10.14,0,0,1,2.06,0,1.79,1.79,0,0,1,.7.25,26.93,26.93,0,0,1,2.23,1.62A.29.29,0,0,1,71.68,96.58Z"/><path class="cls-28" d="M86.09,109.1a6.23,6.23,0,0,0-.83.06c-.08,0-.19,0-.22-.09a.17.17,0,0,1,.09-.19A5.42,5.42,0,0,1,87,108c.57-.14,1.12-.32,1.68-.48l.3-.09a.34.34,0,0,1,.43.31.9.9,0,0,1-.1.51,6,6,0,0,1-1.14,1.5,1.61,1.61,0,0,1-.79.34c-.14,0-.24,0-.22-.18s.12-.41,0-.58a.88.88,0,0,0-.7-.18Z"/><path class="cls-28" d="M41.35,51.94a4.65,4.65,0,0,0,.16,1c0,.14.11.32,0,.4s-.23-.09-.31-.19a5.14,5.14,0,0,1-1.06-1.64c-.18-.53-.45-1-.67-1.53a1.27,1.27,0,0,1-.13-.32.35.35,0,0,1,.32-.4,1.09,1.09,0,0,1,.56.09,6.53,6.53,0,0,1,1.52.86,1.69,1.69,0,0,1,.47.78c.05.14,0,.23-.16.23l-.13,0c-.37,0-.5.11-.52.49A2.26,2.26,0,0,0,41.35,51.94Z"/><path class="cls-25" d="M111.85,111.17c.1.45-.23.72-.6,1-.19.13-.3.1-.44-.09a1.43,1.43,0,0,1-.19-.44c-.06-.17-.1-.34-.16-.5a.85.85,0,0,1,.26-1.1.82.82,0,0,0,.24-.36c.07-.13.14-.27.32-.25s.23.17.28.31A4.05,4.05,0,0,1,111.85,111.17Z"/></g></g><g class="cls-29"><g class="cls-30"><path class="cls-31" d="M37.22,112.19V34.43h.44a.88.88,0,0,1,.12.63V49.21a3.64,3.64,0,0,1,0,.74,2.35,2.35,0,0,0-.06.79V69.88a4.07,4.07,0,0,1,0,.78,2.61,2.61,0,0,0,0,.79q0,9.61,0,19.22a4.15,4.15,0,0,1,0,.79,2.57,2.57,0,0,0,0,.78v19.12a2.72,2.72,0,0,1,0,.7.28.28,0,0,1-.1.14A.15.15,0,0,1,37.22,112.19Z"/><path class="cls-32" d="M118.83,124.65H37.22v-.44a.38.38,0,0,1,.15-.09,1.26,1.26,0,0,1,.39,0q4.16,0,8.32,0a1.56,1.56,0,0,1,.43,0,2.61,2.61,0,0,0,.79,0H66.43a4.18,4.18,0,0,1,.79,0,2.27,2.27,0,0,0,.78.06H87.14a4.18,4.18,0,0,1,.79,0,2.27,2.27,0,0,0,.78.06h19.05a4.07,4.07,0,0,1,.78,0,2.07,2.07,0,0,0,.7.05h8.89a1.43,1.43,0,0,1,.65.06A.11.11,0,0,1,118.83,124.65Z"/><path class="cls-32" d="M53.28,34.43h74v.44a.55.55,0,0,1-.14.09,7.32,7.32,0,0,1-1.48,0,2,2,0,0,0-.65-.05H105.72a4.58,4.58,0,0,1-.74,0,2.34,2.34,0,0,0-.7-.06H85.1a6,6,0,0,1-.74,0,2.06,2.06,0,0,0-.7-.07H64.39a6.1,6.1,0,0,1-.74,0,2.06,2.06,0,0,0-.7-.07H54a1.39,1.39,0,0,1-.64-.06A.11.11,0,0,1,53.28,34.43Z"/><path class="cls-33" d="M127.26,43.73v80.92h-.44a.33.33,0,0,1,0-.16c0-2.7,0-5.4,0-8.1V106.8a3.77,3.77,0,0,1,0-.75,2.27,2.27,0,0,0,.06-.78V86a4.07,4.07,0,0,1,0-.78,2.61,2.61,0,0,0,0-.79q0-9.57,0-19.14a4.07,4.07,0,0,1,0-.78,2.61,2.61,0,0,0,.05-.79q0-9.6,0-19.21a1.68,1.68,0,0,1,.06-.74A.16.16,0,0,1,127.26,43.73Z"/><path class="cls-34" d="M37.31,112.19h.06l.07.06a.77.77,0,0,1,.07.42c0,3.24,0,6.48,0,9.72a1,1,0,0,1,0,.17.23.23,0,0,1-.11.11.19.19,0,0,1-.15,0v-.09a.94.94,0,0,0,0-.47v-9.41A.85.85,0,0,1,37.31,112.19Z"/><path class="cls-35" d="M37.31,112.19c0,3.29,0,6.57,0,9.86,0,.16.08.35-.08.49V112.19Z"/><path class="cls-36" d="M37.66,39.61V34.43h5.26a.13.13,0,0,1-.07.14,1.27,1.27,0,0,1-.64.09H38.55a1.15,1.15,0,0,0-.55.07c-.18.14-.13.34-.13.53,0,1.38,0,2.77,0,4.15a.3.3,0,0,1-.05.16A.11.11,0,0,1,37.66,39.61Z"/><path class="cls-37" d="M42.93,34.51v-.08H53.28a.22.22,0,0,0,0,.08.28.28,0,0,1-.14.1,1.82,1.82,0,0,1-.52,0h-9a1.36,1.36,0,0,1-.6-.06Z"/><path class="cls-35" d="M127.26,43.73h-.08l-.06-.06a.77.77,0,0,1-.07-.42c0-2.64,0-5.29,0-7.93a1,1,0,0,1,0-.3.38.38,0,0,1,.09-.15h.09Z"/><path class="cls-37" d="M126.82,124.57a.22.22,0,0,1,0,.08h-8v-.1a.63.63,0,0,1,.46-.11h7.09A.51.51,0,0,1,126.82,124.57Z"/><path class="cls-36" d="M37.22,122.63h.09a2.18,2.18,0,0,1,0,1.55l-.09,0Z"/><path class="cls-38" d="M37.46,91.46c0-.13,0-.26,0-.39l0-19.89c0-.17-.07-.35.06-.51l.06.06a1.51,1.51,0,0,1,.07.7c0,3.2,0,6.4,0,9.6s0,6.63,0,10a1.2,1.2,0,0,1-.05.38.25.25,0,0,1-.12.13Z"/><path class="cls-38" d="M37.56,70.67c0-2.06,0-4.12,0-6.18q0-7.06,0-14.12c0-.14-.05-.29,0-.42l.06.06a1.36,1.36,0,0,1,.08.69c0,3.17,0,6.35,0,9.53s0,6.61,0,9.92a1,1,0,0,1-.08.47.12.12,0,0,1-.14.06Z"/><path class="cls-38" d="M37.37,112.18q0-3.87,0-7.76l0-12.58c0-.13,0-.27.05-.38l0,0c.17.2.11.45.11.67,0,3.23,0,6.45,0,9.67s0,6.56,0,9.84a1,1,0,0,1-.06.43.15.15,0,0,1-.14.09h-.05Z"/><path class="cls-38" d="M37.66,39.61h.07c.18.16.15.37.15.57q0,4.6,0,9.21a1.15,1.15,0,0,1-.07.52.12.12,0,0,1-.15.06l0,0V40.09C37.64,39.93,37.66,39.77,37.66,39.61Z"/><path class="cls-39" d="M126.82,124.57h-8a1.47,1.47,0,0,0-.47,0H109a.77.77,0,0,1-.47,0l.07-.06a1.61,1.61,0,0,1,.69-.06c3.2,0,6.39,0,9.59,0,2.33,0,4.67,0,7,0a1.44,1.44,0,0,0,.65-.07c.19-.16.13-.38.13-.57v-6.61a1.52,1.52,0,0,1,.06-.6l0-.07h.08c0,2.63,0,5.26,0,7.88C126.89,124.38,126.91,124.49,126.82,124.57Z"/><path class="cls-40" d="M67.22,124.3c-2.6,0-5.19,0-7.79,0-4.18,0-8.35,0-12.53,0-.13,0-.26,0-.38-.05l.06-.06a1.62,1.62,0,0,1,.69-.06c3.2,0,6.4,0,9.6,0h9.85a1,1,0,0,1,.39.05.33.33,0,0,1,.14.1Z"/><path class="cls-39" d="M87.93,124.4H84.56c-2.06,0-4.12,0-6.18,0-3.59-.06-7.18,0-10.77,0-.13,0-.26,0-.39,0l0,0c.21-.16.45-.1.68-.11,3.22,0,6.44,0,9.65,0h9.87a1,1,0,0,1,.39,0,.28.28,0,0,1,.13.11Z"/><path class="cls-40" d="M108.56,124.47c-3.33,0-6.66,0-10,0s-6.84,0-10.25,0a.85.85,0,0,1-.39,0l0,0a1,1,0,0,1,.67-.11c3.2,0,6.39,0,9.58,0s6.58,0,9.87,0a.88.88,0,0,1,.42.08.14.14,0,0,1,.09.14Z"/><path class="cls-40" d="M37.31,124.19v-1.55h.07c.2.18.14.43.15.66,0,.69,0,.69.72.69h7.52a1.81,1.81,0,0,1,.69.07.13.13,0,0,1,.07.14v0H37.7Z"/><path class="cls-41" d="M115.23,34.78h9.92a.87.87,0,0,1,.55.07.28.28,0,0,1-.14.1,2,2,0,0,1-.65,0H116a1.53,1.53,0,0,1-.73-.08A.13.13,0,0,1,115.23,34.78Z"/><path class="cls-42" d="M94.52,34.69h10c.17,0,.35-.06.51.07a.33.33,0,0,1-.14.1,2.06,2.06,0,0,1-.65.05H95.3a1.5,1.5,0,0,1-.73-.08A.12.12,0,0,1,94.52,34.69Z"/><path class="cls-41" d="M73.9,34.61H84a.63.63,0,0,1,.38.07.36.36,0,0,1-.14.11,2.1,2.1,0,0,1-.61.05h-9a1.64,1.64,0,0,1-.69-.08A.12.12,0,0,1,73.9,34.61Z"/><path class="cls-42" d="M53.19,34.54l.09,0h9.88c.16,0,.35-.05.5.07a.3.3,0,0,1-.14.11,2,2,0,0,1-.6,0h-9a1.59,1.59,0,0,1-.65-.07A.12.12,0,0,1,53.19,34.54Z"/><path class="cls-43" d="M104.88,34.79l.12,0h9.75a1.55,1.55,0,0,1,.48,0v.09a.76.76,0,0,1-.58.14q-4.59,0-9.18,0C105.26,35,105,35.09,104.88,34.79Z"/><path class="cls-43" d="M63.55,34.62l.11,0h9.76a1.3,1.3,0,0,1,.48,0v.08a.7.7,0,0,1-.57.15H64.15C63.93,34.83,63.67,34.91,63.55,34.62Z"/><path class="cls-43" d="M84.27,34.71l.1,0h9.8l.35,0v.09a.62.62,0,0,1-.49.14H84.73C84.56,34.92,84.34,35,84.27,34.71Z"/><path class="cls-44" d="M125.6,34.88l.1,0a10.3,10.3,0,0,1,1.47,0l0,.09a.3.3,0,0,1-.13.09,5,5,0,0,1-1.09,0C125.8,35.07,125.63,35.09,125.6,34.88Z"/><path class="cls-38" d="M127,85.26v7.8q0,6.28,0,12.57c0,.14.06.3-.06.42l-.06-.06a1.49,1.49,0,0,1-.07-.69c0-3.2,0-6.41,0-9.61s0-6.63,0-10a1,1,0,0,1,0-.39.28.28,0,0,1,.11-.13Z"/><path class="cls-38" d="M127.18,43.73c0,.15,0,.29,0,.44q0,9.93,0,19.86c0,.17.06.35-.07.5l-.06-.06a1.61,1.61,0,0,1-.06-.69c0-3.2,0-6.4,0-9.6s0-6.62,0-9.93a.91.91,0,0,1,.07-.43.13.13,0,0,1,.14-.08Z"/><path class="cls-38" d="M127.08,64.53c0,.16,0,.33,0,.49,0,3.11,0,6.22,0,9.34,0,3.51,0,7,0,10.52,0,.13,0,.27,0,.38l0,0a.94.94,0,0,1-.12-.67c0-3.23,0-6.45,0-9.67s0-6.59,0-9.88a.92.92,0,0,1,.08-.43.12.12,0,0,1,.14-.06Z"/><path class="cls-38" d="M126.88,116.4h0c-.18-.16-.15-.38-.15-.58q0-4.62,0-9.25a1.08,1.08,0,0,1,.07-.47.13.13,0,0,1,.15-.07v0c0,3.36,0,6.73,0,10.09A2.34,2.34,0,0,1,126.88,116.4Z"/><path class="cls-45" d="M126.82,106.05v10.13a1.7,1.7,0,0,0,0,.22h0a1,1,0,0,0,0,.48V124a1,1,0,0,1,0,.47h-7.82a.94.94,0,0,0-.47,0H109a1.12,1.12,0,0,1-.48,0H98.2a1.12,1.12,0,0,0-.48,0H88.41a1.23,1.23,0,0,1-.47,0H77.58a1.08,1.08,0,0,0-.47,0H67.7a1.06,1.06,0,0,1-.47,0H56.86a1.12,1.12,0,0,0-.48,0H47a.94.94,0,0,1-.47,0H37.94c-.58,0-.55,0-.55-.53,0-.32,0-.64,0-1,0,0,0-.06,0-.09a1.11,1.11,0,0,0,0-.48v-9.4a1,1,0,0,1,0-.48v-9.79c0-.19,0-.38,0-.57a1.06,1.06,0,0,0,0-.47c0-3.13,0-6.27,0-9.41a1.07,1.07,0,0,1,0-.47c0-3.28,0-6.56,0-9.83,0-.21,0-.41,0-.62a1.06,1.06,0,0,0,0-.47v-9.4a1.12,1.12,0,0,1,0-.48q0-4.94,0-9.88v-.57a1.06,1.06,0,0,0,0-.47V50.44a1.11,1.11,0,0,1,0-.48q0-5.18,0-10.35l0-.09a4.53,4.53,0,0,0,0-1V35a.75.75,0,0,1,0-.42l5.1,0h0a.84.84,0,0,0,.47,0h9.33a1.06,1.06,0,0,1,.47,0H63.55c.09.1.21.08.33.08H84.27c.07.09.18.07.28.07h20.33c.09.11.21.08.33.08H125.6c.09.11.21.08.32.08h1.16a.51.51,0,0,1,0,.3v8.18a.52.52,0,0,1,0,.3v9.88c0,.19,0,.38,0,.57a1.06,1.06,0,0,0,0,.47c0,3.13,0,6.27,0,9.4a1.12,1.12,0,0,1,0,.48q0,4.89,0,9.79v.56a1,1,0,0,0,0,.48v9.4a1.11,1.11,0,0,1,0,.48c0,3.28,0,6.55,0,9.83v.61a1.12,1.12,0,0,0,0,.48v9.4A1,1,0,0,1,126.82,106.05Z"/><path class="cls-46" d="M37.48,112.18v10c0,.13,0,.27-.08.37,0-3.37,0-6.73,0-10.1a2.6,2.6,0,0,1,0-.26Z"/><path class="cls-46" d="M37.83,34.53v4.53c0,.16.06.33-.08.46,0-1.55,0-3.09,0-4.63C37.75,34.76,37.7,34.62,37.83,34.53Z"/><path class="cls-43" d="M53.19,34.6H43.28c-.12,0-.26,0-.36-.09h9.75l.52,0Z"/><path class="cls-46" d="M127.08,43.74V35h.07c0,.63,0,1.25,0,1.88v6.38c0,.17,0,.35,0,.52Z"/><path class="cls-46" d="M37.65,70.67v10c0,.12.05.26-.07.36V70.68Z"/><path class="cls-46" d="M37.56,91.47c0,3.33,0,6.66,0,10,0,.12,0,.26-.08.36V91.48Z"/><path class="cls-46" d="M37.74,50V59.9c0,.11,0,.24-.08.32V50Z"/><path class="cls-47" d="M108.56,124.39h10c.11,0,.24,0,.32.09H108.58A.25.25,0,0,1,108.56,124.39Z"/><path class="cls-46" d="M126.73,124.47V116.9c0-.16-.07-.35.08-.5q0,3.85,0,7.71C126.82,124.23,126.86,124.37,126.73,124.47Z"/><path class="cls-47" d="M46.52,124.12h10c.13,0,.27,0,.37.08H46.53S46.52,124.15,46.52,124.12Z"/><path class="cls-47" d="M67.23,124.21h10c.11,0,.23,0,.32.08H67.24A.15.15,0,0,1,67.23,124.21Z"/><path class="cls-47" d="M87.94,124.31h9.84c.14,0,.3-.06.42.08H88A.13.13,0,0,1,87.94,124.31Z"/><path class="cls-46" d="M126.91,85.25v-10c0-.12,0-.26.08-.37V85.24Z"/><path class="cls-46" d="M126.82,106.05v-10c0-.12,0-.26.08-.37V106Z"/><path class="cls-46" d="M127,64.54q0-5,0-10c0-.12,0-.26.08-.36V64.53Z"/><path class="cls-48" d="M85.31,51.41a4.63,4.63,0,0,1,.21-.81c.14-.45.13-.45-.25-.75a2.66,2.66,0,0,1-.75-.85c-.19-.35-.11-.57.26-.72A3.62,3.62,0,0,1,85.84,48a.67.67,0,0,0,.63-.39,5.76,5.76,0,0,1,1-1.34c.26-.25.33-.24.52.07s.31.79.49,1.17.12.29.43.25a4.19,4.19,0,0,1,1.12,0c.42.06.55.28.34.65s-.54.91-.84,1.34a.47.47,0,0,0-.08.47c.15.46.27.92.41,1.38a2.3,2.3,0,0,1,.05.69c0,.19-.12.23-.27.19a.84.84,0,0,1-.2-.08,15.93,15.93,0,0,1-1.58-.84.55.55,0,0,0-.58,0,6.89,6.89,0,0,1-1.24.4,1.17,1.17,0,0,1-.26,0C85.39,52,85.31,51.89,85.31,51.41Z"/><path class="cls-49" d="M107.77,85.7v-.39c0-.51,0-.54-.53-.58a3.28,3.28,0,0,1-.69-.1c-.45-.12-.5-.21-.23-.58s.61-.82.93-1.21a1.09,1.09,0,0,0,.27-.62,1.87,1.87,0,0,1,.31-.9.45.45,0,0,1,.56-.2c.34.11.67.21,1,.33a.79.79,0,0,0,.46.06,4.42,4.42,0,0,1,1.31,0c.46,0,.53.19.39.64-.09.25-.16.51-.27.74a.53.53,0,0,0,.06.61,2.17,2.17,0,0,1,.36.79c.11.43,0,.59-.41.72a5.53,5.53,0,0,1-.81.16.89.89,0,0,0-.57.28,11.57,11.57,0,0,1-1.15,1.07,2.92,2.92,0,0,1-.37.24c-.36.16-.56.06-.61-.34,0-.23,0-.47,0-.7Z"/><path class="cls-50" d="M93.28,114.75a.67.67,0,0,0-.07.49,4.58,4.58,0,0,1-.1,1,1.4,1.4,0,0,1-.09.29c-.07.15-.17.31-.33.32s-.25-.18-.32-.32a14.23,14.23,0,0,1-.63-1.91.73.73,0,0,0-.56-.57,5.86,5.86,0,0,1-1.5-.59l-.19-.11c-.11-.07-.23-.15-.22-.3s.16-.22.28-.25a5.9,5.9,0,0,1,1.11-.22c.39,0,.42-.08.44-.48a5.42,5.42,0,0,1,.08-1.39c0-.15,0-.34.22-.39a.53.53,0,0,1,.55.19,3,3,0,0,1,.34.51c.18.32.17.32.5.2a3.06,3.06,0,0,1,.93-.25c.56,0,.85.17.66.77a.32.32,0,0,1,0,.09,1.41,1.41,0,0,0,0,1.47,7.5,7.5,0,0,1,.3,1,1.57,1.57,0,0,1,0,.3c0,.33-.06.39-.37.41a2.21,2.21,0,0,1-.81-.16Z"/><path class="cls-48" d="M75.06,68.41a1.66,1.66,0,0,0,.06-.21.54.54,0,0,0-.23-.56,9.55,9.55,0,0,1-1-.94c-.28-.3-.22-.48.18-.58a8.58,8.58,0,0,1,1-.18c.22,0,.31-.13.3-.34v-.44a1.33,1.33,0,0,1,.07-.43c.17-.48.36-.53.75-.22a7.3,7.3,0,0,1,.87.8.54.54,0,0,0,.59.17c.24-.08.49-.07.73-.14a2.16,2.16,0,0,1,.94.09c.17,0,.2.17.08.35a4,4,0,0,1-.61.79,1.41,1.41,0,0,0-.39,1.65,1.21,1.21,0,0,1,0,.73c-.11.33-.11.33-.43.24a2.58,2.58,0,0,1-.68-.29.56.56,0,0,0-.78.07,2.53,2.53,0,0,1-.78.48c-.36.16-.56,0-.61-.35A2.32,2.32,0,0,0,75.06,68.41Z"/><path class="cls-48" d="M59.33,96a3.29,3.29,0,0,1,.33-.81.77.77,0,0,0,0-.89,3.56,3.56,0,0,1-.41-1.1c-.07-.32,0-.38.36-.37a5.16,5.16,0,0,1,1,.22.29.29,0,0,0,.4-.2c.06-.13.13-.26.2-.39a1.17,1.17,0,0,1,.44-.47c.24-.16.34-.13.49.13a6.23,6.23,0,0,1,.49,1.12.7.7,0,0,0,.61.53,4.19,4.19,0,0,1,1.23.43c.07,0,.16.09.22.14s.15.22,0,.34a8.68,8.68,0,0,1-1.51.79.37.37,0,0,0-.28.3c0,.21-.11.42-.16.63a1.91,1.91,0,0,1-.35.75c-.17.21-.3.24-.5.06a3.35,3.35,0,0,1-.61-.69.34.34,0,0,0-.46-.16,2.4,2.4,0,0,1-1,.17C59.46,96.54,59.33,96.4,59.33,96Z"/><path class="cls-50" d="M44.37,109.9a4.12,4.12,0,0,1-1.21-.09c-.13,0-.28,0-.31-.2s.09-.21.17-.29a3.26,3.26,0,0,1,.92-.58c.29-.15.31-.17.17-.47a5.58,5.58,0,0,1-.37-1.16c-.05-.2-.13-.46.07-.62s.44,0,.65.11a.67.67,0,0,1,.14.11c.4.31.4.31.8,0a2.45,2.45,0,0,1,.71-.43.45.45,0,0,1,.67.43.81.81,0,0,1,0,.22,1.24,1.24,0,0,0,.48,1.15,3.39,3.39,0,0,1,.73,1c.14.3.09.4-.23.51s-.43,0-.64.12-.27.11-.2.32.17.56.26.84a1.43,1.43,0,0,1,0,.65c0,.27-.22.34-.43.16a7.43,7.43,0,0,1-.87-1c-.19-.22-.33-.47-.54-.68a.36.36,0,0,0-.38-.13A3.2,3.2,0,0,1,44.37,109.9Z"/><path class="cls-48" d="M118.18,111.83c-.7,0-.7,0-.92.65a1.39,1.39,0,0,1-.36.54c-.13.14-.23.12-.36,0a4.36,4.36,0,0,1-.55-.73c-.45-.67-.44-.67-1.24-.71a2.11,2.11,0,0,1-.92-.22c-.27-.13-.29-.26,0-.45a9.79,9.79,0,0,1,1.14-.87.47.47,0,0,0,.23-.43,4.49,4.49,0,0,1,.19-1.2c.13-.38.29-.43.61-.18a3.65,3.65,0,0,1,.57.47.32.32,0,0,0,.46.08,3,3,0,0,1,.86-.31c.44-.09.55,0,.56.46a4.52,4.52,0,0,1-.2,1,.44.44,0,0,0,.08.4c.21.29.4.61.58.92a1.15,1.15,0,0,1,.14.32c0,.21,0,.29-.25.3S118.37,111.83,118.18,111.83Z"/><path class="cls-49" d="M56.59,115.79a1.06,1.06,0,0,0-1.31.35.62.62,0,0,1-.27.13c-.29.1-.44,0-.56-.24a2.41,2.41,0,0,1-.08-.25,1.55,1.55,0,0,0-.9-1,2.77,2.77,0,0,1-.78-.63c-.32-.34-.27-.53.19-.66a7.21,7.21,0,0,1,.9-.19c.22,0,.31-.08.23-.32a2.62,2.62,0,0,1,0-.79c0-.29.11-.33.4-.24a9.29,9.29,0,0,1,1.15.54.79.79,0,0,0,.62.11,1,1,0,0,1,.6.07c.38.14.48.27.35.66a2.18,2.18,0,0,0,0,1.49,1.52,1.52,0,0,1,.11.6c0,.36,0,.41-.41.41Z"/><path class="cls-49" d="M57.72,44c-.81,0-.88-.07-.84-.77a1,1,0,0,1,0-.3.81.81,0,0,0-.12-.71,4.44,4.44,0,0,1-.5-1.11.8.8,0,0,1-.05-.34c0-.22.09-.3.29-.28a3.38,3.38,0,0,1,.88.24c.43.17.43.17.6-.25a4,4,0,0,1,.27-.55c.16-.26.25-.27.47-.06a3.91,3.91,0,0,1,.53.75,1.78,1.78,0,0,0,.87.82.89.89,0,0,1,.34.27c.24.26.27.35,0,.63a4.17,4.17,0,0,0-.8,1.67c-.24.85-.54.71-1,.3A1.06,1.06,0,0,0,57.72,44Z"/><path class="cls-49" d="M80.05,77.52a4,4,0,0,1-.76-.25.72.72,0,0,0-.54,0,10.88,10.88,0,0,1-1.1.25.82.82,0,0,1-.31,0c-.38,0-.49-.18-.35-.53a4.17,4.17,0,0,1,.46-.79c.14-.21.19-.29-.08-.45a3.27,3.27,0,0,1-.51-.41c-.27-.24-.25-.4.08-.53l1.14-.44a.79.79,0,0,0,.48-.36,1.07,1.07,0,0,1,.2-.23c.39-.36.58-.35.95,0a3.76,3.76,0,0,1,.25.31,1.5,1.5,0,0,0,.62.52,2.55,2.55,0,0,1,.81.52c.18.18.18.25,0,.44a3.2,3.2,0,0,1-.61.49.45.45,0,0,0-.22.44,3,3,0,0,1,0,.52A.51.51,0,0,1,80.05,77.52Z"/><path class="cls-49" d="M103.65,118.56a1.88,1.88,0,0,1,.07-.53c0-.18,0-.29-.23-.34a4.47,4.47,0,0,1-.81-.16c-.23-.09-.34-.2-.12-.44s.48-.63.75-.91a1.21,1.21,0,0,0,.32-.65,1.21,1.21,0,0,1,.16-.45c.18-.26.36-.35.64-.21a5.12,5.12,0,0,0,1.74.33c.8.09.85.08.5.86a3.88,3.88,0,0,1-.15.36.35.35,0,0,0,0,.41,1.39,1.39,0,0,1,.24.74.35.35,0,0,1-.31.44,6.88,6.88,0,0,1-.77.13.71.71,0,0,0-.5.23,4.34,4.34,0,0,1-.78.7s0,0-.07.05-.36.26-.56.19-.17-.35-.17-.55Z"/><path class="cls-48" d="M84.37,103.51c0-.13-.07-.15-.14-.2a1.79,1.79,0,0,1-.66-.62c-.14-.25-.09-.43.18-.49a6.88,6.88,0,0,1,.9-.2.7.7,0,0,0,.65-.48,2.87,2.87,0,0,1,.43-.81c.07-.08.12-.17.19-.24s.28-.14.38,0a4,4,0,0,1,.23.57s0,.08,0,.13a1.4,1.4,0,0,0,1,1.26c.22.06.35.26.51.41s.1.24,0,.36a1.82,1.82,0,0,1-.6.35.45.45,0,0,0-.31.51,2.09,2.09,0,0,1-.09.86c-.12.29-.26.36-.54.22a2.83,2.83,0,0,1-.51-.34.75.75,0,0,0-.76-.16,6.65,6.65,0,0,1-1,.19c-.28.05-.4-.09-.32-.38a3.34,3.34,0,0,1,.31-.73C84.29,103.68,84.34,103.59,84.37,103.51Z"/><path class="cls-50" d="M85.19,44.25c0,.09-.06.13-.1.19a1.27,1.27,0,0,1-.44.28c-.36.19-.35.19-.11.49l.38.48a1.62,1.62,0,0,1,.17.35c.06.16.1.34,0,.46s-.27,0-.4-.06a7.8,7.8,0,0,1-1.28-.75.52.52,0,0,0-.56-.07,6.76,6.76,0,0,1-1,.42c-.25.06-.57.17-.7,0s.11-.45.26-.64c.53-.63.53-.62,0-1.25a2.8,2.8,0,0,1-.44-.64c-.12-.26-.09-.3.19-.4a1,1,0,0,1,.64.09c.35.09.36.1.51-.23a1.88,1.88,0,0,1,.52-.69.36.36,0,0,1,.59.07,1.09,1.09,0,0,1,.23.47.56.56,0,0,0,.36.44c.35.18.68.39,1,.59A.61.61,0,0,1,85.19,44.25Z"/><path class="cls-48" d="M119.44,48.74l-.18.77c-.08.36-.09.36.25.53a1.86,1.86,0,0,1,.47.32c.25.28.24.4-.09.56a4.26,4.26,0,0,1-.75.35.66.66,0,0,0-.49.55,3.33,3.33,0,0,1-.42,1c-.15.27-.28.27-.42,0s-.35-.68-.51-1a.6.6,0,0,0-.5-.37,1.83,1.83,0,0,1-.92-.35c-.2-.16-.2-.24,0-.44s.37-.28.54-.45a.4.4,0,0,0,.13-.46,1.89,1.89,0,0,1-.13-.78c0-.32.18-.43.5-.33a1.33,1.33,0,0,1,.45.15.9.9,0,0,0,1.06,0,2.79,2.79,0,0,1,.74-.24C119.37,48.5,119.46,48.57,119.44,48.74Z"/><path class="cls-48" d="M45.91,46a.57.57,0,0,1,.39.18,1.35,1.35,0,0,0,1.51.28c.19,0,.45-.11.58,0s0,.39-.09.57-.27.39-.25.6.32.27.46.44.3.27.25.48-.29.23-.47.28a2.13,2.13,0,0,1-.55.1.59.59,0,0,0-.58.37,6.78,6.78,0,0,1-.52.86c-.18.26-.35.23-.46-.07s-.2-.64-.27-1a.65.65,0,0,0-.41-.53,3,3,0,0,1-.68-.38c-.28-.22-.27-.38,0-.55l0,0a.9.9,0,0,0,.67-1.1.75.75,0,0,1,.14-.45A.23.23,0,0,1,45.91,46Z"/><path class="cls-50" d="M54.36,55.32a6.33,6.33,0,0,1,.94.61.81.81,0,0,1,.18.19c.12.23.07.33-.18.34a3.61,3.61,0,0,1-1.46-.19.56.56,0,0,0-.69.18,4,4,0,0,1-.78.7c-.08,0-.15.1-.23.13-.25.12-.35,0-.36-.22A1.4,1.4,0,0,1,52,56.4c.21-.38.2-.39-.17-.59s-.58-.34-.86-.53-.26-.43.08-.57a1.89,1.89,0,0,1,.34-.09c.38,0,.37,0,.47-.44a1.91,1.91,0,0,1,.17-.62c.17-.27.21-.3.48-.17a.79.79,0,0,1,.44.34c.1.21.28.25.5.29a4.58,4.58,0,0,1,1.15.22c.32.15.38.29.15.55A2,2,0,0,0,54.36,55.32Z"/><path class="cls-50" d="M107.13,92.93a5.59,5.59,0,0,1,.89.33,1.05,1.05,0,0,1,.25.18c.11.15.08.27-.11.31a1.5,1.5,0,0,1-.56.09c-.32,0-.63.11-.95.09-.14,0-.2.1-.25.21a6.74,6.74,0,0,1-.58.82,1.09,1.09,0,0,1-.25.23c-.13.09-.24,0-.25-.11s0-.53,0-.79,0-.34-.29-.39a2.71,2.71,0,0,1-.91-.3c-.23-.14-.23-.21-.05-.4a.87.87,0,0,1,.51-.22c.2,0,.24-.15.18-.31a1.19,1.19,0,0,1,0-.81.28.28,0,0,1,.38-.19.45.45,0,0,1,.12.06c.39.38.87.27,1.34.27.16,0,.32,0,.48,0s.32.11.25.4S107.14,92.72,107.13,92.93Z"/><path class="cls-48" d="M49.2,82.5a.21.21,0,0,1-.22-.15,1.72,1.72,0,0,1-.16-.45.36.36,0,0,0-.38-.34,1.42,1.42,0,0,1-.5-.13c-.25-.11-.33-.31-.13-.47a1.48,1.48,0,0,0,.57-1.42s0-.05,0-.08c.12-.51.14-.51.57-.22l.15.1c.34.23.34.23.65,0a1.88,1.88,0,0,1,.18-.12c.32-.18.5-.08.52.28,0,.2,0,.41,0,.61a.48.48,0,0,0,.25.51,2.54,2.54,0,0,1,.61.57c.17.19.1.38-.15.38s-.57.11-.86.1a.46.46,0,0,0-.46.26,1.64,1.64,0,0,1-.42.45A1.05,1.05,0,0,1,49.2,82.5Z"/><path class="cls-50" d="M119.66,72.39a.62.62,0,0,1-.22-.41c-.15-.64-.27-.71-.92-.57a.72.72,0,0,1-.46,0c-.2-.09-.24-.2-.14-.37s0-.08.09-.1c.39-.23.37-.52.14-.85a.67.67,0,0,1-.08-.25c-.07-.29.14-.55.4-.44a1.14,1.14,0,0,0,1.09-.17,2.14,2.14,0,0,1,.53-.2c.29-.06.41.06.41.35a.52.52,0,0,1,0,.18c-.09.21,0,.25.2.25h.62a.44.44,0,0,1,.29.08c.15.12.15.25,0,.34s-.65.34-1,.5a.56.56,0,0,0-.4.46A5.3,5.3,0,0,1,120,72,.54.54,0,0,1,119.66,72.39Z"/><path class="cls-49" d="M100.36,48.67a.25.25,0,0,1-.17.21,1.21,1.21,0,0,0-.84.88c-.08.24-.23.25-.46.15,0,0-.06,0-.08,0a1.41,1.41,0,0,0-1.21-.35c-.25,0-.58,0-.66-.23s.16-.46.37-.63.27-.21.08-.5-.34-.32-.27-.52.37-.09.55-.15a1.3,1.3,0,0,1,.48-.07.53.53,0,0,0,.43-.15.69.69,0,0,1,.43-.2c.14,0,.28,0,.33.16a3.32,3.32,0,0,0,.9,1.22A.94.94,0,0,1,100.36,48.67Z"/><path class="cls-49" d="M101.13,68.22a2.19,2.19,0,0,0-1.3.28,1.37,1.37,0,0,1-.59.16c-.15,0-.25-.09-.2-.26s.1-.4.17-.59,0-.31-.19-.39-.49-.11-.5-.35.25-.3.41-.41a2.41,2.41,0,0,0,.75-.71c.26-.42.49-.4.74-.14a2.13,2.13,0,0,0,.94.43,1.75,1.75,0,0,1,.32.12c.21.11.23.18.12.38a.71.71,0,0,1-.1.14.74.74,0,0,0-.21.82C101.59,68,101.44,68.22,101.13,68.22Z"/></g></g></g></g></svg>