# Blender v2.81 (sub 16) OBJ File: 'Fresh Nebula Assets.blend'
# www.blender.org
mtllib ice_sheet.mtl
o ice_sheet_ice_sheet_Plane.005
v 0.030477 0.003933 0.002299
v 0.017662 0.003772 -0.004142
v 0.004399 0.003632 -0.003386
v 0.008019 0.003802 0.034262
v 0.025832 0.004002 0.036631
v 0.039626 0.004117 0.026926
v 0.026655 -0.002086 0.040421
v 0.042929 -0.002086 0.029011
v 0.032191 -0.002086 -0.000026
v 0.001470 -0.002086 -0.006773
v 0.005668 -0.002086 0.037597
v 0.017102 -0.002086 -0.007639
v -0.021070 0.005128 0.034424
v -0.001315 0.004206 0.037798
v -0.000850 0.002889 0.007140
v -0.007261 0.002959 0.000591
v -0.025479 0.003936 0.000486
v 0.000975 -0.002708 0.005689
v -0.006442 -0.002254 -0.002147
v -0.023416 -0.001664 0.037506
v -0.000209 -0.002927 0.041833
v -0.027907 -0.001113 -0.002592
v -0.021150 0.004564 -0.031942
v -0.029185 0.004291 -0.021856
v -0.019834 0.004560 -0.004871
v 0.008862 0.005482 -0.009370
v 0.012330 0.005621 -0.025896
v -0.021729 -0.001058 -0.002459
v 0.012134 -0.001058 -0.007560
v -0.023089 -0.001058 -0.034368
v -0.032633 -0.001058 -0.022539
v 0.016340 -0.001058 -0.027009
vt 0.206906 0.134694
vt 0.141495 0.238657
vt 0.137061 0.352347
vt 0.460962 0.352347
vt 0.495763 0.202433
vt 0.424342 0.076883
vt 0.243158 0.102522
vt 0.217925 0.046087
vt 0.080399 0.146372
vt 0.127020 0.188404
vt 0.002837 0.399894
vt 0.059914 0.403153
vt 0.090083 0.635882
vt 0.040809 0.673831
vt 0.394082 0.818310
vt 0.390458 0.757071
vt 0.005061 0.544614
vt 0.060645 0.525980
vt 0.392398 0.064937
vt 0.394234 0.003619
vt 0.705093 0.744021
vt 0.677148 0.913541
vt 0.939949 0.916612
vt 0.995769 0.861440
vt 0.995769 0.705191
vt 0.842817 0.591013
vt 0.880181 0.627072
vt 0.939496 0.556114
vt 0.894631 0.532062
vt 0.770747 0.145298
vt 0.809589 0.090760
vt 0.626599 0.004146
vt 0.614470 0.073917
vt 0.996885 0.381168
vt 0.942186 0.383226
vt 0.614219 0.720692
vt 0.617691 0.791424
vt 0.117647 0.359474
vt 0.065231 0.456706
vt 0.169909 0.585619
vt 0.405031 0.504028
vt 0.409142 0.359474
vt 0.398283 0.721799
vt 0.406020 0.776067
vt 0.663690 0.636025
vt 0.613049 0.596042
vt 0.628982 0.183952
vt 0.674609 0.153229
vt 0.591067 0.053415
vt 0.559403 0.098161
vt 0.684234 0.470162
vt 0.749070 0.488549
vt 0.401829 0.003614
vt 0.398195 0.058310
vn -0.0108 0.9999 -0.0035
vn 0.4950 0.5044 0.7075
vn 0.8727 0.3646 -0.3247
vn -0.9070 0.4122 0.0856
vn 0.4032 0.4341 -0.8056
vn -0.1160 0.5187 0.8470
vn -0.0503 0.5217 -0.8516
vn 0.0537 0.9977 -0.0420
vn 0.6663 0.4055 -0.6258
vn -0.1339 0.4604 0.8776
vn 0.0381 0.4882 -0.8719
vn 0.9734 0.2283 0.0203
vn -0.9221 0.3718 0.1076
vn -0.0319 0.9995 0.0017
vn 0.1378 0.3388 0.9307
vn -0.6833 0.4891 -0.5421
vn 0.1684 0.2986 -0.9394
vn -0.7852 0.4496 0.4258
vn 0.8567 0.4816 0.1846
usemtl None.011
s 1
f 1/1/1 2/2/1 3/3/1 4/4/1 5/5/1 6/6/1
f 5/7/2 7/8/2 8/9/2 6/10/2
f 6/10/3 8/9/3 9/11/3 1/12/3
f 3/13/4 10/14/4 11/15/4 4/16/4
f 1/12/5 9/11/5 12/17/5 2/18/5
f 4/19/6 11/20/6 7/8/6 5/7/6
f 2/18/7 12/17/7 10/14/7 3/13/7
f 13/21/8 14/22/8 15/23/8 16/24/8 17/25/8
f 15/26/9 18/27/9 19/28/9 16/29/9
f 13/30/10 20/31/10 21/32/10 14/33/10
f 16/29/11 19/28/11 22/34/11 17/35/11
f 14/36/12 21/37/12 18/27/12 15/26/12
f 17/35/13 22/34/13 20/31/13 13/30/13
f 23/38/14 24/39/14 25/40/14 26/41/14 27/42/14
f 25/43/15 28/44/15 29/45/15 26/46/15
f 23/47/16 30/48/16 31/49/16 24/50/16
f 27/51/17 32/52/17 30/48/17 23/47/17
f 24/50/18 31/49/18 28/53/18 25/54/18
f 26/46/19 29/45/19 32/52/19 27/51/19
