# Blender v2.81 (sub 16) OBJ File: 'Nebula Assets Nov 10 (1).blend'
# www.blender.org
mtllib acacia_leaves.mtl
o acacia_leaves_Plane.027
v -2.264820 6.418831 -3.679438
v 1.441576 6.300820 -3.248893
v -1.920869 4.293369 -6.999881
v 1.785527 4.175358 -6.569336
v -2.070489 5.701342 -5.473714
v 1.635907 5.583330 -5.043169
v -0.389267 6.705066 -3.598220
v -0.045315 4.579605 -6.918664
v -0.186759 6.113852 -5.441527
v -2.932559 6.597405 2.508387
v 2.787911 6.597405 2.508387
v -2.932559 6.597404 -3.212084
v 2.787912 6.597404 -3.212084
v -2.932559 7.189250 -0.351848
v 2.787911 7.189250 -0.351848
v -0.072324 7.189251 2.508387
v -0.072324 7.189250 -3.212084
v -0.072324 7.997568 -0.351849
v 0.248745 6.434680 0.360052
v 5.865374 5.210492 0.862535
v 0.596923 5.274117 -5.276562
v 6.213552 4.049926 -4.774080
v 0.506353 6.430147 -2.526247
v 6.122982 5.205957 -2.023765
v 3.140579 6.398335 0.543301
v 3.488756 5.237770 -5.093313
v 3.428734 6.604384 -2.367867
v -5.203573 5.079281 -1.581557
v 0.378486 6.361901 -0.840442
v -4.366237 4.452465 -7.218950
v 1.215822 5.735084 -6.477837
v -4.860417 5.346236 -4.451290
v 0.721641 6.628855 -3.710175
v -2.488056 6.300953 -1.262036
v -1.650720 5.674137 -6.899429
v -2.172521 6.780178 -4.150434
v -5.084771 4.034029 5.469103
v 0.472881 5.689077 5.086972
v -5.736204 5.496413 -0.096844
v -0.178553 7.151461 -0.478974
v -5.507060 5.329192 2.788869
v 0.050591 6.984239 2.406738
v -2.402518 5.425523 5.380777
v -3.053950 6.887908 -0.185170
v -2.860129 6.926962 2.738120
v -0.778216 5.701466 6.449806
v 4.815426 4.239185 6.789627
v -0.184976 7.288341 0.898415
v 5.408668 5.826061 1.238234
v -0.397017 7.060168 3.782856
v 5.196626 5.597888 4.122677
v 2.103185 5.535591 6.728463
v 2.696424 7.122465 1.177071
v 2.515320 7.101042 4.101288
v -6.836086 5.969746 3.884187
v -1.388951 6.555633 2.198752
v -8.479707 5.305929 -1.570204
v -3.032573 5.891815 -3.255640
v -7.706048 6.225293 1.127384
v -2.258914 6.811180 -0.558052
v -4.160671 6.850145 3.011862
v -5.804292 6.186327 -2.442530
v -5.048245 7.320557 0.244229
v 2.464422 6.671213 3.209551
v 8.118789 5.628356 3.493834
v 2.729087 6.473278 -2.502678
v 8.383453 5.430421 -2.218395
v 2.663866 7.157771 0.344026
v 8.318233 6.114913 0.628309
v 5.358716 6.735310 3.342283
v 5.623382 6.537375 -2.369947
v 5.582707 7.436027 0.473315
v -4.945786 3.515836 -0.980229
v -1.343362 4.610726 -1.442982
v -5.300969 2.887367 -4.662817
v -1.698545 3.982257 -5.125570
v -5.197319 3.573887 -2.853596
v -1.594895 4.668777 -3.316350
v -3.218516 4.435566 -1.243679
v -3.573699 3.807098 -4.926267
v -3.497093 4.629783 -3.128778
v -1.058530 2.917418 4.617096
v 2.668340 3.038577 4.797974
v -0.941857 5.108822 1.307358
v 2.785012 5.229979 1.488236
v -1.013833 4.355621 3.101682
v 2.713037 4.476778 3.282560
v 0.791266 3.320498 4.846991
v 0.907938 5.511901 1.537251
v 0.830975 4.883971 3.382581
vt 0.500000 0.500000
vt 1.000000 0.500000
vt 1.000000 1.000000
vt 0.500000 1.000000
vt 0.500000 0.000000
vt 1.000000 0.000000
vt 0.000000 0.000000
vt 0.000000 0.500000
vt 0.000000 1.000000
vt 0.500000 0.500000
vt 1.000000 0.500000
vt 1.000000 1.000000
vt 0.500000 1.000000
vt 0.500000 0.000000
vt 1.000000 0.000000
vt 0.000000 0.000000
vt 0.000000 0.500000
vt 0.000000 1.000000
vt 0.500000 0.500000
vt 1.000000 0.500000
vt 1.000000 1.000000
vt 0.500000 1.000000
vt 0.500000 0.000000
vt 1.000000 0.000000
vt 0.000000 0.000000
vt 0.000000 0.500000
vt 0.000000 1.000000
vt 0.500000 0.500000
vt 1.000000 0.500000
vt 1.000000 1.000000
vt 0.500000 1.000000
vt 0.500000 0.000000
vt 1.000000 0.000000
vt 0.000000 0.000000
vt 0.000000 0.500000
vt 0.000000 1.000000
vt 0.500000 0.500000
vt 1.000000 0.500000
vt 1.000000 1.000000
vt 0.500000 1.000000
vt 0.500000 0.000000
vt 1.000000 0.000000
vt 0.000000 0.000000
vt 0.000000 0.500000
vt 0.000000 1.000000
vt 0.500000 0.500000
vt 1.000000 0.500000
vt 1.000000 1.000000
vt 0.500000 1.000000
vt 0.500000 0.000000
vt 1.000000 0.000000
vt 0.000000 0.000000
vt 0.000000 0.500000
vt 0.000000 1.000000
vt 0.500000 0.500000
vt 1.000000 0.500000
vt 1.000000 1.000000
vt 0.500000 1.000000
vt 0.500000 0.000000
vt 1.000000 0.000000
vt 0.000000 0.000000
vt 0.000000 0.500000
vt 0.000000 1.000000
vt 0.500000 0.500000
vt 1.000000 0.500000
vt 1.000000 1.000000
vt 0.500000 1.000000
vt 0.500000 0.000000
vt 1.000000 0.000000
vt 0.000000 0.000000
vt 0.000000 0.500000
vt 0.000000 1.000000
vt 0.500000 0.500000
vt 1.000000 0.500000
vt 1.000000 1.000000
vt 0.500000 1.000000
vt 0.500000 0.000000
vt 1.000000 0.000000
vt 0.000000 0.000000
vt 0.000000 0.500000
vt 0.000000 1.000000
vt 0.500000 0.500000
vt 1.000000 0.500000
vt 1.000000 1.000000
vt 0.500000 1.000000
vt 0.500000 0.000000
vt 1.000000 0.000000
vt 0.000000 0.000000
vt 0.000000 0.500000
vt 0.000000 1.000000
vn 0.0864 0.8510 -0.5179
vn 0.3088 0.8158 -0.4889
vn 0.3105 0.6939 -0.6497
vn 0.1037 0.7155 -0.6909
vn 0.0673 0.9411 -0.3312
vn 0.2931 0.9094 -0.2952
vn -0.1610 0.9229 -0.3496
vn -0.1378 0.8292 -0.5417
vn -0.1098 0.7046 -0.7010
vn 0.0000 1.0000 0.0000
vn 0.2377 0.9713 0.0000
vn 0.2313 0.9450 -0.2313
vn 0.0000 0.9713 -0.2377
vn 0.0000 0.9713 0.2377
vn 0.2313 0.9450 0.2313
vn -0.2313 0.9450 0.2313
vn -0.2377 0.9713 0.0000
vn -0.2313 0.9450 -0.2313
vn 0.2178 0.9597 -0.1773
vn 0.4409 0.8838 -0.1560
vn 0.4369 0.8215 -0.3664
vn 0.2304 0.8862 -0.4019
vn 0.2046 0.9774 0.0532
vn 0.4225 0.9035 0.0712
vn -0.0256 0.9991 0.0323
vn -0.0115 0.9799 -0.1989
vn 0.0030 0.9083 -0.4183
vn -0.1976 0.9711 -0.1336
vn 0.0311 0.9941 -0.1039
vn 0.0641 0.9419 -0.3296
vn -0.1629 0.9176 -0.3626
vn -0.2328 0.9675 0.0987
vn -0.0036 0.9917 0.1281
vn -0.4461 0.8926 0.0646
vn -0.4201 0.8928 -0.1624
vn -0.3735 0.8479 -0.3761
vn -0.2496 0.9312 0.2656
vn -0.0264 0.9674 0.2517
vn -0.0526 0.9983 0.0258
vn -0.2773 0.9599 0.0414
vn -0.2218 0.8476 0.4820
vn 0.0011 0.8853 0.4649
vn -0.4209 0.7725 0.4754
vn -0.4644 0.8408 0.2779
vn -0.4874 0.8715 0.0547
vn 0.2189 0.9343 0.2814
vn 0.4370 0.8506 0.2923
vn 0.4588 0.8859 0.0691
vn 0.2441 0.9680 0.0581
vn 0.1935 0.8462 0.4964
vn 0.3960 0.7774 0.4887
vn -0.0305 0.8769 0.4798
vn -0.0069 0.9631 0.2691
vn 0.0170 0.9989 0.0441
vn -0.1267 0.9889 -0.0779
vn 0.0992 0.9839 -0.1483
vn 0.0290 0.9312 -0.3634
vn -0.1937 0.9337 -0.3011
vn -0.0589 0.9872 0.1484
vn 0.1645 0.9834 0.0769
vn -0.2775 0.9371 0.2114
vn -0.3498 0.9367 -0.0086
vn -0.4025 0.8875 -0.2241
vn 0.1763 0.9840 -0.0247
vn 0.4047 0.9143 -0.0131
vn 0.4036 0.8834 -0.2383
vn 0.1871 0.9473 -0.2601
vn 0.1657 0.9632 0.2116
vn 0.3847 0.8978 0.2143
vn -0.0665 0.9780 0.1976
vn -0.0571 0.9977 -0.0367
vn -0.0446 0.9622 -0.2685
vn -0.2944 0.9471 -0.1278
vn -0.0719 0.9849 -0.1574
vn -0.0911 0.9203 -0.3805
vn -0.3144 0.8812 -0.3530
vn -0.2731 0.9565 0.1027
vn -0.0489 0.9961 0.0737
vn -0.4805 0.8679 0.1260
vn -0.5085 0.8553 -0.0987
vn -0.5109 0.8018 -0.3100
vn -0.0526 0.8418 0.5372
vn 0.1720 0.8201 0.5457
vn 0.1821 0.9168 0.3553
vn -0.0463 0.9346 0.3527
vn -0.0580 0.7042 0.7077
vn 0.1551 0.6938 0.7033
vn -0.2662 0.6829 0.6803
vn -0.2756 0.8065 0.5230
vn -0.2734 0.9030 0.3314
usemtl Material.004
s 1
f 9/1/1 6/2/2 4/3/3 8/4/4
f 7/5/5 2/6/6 6/2/2 9/1/1
f 1/7/7 7/5/5 9/1/1 5/8/8
f 5/8/8 9/1/1 8/4/4 3/9/9
f 18/10/10 15/11/11 13/12/12 17/13/13
f 16/14/14 11/15/15 15/11/11 18/10/10
f 10/16/16 16/14/14 18/10/10 14/17/17
f 14/17/17 18/10/10 17/13/13 12/18/18
f 27/19/19 24/20/20 22/21/21 26/22/22
f 25/23/23 20/24/24 24/20/20 27/19/19
f 19/25/25 25/23/23 27/19/19 23/26/26
f 23/26/26 27/19/19 26/22/22 21/27/27
f 36/28/28 33/29/29 31/30/30 35/31/31
f 34/32/32 29/33/33 33/29/29 36/28/28
f 28/34/34 34/32/32 36/28/28 32/35/35
f 32/35/35 36/28/28 35/31/31 30/36/36
f 45/37/37 42/38/38 40/39/39 44/40/40
f 43/41/41 38/42/42 42/38/38 45/37/37
f 37/43/43 43/41/41 45/37/37 41/44/44
f 41/44/44 45/37/37 44/40/40 39/45/45
f 54/46/46 51/47/47 49/48/48 53/49/49
f 52/50/50 47/51/51 51/47/47 54/46/46
f 46/52/52 52/50/50 54/46/46 50/53/53
f 50/53/53 54/46/46 53/49/49 48/54/54
f 63/55/55 60/56/56 58/57/57 62/58/58
f 61/59/59 56/60/60 60/56/56 63/55/55
f 55/61/61 61/59/59 63/55/55 59/62/62
f 59/62/62 63/55/55 62/58/58 57/63/63
f 72/64/64 69/65/65 67/66/66 71/67/67
f 70/68/68 65/69/69 69/65/65 72/64/64
f 64/70/70 70/68/68 72/64/64 68/71/71
f 68/71/71 72/64/64 71/67/67 66/72/72
f 81/73/73 78/74/74 76/75/75 80/76/76
f 79/77/77 74/78/78 78/74/74 81/73/73
f 73/79/79 79/77/77 81/73/73 77/80/80
f 77/80/80 81/73/73 80/76/76 75/81/81
f 90/82/82 87/83/83 85/84/84 89/85/85
f 88/86/86 83/87/87 87/83/83 90/82/82
f 82/88/88 88/86/86 90/82/82 86/89/89
f 86/89/89 90/82/82 89/85/85 84/90/90
