# Blender v2.79 (sub 0) OBJ File: ''
# www.blender.org
mtllib Compass.mtl
o Cone
v 0.000000 -0.000000 2.850974
v 0.000000 0.500000 1.000000
v 0.097545 0.490393 1.000000
v 0.191342 0.461940 1.000000
v 0.277785 0.415735 1.000000
v 0.353553 0.353554 1.000000
v 0.415735 0.277785 1.000000
v 0.461940 0.191342 1.000000
v 0.490393 0.097545 1.000000
v 0.500000 0.000000 1.000000
v 0.490393 -0.097545 1.000000
v 0.461940 -0.191341 1.000000
v 0.415735 -0.277785 1.000000
v 0.353553 -0.353553 1.000000
v 0.277785 -0.415735 1.000000
v 0.191342 -0.461940 1.000000
v 0.097545 -0.490392 1.000000
v -0.000000 -0.500000 1.000000
v -0.097545 -0.490392 1.000000
v -0.191342 -0.461939 1.000000
v -0.277785 -0.415734 1.000000
v -0.353554 -0.353553 1.000000
v -0.415735 -0.277785 1.000000
v -0.461940 -0.191341 1.000000
v 0.000000 0.000000 -0.850974
v -0.490393 -0.097545 1.000000
v -0.500000 0.000001 1.000000
v -0.490392 0.097546 1.000000
v -0.461939 0.191342 1.000000
v -0.415734 0.277786 1.000000
v -0.353553 0.353554 1.000000
v -0.277784 0.415735 1.000000
v -0.191341 0.461940 1.000000
v -0.097544 0.490393 1.000000
vt 0.729539 0.667563
vt 0.356110 0.999853
vt 0.712068 0.648912
vt 0.693667 0.631178
vt 0.674383 0.614408
vt 0.654268 0.598645
vt 0.633373 0.583931
vt 0.611754 0.570304
vt 0.589468 0.557801
vt 0.566572 0.546453
vt 0.543125 0.536289
vt 0.519190 0.527337
vt 0.494828 0.519621
vt 0.470104 0.513159
vt 0.445082 0.507969
vt 0.419827 0.504065
vt 0.394406 0.501456
vt 0.368885 0.500150
vt 0.343329 0.500150
vt 0.317808 0.501457
vt 0.292386 0.504065
vt 0.267131 0.507970
vt 0.242109 0.513160
vt 0.217385 0.519622
vt 0.193024 0.527340
vt 0.169089 0.536292
vt 0.145642 0.546455
vt 0.122746 0.557804
vt 0.100459 0.570308
vt 0.078841 0.583935
vt 0.057946 0.598649
vt 0.037831 0.614412
vt 0.018548 0.631182
vt 0.000147 0.648917
vt 0.942254 0.230645
vt 0.921006 0.244843
vt 0.897396 0.254622
vt 0.872333 0.259607
vt 0.846779 0.259607
vt 0.821716 0.254621
vt 0.798106 0.244842
vt 0.776858 0.230644
vt 0.758789 0.212575
vt 0.744591 0.191327
vt 0.734812 0.167717
vt 0.729826 0.142654
vt 0.729826 0.117099
vt 0.734812 0.092036
vt 0.744591 0.068426
vt 0.758789 0.047179
vt 0.776858 0.029109
vt 0.798106 0.014911
vt 0.821715 0.005132
vt 0.846779 0.000147
vt 0.872333 0.000147
vt 0.897397 0.005132
vt 0.921006 0.014912
vt 0.942254 0.029109
vt 0.960324 0.047179
vt 0.974522 0.068427
vt 0.984301 0.092036
vt 0.989286 0.117100
vt 0.989286 0.142655
vt 0.984301 0.167719
vt 0.974521 0.191328
vt 0.960324 0.212576
vt 0.729533 0.351100
vt 0.711132 0.368833
vt 0.373576 0.000147
vt 0.691849 0.385602
vt 0.671735 0.401364
vt 0.650841 0.416077
vt 0.629222 0.429703
vt 0.606935 0.442207
vt 0.584039 0.453555
vt 0.560592 0.463718
vt 0.536656 0.472670
vt 0.512295 0.480387
vt 0.487571 0.486849
vt 0.462549 0.492038
vt 0.437294 0.495943
vt 0.411873 0.498551
vt 0.386352 0.499857
vt 0.360797 0.499857
vt 0.335276 0.498551
vt 0.309855 0.495942
vt 0.284600 0.492038
vt 0.259578 0.486848
vt 0.234854 0.480386
vt 0.210492 0.472669
vt 0.186557 0.463717
vt 0.163111 0.453553
vt 0.140214 0.442205
vt 0.117927 0.429701
vt 0.096309 0.416075
vt 0.075415 0.401361
vt 0.055300 0.385600
vt 0.036018 0.368830
vt 0.017617 0.351097
vt 0.000147 0.332447
vn 0.0000 0.8959 0.4442
vn 0.0000 0.0000 1.0000
vn 0.1748 0.8787 0.4442
vn 0.3428 0.8277 0.4442
vn 0.4977 0.7449 0.4442
vn 0.6335 0.6335 0.4442
vn 0.7449 0.4977 0.4442
vn 0.8277 0.3428 0.4442
vn 0.8787 0.1748 0.4442
vn 0.8959 0.0000 0.4442
vn 0.8787 -0.1748 0.4442
vn 0.8277 -0.3428 0.4442
vn 0.7449 -0.4977 0.4442
vn 0.6335 -0.6335 0.4442
vn 0.4977 -0.7449 0.4442
vn 0.3428 -0.8277 0.4442
vn 0.1748 -0.8787 0.4442
vn 0.0000 -0.8959 0.4442
vn -0.1748 -0.8787 0.4442
vn -0.3428 -0.8277 0.4442
vn -0.4977 -0.7449 0.4442
vn -0.6335 -0.6335 0.4442
vn -0.7449 -0.4977 0.4442
vn -0.8277 -0.3428 0.4442
vn -0.8787 -0.1748 0.4442
vn -0.8959 0.0000 0.4442
vn -0.8787 0.1748 0.4442
vn -0.8277 0.3428 0.4442
vn -0.7449 0.4977 0.4442
vn -0.6335 0.6335 0.4442
vn -0.4977 0.7449 0.4442
vn -0.3428 0.8277 0.4442
vn -0.1748 0.8787 0.4442
vn 0.0000 0.0000 -1.0000
usemtl Material.001
s 1
f 2/1/1 1/2/2 3/3/3
f 3/3/3 1/2/2 4/4/4
f 4/4/4 1/2/2 5/5/5
f 5/5/5 1/2/2 6/6/6
f 6/6/6 1/2/2 7/7/7
f 7/7/7 1/2/2 8/8/8
f 8/8/8 1/2/2 9/9/9
f 9/9/9 1/2/2 10/10/10
f 10/10/10 1/2/2 11/11/11
f 11/11/11 1/2/2 12/12/12
f 12/12/12 1/2/2 13/13/13
f 13/13/13 1/2/2 14/14/14
f 14/14/14 1/2/2 15/15/15
f 15/15/15 1/2/2 16/16/16
f 16/16/16 1/2/2 17/17/17
f 17/17/17 1/2/2 18/18/18
f 18/18/18 1/2/2 19/19/19
f 19/19/19 1/2/2 20/20/20
f 20/20/20 1/2/2 21/21/21
f 21/21/21 1/2/2 22/22/22
f 22/22/22 1/2/2 23/23/23
f 23/23/23 1/2/2 24/24/24
f 24/24/24 1/2/2 26/25/25
f 26/25/25 1/2/2 27/26/26
f 27/26/26 1/2/2 28/27/27
f 28/27/27 1/2/2 29/28/28
f 29/28/28 1/2/2 30/29/29
f 30/29/29 1/2/2 31/30/30
f 31/30/30 1/2/2 32/31/31
f 32/31/31 1/2/2 33/32/32
f 33/32/32 1/2/2 34/33/33
f 34/33/33 1/2/2 2/34/1
f 2/35/1 34/36/33 33/37/32 32/38/31 31/39/30 30/40/29 29/41/28 28/42/27 27/43/26 26/44/25 24/45/24 23/46/23 22/47/22 21/48/21 20/49/20 19/50/19 18/51/18 17/52/17 16/53/16 15/54/15 14/55/14 13/56/13 12/57/12 11/58/11 10/59/10 9/60/9 8/61/8 7/62/7 6/63/6 5/64/5 4/65/4 3/66/3
usemtl Material.002
f 2/67/1 3/68/3 25/69/34
f 3/68/3 4/70/4 25/69/34
f 4/70/4 5/71/5 25/69/34
f 5/71/5 6/72/6 25/69/34
f 6/72/6 7/73/7 25/69/34
f 7/73/7 8/74/8 25/69/34
f 8/74/8 9/75/9 25/69/34
f 9/75/9 10/76/10 25/69/34
f 10/76/10 11/77/11 25/69/34
f 11/77/11 12/78/12 25/69/34
f 12/78/12 13/79/13 25/69/34
f 13/79/13 14/80/14 25/69/34
f 14/80/14 15/81/15 25/69/34
f 15/81/15 16/82/16 25/69/34
f 16/82/16 17/83/17 25/69/34
f 17/83/17 18/84/18 25/69/34
f 18/84/18 19/85/19 25/69/34
f 19/85/19 20/86/20 25/69/34
f 20/86/20 21/87/21 25/69/34
f 21/87/21 22/88/22 25/69/34
f 22/88/22 23/89/23 25/69/34
f 23/89/23 24/90/24 25/69/34
f 24/90/24 26/91/25 25/69/34
f 26/91/25 27/92/26 25/69/34
f 27/92/26 28/93/27 25/69/34
f 28/93/27 29/94/28 25/69/34
f 29/94/28 30/95/29 25/69/34
f 30/95/29 31/96/30 25/69/34
f 31/96/30 32/97/31 25/69/34
f 32/97/31 33/98/32 25/69/34
f 33/98/32 34/99/33 25/69/34
f 34/99/33 2/100/1 25/69/34
