# Blender v2.81 (sub 16) OBJ File: 'Nebula Assets Nov 10 (1).blend'
# www.blender.org
mtllib island_base.mtl
o Cube.026_Cube.014
v -22.933430 -0.728810 22.933430
v -11.030791 5.642749 11.030789
v -22.933430 -0.728810 -22.933430
v -11.030790 5.642749 -11.030791
v 22.933430 -0.728810 22.933430
v 11.030789 5.642749 11.030791
v 22.933430 -0.728810 -22.933430
v 11.030791 5.642749 -11.030790
v -32.000134 -0.728810 0.000000
v -16.596867 3.259078 16.596865
v -12.784961 6.045061 -0.000000
v -16.596867 3.259078 -16.596867
v 0.000000 -0.728810 -32.000134
v 0.000000 6.045061 -12.784961
v 16.596867 3.259078 -16.596867
v 32.000134 -0.728810 0.000000
v 12.784960 6.045061 0.000000
v 16.596865 3.259078 16.596867
v 0.000000 -0.728810 32.000134
v -0.000000 6.045061 12.784961
v -22.928974 3.297411 0.000000
v -0.000000 3.297412 -22.928974
v 22.928974 3.297412 -0.000000
v 0.000000 3.297412 22.928974
v -0.000000 6.947264 0.000000
v -29.666790 -0.728809 -12.466719
v -29.666790 -0.728809 12.466719
v -19.749247 1.362276 19.749245
v -13.533693 4.764985 13.533693
v -12.231783 5.922528 6.483799
v -12.231781 5.922528 -6.483800
v -13.533693 4.764985 -13.533693
v -19.749245 1.362276 -19.749247
v 12.466719 -0.728809 -29.666790
v -12.466719 -0.728809 -29.666790
v -6.483799 5.922527 -12.231783
v 6.483800 5.922528 -12.231781
v 13.533693 4.764985 -13.533693
v 19.749247 1.362276 -19.749245
v 29.666790 -0.728809 12.466719
v 29.666790 -0.728809 -12.466719
v 12.231781 5.922527 -6.483799
v 12.231781 5.922527 6.483800
v 13.533693 4.764985 13.533693
v 19.749245 1.362276 19.749247
v -12.466719 -0.728809 29.666790
v 12.466719 -0.728809 29.666790
v 6.483799 5.922528 12.231781
v -6.483800 5.922528 12.231781
v -21.330477 3.278244 9.059008
v -18.135500 4.884106 0.000000
v -21.330477 3.278244 -9.059009
v -27.505816 1.373166 0.000000
v -9.059008 3.278244 -21.330477
v 0.000000 4.884106 -18.135500
v 9.059009 3.278245 -21.330477
v -0.000000 1.373166 -27.505816
v 21.330477 3.278244 -9.059008
v 18.135500 4.884106 0.000000
v 21.330475 3.278245 9.059009
v 27.505816 1.373166 -0.000000
v 9.059008 3.278244 21.330477
v 0.000000 4.884106 18.135500
v -9.059009 3.278245 21.330477
v 0.000000 1.373166 27.505816
v -0.000000 6.727327 -6.629754
v -6.629754 6.727327 -0.000000
v -0.000000 6.727327 6.629753
v 6.629753 6.727327 -0.000000
v -25.516584 1.367721 10.744022
v -17.021835 4.830814 7.503661
v -17.021835 4.830814 -7.503662
v -25.516586 1.367721 -10.744021
v -10.744022 1.367721 -25.516584
v -7.503661 4.830814 -17.021835
v 7.503662 4.830814 -17.021835
v 10.744021 1.367721 -25.516586
v 25.516584 1.367721 -10.744022
v 17.021835 4.830814 -7.503661
v 17.021835 4.830814 7.503662
v 25.516586 1.367721 10.744021
v 10.744022 1.367721 25.516584
v 7.503661 4.830814 17.021835
v -7.503662 4.830814 17.021835
v -10.744021 1.367721 25.516586
v 6.467152 6.534507 -6.467153
v -6.467153 6.534507 -6.467153
v -6.467154 6.534507 6.467153
v 6.467152 6.534507 6.467153
vt 0.375000 0.000000
vt 0.437500 0.000000
vt 0.437500 0.062500
vt 0.375000 0.062500
vt 0.500000 0.000000
vt 0.500000 0.062500
vt 0.500000 0.125000
vt 0.437500 0.125000
vt 0.375000 0.125000
vt 0.562500 0.000000
vt 0.562500 0.062500
vt 0.625000 0.000000
vt 0.625000 0.062500
vt 0.625000 0.125000
vt 0.562500 0.125000
vt 0.562565 0.187435
vt 0.500030 0.187470
vt 0.625109 0.187392
vt 0.625868 0.249132
vt 0.563019 0.249482
vt 0.500241 0.249759
vt 0.437511 0.187489
vt 0.375000 0.187500
vt 0.437584 0.249916
vt 0.375000 0.250000
vt 0.437794 0.312206
vt 0.375000 0.312500
vt 0.500886 0.311614
vt 0.502508 0.372492
vt 0.438248 0.374253
vt 0.375000 0.375000
vt 0.564476 0.310524
vt 0.628364 0.309136
vt 0.635417 0.364583
vt 0.568456 0.369044
vt 0.575672 0.424396
vt 0.505178 0.432370
vt 0.650174 0.412327
vt 0.675348 0.449653
vt 0.580847 0.482274
vt 0.506800 0.493586
vt 0.438941 0.436079
vt 0.375000 0.437500
vt 0.439381 0.498276
vt 0.375000 0.500000
vt 0.439191 0.561362
vt 0.375000 0.562500
vt 0.505769 0.558226
vt 0.504630 0.625000
vt 0.438947 0.625000
vt 0.375000 0.625000
vt 0.576071 0.551826
vt 0.644846 0.546274
vt 0.638214 0.625000
vt 0.572543 0.625000
vt 0.576071 0.698175
vt 0.505769 0.691774
vt 0.644846 0.703727
vt 0.675348 0.800347
vt 0.580847 0.767726
vt 0.506800 0.756414
vt 0.439191 0.688638
vt 0.375000 0.687500
vt 0.439381 0.751724
vt 0.375000 0.750000
vt 0.438941 0.813921
vt 0.375000 0.812500
vt 0.505178 0.817630
vt 0.502508 0.877508
vt 0.438248 0.875748
vt 0.375000 0.875000
vt 0.575672 0.825604
vt 0.650174 0.837674
vt 0.635417 0.885417
vt 0.568456 0.880956
vt 0.564411 0.939411
vt 0.500856 0.938356
vt 0.628255 0.940755
vt 0.625000 1.000000
vt 0.562500 1.000000
vt 0.500000 1.000000
vt 0.437783 0.937783
vt 0.375000 0.937500
vt 0.437500 1.000000
vt 0.375000 1.000000
vt 0.712674 0.474827
vt 0.702069 0.550793
vt 0.760417 0.489583
vt 0.756703 0.557292
vt 0.755016 0.625000
vt 0.697808 0.625000
vt 0.815755 0.496745
vt 0.814694 0.560872
vt 0.875000 0.500000
vt 0.875000 0.562500
vt 0.875000 0.625000
vt 0.814212 0.625000
vt 0.814694 0.689128
vt 0.756703 0.692708
vt 0.875000 0.687500
vt 0.875000 0.750000
vt 0.815755 0.753255
vt 0.760417 0.760417
vt 0.702069 0.699207
vt 0.712674 0.775174
vn -0.2975 0.9072 0.2975
vn -0.2879 0.9133 0.2879
vn -0.3797 0.9128 0.1500
vn -0.3927 0.9062 0.1567
vn -0.2556 0.9324 0.2556
vn -0.3352 0.9330 0.1306
vn -0.3573 0.9340 0.0000
vn -0.4086 0.9127 0.0000
vn -0.4241 0.9056 0.0000
vn -0.2016 0.9585 0.2016
vn -0.2598 0.9606 0.0985
vn -0.1411 0.9799 0.1411
vn -0.1588 0.9848 0.0699
vn -0.1635 0.9865 0.0000
vn -0.2704 0.9627 0.0000
vn -0.2598 0.9606 -0.0985
vn -0.3352 0.9330 -0.1306
vn -0.1588 0.9848 -0.0699
vn -0.1411 0.9799 -0.1411
vn -0.2016 0.9585 -0.2016
vn -0.2556 0.9324 -0.2556
vn -0.3797 0.9128 -0.1500
vn -0.3927 0.9062 -0.1567
vn -0.2879 0.9133 -0.2879
vn -0.2975 0.9072 -0.2975
vn -0.1500 0.9128 -0.3797
vn -0.1567 0.9062 -0.3927
vn -0.1306 0.9330 -0.3352
vn 0.0000 0.9340 -0.3573
vn 0.0000 0.9127 -0.4086
vn 0.0000 0.9056 -0.4241
vn -0.0985 0.9606 -0.2598
vn -0.0699 0.9848 -0.1588
vn 0.0000 0.9865 -0.1635
vn 0.0000 0.9627 -0.2704
vn 0.0985 0.9606 -0.2598
vn 0.1306 0.9330 -0.3352
vn 0.0699 0.9848 -0.1588
vn 0.1411 0.9799 -0.1411
vn 0.2016 0.9585 -0.2016
vn 0.2556 0.9324 -0.2556
vn 0.1500 0.9128 -0.3797
vn 0.1567 0.9062 -0.3927
vn 0.2879 0.9133 -0.2879
vn 0.2975 0.9072 -0.2975
vn 0.3797 0.9128 -0.1500
vn 0.3927 0.9062 -0.1567
vn 0.3352 0.9330 -0.1306
vn 0.3573 0.9340 0.0000
vn 0.4086 0.9127 0.0000
vn 0.4241 0.9056 0.0000
vn 0.2598 0.9606 -0.0985
vn 0.1588 0.9848 -0.0699
vn 0.1635 0.9865 0.0000
vn 0.2704 0.9627 0.0000
vn 0.2598 0.9606 0.0985
vn 0.3352 0.9330 0.1306
vn 0.1588 0.9848 0.0699
vn 0.1411 0.9799 0.1411
vn 0.2016 0.9585 0.2016
vn 0.2556 0.9324 0.2556
vn 0.3797 0.9128 0.1500
vn 0.3927 0.9062 0.1567
vn 0.2879 0.9133 0.2879
vn 0.2975 0.9072 0.2975
vn 0.1500 0.9128 0.3797
vn 0.1567 0.9062 0.3927
vn 0.1306 0.9330 0.3352
vn 0.0000 0.9340 0.3573
vn 0.0000 0.9127 0.4086
vn 0.0000 0.9056 0.4241
vn 0.0985 0.9606 0.2598
vn 0.0699 0.9848 0.1588
vn 0.0000 0.9865 0.1635
vn 0.0000 0.9627 0.2704
vn -0.0985 0.9606 0.2598
vn -0.1306 0.9330 0.3352
vn -0.0699 0.9848 0.1588
vn -0.1500 0.9128 0.3797
vn -0.1567 0.9062 0.3927
vn 0.0664 0.9956 -0.0664
vn 0.0000 0.9975 -0.0705
vn 0.0000 1.0000 0.0000
vn 0.0705 0.9975 0.0000
vn -0.0664 0.9956 -0.0664
vn -0.0705 0.9975 0.0000
vn -0.0664 0.9956 0.0664
vn 0.0000 0.9975 0.0705
vn 0.0664 0.9956 0.0664
usemtl None
s 1
f 1/1/1 28/2/2 70/3/3 27/4/4
f 28/2/2 10/5/5 50/6/6 70/3/3
f 70/3/3 50/6/6 21/7/7 53/8/8
f 27/4/4 70/3/3 53/8/8 9/9/9
f 10/5/5 29/10/10 71/11/11 50/6/6
f 29/10/10 2/12/12 30/13/13 71/11/11
f 71/11/11 30/13/13 11/14/14 51/15/15
f 50/6/6 71/11/11 51/15/15 21/7/7
f 21/7/7 51/15/15 72/16/16 52/17/17
f 51/15/15 11/14/14 31/18/18 72/16/16
f 72/16/16 31/18/18 4/19/19 32/20/20
f 52/17/17 72/16/16 32/20/20 12/21/21
f 9/9/9 53/8/8 73/22/22 26/23/23
f 53/8/8 21/7/7 52/17/17 73/22/22
f 73/22/22 52/17/17 12/21/21 33/24/24
f 26/23/23 73/22/22 33/24/24 3/25/25
f 3/25/25 33/24/24 74/26/26 35/27/27
f 33/24/24 12/21/21 54/28/28 74/26/26
f 74/26/26 54/28/28 22/29/29 57/30/30
f 35/27/27 74/26/26 57/30/30 13/31/31
f 12/21/21 32/20/20 75/32/32 54/28/28
f 32/20/20 4/19/19 36/33/33 75/32/32
f 75/32/32 36/33/33 14/34/34 55/35/35
f 54/28/28 75/32/32 55/35/35 22/29/29
f 22/29/29 55/35/35 76/36/36 56/37/37
f 55/35/35 14/34/34 37/38/38 76/36/36
f 76/36/36 37/38/38 8/39/39 38/40/40
f 56/37/37 76/36/36 38/40/40 15/41/41
f 13/31/31 57/30/30 77/42/42 34/43/43
f 57/30/30 22/29/29 56/37/37 77/42/42
f 77/42/42 56/37/37 15/41/41 39/44/44
f 34/43/43 77/42/42 39/44/44 7/45/45
f 7/45/45 39/44/44 78/46/46 41/47/47
f 39/44/44 15/41/41 58/48/48 78/46/46
f 78/46/46 58/48/48 23/49/49 61/50/50
f 41/47/47 78/46/46 61/50/50 16/51/51
f 15/41/41 38/40/40 79/52/52 58/48/48
f 38/40/40 8/39/39 42/53/53 79/52/52
f 79/52/52 42/53/53 17/54/54 59/55/55
f 58/48/48 79/52/52 59/55/55 23/49/49
f 23/49/49 59/55/55 80/56/56 60/57/57
f 59/55/55 17/54/54 43/58/58 80/56/56
f 80/56/56 43/58/58 6/59/59 44/60/60
f 60/57/57 80/56/56 44/60/60 18/61/61
f 16/51/51 61/50/50 81/62/62 40/63/63
f 61/50/50 23/49/49 60/57/57 81/62/62
f 81/62/62 60/57/57 18/61/61 45/64/64
f 40/63/63 81/62/62 45/64/64 5/65/65
f 5/65/65 45/64/64 82/66/66 47/67/67
f 45/64/64 18/61/61 62/68/68 82/66/66
f 82/66/66 62/68/68 24/69/69 65/70/70
f 47/67/67 82/66/66 65/70/70 19/71/71
f 18/61/61 44/60/60 83/72/72 62/68/68
f 44/60/60 6/59/59 48/73/73 83/72/72
f 83/72/72 48/73/73 20/74/74 63/75/75
f 62/68/68 83/72/72 63/75/75 24/69/69
f 24/69/69 63/75/75 84/76/76 64/77/77
f 63/75/75 20/74/74 49/78/78 84/76/76
f 84/76/76 49/78/78 2/79/12 29/80/10
f 64/77/77 84/76/76 29/80/10 10/81/5
f 19/71/71 65/70/70 85/82/79 46/83/80
f 65/70/70 24/69/69 64/77/77 85/82/79
f 85/82/79 64/77/77 10/81/5 28/84/2
f 46/83/80 85/82/79 28/84/2 1/85/1
f 8/39/39 37/86/38 86/87/81 42/53/53
f 37/86/38 14/88/34 66/89/82 86/87/81
f 86/87/81 66/89/82 25/90/83 69/91/84
f 42/53/53 86/87/81 69/91/84 17/54/54
f 14/88/34 36/92/33 87/93/85 66/89/82
f 36/92/33 4/94/19 31/95/18 87/93/85
f 87/93/85 31/95/18 11/96/14 67/97/86
f 66/89/82 87/93/85 67/97/86 25/90/83
f 25/90/83 67/97/86 88/98/87 68/99/88
f 67/97/86 11/96/14 30/100/13 88/98/87
f 88/98/87 30/100/13 2/101/12 49/102/78
f 68/99/88 88/98/87 49/102/78 20/103/74
f 17/54/54 69/91/84 89/104/89 43/58/58
f 69/91/84 25/90/83 68/99/88 89/104/89
f 89/104/89 68/99/88 20/103/74 48/105/73
f 43/58/58 89/104/89 48/105/73 6/59/59
