# Blender v2.80 (sub 45) OBJ File: 'all_models.blend'
# www.blender.org
mtllib cactus.mtl
o Cube_Cube.003
v 0.062932 -0.000050 -0.151520
v 0.151623 -0.000120 -0.059053
v 0.151584 -0.000120 0.059114
v 0.062881 -0.000050 0.151507
v -0.063063 0.000050 0.151246
v -0.151435 0.000120 0.059621
v -0.151443 0.000120 -0.059648
v -0.063079 0.000050 -0.151267
v 0.202328 2.462734 -0.228100
v 0.334145 2.442298 0.095235
v 0.014755 2.491815 0.228354
v -0.117228 2.509493 -0.092235
v 0.334208 2.442288 -0.094715
v -0.117228 2.509493 0.092608
v 0.202250 2.462747 0.228503
v 0.014730 2.491819 -0.227969
v 0.209898 2.694215 -0.161084
v 0.303027 2.679777 0.067352
v 0.077378 2.714761 0.161401
v -0.015604 2.729176 -0.066831
v 0.303071 2.679770 -0.066847
v -0.015604 2.729176 0.067232
v 0.209843 2.694224 0.161507
v 0.077360 2.714763 -0.160991
v 0.156456 2.787500 0.000222
v -0.113550 1.609023 0.209313
v 0.058327 1.582376 0.209450
v -0.189927 1.623308 -0.055616
v 0.179294 1.563621 -0.086845
v 0.179236 1.563630 0.087282
v 0.058399 1.582365 -0.209121
v -0.113573 1.609027 -0.209000
v -0.189927 1.623308 0.057228
v -0.155669 1.740892 -0.053000
v -0.155669 1.740892 0.058228
v -0.500767 1.898577 -0.099927
v -0.435868 2.479582 0.000150
v -0.500766 1.898578 0.100227
v -0.314607 1.939631 0.101582
v -0.314607 1.939631 -0.101282
v -0.544685 2.274658 -0.117258
v -0.521278 2.417042 0.089136
v -0.544685 2.274658 0.117558
v -0.321660 2.278679 0.119148
v -0.321660 2.278679 -0.118849
v -0.521278 2.417042 -0.088836
v -0.351777 2.415646 0.090341
v -0.351777 2.415646 -0.090042
v 0.236744 1.096839 -0.056686
v 0.236709 1.096822 0.057119
v 0.029698 0.936348 0.194286
v 0.189735 0.957428 0.194413
v -0.082979 0.921507 -0.071644
v 0.282104 0.998973 -0.057218
v 0.029676 0.936346 -0.193970
v -0.082979 0.921506 0.071949
v 0.282071 0.998957 0.057324
v 0.189802 0.957437 -0.194082
v 0.661332 1.752650 0.000500
v 0.389081 1.279850 0.106805
v 0.389109 1.279914 -0.106170
v 0.573998 1.199388 -0.104530
v 0.573971 1.199325 0.105163
v 0.481518 1.579395 0.121099
v 0.481543 1.579470 -0.120261
v 0.697145 1.503993 -0.118402
v 0.697120 1.503919 0.119239
v 0.548055 1.712015 0.100318
v 0.548076 1.712077 -0.099380
v 0.727351 1.651938 -0.097842
v 0.727331 1.651877 0.098779
v 0.300391 0.988789 -0.063358
v 0.300348 0.988784 0.063789
v -0.231175 1.649717 0.068834
v -0.231175 1.649717 -0.068533
vt 0.502016 0.901840
vt 0.502016 0.988715
vt 0.379998 0.988715
vt 0.379998 0.901840
vt 0.379998 0.583303
vt 0.502016 0.583303
vt 0.620979 0.583303
vt 0.620979 0.901840
vt 0.741728 0.344447
vt 0.620979 0.344447
vt 0.620979 0.027904
vt 0.741728 0.027904
vt 0.854403 0.583303
vt 0.854403 0.901840
vt 0.741728 0.901840
vt 0.741728 0.583303
vt 0.854403 0.988715
vt 0.741728 0.988715
vt 0.149025 0.583303
vt 0.149025 0.901840
vt 0.029997 0.901840
vt 0.029997 0.583303
vt 0.502016 0.344447
vt 0.620979 0.988715
vt 0.502016 0.988715
vt 0.556926 1.000000
vt 0.620979 0.988715
vt 0.271028 0.901840
vt 0.271028 0.988715
vt 0.149025 0.988715
vt 0.029997 0.988715
vt 0.854403 0.988715
vt 0.975197 0.901840
vt 0.975197 0.988715
vt 0.379998 0.988715
vt 0.143097 0.160170
vt 0.143097 0.160170
vt 0.166528 0.312810
vt 0.166528 0.312810
vt 0.271028 0.583303
vt 0.029997 0.344447
vt 0.149025 0.344447
vt 0.854403 0.344447
vt 0.975197 0.344447
vt 0.975197 0.583303
vt 0.271028 0.344447
vt 0.379998 0.344447
vt 0.050341 0.586135
vt 0.178706 0.581572
vt 0.167955 0.691092
vt 0.070609 0.698086
vt 0.057577 0.286764
vt 0.057577 0.286764
vt 0.072668 0.163671
vt 0.072668 0.163672
vt 0.050341 0.586135
vt 0.178706 0.581572
vt 0.070609 0.698086
vt 0.167955 0.691092
vt 0.766326 0.641842
vt 0.924814 0.633078
vt 0.915784 0.750613
vt 0.784516 0.755937
vt 0.122689 0.744649
vt 0.766329 0.641903
vt 0.784518 0.755988
vt 0.902807 0.377657
vt 0.763783 0.397010
vt 0.924816 0.633138
vt 0.850314 0.190473
vt 0.776865 0.207146
vt 0.502016 0.027904
vt 0.029997 0.027904
vt 0.149025 0.027904
vt 0.271028 0.027904
vt 0.379998 0.027904
vt 0.854403 0.027904
vt 0.975197 0.027904
vt 0.902802 0.377603
vt 0.763777 0.396956
vt 0.776861 0.207116
vt 0.850309 0.190445
vt 0.915785 0.750664
vt 0.851965 0.811481
vn -0.3658 0.1920 0.9107
vn -0.2092 0.6491 0.7313
vn -0.6324 0.7130 0.3028
vn -0.8895 0.2694 0.3690
vn -0.9390 -0.0283 0.3428
vn -0.4473 -0.0437 0.8933
vn 0.3469 -0.0189 0.9377
vn 0.3948 0.0762 0.9156
vn 0.9391 0.0267 0.3425
vn 0.4421 -0.0199 0.8967
vn 0.3878 -0.0895 0.9174
vn 0.9226 -0.1439 0.3579
vn 0.9188 0.0136 -0.3945
vn 0.9253 -0.0057 -0.3791
vn 0.9251 -0.0057 0.3797
vn 0.9185 0.0136 0.3951
vn 0.8165 0.4914 -0.3030
vn 0.8164 0.4914 0.3035
vn -0.4473 -0.0437 -0.8933
vn -0.3658 0.1920 -0.9107
vn 0.3951 0.0762 -0.9155
vn 0.3472 -0.0188 -0.9376
vn -0.3718 -0.0533 0.9268
vn 0.3926 0.5569 -0.7319
vn -0.2092 0.6492 -0.7313
vn 0.1529 0.9882 0.0000
vn 0.3924 0.5569 0.7320
vn -0.8895 0.2694 -0.3690
vn -0.6324 0.7131 -0.3027
vn 0.5463 0.3052 0.7800
vn 0.5585 0.3088 -0.7699
vn 0.6017 0.1237 -0.7891
vn 0.5992 0.1255 0.7907
vn -0.9390 -0.0283 -0.3428
vn 0.4424 -0.0197 -0.8966
vn -0.3719 -0.0531 -0.9268
vn 0.9393 0.0268 -0.3419
vn -0.9272 -0.0641 -0.3691
vn -0.9271 -0.0642 0.3692
vn -0.7118 0.0626 0.6996
vn 0.6918 0.1277 0.7107
vn 0.5801 0.5617 0.5899
vn -0.5981 0.5491 0.5837
vn -0.6661 -0.3876 0.6373
vn -0.6640 -0.3878 -0.6392
vn -0.4957 -0.6734 -0.5484
vn -0.5017 -0.6712 0.5456
vn -0.7118 0.0626 -0.6996
vn 0.6918 0.1277 -0.7107
vn -0.5981 0.5491 -0.5837
vn 0.5801 0.5617 -0.5899
vn -0.6416 0.2899 0.7102
vn 0.6887 -0.1774 0.7030
vn 0.7430 0.2868 0.6047
vn -0.4069 0.6799 0.6100
vn 0.0083 1.0000 0.0000
vn -0.6414 0.2903 -0.7101
vn -0.4068 0.6803 -0.6097
vn 0.5616 -0.5099 -0.6516
vn -0.6074 0.2241 -0.7621
vn 0.6888 -0.1770 -0.7030
vn 0.3640 -0.7028 -0.6113
vn -0.5869 0.3258 -0.7412
vn -0.4222 0.0016 0.9065
vn 0.3880 -0.0892 -0.9173
vn -0.4222 0.0020 -0.9065
vn -0.9315 0.0634 -0.3581
vn -0.9315 0.0633 0.3581
vn 0.9228 -0.1438 -0.3574
vn 0.5614 -0.5104 0.6514
vn -0.6076 0.2232 0.7622
vn -0.5872 0.3245 0.7415
vn 0.3639 -0.7036 0.6104
vn 0.7431 0.2872 -0.6044
vn 0.3185 0.9479 0.0004
usemtl cactus
s 1
f 11/1/1 19/2/2 22/3/3 14/4/4
f 11/1/1 14/4/4 74/5/5 26/6/6
f 26/6/6 27/7/7 15/8/8 11/1/1
f 73/9/9 52/10/10 4/11/11 3/12/12
f 29/13/13 13/14/14 10/15/15 30/16/16
f 10/15/15 13/14/14 21/17/17 18/18/18
f 32/19/19 16/20/20 9/21/21 31/22/22
f 52/10/10 27/7/7 26/6/6 51/23/23
f 30/16/16 10/15/15 15/8/8 27/7/7
f 17/24/24 24/25/25 25/26/26
f 11/1/1 15/8/8 23/27/27 19/2/2
f 16/20/20 12/28/28 20/29/29 24/30/25
f 9/21/21 16/20/20 24/30/25 17/31/24
f 18/32/18 21/17/17 25/26/26
f 9/33/21 17/34/24 21/17/17 13/14/14
f 21/17/17 17/24/24 25/26/26
f 20/35/29 22/3/3 25/26/26
f 20/35/29 25/26/26 24/25/25
f 19/2/2 23/27/27 25/26/26
f 23/27/27 18/32/18 25/26/26
f 35/36/30 34/37/31 40/38/32 39/39/33
f 19/2/2 25/26/26 22/3/3
f 75/40/34 74/5/5 14/4/4 12/28/28
f 31/22/22 58/41/35 55/42/36 32/19/19
f 72/43/37 58/44/35 31/45/22 29/13/13
f 27/7/7 52/10/10 73/9/9 30/16/16
f 53/46/38 75/40/34 32/19/19 55/42/36
f 53/46/38 56/47/39 74/5/5 75/40/34
f 43/48/40 44/49/41 47/50/42 42/51/43
f 32/19/19 75/40/34 12/28/28 16/20/20
f 38/52/44 36/53/45 28/54/46 33/55/47
f 36/53/45 41/56/48 45/57/49 40/38/32
f 39/39/33 40/38/32 45/57/49 44/49/41
f 38/52/44 39/39/33 44/49/41 43/48/40
f 36/53/45 38/52/44 43/48/40 41/56/48
f 41/56/48 46/58/50 48/59/51 45/57/49
f 64/60/52 67/61/53 71/62/54 68/63/55
f 41/56/48 43/48/40 42/51/43 46/58/50
f 44/49/41 45/57/49 48/59/51 47/50/42
f 28/54/46 36/53/45 40/38/32 34/37/31
f 38/52/44 33/55/47 35/36/30 39/39/33
f 51/23/23 26/6/6 74/5/5 56/47/39
f 48/59/51 37/64/56 47/50/42
f 42/51/43 37/64/56 46/58/50
f 48/59/51 46/58/50 37/64/56
f 42/51/43 47/50/42 37/64/56
f 30/16/16 73/9/9 72/43/37 29/13/13
f 65/65/57 64/60/52 68/63/55 69/66/58
f 62/67/59 61/68/60 65/65/57 66/69/61
f 62/67/59 54/70/62 49/71/63 61/68/60
f 4/11/11 52/10/10 51/23/23 5/72/64
f 55/42/36 58/41/35 1/73/65 8/74/66
f 15/8/8 10/15/15 18/18/18 23/27/27
f 56/47/39 53/46/38 7/75/67 6/76/68
f 58/44/35 72/43/37 2/77/69 1/78/65
f 7/75/67 53/46/38 55/42/36 8/74/66
f 63/79/70 60/80/71 50/81/72 57/82/73
f 5/72/64 51/23/23 56/47/39 6/76/68
f 63/79/70 62/67/59 66/69/61 67/61/53
f 66/69/61 65/65/57 69/66/58 70/83/74
f 61/68/60 49/71/63 50/81/72 60/80/71
f 67/61/53 66/69/61 70/83/74 71/62/54
f 70/83/74 69/66/58 59/84/75
f 71/62/54 70/83/74 59/84/75
f 60/80/71 63/79/70 67/61/53 64/60/52
f 68/63/55 71/62/54 59/84/75
f 57/82/73 54/70/62 62/67/59 63/79/70
f 69/66/58 68/63/55 59/84/75
f 61/68/60 60/80/71 64/60/52 65/65/57
f 3/12/12 2/77/69 72/43/37 73/9/9
f 12/28/28 14/4/4 22/3/3 20/29/29
f 31/45/22 9/33/21 13/14/14 29/13/13
