# Blender v2.80 (sub 45) OBJ File: 'all_models.blend'
# www.blender.org
mtllib mountain.mtl
o palm_tree_Cube.001_Cube.001
v 0.014914 0.042153 0.029915
v 0.015434 0.043455 0.030914
v 0.006715 0.045629 0.029561
v 0.005935 0.044939 0.029416
v -0.000049 0.046741 0.025580
v 0.000214 0.048814 0.026091
v -0.002211 0.049189 0.017750
v -0.002014 0.047459 0.018227
v -0.000299 0.048098 0.011700
v -0.000192 0.048551 0.011744
v 0.005870 0.049008 0.013409
v 0.006018 0.047510 0.013785
v 0.011163 0.046633 0.020070
v 0.011335 0.047901 0.020357
v 0.016093 0.044243 0.026573
v 0.015435 0.043233 0.025300
v 0.005410 0.046905 0.022989
v 0.005743 0.049417 0.023548
v -0.005769 0.044335 -0.002075
v -0.005769 0.045325 -0.002249
v -0.005359 0.035700 -0.006641
v -0.005359 0.034714 -0.006547
v 0.000785 0.032334 -0.012709
v 0.000784 0.033312 -0.012804
v 0.006257 0.038639 -0.006843
v 0.006264 0.037660 -0.006763
v 0.007543 0.044026 -0.002075
v 0.007417 0.045004 -0.002249
v 0.007216 0.046884 0.008204
v 0.007213 0.046144 0.008314
v -0.000400 0.047698 0.012252
v -0.000349 0.048606 0.012125
v -0.005767 0.047414 0.007972
v -0.005769 0.046820 0.008084
v 0.000921 0.045349 -0.002245
v 0.000827 0.046411 -0.001973
v 0.012065 0.041227 0.013680
v 0.012404 0.042791 0.013961
v 0.013471 0.035601 0.014648
v 0.013172 0.035018 0.014398
v 0.011762 0.031909 0.018902
v 0.012061 0.032443 0.019152
v 0.008417 0.033655 0.021240
v 0.008126 0.033189 0.020992
v 0.006134 0.038963 0.020936
v 0.006473 0.039463 0.021199
v -0.000078 0.045645 0.015769
v -0.000380 0.045077 0.015518
v 0.001748 0.046520 0.011480
v 0.002100 0.047470 0.013154
v 0.006121 0.046154 0.009995
v 0.005807 0.045739 0.009730
v 0.009086 0.041189 0.017312
v 0.009436 0.041784 0.017594
v 0.004030 0.041527 0.000012
v 0.004299 0.042164 -0.000334
v 0.007030 0.036393 -0.001793
v 0.006806 0.035800 -0.001488
v 0.011420 0.033387 -0.000092
v 0.011644 0.033964 -0.000400
v 0.013797 0.035862 0.004496
v 0.013586 0.035272 0.004641
v 0.011346 0.041509 0.005705
v 0.011610 0.042104 0.005358
v 0.006095 0.046562 0.010693
v 0.006263 0.046305 0.011454
v -0.000339 0.048038 0.011900
v -0.000381 0.048370 0.011815
v -0.000434 0.047246 0.005352
v -0.000676 0.046651 0.005650
v 0.007540 0.042202 0.002853
v 0.007818 0.043149 0.002508
v -0.013630 0.040110 0.010636
v -0.014097 0.040767 0.010524
v -0.017762 0.034876 0.008954
v -0.017569 0.034254 0.009051
v -0.018344 0.032169 0.004120
v -0.018726 0.032784 0.004023
v -0.016118 0.034829 0.000560
v -0.015747 0.034205 0.000654
v -0.011040 0.040467 0.001270
v -0.011501 0.041071 0.001158
v -0.004178 0.046182 0.003192
v -0.003788 0.045585 0.003289
v -0.003747 0.046717 0.008267
v -0.004117 0.047221 0.008193
v -0.006929 0.046448 0.011739
v -0.006544 0.045805 0.011829
v -0.013310 0.041117 0.005961
v -0.013785 0.041736 0.005850
v -0.006078 0.037535 0.022421
v -0.006451 0.038100 0.022665
v -0.008912 0.032866 0.023828
v -0.008593 0.032387 0.023601
v -0.012748 0.030858 0.020890
v -0.013067 0.031419 0.021121
v -0.014062 0.034026 0.016902
v -0.013752 0.033469 0.016677
v -0.011630 0.039893 0.014395
v -0.011993 0.040513 0.014657
v -0.005869 0.046011 0.010406
v -0.005550 0.045417 0.010159
v -0.001762 0.045732 0.013052
v -0.002068 0.046296 0.013312
v -0.001079 0.045970 0.017930
v -0.000767 0.045383 0.017675
v -0.008854 0.040226 0.018392
v -0.009215 0.040871 0.018652
v -0.012336 0.042817 0.021614
v -0.012641 0.043938 0.021721
v -0.017499 0.036452 0.022181
v -0.017271 0.035290 0.022084
v -0.021630 0.032981 0.016376
v -0.021861 0.034155 0.016473
v -0.019811 0.037575 0.010770
v -0.019598 0.036593 0.010675
v -0.014462 0.045220 0.008694
v -0.014623 0.046133 0.008802
v -0.002891 0.047727 0.006242
v -0.002656 0.047469 0.006132
v -0.000346 0.048518 0.012467
v -0.000303 0.049121 0.012553
v -0.002681 0.048378 0.019271
v -0.002439 0.047346 0.019162
v -0.013106 0.045117 0.015161
v -0.013405 0.046166 0.015267
v 0.006548 0.042146 0.022928
v 0.006480 0.043214 0.023101
v 0.005555 0.035619 0.027662
v 0.005497 0.034609 0.027383
v -0.000906 0.032340 0.031082
v -0.000912 0.033272 0.031188
v -0.006162 0.034904 0.027664
v -0.006157 0.033969 0.027779
v -0.006582 0.042503 0.022056
v -0.006593 0.043677 0.022230
v -0.005830 0.047521 0.011260
v -0.005825 0.046564 0.011143
v 0.005174 0.047704 0.013663
v 0.005212 0.047202 0.013538
v -0.000034 0.043696 0.022331
v -0.000045 0.044663 0.022383
v 0.009102 0.045933 0.001822
v 0.009124 0.046904 0.001777
v 0.014675 0.038289 -0.000082
v 0.014583 0.037306 0.000199
v 0.019859 0.035491 0.005135
v 0.019955 0.036459 0.005108
v 0.018386 0.037799 0.010457
v 0.018309 0.036820 0.010479
v 0.013572 0.044677 0.014449
v 0.013719 0.045631 0.014404
v 0.002949 0.047836 0.017368
v 0.002830 0.046798 0.017388
v 0.000826 0.048059 0.006934
v 0.000690 0.047637 0.006933
v 0.011622 0.047739 0.008193
v 0.011734 0.048739 0.008152
v -0.000513 0.031997 0.001101
v -0.000333 0.047563 0.007892
v 0.003112 0.047021 0.008953
v 0.001933 0.032013 0.002397
v -0.002885 0.016177 -0.001417
v -0.002966 0.032007 0.002417
v 0.000099 0.016177 -0.003019
v -0.002885 0.016177 0.001788
v -0.002967 0.032016 0.005005
v 0.000099 0.016177 0.003391
v -0.000506 0.031994 0.006297
v 0.003082 0.016177 0.001788
v 0.001934 0.032019 0.004971
v 0.003082 0.016177 -0.001417
v 0.000099 0.004250 -0.004746
v 0.004689 0.004250 -0.002280
v 0.004689 0.004250 0.002652
v 0.000099 0.004250 0.005117
v -0.004492 0.004250 0.002652
v -0.004492 0.004250 -0.002280
v -0.006784 -0.002357 -0.003511
v 0.000099 -0.002357 -0.007208
v -0.006784 -0.002357 0.003883
v 0.000099 -0.002357 0.007580
v 0.006982 -0.002357 0.003883
v 0.006982 -0.002357 -0.003511
v 0.003663 0.045640 0.012066
v 0.000769 0.044800 0.014117
v -0.002676 0.045342 0.013056
v -0.003227 0.046723 0.009943
vt 0.920282 0.367166
vt 0.926223 0.409464
vt 0.826474 0.480099
vt 0.817550 0.457682
vt 0.749078 0.516245
vt 0.752087 0.583594
vt 0.724340 0.595786
vt 0.726597 0.539576
vt 0.746217 0.560328
vt 0.747442 0.575063
vt 0.816800 0.589901
vt 0.818490 0.541212
vt 0.877356 0.512725
vt 0.879322 0.553930
vt 0.933764 0.435067
vt 0.926232 0.402266
vt 0.811537 0.521571
vt 0.815343 0.603188
vt 0.683630 0.438085
vt 0.683630 0.470243
vt 0.688324 0.157511
vt 0.688327 0.125478
vt 0.758620 0.048151
vt 0.758615 0.079925
vt 0.821231 0.253012
vt 0.821313 0.221184
vt 0.835946 0.428022
vt 0.834503 0.459803
vt 0.832202 0.520897
vt 0.832162 0.496846
vt 0.745060 0.547334
vt 0.745650 0.576829
vt 0.683658 0.538099
vt 0.683637 0.518796
vt 0.760183 0.470998
vt 0.759103 0.505516
vt 0.887684 0.337076
vt 0.891561 0.387890
vt 0.903770 0.154280
vt 0.900349 0.135364
vt 0.884212 0.034336
vt 0.887634 0.051702
vt 0.845945 0.091066
vt 0.842612 0.075929
vt 0.819823 0.263538
vt 0.823702 0.279775
vt 0.748752 0.480624
vt 0.745297 0.462170
vt 0.769638 0.509050
vt 0.773669 0.539912
vt 0.819673 0.497178
vt 0.816082 0.483670
vt 0.853598 0.335849
vt 0.857597 0.355172
vt 0.795751 0.346831
vt 0.798830 0.367516
vt 0.830077 0.180022
vt 0.827515 0.160758
vt 0.880305 0.082370
vt 0.882867 0.101099
vt 0.907500 0.162767
vt 0.905085 0.143610
vt 0.879455 0.346259
vt 0.882474 0.365594
vt 0.819380 0.510434
vt 0.821302 0.502062
vt 0.745758 0.558377
vt 0.745285 0.569166
vt 0.744670 0.532635
vt 0.741902 0.513329
vt 0.835909 0.368766
vt 0.839085 0.399524
vt 0.593695 0.300811
vt 0.588352 0.322128
vt 0.546414 0.130732
vt 0.548623 0.110540
vt 0.539763 0.042795
vt 0.535395 0.062766
vt 0.565225 0.129221
vt 0.569476 0.108931
vt 0.623328 0.312395
vt 0.618051 0.332015
vt 0.701835 0.498066
vt 0.706303 0.478686
vt 0.706768 0.515457
vt 0.702539 0.531844
vt 0.670365 0.506739
vt 0.674773 0.485821
vt 0.597353 0.333500
vt 0.591916 0.353634
vt 0.680099 0.217141
vt 0.675835 0.235488
vt 0.647674 0.065424
vt 0.651320 0.049877
vt 0.603781 0.000185
vt 0.600134 0.018430
vt 0.588753 0.103124
vt 0.592299 0.085035
vt 0.616578 0.293751
vt 0.612423 0.313905
vt 0.682488 0.492508
vt 0.686138 0.473230
vt 0.729480 0.483450
vt 0.725980 0.501779
vt 0.737291 0.491190
vt 0.740864 0.472114
vt 0.648341 0.304566
vt 0.644212 0.325516
vt 0.608505 0.388756
vt 0.605005 0.425177
vt 0.549431 0.181952
vt 0.552037 0.144175
vt 0.502162 0.069158
vt 0.499521 0.107309
vt 0.522980 0.218435
vt 0.525418 0.186533
vt 0.584182 0.466838
vt 0.582332 0.496499
vt 0.716562 0.548293
vt 0.719255 0.539896
vt 0.745680 0.573986
vt 0.746179 0.593571
vt 0.718961 0.569428
vt 0.721731 0.535892
vt 0.599685 0.463461
vt 0.596270 0.497546
vt 0.824559 0.366931
vt 0.823780 0.401636
vt 0.813200 0.154887
vt 0.812532 0.122052
vt 0.739277 0.048339
vt 0.739206 0.078620
vt 0.679142 0.131639
vt 0.679199 0.101256
vt 0.674336 0.378549
vt 0.674204 0.416677
vt 0.682933 0.541588
vt 0.682996 0.510496
vt 0.808843 0.547516
vt 0.809275 0.531231
vt 0.749253 0.417294
vt 0.749128 0.448711
vt 0.853779 0.490003
vt 0.854035 0.521550
vt 0.917538 0.241616
vt 0.916492 0.209697
vt 0.976855 0.150719
vt 0.977947 0.182174
vt 0.960002 0.225709
vt 0.959118 0.193897
vt 0.904924 0.449172
vt 0.906599 0.480189
vt 0.783379 0.551819
vt 0.782022 0.518105
vt 0.759087 0.559052
vt 0.757531 0.545358
vt 0.882609 0.548673
vt 0.883892 0.581146
vt 0.221370 0.681288
vt 0.220948 0.982860
vt 0.280368 0.976955
vt 0.286606 0.677634
vt 0.161086 0.422815
vt 0.159592 0.677376
vt 0.217892 0.437476
vt 0.158993 0.389218
vt 0.157160 0.668158
vt 0.225090 0.369847
vt 0.230168 0.661789
vt 0.287064 0.389218
vt 0.297447 0.668404
vt 0.277818 0.422815
vt 0.217778 0.238710
vt 0.279886 0.214394
vt 0.289712 0.158388
vt 0.225257 0.125916
vt 0.156495 0.158388
vt 0.158894 0.214394
vt 0.158367 0.116563
vt 0.217751 0.145404
vt 0.155891 0.050059
vt 0.225298 0.011445
vt 0.290353 0.050059
vt 0.280385 0.116563
vt 0.298341 0.962467
vt 0.248797 0.953265
vt 0.182116 0.960648
vt 0.172585 0.975626
vn 0.2995 -0.8982 0.3218
vn 0.5664 0.1343 0.8131
vn -0.1392 0.3208 0.9369
vn -0.4604 -0.7282 0.5077
vn -0.7031 -0.6090 0.3670
vn -0.5215 0.6346 0.5704
vn -0.7668 0.6398 -0.0513
vn -0.7535 -0.6572 -0.0199
vn -0.4145 -0.6346 -0.6522
vn -0.3628 0.4186 -0.8326
vn 0.4445 0.5998 -0.6653
vn 0.3989 -0.6698 -0.6262
vn 0.4875 -0.6253 -0.6093
vn 0.6698 0.6805 -0.2970
vn 0.9506 0.3102 -0.0099
vn 0.5312 -0.6657 -0.5241
vn -0.1379 -0.9726 -0.1873
vn 0.1357 0.9703 0.2000
vn -0.7666 -0.5515 0.3290
vn -0.7114 0.5748 -0.4043
vn -0.8168 0.1939 -0.5433
vn -0.6363 -0.7269 0.2583
vn -0.0046 -0.9056 -0.4241
vn 0.0356 0.1581 -0.9868
vn 0.6842 0.3092 -0.6605
vn 0.7086 -0.6754 0.2045
vn 0.8007 -0.5624 0.2063
vn 0.6867 0.6042 -0.4042
vn 0.7183 0.6207 0.3143
vn 0.6369 -0.5647 0.5248
vn -0.0923 -0.4407 0.8929
vn -0.0441 0.7412 0.6698
vn -0.7408 0.6335 0.2237
vn -0.6835 -0.5605 0.4676
vn 0.0145 -0.8548 0.5188
vn -0.0181 0.8677 -0.4968
vn 0.1098 -0.3283 -0.9382
vn 0.8428 0.5184 -0.1447
vn 0.9865 0.0010 -0.1638
vn 0.1584 -0.5990 -0.7850
vn 0.0629 -0.9934 -0.0964
vn 0.7766 -0.2624 0.5727
vn 0.1392 -0.1322 0.9814
vn -0.6224 -0.7473 0.2328
vn -0.8481 -0.4563 0.2694
vn -0.0169 0.2965 0.9549
vn -0.5576 0.6577 0.5065
vn -0.9659 -0.2562 -0.0383
vn -0.5974 0.0755 -0.7984
vn -0.2101 0.9741 0.0839
vn 0.4047 0.7932 -0.4550
vn -0.0869 -0.1198 -0.9890
vn -0.5217 -0.6294 -0.5760
vn 0.5213 0.5945 0.6122
vn -0.8455 -0.4990 -0.1900
vn -0.1735 0.4582 -0.8718
vn -0.0560 0.0242 -0.9981
vn -0.6464 -0.7318 -0.2162
vn 0.0802 -0.9923 -0.0947
vn 0.6219 -0.1503 -0.7686
vn 0.9862 0.1100 0.1241
vn 0.3653 -0.6963 0.6178
vn 0.2164 -0.2689 0.9386
vn 0.7894 0.6122 -0.0450
vn 0.5146 0.8439 0.1520
vn 0.3131 -0.1926 0.9300
vn -0.1185 -0.5096 -0.8522
vn -0.0759 0.9547 -0.2878
vn -0.4974 0.6937 -0.5209
vn -0.9123 -0.4061 -0.0527
vn -0.4601 -0.7083 0.5353
vn 0.4602 0.7247 -0.5129
vn 0.3003 -0.5052 0.8091
vn -0.6525 0.4639 0.5992
vn -0.8371 0.1185 0.5341
vn -0.0021 -0.7733 0.6340
vn -0.1908 -0.9800 -0.0558
vn -0.9643 -0.0822 -0.2516
vn -0.4952 0.1141 -0.8612
vn 0.3325 -0.7457 -0.5773
vn 0.6271 -0.5304 -0.5704
vn -0.2840 0.4850 -0.8271
vn 0.2418 0.7303 -0.6389
vn 0.8739 -0.2592 -0.4113
vn 0.9539 -0.0955 0.2844
vn 0.2915 0.9484 0.1249
vn -0.1405 0.7339 0.6645
vn 0.5484 -0.2598 0.7948
vn 0.6863 -0.7074 0.1691
vn -0.6886 0.7056 -0.1675
vn 0.8720 -0.4300 0.2340
vn 0.0083 0.3746 0.9271
vn -0.1605 -0.0159 0.9869
vn 0.5566 -0.7575 0.3410
vn -0.1188 -0.9916 -0.0511
vn -0.8160 -0.1912 0.5456
vn -0.9884 0.0565 -0.1409
vn -0.1805 -0.6726 -0.7176
vn -0.0841 -0.4426 -0.8928
vn -0.8582 0.4687 -0.2092
vn -0.3272 0.7817 -0.5310
vn 0.2109 -0.1839 -0.9600
vn 0.7960 -0.1173 -0.5938
vn 0.3004 0.9489 -0.0964
vn 0.3689 0.7344 0.5698
vn 0.9871 -0.1462 0.0653
vn 0.5694 -0.6589 -0.4915
vn -0.5681 0.6590 0.4930
vn 0.5683 -0.5433 0.6180
vn -0.2868 0.5265 0.8003
vn -0.4902 0.1771 0.8534
vn 0.2045 -0.7657 0.6099
vn -0.3404 -0.9390 -0.0489
vn -0.9817 0.0881 0.1686
vn -0.8261 0.2504 -0.5049
vn -0.0376 -0.6578 -0.7522
vn 0.0638 -0.4829 -0.8733
vn -0.5457 0.6467 -0.5328
vn 0.1776 0.6338 -0.7528
vn 0.5887 -0.5027 -0.6330
vn 0.0864 -0.9962 -0.0137
vn -0.0391 0.9865 0.1591
vn 0.3658 0.6364 0.6791
vn 0.6966 -0.5353 0.4778
vn 0.5392 -0.8247 -0.1706
vn -0.5312 0.8354 0.1410
vn 0.7747 -0.4943 -0.3945
vn 0.7076 0.5523 0.4407
vn 0.6968 0.1923 0.6910
vn 0.6561 -0.7488 -0.0939
vn 0.0260 -0.9143 0.4042
vn -0.0209 0.1757 0.9842
vn -0.7747 0.2380 0.5859
vn -0.6438 -0.7644 -0.0362
vn -0.7229 -0.5495 -0.4189
vn -0.7286 0.5503 0.4078
vn -0.5757 0.6248 -0.5274
vn -0.4669 -0.5129 -0.7204
vn -0.0759 0.9547 -0.2879
vn 0.6582 0.6856 -0.3110
vn 0.5853 -0.4440 -0.6785
vn 0.0449 -0.7924 -0.6083
vn -0.0379 0.8066 0.5899
vn -0.6720 -0.5478 -0.4984
vn 0.0000 0.5961 -0.8029
vn 0.2655 0.1569 -0.9513
vn -0.2599 -0.7835 -0.5644
vn 0.3695 -0.9253 -0.0848
vn 0.9509 0.1527 -0.2692
vn 0.8728 0.1875 0.4507
vn 0.0909 -0.8098 0.5797
vn 0.0174 -0.6405 0.7677
vn 0.6034 0.5076 0.6150
vn -0.1849 0.5329 0.8257
vn -0.4011 -0.6374 0.6579
vn -0.0391 0.9865 0.1592
vn -0.5895 0.6005 -0.5403
vn -0.7088 -0.6173 -0.3413
vn -0.4713 -0.8771 0.0926
vn 0.4544 0.8849 -0.1022
vn -0.0501 0.3206 -0.9459
vn -0.0937 0.4030 -0.9104
vn 0.8101 0.1768 -0.5590
vn 0.8057 0.2030 -0.5565
vn -0.8330 0.1420 -0.5348
vn -0.8605 0.1684 -0.4807
vn 0.0040 0.1948 -0.9808
vn -0.8714 0.0280 0.4898
vn -0.8552 -0.1838 0.4846
vn 0.0078 -0.0197 0.9998
vn 0.0357 -0.3742 0.9267
vn 0.8730 0.0644 0.4835
vn 0.8944 -0.1650 0.4156
vn 0.8326 0.1701 -0.5271
vn -0.0000 0.2557 -0.9667
vn 0.8252 0.2698 -0.4963
vn 0.8252 0.2698 0.4963
vn -0.0000 0.2557 0.9667
vn -0.8252 0.2698 0.4963
vn -0.8252 0.2698 -0.4963
vn -0.8009 0.3662 -0.4738
vn -0.0000 0.3493 -0.9370
vn -0.8009 0.3662 0.4738
vn 0.0000 0.3493 0.9370
vn 0.8009 0.3662 0.4738
vn 0.8009 0.3662 -0.4738
vn 0.8825 -0.3022 0.3603
vn 0.1027 -0.5199 0.8480
vn -0.7773 -0.3144 0.5449
vn -0.9084 0.1750 -0.3796
usemtl palm_tree
s 1
f 1/1/1 2/2/2 3/3/3 4/4/4
f 5/5/5 6/6/6 7/7/7 8/8/8
f 9/9/9 10/10/10 11/11/11 12/12/12
f 13/13/13 14/14/14 15/15/15 16/16/16
f 17/17/17 9/9/9 12/12/12 13/13/13
f 18/18/18 2/2/2 15/15/15 14/14/14
f 6/6/6 3/3/3 2/2/2 18/18/18
f 5/5/5 8/8/8 9/9/9 17/17/17
f 8/8/8 7/7/7 10/10/10 9/9/9
f 16/16/16 15/15/15 2/2/2 1/1/1
f 4/4/4 5/5/5 17/17/17 1/1/1
f 7/7/7 6/6/6 18/18/18 10/10/10
f 10/10/10 18/18/18 14/14/14 11/11/11
f 1/1/1 17/17/17 13/13/13 16/16/16
f 12/12/12 11/11/11 14/14/14 13/13/13
f 4/4/4 3/3/3 6/6/6 5/5/5
f 19/19/19 20/20/20 21/21/21 22/22/22
f 23/23/23 24/24/24 25/25/25 26/26/26
f 27/27/27 28/28/28 29/29/29 30/30/30
f 31/31/31 32/32/32 33/33/33 34/34/34
f 35/35/35 27/27/27 30/30/30 31/31/31
f 36/36/36 20/20/20 33/33/33 32/32/32
f 24/24/24 21/21/21 20/20/20 36/36/36
f 23/23/23 26/26/26 27/27/27 35/35/35
f 26/26/26 25/25/25 28/28/28 27/27/27
f 34/34/34 33/33/33 20/20/20 19/19/19
f 22/22/22 23/23/23 35/35/35 19/19/19
f 25/25/25 24/24/24 36/36/36 28/28/28
f 28/28/28 36/36/36 32/32/32 29/29/29
f 19/19/19 35/35/35 31/31/31 34/34/34
f 30/30/30 29/29/29 32/32/32 31/31/31
f 22/22/22 21/21/21 24/24/24 23/23/23
f 37/37/37 38/38/38 39/39/39 40/40/40
f 41/41/41 42/42/42 43/43/43 44/44/44
f 45/45/45 46/46/46 47/47/47 48/48/48
f 49/49/49 50/50/50 51/51/51 52/52/52
f 53/53/53 45/45/45 48/48/48 49/49/49
f 54/54/54 38/38/38 51/51/51 50/50/50
f 42/42/42 39/39/39 38/38/38 54/54/54
f 41/41/41 44/44/44 45/45/45 53/53/53
f 44/44/44 43/43/43 46/46/46 45/45/45
f 52/52/52 51/51/51 38/38/38 37/37/37
f 40/40/40 41/41/41 53/53/53 37/37/37
f 43/43/43 42/42/42 54/54/54 46/46/46
f 46/46/46 54/54/54 50/50/50 47/47/47
f 37/37/37 53/53/53 49/49/49 52/52/52
f 48/48/48 47/47/47 50/50/50 49/49/49
f 40/40/40 39/39/39 42/42/42 41/41/41
f 55/55/55 56/56/56 57/57/57 58/58/58
f 59/59/59 60/60/60 61/61/61 62/62/62
f 63/63/63 64/64/64 65/65/65 66/66/66
f 67/67/67 68/68/68 69/69/69 70/70/70
f 71/71/71 63/63/63 66/66/66 67/67/67
f 72/72/72 56/56/56 69/69/69 68/68/68
f 60/60/60 57/57/57 56/56/56 72/72/72
f 59/59/59 62/62/62 63/63/63 71/71/71
f 62/62/62 61/61/61 64/64/64 63/63/63
f 70/70/70 69/69/69 56/56/56 55/55/55
f 58/58/58 59/59/59 71/71/71 55/55/55
f 61/61/61 60/60/60 72/72/72 64/64/64
f 64/64/64 72/72/72 68/68/68 65/65/65
f 55/55/55 71/71/71 67/67/67 70/70/70
f 66/66/66 65/65/65 68/68/68 67/67/67
f 58/58/58 57/57/57 60/60/60 59/59/59
f 73/73/73 74/74/74 75/75/75 76/76/76
f 77/77/77 78/78/78 79/79/79 80/80/80
f 81/81/81 82/82/82 83/83/83 84/84/84
f 85/85/85 86/86/86 87/87/87 88/88/88
f 89/89/89 81/81/81 84/84/84 85/85/85
f 90/90/90 74/74/74 87/87/87 86/86/86
f 78/78/78 75/75/75 74/74/74 90/90/90
f 77/77/77 80/80/80 81/81/81 89/89/89
f 80/80/80 79/79/79 82/82/82 81/81/81
f 88/88/88 87/87/87 74/74/74 73/73/73
f 76/76/76 77/77/77 89/89/89 73/73/73
f 79/79/79 78/78/78 90/90/90 82/82/82
f 82/82/82 90/90/90 86/86/86 83/83/83
f 73/73/73 89/89/89 85/85/85 88/88/88
f 84/84/84 83/83/83 86/86/86 85/85/85
f 76/76/76 75/75/75 78/78/78 77/77/77
f 91/91/91 92/92/92 93/93/93 94/94/94
f 95/95/95 96/96/96 97/97/97 98/98/98
f 99/99/99 100/100/100 101/101/101 102/102/102
f 103/103/103 104/104/104 105/105/105 106/106/106
f 107/107/107 99/99/99 102/102/102 103/103/103
f 108/108/108 92/92/92 105/105/105 104/104/104
f 96/96/96 93/93/93 92/92/92 108/108/108
f 95/95/95 98/98/98 99/99/99 107/107/107
f 98/98/98 97/97/97 100/100/100 99/99/99
f 106/106/106 105/105/105 92/92/92 91/91/91
f 94/94/94 95/95/95 107/107/107 91/91/91
f 97/97/97 96/96/96 108/108/108 100/100/100
f 100/100/100 108/108/108 104/104/104 101/101/101
f 91/91/91 107/107/107 103/103/103 106/106/106
f 102/102/102 101/101/101 104/104/104 103/103/103
f 94/94/94 93/93/93 96/96/96 95/95/95
f 109/109/109 110/110/110 111/111/111 112/112/112
f 113/113/113 114/114/114 115/115/115 116/116/116
f 117/117/117 118/118/118 119/119/119 120/120/120
f 121/121/121 122/122/122 123/123/123 124/124/124
f 125/125/125 117/117/117 120/120/120 121/121/121
f 126/126/126 110/110/110 123/123/123 122/122/122
f 114/114/114 111/111/111 110/110/110 126/126/126
f 113/113/113 116/116/116 117/117/117 125/125/125
f 116/116/116 115/115/115 118/118/118 117/117/117
f 124/124/124 123/123/123 110/110/110 109/109/109
f 112/112/112 113/113/113 125/125/125 109/109/109
f 115/115/115 114/114/114 126/126/126 118/118/118
f 118/118/118 126/126/126 122/122/122 119/119/119
f 109/109/109 125/125/125 121/121/121 124/124/124
f 120/120/120 119/119/119 122/122/122 121/121/121
f 112/112/112 111/111/111 114/114/114 113/113/113
f 127/127/127 128/128/128 129/129/129 130/130/130
f 131/131/131 132/132/132 133/133/133 134/134/134
f 135/135/135 136/136/136 137/137/137 138/138/138
f 67/67/67 68/68/139 139/139/140 140/140/141
f 141/141/142 135/135/135 138/138/138 67/67/67
f 142/142/143 128/128/128 139/139/140 68/68/139
f 132/132/132 129/129/129 128/128/128 142/142/143
f 131/131/131 134/134/134 135/135/135 141/141/142
f 134/134/134 133/133/133 136/136/136 135/135/135
f 140/140/141 139/139/140 128/128/128 127/127/127
f 130/130/130 131/131/131 141/141/142 127/127/127
f 133/133/133 132/132/132 142/142/143 136/136/136
f 136/136/136 142/142/143 68/68/139 137/137/137
f 127/127/127 141/141/142 67/67/67 140/140/141
f 138/138/138 137/137/137 68/68/139 67/67/67
f 130/130/130 129/129/129 132/132/132 131/131/131
f 143/143/144 144/144/145 145/145/146 146/146/147
f 147/147/148 148/148/149 149/149/150 150/150/151
f 151/151/152 152/152/153 153/153/154 154/154/155
f 121/121/121 122/122/156 155/155/157 156/156/158
f 157/157/159 151/151/152 154/154/155 121/121/121
f 158/158/160 144/144/145 155/155/157 122/122/156
f 148/148/149 145/145/146 144/144/145 158/158/160
f 147/147/148 150/150/151 151/151/152 157/157/159
f 150/150/151 149/149/150 152/152/153 151/151/152
f 156/156/158 155/155/157 144/144/145 143/143/144
f 146/146/147 147/147/148 157/157/159 143/143/144
f 149/149/150 148/148/149 158/158/160 152/152/153
f 152/152/153 158/158/160 122/122/156 153/153/154
f 143/143/144 157/157/159 121/121/121 156/156/158
f 154/154/155 153/153/154 122/122/156 121/121/121
f 146/146/147 145/145/146 148/148/149 147/147/148
f 159/159/161 160/160/162 161/161/163 162/162/164
f 163/163/165 164/164/166 159/159/161 165/165/167
f 166/166/168 167/167/169 164/164/166 163/163/165
f 168/168/170 169/169/171 167/167/169 166/166/168
f 170/170/172 171/171/173 169/169/171 168/168/170
f 172/172/174 162/162/164 171/171/173 170/170/172
f 165/165/167 159/159/161 162/162/164 172/172/174
f 173/173/175 165/165/167 172/172/174 174/174/176
f 174/174/176 172/172/174 170/170/172 175/175/177
f 175/175/177 170/170/172 168/168/170 176/176/178
f 176/176/178 168/168/170 166/166/168 177/177/179
f 177/177/179 166/166/168 163/163/165 178/178/180
f 178/178/180 163/163/165 165/165/167 173/173/175
f 179/179/181 178/178/180 173/173/175 180/180/182
f 181/181/183 177/177/179 178/178/180 179/179/181
f 182/182/184 176/176/178 177/177/179 181/181/183
f 183/183/185 175/175/177 176/176/178 182/182/184
f 184/184/186 174/174/176 175/175/177 183/183/185
f 180/180/182 173/173/175 174/174/176 184/184/186
f 185/185/187 171/171/173 162/162/164 161/161/163
f 186/186/188 169/169/171 171/171/173 185/185/187
f 187/187/189 167/167/169 169/169/171 186/186/188
f 188/188/190 164/164/166 167/167/169 187/187/189
f 160/160/162 159/159/161 164/164/166 188/188/190
