# Blender v2.79 (sub 0) OBJ File: ''
# www.blender.org
mtllib plateau.mtl
o plateau.006_plateau_Plane.001
v -0.037654 0.408154 0.582887
v -0.040168 0.433343 0.615219
v -0.048535 0.452428 0.595929
v -0.046477 0.430599 0.565252
v 0.011466 0.455412 0.551790
v 0.008909 0.473134 0.579412
v 0.019360 0.453597 0.596082
v 0.020864 0.432701 0.569397
v 0.008766 0.432899 0.614419
v 0.010146 0.409154 0.585732
v 0.000315 0.365733 0.593761
v -0.004772 0.380746 0.602965
v -0.026495 0.383163 0.600095
v -0.028362 0.367925 0.589456
v 0.056441 0.362531 0.561254
v 0.026921 0.372775 0.578919
v 0.038910 0.338035 0.578338
v -0.068443 0.450440 0.486513
v -0.094313 0.394323 0.526672
v -0.071064 0.409865 0.543541
v -0.054117 0.451549 0.514167
v -0.081168 0.362707 0.551280
v -0.049039 0.365868 0.577812
v -0.036461 0.325899 0.582032
v -0.032526 0.351387 0.589116
v -0.063539 0.336121 0.572443
v -0.015972 0.425905 0.621385
v -0.014453 0.401476 0.588911
v 0.002242 0.459561 0.595136
v 0.001056 0.467137 0.607133
v -0.004485 0.455010 0.614656
v -0.003782 0.449372 0.606148
v -0.014903 0.471012 0.582596
v -0.014902 0.479877 0.597596
v -0.004241 0.478288 0.599879
v -0.003638 0.469327 0.585605
v -0.015904 0.450643 0.616590
v -0.015509 0.445635 0.609086
v -0.038232 0.472168 0.577329
v -0.036984 0.453946 0.548840
v -0.014898 0.477149 0.572867
v -0.012629 0.461987 0.544563
v 0.014940 0.384854 0.581473
v 0.034422 0.420147 0.558309
v 0.049475 0.452513 0.493395
v -0.008947 0.472158 0.474510
v -0.010556 0.467055 0.505675
v 0.032474 0.453938 0.519327
v -0.037356 0.380944 0.579012
v -0.023031 0.394532 0.592423
v -0.006549 0.393367 0.594328
v -0.012769 0.417807 0.629274
v -0.013220 0.414295 0.636587
v -0.019840 0.417953 0.629382
v -0.020178 0.414366 0.636392
v -0.031483 0.457716 0.595574
v -0.026667 0.447813 0.606492
v -0.026146 0.467929 0.584905
v -0.015245 0.465170 0.607645
v -0.031334 0.464187 0.606773
v -0.025853 0.475675 0.599231
v -0.026782 0.452950 0.614637
v -0.044576 0.448008 0.530088
v -0.055334 0.415518 0.552348
v 0.072449 0.397255 0.536404
v 0.049339 0.413504 0.550858
v 0.013610 0.327796 0.584193
v 0.005656 0.350620 0.593211
v -0.011387 0.459636 0.523793
v 0.021607 0.450973 0.534315
vt 0.351719 0.481330
vt 0.355932 0.868730
vt 0.498976 0.835509
vt 0.503843 0.479809
vt 0.660207 0.487111
vt 0.647437 0.796864
vt 0.511100 0.806639
vt 0.507095 0.486609
vt 0.362065 0.833798
vt 0.352233 0.482646
vt 0.138689 0.303360
vt 0.173116 0.460278
vt 0.190291 0.463991
vt 0.158726 0.298738
vt 0.235550 0.009847
vt 0.219579 0.216827
vt 0.073438 0.009847
vt 0.839456 0.009847
vt 0.466396 0.009847
vt 0.481659 0.212278
vt 0.757050 0.216932
vt 0.252942 0.009847
vt 0.184954 0.210462
vt 0.000983 0.009847
vt 0.088252 0.205043
vt 0.072680 0.009847
vt 0.306869 0.860189
vt 0.306264 0.476547
vt 0.537862 0.842408
vt 0.531785 0.976301
vt 0.454878 0.967565
vt 0.458032 0.871197
vt 0.625428 0.821735
vt 0.615386 0.984916
vt 0.602418 0.987409
vt 0.609782 0.828838
vt 0.428618 0.963644
vt 0.431229 0.878569
vt 0.644700 0.801116
vt 0.657959 0.482724
vt 0.683045 0.783007
vt 0.708978 0.482724
vt 0.261968 0.310747
vt 0.490239 0.324804
vt 0.839456 0.009847
vt 0.978007 0.009847
vt 0.855841 0.216943
vt 0.760435 0.222632
vt 0.247217 0.298323
vt 0.264179 0.468442
vt 0.254896 0.467353
vt 0.247088 0.872241
vt 0.208462 0.907808
vt 0.246579 0.877689
vt 0.208618 0.910484
vt 0.524751 0.853491
vt 0.447668 0.877322
vt 0.603507 0.827803
vt 0.519863 0.977846
vt 0.516635 0.974401
vt 0.590846 0.979429
vt 0.443593 0.967815
vt 0.691780 0.311873
vt 0.479439 0.302125
vt 0.466396 0.009847
vt 0.487263 0.223058
vt 0.007797 0.009847
vt 0.076080 0.211007
vt 0.765690 0.312150
vt 0.698353 0.324792
vn -0.7826 -0.2568 0.5671
vn -0.6197 -0.0549 0.7829
vn -0.8350 0.3838 0.3944
vn -0.9798 0.1284 0.1534
vn 0.6372 0.7643 -0.0990
vn 0.5408 0.8333 0.1146
vn 0.8088 0.3774 0.4511
vn 0.9281 0.2119 0.3063
vn 0.5770 -0.0736 0.8134
vn 0.6792 -0.1936 0.7080
vn 0.2384 -0.0321 0.9706
vn 0.4727 -0.3168 0.8223
vn -0.7249 -0.2804 0.6292
vn -0.4570 -0.0399 0.8886
vn 0.5764 0.2166 0.7880
vn 0.4971 0.1791 0.8490
vn 0.4653 0.0623 0.8829
vn -0.5358 0.8005 0.2685
vn -0.6989 0.4223 0.5773
vn -0.6501 0.4567 0.6073
vn -0.4937 0.7976 0.3465
vn -0.6457 0.2335 0.7270
vn -0.5481 0.1785 0.8172
vn -0.2726 -0.1857 0.9440
vn -0.2911 -0.0759 0.9537
vn -0.5459 0.0555 0.8360
vn -0.0138 -0.2589 0.9658
vn -0.0516 -0.2272 0.9725
vn 0.6579 0.5337 0.5313
vn 0.7344 0.3764 0.5648
vn 0.5156 -0.0978 0.8512
vn 0.5422 0.1115 0.8328
vn -0.0635 0.9921 0.1083
vn -0.0742 0.9879 0.1362
vn 0.4737 0.8503 0.2293
vn 0.3525 0.9062 0.2335
vn 0.0091 -0.2964 0.9550
vn 0.0464 -0.1109 0.9927
vn -0.5867 0.8078 0.0562
vn -0.6904 0.6996 -0.1841
vn -0.0254 0.9987 -0.0453
vn -0.0162 0.9530 -0.3026
vn 0.5404 0.1894 0.8198
vn 0.6520 0.4121 0.6364
vn 0.4932 0.8194 0.2923
vn -0.0282 0.9890 0.1452
vn -0.0359 0.9720 0.2322
vn 0.4405 0.8236 0.3574
vn -0.6644 0.1891 0.7230
vn -0.7325 0.4774 0.4854
vn 0.6634 0.4792 0.5747
vn 0.5792 0.8145 -0.0320
vn 0.4443 0.1608 0.8813
vn -0.5015 0.8628 -0.0641
vn -0.5980 0.1735 0.7825
vn -0.6906 0.5486 0.4713
vn -0.5304 0.1459 0.8351
vn -0.4081 0.8744 0.2625
vn -0.0641 0.5468 0.8348
vn -0.7876 0.3467 0.5095
vn -0.5704 0.7916 0.2192
vn -0.5648 -0.1537 0.8108
vn -0.5529 0.7764 0.3025
vn -0.7405 0.3604 0.5672
vn 0.6544 0.4202 0.6287
vn 0.6132 0.4593 0.6427
vn 0.2021 -0.1572 0.9667
vn 0.1700 -0.0777 0.9824
vn -0.0440 0.9851 0.1663
vn 0.4641 0.8225 0.3288
usemtl plateau.001
s 1
f 1/1/1 2/2/2 3/3/3 4/4/4
f 5/5/5 6/6/6 7/7/7 8/8/8
f 8/8/8 7/7/7 9/9/9 10/10/10
f 11/11/11 12/12/12 13/13/13 14/14/14
f 15/15/15 16/16/16 17/17/17
f 18/18/18 19/19/19 20/20/20 21/21/21
f 19/19/19 22/22/22 23/23/23 20/20/20
f 24/24/24 25/25/25 23/23/23 26/26/26
f 10/10/10 9/9/9 27/27/27 28/28/28
f 29/29/29 30/30/30 31/31/31 32/32/32
f 33/33/33 34/34/34 35/35/35 36/36/36
f 32/32/32 31/31/31 37/37/37 38/38/38
f 4/4/4 3/3/3 39/39/39 40/40/40
f 40/40/40 39/39/39 41/41/41 42/42/42
f 42/42/42 41/41/41 6/6/6 5/5/5
f 28/28/28 27/27/27 2/2/2 1/1/1
f 8/8/8 10/10/10 43/43/43 44/44/44
f 36/36/36 35/35/35 30/30/30 29/29/29
f 45/45/45 46/46/46 47/47/47 48/48/48
f 23/23/23 22/22/22 26/26/26
f 18/18/18 21/21/21 47/47/47 46/46/46
f 1/1/1 49/49/49 50/50/50 28/28/28
f 51/51/51 52/52/52 53/53/53 12/12/12
f 52/52/52 54/54/54 55/55/55 53/53/53
f 50/50/50 54/54/54 52/52/52 51/51/51
f 13/13/13 55/55/55 54/54/54 50/50/50
f 12/12/12 53/53/53 55/55/55 13/13/13
f 51/51/51 28/28/28 50/50/50
f 56/56/56 3/3/3 2/2/2 57/57/57
f 29/29/29 7/7/7 6/6/6 36/36/36
f 32/32/32 9/9/9 7/7/7 29/29/29
f 58/58/58 39/39/39 3/3/3 56/56/56
f 36/36/36 6/6/6 41/41/41 33/33/33
f 33/33/33 41/41/41 39/39/39 58/58/58
f 38/38/38 27/27/27 9/9/9 32/32/32
f 57/57/57 2/2/2 27/27/27 38/38/38
f 30/30/30 59/59/59 37/37/37 31/31/31
f 60/60/60 59/59/59 34/34/34 61/61/61
f 59/59/59 30/30/30 35/35/35 34/34/34
f 59/59/59 60/60/60 62/62/62 37/37/37
f 57/57/57 62/62/62 60/60/60 56/56/56
f 38/38/38 37/37/37 62/62/62 57/57/57
f 58/58/58 61/61/61 34/34/34 33/33/33
f 56/56/56 60/60/60 61/61/61 58/58/58
f 13/13/13 50/50/50 49/49/49 14/14/14
f 10/10/10 28/28/28 51/51/51 43/43/43
f 4/4/4 40/40/40 63/63/63 64/64/64
f 15/15/15 65/65/65 66/66/66 16/16/16
f 67/67/67 17/17/17 16/16/16 68/68/68
f 49/49/49 1/1/1 4/4/4 64/64/64
f 66/66/66 65/65/65 45/45/45 48/48/48
f 40/40/40 42/42/42 69/69/69 63/63/63
f 42/42/42 5/5/5 70/70/70 69/69/69
f 68/68/68 25/25/25 24/24/24 67/67/67
f 69/69/69 47/47/47 21/21/21 63/63/63
f 68/68/68 11/11/11 14/14/14 25/25/25
f 64/64/64 20/20/20 23/23/23 49/49/49
f 70/70/70 48/48/48 47/47/47 69/69/69
f 48/48/48 70/70/70 44/44/44 66/66/66
f 70/70/70 5/5/5 8/8/8 44/44/44
f 49/49/49 23/23/23 25/25/25 14/14/14
f 43/43/43 16/16/16 66/66/66 44/44/44
f 63/63/63 21/21/21 20/20/20 64/64/64
f 11/11/11 68/68/68 16/16/16 43/43/43
f 51/51/51 12/12/12 11/11/11 43/43/43
o plateau.005_plateau_Plane.001
v -0.257052 0.003572 0.665304
v -0.271243 0.007291 0.703657
v -0.268449 0.035132 0.698812
v -0.255087 0.033336 0.663598
v -0.195140 0.040189 0.686263
v -0.207978 0.040530 0.716573
v -0.207796 0.012997 0.719846
v -0.196604 0.010036 0.687956
v -0.227245 -0.009195 0.717361
v -0.215542 -0.013300 0.682221
v -0.231850 -0.048172 0.658463
v -0.239072 -0.039492 0.672902
v -0.256976 -0.028753 0.665827
v -0.255351 -0.034508 0.648133
v -0.167700 -0.052716 0.649453
v -0.200904 -0.043918 0.659869
v -0.193138 -0.074882 0.641653
v -0.238142 0.097373 0.611751
v -0.284108 0.041226 0.598882
v -0.269365 0.036737 0.627677
v -0.237448 0.078973 0.636894
v -0.286134 -0.000820 0.601328
v -0.268863 -0.023051 0.632211
v -0.263169 -0.060815 0.614462
v -0.260438 -0.045876 0.636477
v -0.282174 -0.038647 0.605685
v -0.253045 -0.009937 0.710787
v -0.239610 -0.012650 0.672502
v -0.222113 0.023953 0.717728
v -0.227767 0.024032 0.730795
v -0.237147 0.012484 0.727185
v -0.233285 0.012267 0.717715
v -0.230835 0.045263 0.710508
v -0.236636 0.044384 0.726915
v -0.228272 0.038341 0.730777
v -0.222261 0.038563 0.715022
v -0.248595 0.011918 0.722514
v -0.245393 0.011776 0.714072
v -0.249232 0.056808 0.700429
v -0.237227 0.056971 0.668790
v -0.225976 0.055142 0.707177
v -0.212858 0.057260 0.677857
v -0.211616 -0.031735 0.665596
v -0.180762 0.001399 0.676174
v -0.135716 0.055514 0.653141
v -0.177737 0.100516 0.634042
v -0.193389 0.080810 0.653188
v -0.162201 0.048857 0.667898
v -0.257577 -0.015821 0.645833
v -0.249455 -0.017018 0.668244
v -0.235688 -0.024501 0.673825
v -0.254409 -0.021478 0.712524
v -0.258361 -0.027891 0.715571
v -0.260756 -0.019027 0.710588
v -0.264479 -0.025379 0.713401
v -0.252583 0.033689 0.706878
v -0.254010 0.018609 0.710197
v -0.242173 0.045447 0.706953
v -0.242726 0.027739 0.725109
v -0.256796 0.032867 0.719081
v -0.247519 0.043944 0.722266
v -0.257233 0.018424 0.719270
v -0.236279 0.064667 0.649184
v -0.258688 0.031249 0.642265
v -0.139257 -0.017973 0.657416
v -0.164770 -0.004965 0.671087
v -0.219248 -0.077396 0.632106
v -0.228229 -0.061531 0.650359
v -0.202804 0.065830 0.661612
v -0.178786 0.042394 0.673789
vt 0.351719 0.481330
vt 0.355932 0.868730
vt 0.498976 0.835509
vt 0.503843 0.479809
vt 0.660207 0.487111
vt 0.647437 0.796864
vt 0.511100 0.806639
vt 0.507095 0.486609
vt 0.362065 0.833798
vt 0.352233 0.482646
vt 0.138689 0.303360
vt 0.173116 0.460278
vt 0.190291 0.463991
vt 0.158726 0.298738
vt 0.235550 0.009847
vt 0.219579 0.216827
vt 0.073438 0.009847
vt 0.839456 0.009847
vt 0.466396 0.009847
vt 0.481659 0.212278
vt 0.757050 0.216932
vt 0.252942 0.009847
vt 0.184954 0.210462
vt 0.000983 0.009847
vt 0.088252 0.205043
vt 0.072680 0.009847
vt 0.306869 0.860189
vt 0.306264 0.476547
vt 0.537862 0.842408
vt 0.531785 0.976301
vt 0.454878 0.967565
vt 0.458032 0.871197
vt 0.625428 0.821735
vt 0.615386 0.984916
vt 0.602418 0.987409
vt 0.609782 0.828838
vt 0.428618 0.963644
vt 0.431229 0.878569
vt 0.644700 0.801116
vt 0.657959 0.482724
vt 0.683045 0.783007
vt 0.708978 0.482724
vt 0.261968 0.310747
vt 0.490239 0.324804
vt 0.839456 0.009847
vt 0.978007 0.009847
vt 0.855841 0.216943
vt 0.760435 0.222632
vt 0.247217 0.298323
vt 0.264179 0.468442
vt 0.254896 0.467353
vt 0.247088 0.872241
vt 0.208462 0.907808
vt 0.246579 0.877689
vt 0.208618 0.910484
vt 0.524751 0.853491
vt 0.447668 0.877322
vt 0.603507 0.827803
vt 0.519863 0.977846
vt 0.516635 0.974401
vt 0.590846 0.979429
vt 0.443593 0.967815
vt 0.691780 0.311873
vt 0.479439 0.302125
vt 0.466396 0.009847
vt 0.487263 0.223058
vt 0.007797 0.009847
vt 0.076080 0.211007
vt 0.765690 0.312150
vt 0.698353 0.324792
vn -0.9724 -0.2322 0.0235
vn -0.9036 -0.2417 0.3536
vn -0.8841 0.3775 0.2756
vn -0.9306 0.3521 -0.1006
vn 0.6828 0.4347 0.5872
vn 0.5088 0.4100 0.7569
vn 0.5578 -0.2133 0.8021
vn 0.7129 -0.3078 0.6301
vn 0.1495 -0.6771 0.7205
vn 0.2763 -0.7506 0.6002
vn -0.2183 -0.6120 0.7601
vn 0.0302 -0.8370 0.5464
vn -0.9504 -0.3026 0.0715
vn -0.8036 -0.3400 0.4885
vn 0.1869 -0.4363 0.8802
vn 0.0858 -0.4707 0.8781
vn 0.0317 -0.5691 0.8217
vn -0.5232 0.6683 0.5288
vn -0.8397 0.2662 0.4733
vn -0.8062 0.2610 0.5309
vn -0.5203 0.6111 0.5965
vn -0.8757 0.0222 0.4824
vn -0.8333 -0.1010 0.5435
vn -0.6769 -0.5456 0.4941
vn -0.6875 -0.4583 0.5633
vn -0.8510 -0.2079 0.4823
vn -0.4622 -0.7018 0.5421
vn -0.4959 -0.6677 0.5553
vn 0.4020 -0.0816 0.9120
vn 0.4411 -0.2482 0.8625
vn 0.0758 -0.6950 0.7150
vn 0.1269 -0.5305 0.8381
vn -0.0133 0.7421 0.6702
vn -0.0355 0.7279 0.6848
vn 0.3999 0.3862 0.8312
vn 0.2950 0.4688 0.8326
vn -0.4404 -0.7333 0.5180
vn -0.4067 -0.6203 0.6707
vn -0.4743 0.8020 0.3632
vn -0.4709 0.8776 0.0902
vn 0.0891 0.8144 0.5734
vn 0.2066 0.9098 0.3601
vn 0.1382 -0.4621 0.8760
vn 0.3392 -0.2297 0.9122
vn 0.3867 0.3225 0.8640
vn 0.0017 0.7085 0.7057
vn -0.0452 0.6524 0.7565
vn 0.3113 0.3097 0.8984
vn -0.8947 -0.0042 0.4466
vn -0.8241 0.3686 0.4301
vn 0.3828 -0.1488 0.9118
vn 0.6061 0.4587 0.6498
vn 0.0227 -0.4840 0.8748
vn -0.3402 0.8789 0.3344
vn -0.8631 -0.0699 0.5003
vn -0.7740 0.4176 0.4760
vn -0.8285 -0.1418 0.5418
vn -0.3998 0.6861 0.6079
vn -0.3752 0.0146 0.9268
vn -0.8960 0.2723 0.3509
vn -0.5331 0.6987 0.4771
vn -0.8760 -0.3522 0.3296
vn -0.5556 0.6375 0.5337
vn -0.8782 0.2370 0.4155
vn 0.3455 -0.2202 0.9122
vn 0.3061 -0.1829 0.9343
vn -0.2604 -0.6957 0.6695
vn -0.2887 -0.6307 0.7203
vn -0.0221 0.6998 0.7140
vn 0.3449 0.3158 0.8839
usemtl plateau.001
s 1
f 71/71/71 72/72/72 73/73/73 74/74/74
f 75/75/75 76/76/76 77/77/77 78/78/78
f 78/78/78 77/77/77 79/79/79 80/80/80
f 81/81/81 82/82/82 83/83/83 84/84/84
f 85/85/85 86/86/86 87/87/87
f 88/88/88 89/89/89 90/90/90 91/91/91
f 89/89/89 92/92/92 93/93/93 90/90/90
f 94/94/94 95/95/95 93/93/93 96/96/96
f 80/80/80 79/79/79 97/97/97 98/98/98
f 99/99/99 100/100/100 101/101/101 102/102/102
f 103/103/103 104/104/104 105/105/105 106/106/106
f 102/102/102 101/101/101 107/107/107 108/108/108
f 74/74/74 73/73/73 109/109/109 110/110/110
f 110/110/110 109/109/109 111/111/111 112/112/112
f 112/112/112 111/111/111 76/76/76 75/75/75
f 98/98/98 97/97/97 72/72/72 71/71/71
f 78/78/78 80/80/80 113/113/113 114/114/114
f 106/106/106 105/105/105 100/100/100 99/99/99
f 115/115/115 116/116/116 117/117/117 118/118/118
f 93/93/93 92/92/92 96/96/96
f 88/88/88 91/91/91 117/117/117 116/116/116
f 71/71/71 119/119/119 120/120/120 98/98/98
f 121/121/121 122/122/122 123/123/123 82/82/82
f 122/122/122 124/124/124 125/125/125 123/123/123
f 120/120/120 124/124/124 122/122/122 121/121/121
f 83/83/83 125/125/125 124/124/124 120/120/120
f 82/82/82 123/123/123 125/125/125 83/83/83
f 121/121/121 98/98/98 120/120/120
f 126/126/126 73/73/73 72/72/72 127/127/127
f 99/99/99 77/77/77 76/76/76 106/106/106
f 102/102/102 79/79/79 77/77/77 99/99/99
f 128/128/128 109/109/109 73/73/73 126/126/126
f 106/106/106 76/76/76 111/111/111 103/103/103
f 103/103/103 111/111/111 109/109/109 128/128/128
f 108/108/108 97/97/97 79/79/79 102/102/102
f 127/127/127 72/72/72 97/97/97 108/108/108
f 100/100/100 129/129/129 107/107/107 101/101/101
f 130/130/130 129/129/129 104/104/104 131/131/131
f 129/129/129 100/100/100 105/105/105 104/104/104
f 129/129/129 130/130/130 132/132/132 107/107/107
f 127/127/127 132/132/132 130/130/130 126/126/126
f 108/108/108 107/107/107 132/132/132 127/127/127
f 128/128/128 131/131/131 104/104/104 103/103/103
f 126/126/126 130/130/130 131/131/131 128/128/128
f 83/83/83 120/120/120 119/119/119 84/84/84
f 80/80/80 98/98/98 121/121/121 113/113/113
f 74/74/74 110/110/110 133/133/133 134/134/134
f 85/85/85 135/135/135 136/136/136 86/86/86
f 137/137/137 87/87/87 86/86/86 138/138/138
f 119/119/119 71/71/71 74/74/74 134/134/134
f 136/136/136 135/135/135 115/115/115 118/118/118
f 110/110/110 112/112/112 139/139/139 133/133/133
f 112/112/112 75/75/75 140/140/140 139/139/139
f 138/138/138 95/95/95 94/94/94 137/137/137
f 139/139/139 117/117/117 91/91/91 133/133/133
f 138/138/138 81/81/81 84/84/84 95/95/95
f 134/134/134 90/90/90 93/93/93 119/119/119
f 140/140/140 118/118/118 117/117/117 139/139/139
f 118/118/118 140/140/140 114/114/114 136/136/136
f 140/140/140 75/75/75 78/78/78 114/114/114
f 119/119/119 93/93/93 95/95/95 84/84/84
f 113/113/113 86/86/86 136/136/136 114/114/114
f 133/133/133 91/91/91 90/90/90 134/134/134
f 81/81/81 138/138/138 86/86/86 113/113/113
f 121/121/121 82/82/82 81/81/81 113/113/113
o plateau.004_plateau_Plane.001
v 0.204455 0.121209 0.673856
v 0.212304 0.129547 0.713290
v 0.189318 0.113597 0.718146
v 0.180673 0.105270 0.682400
v 0.136956 0.152632 0.682203
v 0.146182 0.159581 0.713029
v 0.166929 0.176513 0.705840
v 0.160702 0.169108 0.673323
v 0.196333 0.174624 0.702877
v 0.190520 0.166512 0.666974
v 0.226677 0.162718 0.640054
v 0.225378 0.160619 0.658216
v 0.228788 0.139291 0.662623
v 0.231441 0.134423 0.644787
v 0.187687 0.202819 0.607057
v 0.203211 0.181479 0.631389
v 0.220816 0.194239 0.601756
v 0.119478 0.054572 0.654815
v 0.191515 0.048542 0.640484
v 0.186228 0.075525 0.658107
v 0.133769 0.078071 0.669470
v 0.224620 0.071571 0.628168
v 0.231118 0.111042 0.640253
v 0.255225 0.126414 0.609332
v 0.242942 0.131326 0.632576
v 0.250683 0.097205 0.616806
v 0.213594 0.154663 0.706484
v 0.205486 0.145309 0.667749
v 0.167993 0.159977 0.713251
v 0.172100 0.162931 0.726560
v 0.186834 0.161245 0.722760
v 0.184132 0.159036 0.713143
v 0.157404 0.138810 0.717960
v 0.162446 0.143913 0.733840
v 0.161646 0.154727 0.731889
v 0.156984 0.150460 0.716253
v 0.194611 0.151616 0.722772
v 0.192322 0.149460 0.714307
v 0.160425 0.115170 0.720265
v 0.151319 0.106712 0.688789
v 0.146653 0.134868 0.716877
v 0.135425 0.127262 0.687683
v 0.201258 0.170677 0.644636
v 0.156405 0.178225 0.654276
v 0.085252 0.166301 0.637450
v 0.078245 0.104082 0.652791
v 0.104037 0.114452 0.667860
v 0.108165 0.160110 0.657455
v 0.218737 0.121506 0.650373
v 0.215091 0.139038 0.666153
v 0.211891 0.155084 0.663165
v 0.223249 0.161000 0.704314
v 0.230781 0.163490 0.706069
v 0.225500 0.154479 0.705877
v 0.232828 0.156965 0.707370
v 0.180274 0.128984 0.718691
v 0.192691 0.138038 0.716624
v 0.164582 0.129415 0.719158
v 0.178925 0.148121 0.728536
v 0.184083 0.132938 0.730403
v 0.169758 0.134598 0.733708
v 0.195263 0.140684 0.725520
v 0.144212 0.093024 0.674414
v 0.183865 0.093074 0.664695
v 0.143112 0.206551 0.615925
v 0.150529 0.189635 0.641730
v 0.239513 0.173518 0.602290
v 0.234086 0.168275 0.626959
v 0.121800 0.120817 0.673148
v 0.124127 0.155772 0.666283
vt 0.351719 0.481330
vt 0.355932 0.868730
vt 0.498976 0.835509
vt 0.503843 0.479809
vt 0.660207 0.487111
vt 0.647437 0.796864
vt 0.511100 0.806639
vt 0.507095 0.486609
vt 0.362065 0.833798
vt 0.352233 0.482646
vt 0.138689 0.303360
vt 0.173116 0.460278
vt 0.190291 0.463991
vt 0.158726 0.298738
vt 0.235550 0.009847
vt 0.219579 0.216827
vt 0.073438 0.009847
vt 0.839456 0.009847
vt 0.466396 0.009847
vt 0.481659 0.212278
vt 0.757050 0.216932
vt 0.252942 0.009847
vt 0.184954 0.210462
vt 0.000983 0.009847
vt 0.088252 0.205043
vt 0.072680 0.009847
vt 0.306869 0.860189
vt 0.306264 0.476547
vt 0.537862 0.842408
vt 0.531785 0.976301
vt 0.454878 0.967565
vt 0.458032 0.871197
vt 0.625428 0.821735
vt 0.615386 0.984916
vt 0.602418 0.987409
vt 0.609782 0.828838
vt 0.428618 0.963644
vt 0.431229 0.878569
vt 0.644700 0.801116
vt 0.657959 0.482724
vt 0.683045 0.783007
vt 0.708978 0.482724
vt 0.261968 0.310747
vt 0.490239 0.324804
vt 0.839456 0.009847
vt 0.978007 0.009847
vt 0.855841 0.216943
vt 0.760435 0.222632
vt 0.247217 0.298323
vt 0.264179 0.468442
vt 0.254896 0.467353
vt 0.247088 0.872241
vt 0.208462 0.907808
vt 0.246579 0.877689
vt 0.208618 0.910484
vt 0.524751 0.853491
vt 0.447668 0.877322
vt 0.603507 0.827803
vt 0.519863 0.977846
vt 0.516635 0.974401
vt 0.590846 0.979429
vt 0.443593 0.967815
vt 0.691780 0.311873
vt 0.479439 0.302125
vt 0.466396 0.009847
vt 0.487263 0.223058
vt 0.007797 0.009847
vt 0.076080 0.211007
vt 0.765690 0.312150
vt 0.698353 0.324792
vn 0.8140 -0.5006 0.2947
vn 0.7875 -0.2803 0.5489
vn 0.3053 -0.6478 0.6980
vn 0.3418 -0.8579 0.3836
vn -0.7553 0.5127 0.4083
vn -0.6166 0.4990 0.6090
vn -0.1773 0.8970 0.4049
vn -0.2139 0.9626 0.1663
vn 0.4374 0.8411 0.3182
vn 0.4054 0.9031 0.1419
vn 0.6310 0.5836 0.5111
vn 0.6301 0.7608 0.1554
vn 0.8543 -0.4228 0.3024
vn 0.8007 -0.0910 0.5921
vn 0.2369 0.8155 0.5281
vn 0.3291 0.7668 0.5511
vn 0.4368 0.7562 0.4872
vn -0.1419 -0.4398 0.8868
vn 0.3670 -0.4557 0.8110
vn 0.3509 -0.4012 0.8461
vn -0.0983 -0.3716 0.9232
vn 0.5748 -0.3406 0.7441
vn 0.6419 -0.2137 0.7364
vn 0.8727 0.1083 0.4762
vn 0.8163 0.0888 0.5708
vn 0.7320 -0.1980 0.6519
vn 0.8512 0.3602 0.3818
vn 0.8480 0.3260 0.4178
vn -0.1705 0.7786 0.6039
vn -0.0723 0.8704 0.4870
vn 0.4990 0.7996 0.3342
vn 0.3458 0.8061 0.4802
vn -0.5272 -0.0719 0.8467
vn -0.5014 -0.0711 0.8623
vn -0.5245 0.4786 0.7041
vn -0.5179 0.3648 0.7737
vn 0.8598 0.3794 0.3417
vn 0.7578 0.4181 0.5009
vn -0.2805 -0.5662 0.7751
vn -0.3493 -0.7459 0.5672
vn -0.6523 -0.0940 0.7521
vn -0.8087 -0.1787 0.5604
vn 0.2881 0.7955 0.5331
vn -0.0177 0.8187 0.5739
vn -0.4667 0.5217 0.7141
vn -0.5105 -0.0252 0.8595
vn -0.4357 0.0009 0.9001
vn -0.4064 0.4969 0.7668
vn 0.6059 -0.3571 0.7109
vn 0.2780 -0.5240 0.8051
vn -0.1073 0.8027 0.5866
vn -0.7208 0.4812 0.4988
vn 0.3805 0.7308 0.5667
vn -0.4275 -0.5349 0.7287
vn 0.6365 -0.2726 0.7215
vn 0.2098 -0.4943 0.8436
vn 0.6695 -0.1889 0.7184
vn -0.2335 -0.3276 0.9155
vn 0.2676 0.2216 0.9377
vn 0.3950 -0.5591 0.7290
vn -0.1601 -0.4896 0.8571
vn 0.8518 -0.2137 0.4783
vn -0.0972 -0.4416 0.8919
vn 0.4122 -0.4947 0.7651
vn -0.0290 0.8176 0.5750
vn -0.0304 0.7826 0.6218
vn 0.7186 0.5551 0.4189
vn 0.6900 0.5270 0.4962
vn -0.4880 -0.0318 0.8722
vn -0.4335 0.5082 0.7442
usemtl plateau.001
s 1
f 141/141/141 142/142/142 143/143/143 144/144/144
f 145/145/145 146/146/146 147/147/147 148/148/148
f 148/148/148 147/147/147 149/149/149 150/150/150
f 151/151/151 152/152/152 153/153/153 154/154/154
f 155/155/155 156/156/156 157/157/157
f 158/158/158 159/159/159 160/160/160 161/161/161
f 159/159/159 162/162/162 163/163/163 160/160/160
f 164/164/164 165/165/165 163/163/163 166/166/166
f 150/150/150 149/149/149 167/167/167 168/168/168
f 169/169/169 170/170/170 171/171/171 172/172/172
f 173/173/173 174/174/174 175/175/175 176/176/176
f 172/172/172 171/171/171 177/177/177 178/178/178
f 144/144/144 143/143/143 179/179/179 180/180/180
f 180/180/180 179/179/179 181/181/181 182/182/182
f 182/182/182 181/181/181 146/146/146 145/145/145
f 168/168/168 167/167/167 142/142/142 141/141/141
f 148/148/148 150/150/150 183/183/183 184/184/184
f 176/176/176 175/175/175 170/170/170 169/169/169
f 185/185/185 186/186/186 187/187/187 188/188/188
f 163/163/163 162/162/162 166/166/166
f 158/158/158 161/161/161 187/187/187 186/186/186
f 141/141/141 189/189/189 190/190/190 168/168/168
f 191/191/191 192/192/192 193/193/193 152/152/152
f 192/192/192 194/194/194 195/195/195 193/193/193
f 190/190/190 194/194/194 192/192/192 191/191/191
f 153/153/153 195/195/195 194/194/194 190/190/190
f 152/152/152 193/193/193 195/195/195 153/153/153
f 191/191/191 168/168/168 190/190/190
f 196/196/196 143/143/143 142/142/142 197/197/197
f 169/169/169 147/147/147 146/146/146 176/176/176
f 172/172/172 149/149/149 147/147/147 169/169/169
f 198/198/198 179/179/179 143/143/143 196/196/196
f 176/176/176 146/146/146 181/181/181 173/173/173
f 173/173/173 181/181/181 179/179/179 198/198/198
f 178/178/178 167/167/167 149/149/149 172/172/172
f 197/197/197 142/142/142 167/167/167 178/178/178
f 170/170/170 199/199/199 177/177/177 171/171/171
f 200/200/200 199/199/199 174/174/174 201/201/201
f 199/199/199 170/170/170 175/175/175 174/174/174
f 199/199/199 200/200/200 202/202/202 177/177/177
f 197/197/197 202/202/202 200/200/200 196/196/196
f 178/178/178 177/177/177 202/202/202 197/197/197
f 198/198/198 201/201/201 174/174/174 173/173/173
f 196/196/196 200/200/200 201/201/201 198/198/198
f 153/153/153 190/190/190 189/189/189 154/154/154
f 150/150/150 168/168/168 191/191/191 183/183/183
f 144/144/144 180/180/180 203/203/203 204/204/204
f 155/155/155 205/205/205 206/206/206 156/156/156
f 207/207/207 157/157/157 156/156/156 208/208/208
f 189/189/189 141/141/141 144/144/144 204/204/204
f 206/206/206 205/205/205 185/185/185 188/188/188
f 180/180/180 182/182/182 209/209/209 203/203/203
f 182/182/182 145/145/145 210/210/210 209/209/209
f 208/208/208 165/165/165 164/164/164 207/207/207
f 209/209/209 187/187/187 161/161/161 203/203/203
f 208/208/208 151/151/151 154/154/154 165/165/165
f 204/204/204 160/160/160 163/163/163 189/189/189
f 210/210/210 188/188/188 187/187/187 209/209/209
f 188/188/188 210/210/210 184/184/184 206/206/206
f 210/210/210 145/145/145 148/148/148 184/184/184
f 189/189/189 163/163/163 165/165/165 154/154/154
f 183/183/183 156/156/156 206/206/206 184/184/184
f 203/203/203 161/161/161 160/160/160 204/204/204
f 151/151/151 208/208/208 156/156/156 183/183/183
f 191/191/191 152/152/152 151/151/151 183/183/183
