# Blender v2.81 (sub 16) OBJ File: ''
# www.blender.org
mtllib volcano.mtl
o volcano_Cylinder.004_Cylinder.000
v -0.014142 -0.006854 -0.055569
v -0.010827 0.002810 -0.041937
v -0.000262 0.012039 -0.040811
v -0.000000 -0.006854 -0.061004
v 0.031828 -0.006854 -0.056544
v 0.019962 0.011274 -0.034980
v 0.032697 -0.000032 -0.032410
v 0.043129 -0.006854 -0.043129
v 0.038749 0.001310 -0.021890
v 0.050571 -0.006854 -0.028388
v 0.041634 0.004985 -0.012281
v 0.058904 -0.006854 -0.015783
v 0.037769 0.014131 0.000164
v 0.060976 -0.006854 -0.000000
v 0.052798 -0.006854 0.030483
v 0.036571 0.008508 0.020880
v 0.031723 0.002570 0.031443
v 0.043107 -0.006854 0.043107
v 0.022855 0.000346 0.038844
v 0.029506 -0.006854 0.049999
v 0.011510 0.004309 0.043735
v 0.016351 -0.006854 0.062003
v 0.000014 0.005310 0.042775
v 0.000000 -0.006854 0.060961
v -0.008923 0.014220 0.035915
v -0.014071 -0.006854 0.055950
v -0.019045 0.014479 0.032973
v -0.030484 -0.006854 0.052800
v -0.028817 0.013068 0.027939
v -0.046174 -0.006854 0.045076
v -0.038220 0.003163 0.022074
v -0.052808 -0.006854 0.030489
v -0.043315 0.003780 0.011290
v -0.058906 -0.006854 0.015784
v -0.043881 0.003525 0.000429
v -0.060990 -0.006854 -0.000000
v -0.039059 0.008287 -0.010431
v -0.055189 -0.006854 -0.014679
v -0.032653 0.012487 -0.018930
v -0.052827 -0.006854 -0.030500
v -0.028550 0.010897 -0.029412
v -0.045970 -0.006854 -0.046190
v -0.022290 0.002578 -0.038653
v -0.030502 -0.006854 -0.052832
v 0.018523 0.027177 0.004977
v 0.016603 0.027177 0.009611
v 0.011105 0.038504 0.007942
v 0.012694 0.038516 0.004659
v 0.010207 0.012016 -0.038104
v 0.015788 -0.006854 -0.058923
v -0.013701 0.022917 -0.022504
v -0.009836 0.040918 -0.013684
v -0.005870 0.040946 -0.015538
v -0.007252 0.023425 -0.024893
v -0.017999 0.028470 -0.017591
v -0.013199 0.040194 -0.010946
v -0.021282 0.029377 -0.011499
v -0.015713 0.038963 -0.007453
v -0.024542 0.026842 -0.006028
v -0.017173 0.038013 -0.003449
v -0.026361 0.022920 0.000767
v -0.017577 0.038018 0.000754
v -0.026016 0.023495 0.006769
v -0.016922 0.038021 0.004896
v -0.023005 0.022829 0.013251
v -0.015271 0.038873 0.008730
v -0.018108 0.030125 0.017342
v -0.012684 0.039991 0.011987
v -0.012543 0.031213 0.020814
v -0.009405 0.039993 0.014538
v -0.006546 0.031044 0.022987
v -0.005598 0.039167 0.016243
v -0.000601 0.024060 0.025836
v -0.001453 0.038332 0.016913
v 0.006153 0.023358 0.025858
v 0.002760 0.038330 0.016514
v 0.012685 0.021112 0.023049
v 0.006773 0.038327 0.015050
v 0.018175 0.022469 0.018724
v 0.010311 0.039333 0.012573
v 0.021617 0.027028 0.012996
v 0.013133 0.039343 0.009237
v 0.022388 0.031652 0.006647
v 0.015008 0.039352 0.005228
v 0.023308 0.030613 0.000053
v 0.016327 0.037882 -0.000040
v 0.036600 0.015382 0.009704
v 0.059181 -0.006854 0.015451
v 0.022296 0.021905 -0.012795
v 0.014906 0.036679 -0.008642
v 0.016661 0.037629 -0.004483
v 0.024331 0.024290 -0.007540
v 0.018475 0.020528 -0.018151
v 0.012203 0.036673 -0.012261
v 0.012071 0.028439 -0.020950
v 0.008654 0.036664 -0.015082
v 0.006202 0.029527 -0.023206
v 0.004496 0.037245 -0.016956
v -0.000460 0.029992 -0.024682
v -0.000517 0.038509 -0.018067
v 0.000047 0.037738 -0.014592
v 0.003792 0.036429 -0.014001
v 0.007236 0.035823 -0.012475
v 0.010203 0.035825 -0.010178
v 0.012485 0.035826 -0.007201
v 0.014019 0.036815 -0.003764
v -0.005010 0.027177 -0.018555
v -0.004577 0.040180 -0.012547
v -0.007845 0.040145 -0.010985
v -0.009644 0.027177 -0.016636
v 0.013550 0.027177 0.013590
v 0.008754 0.038492 0.010656
v -0.010631 0.039356 -0.008726
v -0.013623 0.027177 -0.013583
v -0.012699 0.038163 -0.005833
v -0.016676 0.027177 -0.009603
v -0.013857 0.037127 -0.002516
v -0.018596 0.027177 -0.004969
v -0.014150 0.037134 0.000942
v -0.019251 0.027177 0.000004
v -0.013580 0.037139 0.004333
v -0.018596 0.027177 0.004977
v 0.013835 0.037003 0.000010
v -0.012207 0.038060 0.007462
v -0.016676 0.027177 0.009611
v -0.010059 0.039162 0.010096
v -0.013623 0.027177 0.013590
v -0.000037 0.027177 -0.019210
v 0.004936 0.027177 -0.018555
v 0.009570 0.027177 0.016643
v 0.005837 0.037454 0.012660
v 0.009570 0.027177 -0.016636
v 0.004936 0.027177 0.018563
v 0.002544 0.037458 0.013831
v 0.013550 0.027177 -0.013583
v -0.000037 0.027177 0.019218
v -0.000900 0.037461 0.014138
v 0.016603 0.027177 -0.009603
v -0.005010 0.027177 0.018563
v -0.004283 0.038361 0.013578
v 0.018523 0.027177 -0.004969
v -0.009644 0.027177 0.016643
v -0.007380 0.039163 0.012169
v 0.018733 0.027177 0.000175
vt 0.593066 0.078532
vt 0.543558 0.170310
vt 0.463957 0.187856
vt 0.509316 0.026287
vt 0.304076 0.000151
vt 0.344032 0.183447
vt 0.248565 0.147624
vt 0.203671 0.055611
vt 0.198501 0.201099
vt 0.126874 0.132898
vt 0.174549 0.260061
vt 0.056026 0.201175
vt 0.199867 0.349060
vt 0.016627 0.297959
vt 0.011189 0.506216
vt 0.159127 0.470644
vt 0.152031 0.549228
vt 0.047207 0.605840
vt 0.186549 0.611938
vt 0.118751 0.677397
vt 0.256818 0.650345
vt 0.187969 0.771967
vt 0.326496 0.662580
vt 0.292691 0.795862
vt 0.392457 0.611639
vt 0.391370 0.790527
vt 0.452158 0.608401
vt 0.500234 0.791042
vt 0.514641 0.597604
vt 0.609631 0.763756
vt 0.600898 0.600888
vt 0.682239 0.689134
vt 0.644803 0.544687
vt 0.747115 0.608820
vt 0.667606 0.483793
vt 0.787894 0.515264
vt 0.643996 0.411568
vt 0.781580 0.413065
vt 0.610085 0.354911
vt 0.787894 0.310540
vt 0.605019 0.289394
vt 0.767324 0.203002
vt 0.603053 0.207436
vt 0.688211 0.128854
vt 0.945930 0.007679
vt 0.972758 0.000151
vt 0.994896 0.067384
vt 0.975269 0.072426
vt 0.402718 0.183883
vt 0.408057 0.010085
vt 0.501649 0.312176
vt 0.445805 0.371967
vt 0.433919 0.361970
vt 0.473966 0.293904
vt 0.501046 0.351999
vt 0.455094 0.383082
vt 0.506058 0.383625
vt 0.462202 0.396242
vt 0.520336 0.411196
vt 0.465355 0.411245
vt 0.532217 0.446959
vt 0.462529 0.426427
vt 0.520402 0.473565
vt 0.456122 0.440540
vt 0.501583 0.502279
vt 0.445162 0.451677
vt 0.457531 0.499214
vt 0.432625 0.458811
vt 0.428269 0.505292
vt 0.419535 0.463575
vt 0.400002 0.507514
vt 0.404995 0.467033
vt 0.364944 0.532195
vt 0.389512 0.466752
vt 0.332558 0.524267
vt 0.374815 0.461104
vt 0.299293 0.509238
vt 0.361834 0.451901
vt 0.282821 0.478563
vt 0.352992 0.437667
vt 0.287116 0.439453
vt 0.346638 0.423608
vt 0.303235 0.407814
vt 0.344116 0.408568
vt 0.303961 0.378196
vt 0.341761 0.389032
vt 0.196674 0.404170
vt 0.000151 0.398327
vt 0.304459 0.306964
vt 0.354021 0.358841
vt 0.344889 0.373230
vt 0.294050 0.334273
vt 0.326325 0.282745
vt 0.368161 0.348642
vt 0.372283 0.300230
vt 0.384153 0.342509
vt 0.401311 0.300994
vt 0.401620 0.341754
vt 0.432046 0.304620
vt 0.420488 0.346014
vt 0.809666 0.839177
vt 0.822187 0.857488
vt 0.807779 0.867503
vt 0.789698 0.843143
vt 0.838234 0.870112
vt 0.828188 0.884261
vt 0.857166 0.877927
vt 0.852177 0.894351
vt 0.877211 0.880862
vt 0.877348 0.897265
vt 0.898345 0.879672
vt 0.903075 0.894881
vt 0.799291 0.163427
vt 0.875160 0.192502
vt 0.870674 0.212119
vt 0.792784 0.190521
vt 0.960871 0.476835
vt 0.975739 0.408015
vt 0.994896 0.413568
vt 0.987800 0.483995
vt 0.863555 0.231415
vt 0.789072 0.218138
vt 0.856141 0.251292
vt 0.788197 0.245988
vt 0.852126 0.271536
vt 0.790336 0.273771
vt 0.856396 0.290337
vt 0.795867 0.301081
vt 0.862736 0.308356
vt 0.804643 0.327527
vt 0.923255 0.880740
vt 0.915405 0.868343
vt 0.937469 0.850245
vt 0.947493 0.860648
vt 0.875891 0.323286
vt 0.816495 0.352745
vt 0.891558 0.336009
vt 0.830957 0.376563
vt 0.867541 0.161178
vt 0.808622 0.137172
vt 0.869957 0.138605
vt 0.820506 0.111968
vt 0.934866 0.466828
vt 0.955048 0.406073
vt 0.878410 0.119063
vt 0.835299 0.088355
vt 0.910261 0.453750
vt 0.938129 0.396546
vt 0.891730 0.103025
vt 0.853045 0.066872
vt 0.887376 0.437853
vt 0.922572 0.385280
vt 0.906987 0.088837
vt 0.873443 0.047889
vt 0.866496 0.419402
vt 0.911914 0.368453
vt 0.927388 0.080951
vt 0.896141 0.031726
vt 0.847667 0.398861
vt 0.902830 0.351081
vt 0.949958 0.834019
vt 0.962092 0.841419
vt 0.958089 0.815541
vt 0.972414 0.819776
vt 0.960779 0.794630
vt 0.976166 0.795080
vt 0.960672 0.775401
vt 0.976166 0.770908
vt 0.955891 0.757741
vt 0.968858 0.747905
vt 0.944787 0.741513
vt 0.955419 0.727469
vt 0.930117 0.727812
vt 0.937913 0.710983
vt 0.913421 0.718735
vt 0.917208 0.700152
vt 0.893303 0.715733
vt 0.892859 0.696253
vt 0.873580 0.717372
vt 0.868462 0.698181
vt 0.855288 0.722589
vt 0.845390 0.704985
vt 0.839054 0.732427
vt 0.825046 0.718197
vt 0.824253 0.746819
vt 0.807545 0.736083
vt 0.813285 0.765110
vt 0.794793 0.757998
vt 0.807723 0.785191
vt 0.788494 0.781683
vt 0.807418 0.805922
vt 0.788197 0.805832
vt 0.921661 0.018818
vt 0.946941 0.073220
vt 0.992637 0.630971
vt 0.978705 0.655103
vt 0.908573 0.693381
vt 0.999849 0.604056
vt 0.999849 0.576192
vt 0.992637 0.549277
vt 0.978705 0.525145
vt 0.959001 0.505442
vt 0.934870 0.491510
vt 0.907955 0.484298
vt 0.829044 0.505442
vt 0.853176 0.491510
vt 0.809341 0.525145
vt 0.795408 0.549277
vt 0.788197 0.576192
vt 0.788197 0.604056
vt 0.795408 0.630971
vt 0.829044 0.674806
vt 0.809341 0.655103
vt 0.853175 0.688738
vt 0.880090 0.695950
vt 0.959001 0.674806
vt 0.934870 0.688738
vt 0.880090 0.484298
vn -0.2508 0.7903 -0.5590
vn -0.2984 0.7290 -0.6161
vn -0.1576 0.7058 -0.6907
vn -0.1121 0.7566 -0.6442
vn 0.3600 0.8189 -0.4470
vn 0.4690 0.7426 -0.4781
vn 0.5283 0.7924 -0.3050
vn 0.4797 0.8404 -0.2523
vn 0.4947 0.7785 -0.3863
vn 0.4193 0.8534 -0.3096
vn 0.5784 0.7432 -0.3364
vn 0.5340 0.7979 -0.2797
vn 0.6975 0.7032 -0.1378
vn 0.6494 0.7558 -0.0838
vn 0.4858 0.7799 0.3947
vn 0.5044 0.7232 0.4717
vn 0.3448 0.7683 0.5393
vn 0.3011 0.8374 0.4561
vn 0.3552 0.7866 0.5051
vn 0.3055 0.8556 0.4178
vn 0.2321 0.7916 0.5653
vn 0.1855 0.8621 0.4715
vn 0.0063 0.7474 0.6644
vn -0.0241 0.8063 0.5911
vn -0.0317 0.6751 0.7371
vn -0.0973 0.7339 0.6723
vn -0.2907 0.6870 0.6660
vn -0.2512 0.7337 0.6314
vn -0.5921 0.7192 0.3634
vn -0.4967 0.7886 0.3626
vn -0.6226 0.7551 0.2055
vn -0.5609 0.8098 0.1723
vn -0.6093 0.7763 0.1617
vn -0.5102 0.8486 0.1399
vn -0.6507 0.7592 -0.0151
vn -0.5666 0.8237 -0.0230
vn -0.7012 0.7080 -0.0845
vn -0.6286 0.7707 -0.1046
vn -0.6723 0.6920 -0.2630
vn -0.6054 0.7685 -0.2069
vn -0.3895 0.7456 -0.5407
vn -0.3591 0.8173 -0.4508
vn -0.1610 0.7624 -0.6268
vn -0.1253 0.8157 -0.5648
vn -0.8678 -0.4530 -0.2044
vn -0.7697 -0.4410 -0.4616
vn -0.7610 -0.4404 -0.4763
vn -0.8593 -0.4516 -0.2401
vn 0.1967 0.7135 -0.6724
vn 0.1383 0.7583 -0.6370
vn -0.2685 0.5914 -0.7604
vn -0.3891 0.4901 -0.7800
vn -0.3427 0.4825 -0.8061
vn -0.3771 0.5714 -0.7289
vn -0.5295 0.6001 -0.5996
vn -0.5783 0.5477 -0.6046
vn -0.7425 0.5952 -0.3074
vn -0.7633 0.5641 -0.3148
vn -0.8017 0.5899 -0.0966
vn -0.8326 0.5462 -0.0917
vn -0.7976 0.6026 0.0266
vn -0.8530 0.5207 0.0344
vn -0.7748 0.6018 0.1939
vn -0.8281 0.5181 0.2142
vn -0.7659 0.5949 0.2439
vn -0.8083 0.5107 0.2930
vn -0.6679 0.6097 0.4268
vn -0.6678 0.5843 0.4611
vn -0.3524 0.6323 0.6899
vn -0.3774 0.6262 0.6823
vn -0.0317 0.6150 0.7879
vn -0.0672 0.6135 0.7868
vn 0.1078 0.6110 0.7842
vn 0.1139 0.5526 0.8256
vn 0.2507 0.6205 0.7430
vn 0.2349 0.5377 0.8097
vn 0.4277 0.6051 0.6715
vn 0.4266 0.5058 0.7498
vn 0.4345 0.5974 0.6740
vn 0.4970 0.5109 0.7014
vn 0.5645 0.6144 0.5512
vn 0.5987 0.5779 0.5547
vn 0.7033 0.6737 0.2270
vn 0.6962 0.6719 0.2528
vn 0.7508 0.6466 -0.1345
vn 0.7518 0.6505 -0.1079
vn 0.6745 0.7035 0.2240
vn 0.6409 0.7432 0.1922
vn 0.6341 0.5932 -0.4959
vn 0.6996 0.4952 -0.5151
vn 0.7592 0.5564 -0.3378
vn 0.6910 0.6057 -0.3946
vn 0.6670 0.6105 -0.4271
vn 0.6837 0.4992 -0.5322
vn 0.5378 0.6204 -0.5709
vn 0.5444 0.5872 -0.5989
vn 0.2873 0.6471 -0.7062
vn 0.3162 0.6267 -0.7122
vn -0.0820 0.6183 -0.7817
vn -0.0893 0.5773 -0.8116
vn 0.3445 0.9244 0.1639
vn 0.1182 0.9560 0.2683
vn 0.1350 0.9550 0.2641
vn 0.3635 0.9193 0.1508
vn -0.0814 0.9634 0.2556
vn -0.0737 0.9632 0.2585
vn -0.2026 0.9595 0.1960
vn -0.2015 0.9595 0.1968
vn -0.2897 0.9560 0.0458
vn -0.2917 0.9556 0.0412
vn -0.3337 0.9393 -0.0797
vn -0.3345 0.9390 -0.0803
vn 0.2554 -0.4108 0.8752
vn 0.2893 -0.4103 0.8649
vn 0.4860 -0.4089 0.7724
vn 0.4794 -0.4090 0.7765
vn -0.6082 -0.4389 -0.6615
vn -0.6011 -0.4390 -0.6678
vn 0.6766 -0.4122 0.6101
vn 0.6786 -0.4124 0.6079
vn 0.8110 -0.4282 0.3986
vn 0.8122 -0.4285 0.3959
vn 0.8740 -0.4480 0.1879
vn 0.8731 -0.4475 0.1937
vn 0.8908 -0.4538 -0.0222
vn 0.8909 -0.4542 -0.0085
vn 0.8688 -0.4385 -0.2302
vn 0.8715 -0.4400 -0.2167
vn -0.3071 0.9309 -0.1976
vn -0.3046 0.9279 -0.2151
vn -0.2950 0.9251 -0.2390
vn -0.2944 0.9236 -0.2454
vn 0.7979 -0.4110 -0.4410
vn 0.8080 -0.4145 -0.4188
vn 0.6551 -0.3907 -0.6467
vn 0.6654 -0.3915 -0.6356
vn 0.0190 -0.4195 0.9076
vn -0.0199 -0.4211 0.9068
vn -0.2738 -0.4422 0.8541
vn -0.2845 -0.4446 0.8493
vn -0.4142 -0.4438 -0.7947
vn -0.4083 -0.4443 -0.7975
vn -0.4555 -0.4737 0.7538
vn -0.4578 -0.4740 0.7522
vn -0.2217 -0.4487 -0.8657
vn -0.2068 -0.4482 -0.8697
vn -0.6200 -0.4830 0.6183
vn -0.6195 -0.4830 0.6188
vn -0.0128 -0.4344 -0.9006
vn 0.0030 -0.4328 -0.9015
vn -0.7528 -0.4680 0.4629
vn -0.7496 -0.4688 0.4673
vn 0.2051 -0.4114 -0.8881
vn 0.2305 -0.4083 -0.8833
vn -0.8717 -0.4529 0.1873
vn -0.8655 -0.4542 0.2111
vn 0.4489 -0.3905 -0.8038
vn 0.4611 -0.3898 -0.7971
vn -0.2777 0.9442 -0.1772
vn -0.2779 0.9442 -0.1769
vn -0.3200 0.9308 -0.1766
vn -0.3209 0.9306 -0.1761
vn -0.2538 0.9416 -0.2214
vn -0.2443 0.9428 -0.2269
vn -0.0708 0.9501 -0.3037
vn -0.0640 0.9505 -0.3041
vn 0.0971 0.9596 -0.2642
vn 0.1309 0.9588 -0.2521
vn 0.2643 0.9494 -0.1698
vn 0.2682 0.9502 -0.1586
vn 0.2263 0.9609 -0.1598
vn 0.2117 0.9625 -0.1694
vn 0.1088 0.9506 -0.2906
vn 0.0999 0.9468 -0.3058
vn 0.1031 0.9309 -0.3504
vn 0.1086 0.9318 -0.3464
vn 0.2048 0.9615 -0.1834
vn 0.2096 0.9630 -0.1692
vn 0.2503 0.9681 -0.0120
vn 0.2503 0.9681 -0.0085
vn 0.1958 0.9682 0.1554
vn 0.1890 0.9669 0.1714
vn 0.0777 0.9393 0.3341
vn 0.0726 0.9387 0.3371
vn 0.0157 0.9419 0.3354
vn 0.0156 0.9422 0.3347
vn 0.0522 0.9653 0.2558
vn 0.0496 0.9647 0.2587
vn 0.2876 0.9467 0.1454
vn 0.2828 0.9478 0.1471
vn -0.8956 -0.4443 -0.0218
vn -0.8951 -0.4452 -0.0255
vn -0.0000 1.0000 -0.0000
usemtl None.002
s 1
f 1/1/1 2/2/2 3/3/3 4/4/4
f 5/5/5 6/6/6 7/7/7 8/8/8
f 8/8/8 7/7/7 9/9/9 10/10/10
f 10/10/10 9/9/9 11/11/11 12/12/12
f 12/12/12 11/11/11 13/13/13 14/14/14
f 15/15/15 16/16/16 17/17/17 18/18/18
f 18/18/18 17/17/17 19/19/19 20/20/20
f 20/20/20 19/19/19 21/21/21 22/22/22
f 22/22/22 21/21/21 23/23/23 24/24/24
f 24/24/24 23/23/23 25/25/25 26/26/26
f 26/26/26 25/25/25 27/27/27 28/28/28
f 28/28/28 27/27/27 29/29/29 30/30/30
f 30/30/30 29/29/29 31/31/31 32/32/32
f 32/32/32 31/31/31 33/33/33 34/34/34
f 34/34/34 33/33/33 35/35/35 36/36/36
f 36/36/36 35/35/35 37/37/37 38/38/38
f 38/38/38 37/37/37 39/39/39 40/40/40
f 40/40/40 39/39/39 41/41/41 42/42/42
f 42/42/42 41/41/41 43/43/43 44/44/44
f 44/44/44 43/43/43 2/2/2 1/1/1
f 45/45/45 46/46/46 47/47/47 48/48/48
f 4/4/4 3/3/3 49/49/49 50/50/50
f 50/50/50 49/49/49 6/6/6 5/5/5
f 51/51/51 52/52/52 53/53/53 54/54/54
f 55/55/55 56/56/56 52/52/52 51/51/51
f 57/57/57 58/58/58 56/56/56 55/55/55
f 59/59/59 60/60/60 58/58/58 57/57/57
f 61/61/61 62/62/62 60/60/60 59/59/59
f 63/63/63 64/64/64 62/62/62 61/61/61
f 65/65/65 66/66/66 64/64/64 63/63/63
f 67/67/67 68/68/68 66/66/66 65/65/65
f 69/69/69 70/70/70 68/68/68 67/67/67
f 71/71/71 72/72/72 70/70/70 69/69/69
f 73/73/73 74/74/74 72/72/72 71/71/71
f 75/75/75 76/76/76 74/74/74 73/73/73
f 77/77/77 78/78/78 76/76/76 75/75/75
f 79/79/79 80/80/80 78/78/78 77/77/77
f 81/81/81 82/82/82 80/80/80 79/79/79
f 83/83/83 84/84/84 82/82/82 81/81/81
f 84/84/84 83/83/83 85/85/85 86/86/86
f 14/14/14 13/13/13 87/87/87 88/88/88
f 89/89/89 90/90/90 91/91/91 92/92/92
f 93/93/93 94/94/94 90/90/90 89/89/89
f 95/95/95 96/96/96 94/94/94 93/93/93
f 97/97/97 98/98/98 96/96/96 95/95/95
f 99/99/99 100/100/100 98/98/98 97/97/97
f 101/101/101 102/102/102 98/103/103 100/104/104
f 102/102/102 103/105/105 96/106/106 98/103/103
f 103/105/105 104/107/107 94/108/108 96/106/106
f 104/107/107 105/109/109 90/110/110 94/108/108
f 105/109/109 106/111/111 91/112/112 90/110/110
f 107/113/113 108/114/114 109/115/115 110/116/116
f 91/91/91 86/86/86 85/85/85 92/92/92
f 111/117/117 112/118/118 47/119/47 46/120/46
f 113/121/119 114/122/120 110/116/116 109/115/115
f 115/123/121 116/124/122 114/122/120 113/121/119
f 117/125/123 118/126/124 116/124/122 115/123/121
f 119/127/125 120/128/126 118/126/124 117/125/123
f 121/129/127 122/130/128 120/128/126 119/127/125
f 86/131/129 123/132/130 48/133/131 84/134/132
f 124/135/133 125/136/134 122/130/128 121/129/127
f 126/137/135 127/138/136 125/136/134 124/135/133
f 101/139/137 108/114/114 107/113/113 128/140/138
f 102/141/139 101/139/137 128/140/138 129/142/140
f 130/143/141 131/144/142 112/118/118 111/117/117
f 103/145/143 102/141/139 129/142/140 132/146/144
f 133/147/145 134/148/146 131/144/142 130/143/141
f 104/149/147 103/145/143 132/146/144 135/150/148
f 136/151/149 137/152/150 134/148/146 133/147/145
f 105/153/151 104/149/147 135/150/148 138/154/152
f 139/155/153 140/156/154 137/152/150 136/151/149
f 106/157/155 105/153/151 138/154/152 141/158/156
f 142/159/157 143/160/158 140/156/154 139/155/153
f 126/137/135 143/160/158 142/159/157 127/138/136
f 48/133/131 47/161/159 82/162/160 84/134/132
f 47/161/159 112/163/161 80/164/162 82/162/160
f 112/163/161 131/165/163 78/166/164 80/164/162
f 131/165/163 134/167/165 76/168/166 78/166/164
f 134/167/165 137/169/167 74/170/168 76/168/166
f 137/169/167 140/171/169 72/172/170 74/170/168
f 140/171/169 143/173/171 70/174/172 72/172/170
f 143/173/171 126/175/173 68/176/174 70/174/172
f 126/175/173 124/177/175 66/178/176 68/176/174
f 124/177/175 121/179/177 64/180/178 66/178/176
f 121/179/177 119/181/179 62/182/180 64/180/178
f 119/181/179 117/183/181 60/184/182 62/182/180
f 117/183/181 115/185/183 58/186/184 60/184/182
f 115/185/183 113/187/185 56/188/186 58/186/184
f 113/187/185 109/189/187 52/190/188 56/188/186
f 109/189/187 108/191/189 53/192/190 52/190/188
f 88/88/88 87/87/87 16/16/16 15/15/15
f 91/112/112 106/111/111 123/132/130 86/131/129
f 101/101/101 100/104/104 53/192/190 108/191/189
f 106/157/155 141/158/156 144/193/191 123/194/192
f 123/194/192 144/193/191 45/45/45 48/48/48
f 92/92/92 85/85/85 13/13/13 11/11/11
f 54/54/54 99/99/99 3/3/3 2/2/2
f 51/51/51 54/54/54 2/2/2 43/43/43
f 55/55/55 51/51/51 43/43/43 41/41/41
f 57/57/57 55/55/55 41/41/41 39/39/39
f 59/59/59 57/57/57 39/39/39 37/37/37
f 61/61/61 59/59/59 37/37/37 35/35/35
f 63/63/63 61/61/61 35/35/35 33/33/33
f 65/65/65 63/63/63 33/33/33 31/31/31
f 67/67/67 65/65/65 31/31/31 29/29/29
f 69/69/69 67/67/67 29/29/29 27/27/27
f 71/71/71 69/69/69 27/27/27 25/25/25
f 73/73/73 71/71/71 25/25/25 23/23/23
f 75/75/75 73/73/73 23/23/23 21/21/21
f 77/77/77 75/75/75 21/21/21 19/19/19
f 79/79/79 77/77/77 19/19/19 17/17/17
f 81/81/81 79/79/79 17/17/17 16/16/16
f 83/83/83 81/81/81 16/16/16 87/87/87
f 85/85/85 83/83/83 87/87/87 13/13/13
f 89/89/89 92/92/92 11/11/11 9/9/9
f 93/93/93 89/89/89 9/9/9 7/7/7
f 95/95/95 93/93/93 7/7/7 6/6/6
f 97/97/97 95/95/95 6/6/6 49/49/49
f 99/99/99 97/97/97 49/49/49 3/3/3
f 54/54/54 53/53/53 100/100/100 99/99/99
f 130/195/193 111/196/193 144/197/193 133/198/193
f 136/199/193 133/198/193 144/197/193 139/200/193
f 142/201/193 139/200/193 144/197/193 127/202/193
f 125/203/193 127/202/193 144/197/193 122/204/193
f 116/205/193 118/206/193 144/197/193 114/207/193
f 110/208/193 114/207/193 144/197/193 107/209/193
f 128/210/193 107/209/193 144/197/193 129/211/193
f 135/212/193 132/213/193 129/211/193 144/197/193
f 138/214/193 135/212/193 144/197/193 141/215/193
f 46/216/193 45/217/193 144/197/193 111/196/193
f 120/218/193 122/204/193 144/197/193 118/206/193
