# Blender v2.81 (sub 16) OBJ File: 'Nebula Assets Nov 10 (1).blend'
# www.blender.org
mtllib mountain.mtl
o Mountain_Plane.026
v -38.580143 -2.244028 -18.519531
v -22.487629 -2.244028 5.526619
v -41.866173 -2.244028 -2.843664
v -30.619829 10.444029 -10.076601
v -25.036415 -2.244028 -31.869408
v -11.436799 -2.244028 -15.826241
v -25.333551 9.690880 -7.835380
v -27.037258 9.508335 -16.107996
v -2.687515 -2.244028 22.471235
v -12.781306 -2.244028 44.242241
v -27.791397 -2.244028 30.432217
v -11.461005 6.565896 33.105846
v 6.182446 -2.244028 33.703697
v 3.985178 -2.244028 39.148849
v -9.452087 5.946629 36.025902
v -5.664331 5.795394 32.140800
v 43.330158 -2.244028 -7.126415
v 20.118237 -2.244028 -2.081955
v 25.770760 -2.244028 -17.301094
v 26.853464 9.121916 -6.993762
v 37.318283 -2.244028 3.378175
v 31.651382 -2.244028 4.823575
v 25.093637 8.745258 -4.478305
v 30.065042 8.904329 -4.093077
v 7.310618 -2.244028 28.629395
v -33.824623 -2.244028 10.966694
v -17.342144 -2.244028 38.484562
v -38.266087 -2.244028 30.360579
v -24.536123 9.506351 23.770790
v -16.770733 9.303928 26.716125
v 17.672819 13.371891 23.581017
v 10.509658 13.521025 17.783062
v 4.320116 -2.244028 44.522522
v 26.895163 -2.244028 38.259411
v -1.139672 -2.244028 8.483281
v 29.077499 -2.244028 17.625080
v 30.946701 -2.244028 -20.858192
v 9.452611 -2.244028 5.474898
v 3.380305 -2.244028 -20.097832
v 17.562572 11.085192 -12.010797
v 32.813110 -2.244028 -1.441270
v 27.738428 -2.244028 5.280511
v 17.721273 11.411045 -9.330104
v 20.778967 11.410917 -11.498210
v 21.910618 -2.244028 -4.317296
v 18.316219 -2.244028 -33.912376
v 34.063683 -2.244028 -23.982790
v 20.106894 6.147579 -19.577515
v 11.202097 -2.244028 -13.772379
v 10.097232 -2.244028 -21.039253
v 18.741470 6.358379 -22.996578
v 15.731824 6.443051 -17.654387
v 16.827118 13.932463 18.032202
v 14.908942 13.971428 16.488255
v 19.286915 -2.244028 2.620462
v 21.974211 -2.244028 4.001018
v -14.991482 -2.244028 7.601110
v -11.205317 -2.244028 9.645498
v -17.260706 10.536793 22.570211
v -19.345530 10.412766 21.924856
v 20.636797 11.825104 -9.353586
v 30.275772 -2.244028 1.919626
v 25.793301 -2.244028 29.621027
v 27.936501 -2.244028 4.984906
v 41.932198 -2.244028 17.897999
v 29.689917 8.283737 17.162746
v 16.803909 -2.244028 18.694883
v 17.105219 -2.244028 12.574615
v 27.559795 7.863886 14.280556
v 25.751341 7.762123 18.927778
v -21.601292 -2.244028 -6.845367
v -44.450909 -2.244028 10.648057
v -44.339935 -2.244028 -11.511645
v -35.363682 6.524583 -0.415892
v -23.934088 -2.244028 9.453441
v -29.429150 -2.244028 13.997861
v -36.168350 6.274334 3.676329
v -30.756102 6.213680 1.582947
v -6.191810 -2.244028 -36.662216
v 9.248981 -2.244028 -27.924381
v -6.500589 -2.244028 -23.638824
v 0.192075 9.103594 -30.594191
v 5.689716 -2.244028 -38.615528
v 9.642643 -2.244028 -36.580338
v 3.204142 8.268263 -30.968027
v 1.002546 8.065800 -33.439659
v 1.750320 -2.244028 -40.090107
v -24.493990 -2.244028 -24.539867
v 3.154653 -2.244028 -26.916630
v -9.473700 -2.244028 -18.844585
v -10.828104 5.419725 -25.264416
v -4.763662 5.293887 -31.672308
v -14.097522 -2.244028 -38.469570
v -11.331031 -2.244028 -39.821903
v -9.571760 5.778007 -32.623463
v -11.108762 5.846170 -31.568575
v -26.714632 -2.244028 24.912516
v -36.724228 -2.244028 -6.134648
v 31.133654 -2.244028 -14.473275
v -15.585465 -2.244028 -33.089092
v 15.685349 -2.244028 30.841957
v -10.445810 -2.244028 34.175640
v 12.878359 8.759558 16.157076
v -30.150331 -2.244028 -21.607231
v -6.527094 10.713707 0.199443
v -36.283401 -2.244028 7.698549
v -11.248517 8.888718 -0.225468
v -19.161493 10.998512 20.513525
v -7.788556 20.558311 -14.058118
v -7.232327 20.822899 -13.478133
v -6.540395 20.642778 -13.832828
v -5.047031 25.728825 18.440002
v -3.871968 25.698524 19.364721
v -2.423767 25.851418 18.590910
v -2.378907 25.995687 17.163242
v 13.929643 21.425327 1.100588
v -21.846210 16.327358 5.880722
v -22.117794 16.245110 6.465264
v -21.861778 16.385376 7.070158
v -21.082447 16.551476 7.310036
v -20.296484 16.556376 5.948719
v 11.165768 -2.244028 -33.607662
v 14.927903 -2.244028 -31.911943
v -7.025147 20.372097 -14.423020
v 33.276943 -2.244028 7.099429
v 32.815075 -2.244028 9.006331
v 15.811276 21.204000 1.926064
v 15.811691 21.084209 0.480853
v -8.057920 10.652491 0.127297
v -4.839652 25.846584 17.364899
v 22.023378 -2.244028 -0.792291
v -16.723110 -2.244028 -19.002895
v 9.224239 -2.244028 -14.454726
v -18.387274 -2.244028 -4.145056
v -4.572972 -2.244028 16.840248
v -0.188738 -2.244028 18.643263
v 13.506798 -2.244028 1.174619
v -0.589132 23.639620 -1.021381
v -1.437929 23.606970 -2.252402
v -3.050257 23.771708 -1.941792
v -3.515575 23.927158 -0.591337
v -3.132061 -2.244028 17.362154
v -1.105364 23.766500 -0.055793
vt 0.774498 0.323947
vt 0.776215 0.342951
vt 0.697767 0.326781
vt 0.737416 0.254252
vt 0.737838 0.419245
vt 0.855147 0.270871
vt 0.793378 0.323447
vt 0.855147 0.391596
vt 0.353460 0.809369
vt 0.348152 0.799510
vt 0.397739 0.732747
vt 0.397739 0.886086
vt 0.302957 0.731541
vt 0.275753 0.863799
vt 0.344165 0.812791
vt 0.274647 0.758473
vt 0.225343 0.860981
vt 0.223122 0.853069
vt 0.255326 0.816156
vt 0.255326 0.903484
vt 0.198344 0.812567
vt 0.184395 0.891986
vt 0.219158 0.859753
vt 0.180709 0.828668
vt 0.085746 0.903752
vt 0.089494 0.883884
vt 0.097154 0.882322
vt 0.120575 0.906073
vt 0.083352 0.991037
vt 0.000342 0.892042
vt 0.041068 0.819350
vt 0.180024 0.960671
vt 0.180024 0.838238
vt 0.626418 0.783993
vt 0.626418 0.954858
vt 0.542386 0.857547
vt 0.459421 0.986914
vt 0.516990 0.884024
vt 0.411840 0.855349
vt 0.472309 0.764057
vt 0.522458 0.855853
vt 0.515995 0.862854
vt 0.931876 0.753153
vt 0.929067 0.739834
vt 0.999658 0.654945
vt 0.999658 0.855306
vt 0.876364 0.656540
vt 0.835697 0.824167
vt 0.921830 0.751349
vt 0.922530 0.741431
vt 0.860757 0.670167
vt 0.845199 0.685526
vt 0.349980 0.660169
vt 0.346027 0.645105
vt 0.401812 0.585035
vt 0.401812 0.730856
vt 0.305210 0.578025
vt 0.281566 0.713364
vt 0.338324 0.658323
vt 0.274647 0.606167
vt 0.458285 0.771805
vt 0.055452 0.812567
vt 0.362729 0.493568
vt 0.358326 0.477827
vt 0.421989 0.405182
vt 0.421989 0.577340
vt 0.309510 0.398005
vt 0.282014 0.554837
vt 0.350431 0.491154
vt 0.274647 0.429858
vt 0.922480 0.327646
vt 0.918435 0.310153
vt 0.969883 0.262043
vt 0.969883 0.387057
vt 0.884443 0.254252
vt 0.864555 0.375843
vt 0.909247 0.326482
vt 0.855832 0.281566
vt 0.353460 0.809369
vt 0.348152 0.799510
vt 0.397739 0.732747
vt 0.397739 0.886086
vt 0.302957 0.731541
vt 0.275753 0.863799
vt 0.344165 0.812791
vt 0.274647 0.758473
vt 0.085746 0.903752
vt 0.089494 0.883884
vt 0.097154 0.882322
vt 0.120575 0.906073
vt 0.083352 0.991037
vt 0.000342 0.892042
vt 0.041068 0.819350
vt 0.180024 0.960671
vt 0.180024 0.838238
vt 0.055452 0.812567
vt 0.824236 0.253567
vt 0.749009 0.087980
vt 0.754406 0.081700
vt 0.903723 0.132006
vt 0.835012 0.782068
vt 0.795951 0.707643
vt 0.799243 0.691296
vt 0.809979 0.736061
vt 0.743286 0.072463
vt 0.754881 0.074224
vt 0.508310 0.220054
vt 0.512736 0.217724
vt 0.697082 0.292186
vt 0.522193 0.299458
vt 0.440547 0.427189
vt 0.424568 0.230196
vt 0.448684 0.205389
vt 0.461349 0.200379
vt 0.504217 0.214646
vt 0.506070 0.220303
vt 0.213318 0.110333
vt 0.423883 0.000342
vt 0.364308 0.101386
vt 0.235883 0.192416
vt 0.228187 0.190513
vt 0.741397 0.087426
vt 0.697767 0.176786
vt 0.194136 0.284923
vt 0.150324 0.280173
vt 0.125516 0.115249
vt 0.222541 0.193671
vt 0.224698 0.196716
vt 0.783903 0.693833
vt 0.662434 0.667735
vt 0.903723 0.000342
vt 0.700316 0.012370
vt 0.445244 0.181386
vt 0.528224 0.000342
vt 0.508430 0.211296
vt 0.639769 0.801390
vt 0.236141 0.196729
vt 0.343258 0.180658
vt 0.697082 0.075981
vt 0.677809 0.045386
vt 0.660429 0.829937
vt 0.815497 0.895177
vt 0.235161 0.200643
vt 0.209589 0.289719
vt 0.000342 0.076606
vt 0.213318 0.110333
vt 0.423883 0.000342
vt 0.364308 0.101386
vt 0.235883 0.192416
vt 0.228187 0.190513
vt 0.194136 0.284923
vt 0.150324 0.280173
vt 0.125516 0.115249
vt 0.222541 0.193671
vt 0.224698 0.196716
vt 0.236141 0.196729
vt 0.343258 0.180658
vt 0.235161 0.200643
vt 0.209589 0.289719
vt 0.000342 0.076606
vn -0.7314 0.6310 -0.2586
vn -0.5387 0.6412 -0.5465
vn -0.2759 0.6703 0.6889
vn 0.1638 0.9849 -0.0555
vn 0.5652 0.7416 -0.3613
vn 0.7186 0.5877 0.3719
vn -0.1896 0.6736 -0.7144
vn 0.5450 0.7195 -0.4304
vn -0.4756 0.7164 0.5104
vn 0.1484 0.9832 0.1064
vn 0.4775 0.8284 0.2929
vn 0.2224 0.6439 0.7320
vn 0.4225 0.6202 -0.6609
vn 0.6459 0.6680 0.3697
vn -0.8638 0.3591 -0.3534
vn -0.0410 0.9919 0.1198
vn 0.0678 0.6290 0.7744
vn -0.4737 0.3870 0.7911
vn -0.0911 0.9583 0.2707
vn 0.2721 0.6802 0.6807
vn 0.4989 0.7846 -0.3681
vn -0.2562 0.6904 0.6766
vn -0.6845 0.7119 -0.1568
vn -0.8319 0.5404 0.1260
vn 0.0134 0.7975 0.6032
vn 0.8200 0.5658 0.0867
vn -0.2308 0.6047 -0.7623
vn -0.0689 0.9915 0.1107
vn -0.0125 0.5442 -0.8388
vn 0.7747 0.6279 -0.0745
vn -0.7400 0.6544 0.1556
vn -0.1066 0.9829 -0.1504
vn 0.6512 0.7117 0.2634
vn 0.0072 0.7330 0.6801
vn 0.4992 0.7828 0.3715
vn -0.5473 0.5624 0.6198
vn 0.3993 0.7686 -0.4998
vn 0.0802 0.9963 0.0294
vn -0.8091 0.5739 -0.1261
vn -0.6825 0.5867 -0.4358
vn 0.4057 0.6620 -0.6301
vn 0.7576 0.5812 -0.2971
vn 0.2607 0.7534 -0.6037
vn -0.1676 0.7479 -0.6424
vn 0.3026 0.7562 0.5801
vn 0.4259 0.6210 0.6580
vn -0.6398 0.5599 0.5264
vn 0.5594 0.5855 -0.5867
vn -0.1468 0.9885 -0.0355
vn -0.7070 0.6947 -0.1320
vn -0.4631 0.5905 -0.6609
vn 0.1672 0.7401 -0.6514
vn 0.7248 0.6811 0.1037
vn -0.7054 0.7085 -0.0179
vn 0.0376 0.9970 0.0684
vn 0.3154 0.7996 0.5110
vn -0.1531 0.7108 0.6866
vn -0.8454 0.5259 -0.0940
vn -0.1495 0.3885 -0.9092
vn 0.2378 0.3982 0.8860
vn 0.2248 0.9343 -0.2767
vn 0.4642 0.5902 -0.6604
vn 0.8613 0.5066 0.0392
vn 0.0876 0.9941 0.0634
vn 0.7110 0.6991 -0.0758
vn 0.0460 0.7146 -0.6980
vn 0.4458 0.6906 0.5695
vn -0.2876 0.5846 0.7586
vn -0.3530 0.6729 -0.6501
vn -0.6009 0.7469 -0.2847
vn -0.7207 0.5712 0.3929
vn -0.3828 0.7199 0.5789
vn -0.1488 0.9864 0.0697
vn -0.4560 0.6570 -0.6004
vn -0.4343 0.7396 0.5142
vn -0.6405 0.7182 -0.2721
vn 0.3367 0.5415 0.7703
vn -0.7306 0.5704 0.3753
vn -0.6724 0.6449 -0.3633
vn 0.1517 0.9851 -0.0816
vn -0.1923 0.4380 -0.8782
vn -0.0631 0.5780 -0.8136
vn 0.4514 0.7286 0.5151
vn 0.8087 0.5827 -0.0803
vn 0.5883 0.5551 -0.5881
vn -0.7888 0.6145 0.0128
vn 0.6955 0.6877 0.2082
vn -0.0149 0.6398 -0.7684
vn 0.4633 0.7746 -0.4305
vn 0.7896 0.6074 0.0872
vn 0.5476 0.6487 0.5285
vn -0.0609 0.7517 -0.6567
vn -0.0521 0.9937 0.0988
vn 0.0160 0.9038 -0.4277
vn -0.1915 0.9743 -0.1187
vn 0.2802 0.7425 -0.6085
vn -0.4290 0.5011 0.7515
vn -0.2683 0.6147 -0.7417
vn 0.6233 0.4758 0.6206
vn -0.7928 0.3866 0.4712
vn -0.1992 0.5524 0.8094
vn 0.0851 0.9927 -0.0850
vn 0.7379 0.6362 -0.2253
usemtl None
s off
f 4/1/1 8/2/1 1/3/1 3/4/1
f 5/5/2 1/3/2 8/2/2
f 3/4/3 2/6/3 7/7/3 4/1/3
f 8/2/4 4/1/4 7/7/4
f 7/7/5 6/8/5 5/5/5 8/2/5
f 2/6/6 6/8/6 7/7/6
f 12/9/7 16/10/7 9/11/7 11/12/7
f 13/13/8 9/11/8 16/10/8
f 11/12/9 10/14/9 15/15/9 12/9/9
f 16/10/10 12/9/10 15/15/10
f 15/15/11 14/16/11 13/13/11 16/10/11
f 10/14/12 14/16/12 15/15/12
f 20/17/13 24/18/13 17/19/13 19/20/13
f 21/21/14 17/19/14 24/18/14
f 19/20/15 18/22/15 23/23/15 20/17/15
f 24/18/16 20/17/16 23/23/16
f 23/23/17 22/24/17 21/21/17 24/18/17
f 18/22/18 22/24/18 23/23/18
f 30/25/19 59/26/19 60/27/19 29/28/19
f 27/29/20 25/30/20 30/25/20
f 59/26/21 30/25/21 25/30/21 58/31/21
f 29/28/22 28/32/22 27/29/22 30/25/22
f 26/33/23 28/32/23 29/28/23
f 35/34/24 33/35/24 32/36/24
f 32/36/25 33/35/25 34/37/25 31/38/25
f 34/37/26 36/39/26 31/38/26
f 55/40/27 35/34/27 32/36/27 54/41/27
f 31/38/28 53/42/28 54/41/28 32/36/28
f 40/43/29 44/44/29 37/45/29 39/46/29
f 41/47/30 37/45/30 44/44/30
f 39/46/31 38/48/31 43/49/31 40/43/31
f 44/44/32 40/43/32 43/49/32 61/50/32
f 61/50/33 62/51/33 41/47/33 44/44/33
f 38/48/34 42/52/34 43/49/34
f 48/53/35 52/54/35 45/55/35 47/56/35
f 49/57/36 45/55/36 52/54/36
f 47/56/37 46/58/37 51/59/37 48/53/37
f 52/54/38 48/53/38 51/59/38
f 51/59/39 50/60/39 49/57/39 52/54/39
f 46/58/40 50/60/40 51/59/40
f 55/40/41 54/41/41 53/42/41 56/61/41
f 53/42/42 31/38/42 36/39/42 56/61/42
f 57/62/43 60/27/43 59/26/43 58/31/43
f 57/62/44 26/33/44 29/28/44 60/27/44
f 43/49/45 42/52/45 62/51/45 61/50/45
f 66/63/46 70/64/46 63/65/46 65/66/46
f 67/67/47 63/65/47 70/64/47
f 65/66/48 64/68/48 69/69/48 66/63/48
f 70/64/49 66/63/49 69/69/49
f 69/69/50 68/70/50 67/67/50 70/64/50
f 64/68/51 68/70/51 69/69/51
f 74/71/52 78/72/52 71/73/52 73/74/52
f 75/75/53 71/73/53 78/72/53
f 73/74/54 72/76/54 77/77/54 74/71/54
f 78/72/55 74/71/55 77/77/55
f 77/77/56 76/78/56 75/75/56 78/72/56
f 72/76/57 76/78/57 77/77/57
f 82/79/58 86/80/58 79/81/58 81/82/58
f 83/83/59 79/81/59 86/80/59
f 81/82/60 80/84/60 85/85/60 82/79/60
f 86/80/61 82/79/61 85/85/61
f 85/85/62 84/86/62 83/83/62 86/80/62
f 80/84/63 84/86/63 85/85/63
f 92/87/64 95/88/64 96/89/64 91/90/64
f 89/91/65 87/92/65 92/87/65
f 95/88/66 92/87/66 87/92/66 94/93/66
f 91/90/67 90/94/67 89/91/67 92/87/67
f 88/95/68 90/94/68 91/90/68
f 93/96/69 96/89/69 95/88/69 94/93/69
f 93/96/70 88/95/70 91/90/70 96/89/70
f 97/97/71 119/98/71 118/99/71 106/100/71
f 103/101/72 127/102/72 116/103/72 105/104/72
f 121/105/73 117/106/73 118/99/73
f 109/107/74 124/108/74 100/109/74 104/110/74
f 98/111/75 107/112/75 129/113/75 105/114/75 110/115/75 109/116/75
f 98/111/76 109/107/76 104/110/76
f 102/117/77 101/118/77 103/119/77 114/120/77 113/121/77
f 120/122/78 119/98/78 97/97/78 108/123/78
f 129/124/79 107/125/79 108/126/79 112/127/79 130/128/79
f 127/102/80 128/129/80 116/103/80
f 116/103/81 128/129/81 99/130/81 105/104/81
f 98/131/82 117/106/82 121/105/82 107/132/82
f 105/133/83 99/134/83 111/135/83 110/115/83
f 99/130/84 128/129/84 125/136/84
f 115/137/85 114/120/85 103/119/85 105/138/85
f 118/99/86 117/106/86 98/131/86 106/100/86
f 107/132/87 121/105/87 120/122/87 108/123/87
f 124/108/88 122/139/88 100/109/88
f 99/134/89 123/140/89 111/135/89
f 125/136/90 128/129/90 127/102/90 126/141/90
f 127/102/91 103/101/91 101/142/91 126/141/91
f 129/124/92 130/128/92 115/143/92 105/144/92
f 130/128/93 112/127/93 113/121/93
f 110/115/94 111/135/94 124/108/94 109/116/94
f 120/122/95 121/105/95 118/99/95 119/98/95
f 122/139/96 124/108/96 111/135/96 123/140/96
f 97/145/97 102/117/97 113/121/97 112/127/97 108/126/97
f 115/143/93 130/128/93 113/121/93 114/120/93
f 133/146/98 132/147/98 134/148/98 140/149/98 139/150/98
f 142/151/99 136/152/99 137/153/99 138/154/99 143/155/99
f 141/156/100 140/149/100 134/148/100 135/157/100
f 142/151/101 143/155/101 141/158/101 135/159/101
f 143/155/102 138/154/102 139/150/102
f 131/160/103 133/146/103 139/150/103 138/154/103 137/153/103
f 141/158/102 143/155/102 139/150/102 140/149/102
