# Blender v2.81 (sub 16) OBJ File: ''
# www.blender.org
mtllib tropical_rock.mtl
o tropical_rocks_tropical_rocks_Cube.013
v -0.009398 -0.000119 -0.000780
v -0.000064 0.011945 -0.002051
v 0.001786 0.014158 -0.011441
v -0.006214 -0.000119 -0.018786
v 0.016869 0.014033 -0.002424
v 0.015902 0.017358 -0.011419
v 0.014716 0.018052 -0.011815
v 0.015633 0.014284 -0.001982
v 0.008825 0.017571 -0.011569
v 0.009474 0.013944 -0.002023
v 0.012142 -0.000119 -0.024007
v 0.008984 0.017025 -0.013596
v 0.015390 0.017423 -0.013626
v 0.022741 -0.000119 -0.021389
v 0.009548 0.011875 0.001065
v 0.018418 0.010881 0.001392
v 0.022866 -0.000119 0.005817
v 0.009249 -0.000119 0.008382
v 0.002740 0.015089 -0.011117
v 0.004282 0.015435 -0.013687
v 0.001154 0.012736 -0.002193
v 0.002709 0.011089 0.000923
v 0.000030 0.009666 0.001194
v -0.005409 -0.000119 0.004171
v 0.025829 -0.000119 -0.017139
v 0.016578 0.016695 -0.013240
v 0.019575 0.010690 0.000789
v 0.025829 -0.000119 0.002431
v -0.000726 -0.000119 -0.022953
v 0.002355 0.013413 -0.014548
v -0.016670 0.008939 -0.003834
v -0.014864 0.010282 -0.007689
v -0.016318 0.011485 -0.008415
v -0.018570 0.009864 -0.003929
v -0.019571 0.009441 -0.012142
v -0.023048 0.008372 -0.006573
v -0.013655 -0.000119 -0.016875
v -0.018102 0.008329 -0.013838
v -0.014520 0.010863 -0.009921
v -0.007141 -0.000119 -0.010837
v -0.023954 0.006798 -0.005056
v -0.018176 0.008524 -0.002453
v -0.016904 -0.000119 0.003387
v -0.026733 -0.000119 -0.001208
v -0.027378 -0.000119 -0.012129
v -0.029565 -0.000119 -0.006871
v -0.006447 -0.000119 -0.006061
v -0.013866 0.009887 -0.008348
v -0.016531 0.008555 -0.002976
v -0.010612 -0.000119 0.000411
v -0.023593 -0.000119 -0.016518
v -0.018459 -0.000119 -0.018077
v -0.000603 0.006496 0.013258
v -0.003124 0.003494 0.020221
v 0.001872 0.003338 0.021447
v 0.003190 0.004277 0.016969
v -0.004200 0.004625 0.008337
v -0.006254 -0.000119 0.004033
v -0.008557 -0.000119 0.005740
v -0.005737 0.005841 0.010096
v 0.002414 -0.000119 0.024640
v -0.004402 -0.000119 0.024151
v -0.012515 -0.000119 0.016690
v -0.008515 0.005149 0.016230
v -0.004516 0.006525 0.011032
v -0.007074 0.005540 0.017359
v 0.002008 -0.000119 0.006744
v 0.000144 0.005307 0.011249
v 0.003596 0.003563 0.014174
v 0.004652 0.002633 0.014786
v 0.006439 -0.000119 0.014075
v -0.002979 0.005307 0.009301
v 0.004231 0.003327 0.017609
v 0.007069 -0.000119 0.016554
v 0.004669 -0.000119 0.023097
v 0.003332 0.002446 0.021639
v -0.011428 -0.000119 0.019915
vt 0.737674 0.386955
vt 0.473069 0.409277
vt 0.418542 0.278394
vt 0.585886 0.062948
vt 0.229849 0.401062
vt 0.252780 0.300310
vt 0.266899 0.295570
vt 0.244732 0.407220
vt 0.325317 0.291270
vt 0.326024 0.415627
vt 0.232380 0.003041
vt 0.321632 0.268647
vt 0.256877 0.277264
vt 0.049989 0.103360
vt 0.322788 0.469721
vt 0.194531 0.459153
vt 0.048951 0.582716
vt 0.281349 0.699322
vt 0.401114 0.286710
vt 0.376011 0.258922
vt 0.450681 0.408480
vt 0.443383 0.473752
vt 0.488955 0.507180
vt 0.564191 0.708517
vt 0.002841 0.175782
vt 0.241175 0.281742
vt 0.178954 0.449148
vt 0.002841 0.519966
vt 0.476967 0.002836
vt 0.402881 0.235125
vt 0.703871 0.737930
vt 0.738542 0.682421
vt 0.759811 0.690987
vt 0.737089 0.749257
vt 0.815725 0.685561
vt 0.806562 0.760860
vt 0.849281 0.512710
vt 0.821511 0.656226
vt 0.758889 0.664890
vt 0.682967 0.502079
vt 0.811624 0.794603
vt 0.718324 0.772629
vt 0.647338 0.930514
vt 0.841514 0.926855
vt 0.979668 0.762613
vt 0.942402 0.861999
vt 0.613699 0.537590
vt 0.735022 0.665911
vt 0.690617 0.744136
vt 0.545233 0.641256
vt 0.694323 0.753687
vt 0.546334 0.868893
vt 0.973488 0.654068
vt 0.924189 0.566677
vt 0.501744 0.469635
vt 0.710534 0.499498
vt 0.855887 0.165932
vt 0.743110 0.171697
vt 0.745121 0.085370
vt 0.823002 0.093898
vt 0.914033 0.227755
vt 0.997162 0.290212
vt 0.961801 0.324167
vt 0.879701 0.239147
vt 0.664605 0.064304
vt 0.653470 0.183877
vt 0.764818 0.349543
vt 0.798115 0.254912
vt 0.870345 0.219696
vt 0.787886 0.232863
vt 0.997162 0.137669
vt 0.887149 0.160707
vt 0.867456 0.095472
vt 0.865693 0.071317
vt 0.898019 0.025391
vt 0.901449 0.207110
vt 0.819010 0.069993
vt 0.857718 0.002953
vt 0.733354 0.002842
vt 0.751430 0.055964
vt 0.688848 0.023797
vt 0.711247 0.317231
vn -0.8194 0.5635 -0.1050
vn 0.3517 0.8871 0.2990
vn -0.0574 0.9312 0.3600
vn -0.1413 0.9342 0.3276
vn -0.1432 0.9342 0.3268
vn 0.0176 0.5065 -0.8621
vn 0.0102 0.5075 -0.8616
vn 0.1201 0.4891 -0.8639
vn 0.0176 0.7669 0.6415
vn -0.0509 0.8052 0.5908
vn -0.0501 0.8048 0.5914
vn 0.1080 0.4675 0.8774
vn -0.0382 0.4666 0.8836
vn -0.0387 0.4666 0.8836
vn -0.3530 0.9199 -0.1707
vn -0.2226 0.9453 -0.2386
vn -0.2150 0.9461 -0.2423
vn -0.1211 0.8373 0.5332
vn -0.1851 0.4555 0.8708
vn 0.8619 0.5066 0.0219
vn 0.3638 0.7853 0.5009
vn 0.6715 0.5077 -0.5397
vn 0.6224 0.4779 0.6199
vn -0.1020 0.5198 -0.8482
vn -0.6071 0.5608 -0.5630
vn 0.5353 0.8388 -0.0995
vn -0.0747 0.9489 -0.3066
vn -0.2322 0.9288 0.2889
vn 0.3878 0.7927 0.4704
vn -0.4189 0.9080 0.0043
vn -0.5961 0.7634 -0.2489
vn -0.5848 0.7778 -0.2302
vn 0.4224 0.4657 -0.7777
vn 0.4883 0.4724 -0.7338
vn 0.5539 0.4762 -0.6830
vn -0.4952 0.6636 0.5608
vn -0.6657 0.6972 0.2660
vn -0.7295 0.6794 0.0798
vn -0.4060 0.5110 0.7577
vn -0.5203 0.5279 0.6713
vn -0.5951 0.5333 0.6012
vn -0.7714 0.5996 -0.2130
vn 0.6499 0.6139 0.4480
vn 0.2669 0.8034 0.5322
vn 0.8169 0.5704 -0.0858
vn 0.3357 0.5478 0.7663
vn -0.3249 0.4713 -0.8200
vn -0.1449 0.7498 -0.6456
vn -0.2278 0.6388 -0.7349
vn 0.5171 0.8054 0.2896
vn -0.0261 0.8677 -0.4964
vn -0.7642 0.5196 0.3821
vn 0.2191 0.4302 -0.8757
vn -0.6938 0.5660 -0.4452
vn -0.3656 0.7467 0.5556
vn -0.6269 0.7254 -0.2842
vn -0.6236 0.7780 0.0770
vn -0.6751 0.5517 0.4897
vn 0.0559 0.9458 0.3198
vn 0.0572 0.9434 0.3266
vn 0.0604 0.9373 0.3432
vn -0.3605 0.6804 -0.6380
vn -0.0918 0.7115 0.6967
vn -0.2181 0.6898 0.6904
vn -0.2048 0.6926 0.6916
vn -0.7735 0.5677 -0.2820
vn 0.0532 0.9507 0.3056
vn 0.4840 0.6171 -0.6204
vn 0.5138 0.6147 -0.5984
vn 0.6935 0.5767 -0.4318
vn 0.2973 0.6144 -0.7308
vn 0.4439 0.8485 -0.2880
vn 0.5891 0.7896 -0.1716
vn 0.4133 0.8563 -0.3096
vn 0.2483 0.8764 -0.4126
vn 0.7810 0.6145 -0.1112
vn 0.3941 0.6357 0.6637
vn 0.6911 0.7185 -0.0784
vn 0.4978 0.8124 0.3036
vn 0.7770 0.5592 0.2890
vn -0.6961 0.6282 0.3476
vn -0.0083 0.8168 -0.5768
vn -0.3566 0.9339 -0.0270
vn -0.3142 0.6649 0.6776
usemtl Rock_Texture
s 1
f 1/1/1 2/2/1 3/3/1 4/4/1
f 5/5/2 6/6/2 7/7/2 8/8/2
f 7/7/3 9/9/4 10/10/5 8/8/3
f 11/11/6 12/12/7 13/13/8 14/14/8
f 8/8/9 10/10/10 15/15/11 16/16/9
f 17/17/12 16/16/12 15/15/13 18/18/14
f 19/19/15 9/9/16 12/12/17 20/20/15
f 10/10/10 21/21/18 22/22/18 15/15/11
f 18/18/14 15/15/13 22/22/19 23/23/19 24/24/19
f 25/25/20 26/26/20 6/6/20 5/5/20 27/27/20 28/28/20
f 27/27/21 5/5/21 8/8/21 16/16/21
f 26/26/22 25/25/22 14/14/22 13/13/22
f 16/16/23 17/17/23 28/28/23 27/27/23
f 29/29/24 30/30/24 20/20/24 12/12/7 11/11/6
f 30/30/25 29/29/25 4/4/25 3/3/25
f 7/7/26 6/6/26 26/26/26 13/13/26
f 9/9/16 7/7/27 13/13/27 12/12/17
f 9/9/4 19/19/28 21/21/28 10/10/5
f 31/31/29 32/32/29 33/33/29 34/34/29
f 33/33/30 35/35/31 36/36/32 34/34/30
f 37/37/33 38/38/34 39/39/35 40/40/35
f 34/34/36 36/36/37 41/41/38 42/42/36
f 43/43/39 42/42/39 41/41/40 44/44/41
f 36/36/37 45/45/42 46/46/42 41/41/38
f 47/47/43 48/48/43 32/32/43 31/31/43 49/49/43 50/50/43
f 49/51/44 31/31/44 34/34/44 42/42/44
f 48/48/45 47/47/45 40/40/45 39/39/45
f 42/42/46 43/43/46 50/52/46 49/51/46
f 51/53/47 35/35/48 38/38/49 52/54/47
f 33/33/50 32/32/50 48/48/50 39/39/50
f 35/35/48 33/33/51 39/39/51 38/38/49
f 41/41/40 46/46/52 44/44/41
f 52/54/53 38/38/34 37/37/33
f 45/45/54 36/36/32 35/35/31 51/53/54
f 22/22/55 21/21/55 2/2/55 23/55/55
f 19/19/56 20/20/56 30/30/56 3/3/56
f 21/21/57 19/19/57 3/3/57 2/2/57
f 24/56/58 23/55/58 2/2/58 1/1/58
f 53/57/59 54/58/60 55/59/61 56/60/61
f 57/61/62 58/62/62 59/63/62 60/64/62
f 61/65/63 55/59/63 54/58/64 62/66/65
f 63/67/66 64/68/66 60/64/66 59/63/66
f 54/58/60 53/57/59 65/69/67 66/70/67
f 67/71/68 68/72/69 69/73/70 70/74/70 71/75/70
f 68/72/69 67/71/68 58/62/71 57/61/71 72/76/71
f 53/57/72 56/60/73 69/73/73 68/72/74
f 65/69/75 53/57/72 68/72/74 72/76/75
f 73/77/76 74/78/76 71/75/76 70/74/76
f 75/79/77 76/80/77 55/59/77 61/81/77
f 73/77/78 70/74/78 69/73/78 56/60/78
f 76/80/79 73/77/79 56/60/79 55/59/79
f 74/78/80 73/77/80 76/80/80 75/79/80
f 64/68/81 63/67/81 77/82/81 66/70/81
f 57/61/82 60/64/82 65/69/82 72/76/82
f 60/64/83 64/68/83 66/70/83 65/69/83
f 62/66/65 54/58/64 66/70/84 77/82/84
