# Blender v2.81 (sub 16) OBJ File: 'Fresh Nebula Assets.blend'
# www.blender.org
mtllib tundra_island.mtl
o tundra_island_island_Plane.014
v 0.014668 0.002430 -0.020692
v 0.022111 0.001398 -0.015412
v 0.016421 0.001603 -0.023137
v -0.020459 0.001280 -0.019223
v -0.016711 0.002674 -0.019304
v -0.013242 0.001477 -0.024825
v -0.012419 0.003107 -0.021295
v -0.008260 0.002839 -0.022863
v -0.005470 0.001095 -0.027966
v -0.003902 0.002043 -0.024368
v 0.001369 0.002177 -0.025265
v 0.003857 0.001253 -0.028196
v 0.007908 0.002374 -0.023906
v -0.014951 0.001699 0.022938
v -0.014383 0.002920 0.017746
v -0.019835 0.001169 0.012656
v -0.016149 0.002261 0.010748
v -0.017067 0.002119 0.003741
v -0.021186 0.001316 -0.002315
v -0.017880 0.002284 -0.004491
v -0.017858 0.002449 -0.012453
v -0.021713 0.001317 -0.013168
v -0.013518 0.003256 -0.013571
v -0.006493 0.001556 0.028958
v -0.009742 0.003274 0.020505
v -0.011377 0.002780 0.011981
v -0.012139 0.002041 0.004103
v -0.013132 0.002383 -0.004680
v -0.009019 0.002865 -0.014303
v -0.005066 0.003124 0.022893
v -0.006524 0.003047 0.013063
v -0.006954 0.002288 0.003998
v -0.007938 0.002358 -0.004813
v -0.003559 0.001993 -0.015528
v 0.002281 0.001162 0.030357
v -0.000039 0.002773 0.024007
v -0.001118 0.003301 0.013499
v -0.001402 0.003497 0.003397
v -0.001928 0.003204 -0.005421
v 0.002840 0.001968 -0.016499
v 0.005350 0.001913 0.023062
v 0.004866 0.003779 0.012246
v 0.004472 0.004170 0.002698
v 0.004109 0.003524 -0.006442
v 0.009692 0.002728 -0.015847
v 0.013896 0.001014 0.025395
v 0.011511 0.001749 0.020158
v 0.012579 0.003511 0.009966
v 0.011795 0.004170 0.001342
v 0.011315 0.003334 -0.007134
v 0.017305 0.002556 -0.013979
v 0.019762 0.001575 0.015659
v 0.020668 0.002279 0.007493
v 0.019828 0.002413 -0.000052
v 0.018961 0.002424 -0.007100
v 0.022933 0.001484 -0.009285
v 0.024778 0.001020 0.015230
v 0.025566 0.001202 0.002232
v 0.011898 -0.001370 0.033301
v 0.023737 -0.001370 0.025714
v -0.021431 -0.001370 -0.027179
v -0.026449 -0.001370 -0.018033
v -0.011440 -0.001370 -0.032107
v 0.030604 -0.001370 0.012419
v -0.027089 -0.001370 -0.007057
v 0.032789 -0.001370 -0.001523
v -0.025624 -0.001370 0.008112
v 0.030649 -0.001370 -0.013104
v -0.020964 -0.001370 0.024824
v 0.024762 -0.001370 -0.024358
v -0.011899 -0.001370 0.033845
v 0.012685 -0.001370 -0.032627
v 0.000163 -0.001370 0.035291
v -0.001796 -0.001370 -0.034665
vt 0.131976 0.166392
vt 0.069684 0.220930
vt 0.109869 0.145008
vt 0.442119 0.115199
vt 0.402573 0.128203
vt 0.369312 0.078189
vt 0.364176 0.120925
vt 0.328494 0.112282
vt 0.294103 0.061894
vt 0.286549 0.102015
vt 0.238105 0.104196
vt 0.209693 0.077400
vt 0.184368 0.128210
vt 0.461999 0.497618
vt 0.441360 0.451868
vt 0.492808 0.401161
vt 0.451008 0.389579
vt 0.449308 0.325507
vt 0.479846 0.264297
vt 0.441851 0.251178
vt 0.426805 0.182069
vt 0.464711 0.166929
vt 0.385665 0.180573
vt 0.397986 0.564768
vt 0.407099 0.480985
vt 0.409528 0.407093
vt 0.406521 0.336281
vt 0.399867 0.258044
vt 0.345961 0.183070
vt 0.372418 0.508397
vt 0.368768 0.423330
vt 0.361620 0.343436
vt 0.354809 0.266449
vt 0.295493 0.179788
vt 0.322453 0.594341
vt 0.332489 0.527936
vt 0.322554 0.435832
vt 0.308854 0.348534
vt 0.299734 0.271359
vt 0.240548 0.181453
vt 0.282112 0.533256
vt 0.268915 0.433094
vt 0.256828 0.352227
vt 0.245564 0.273485
vt 0.182270 0.200321
vt 0.209436 0.571474
vt 0.222459 0.519189
vt 0.199959 0.426306
vt 0.194072 0.352122
vt 0.182386 0.278881
vt 0.119084 0.227905
vt 0.142140 0.492909
vt 0.122667 0.420778
vt 0.117095 0.353425
vt 0.113792 0.290433
vt 0.071241 0.277103
vt 0.095576 0.498678
vt 0.065380 0.384265
vt 0.266596 0.654508
vt 0.110259 0.597890
vt 0.441922 0.036470
vt 0.504870 0.111002
vt 0.341621 0.007714
vt 0.024967 0.470641
vt 0.532031 0.210016
vt 0.002641 0.343068
vt 0.544664 0.351033
vt 0.002641 0.244448
vt 0.535382 0.489214
vt 0.030140 0.149975
vt 0.467980 0.589071
vt 0.125020 0.055689
vt 0.384020 0.653473
vt 0.247777 0.002663
vt 0.503242 0.549997
vt 0.731732 0.368194
vt 0.997363 0.657322
vt 0.923255 0.428062
vt 0.989295 0.523601
vt 0.987177 0.792617
vt 0.485567 0.672913
vt 0.964898 0.887930
vt 0.811869 0.988601
vt 0.604036 0.947987
vt 0.906995 0.960537
vt 0.723388 0.996397
vt 0.510646 0.857109
vt 0.485567 0.766656
vt 0.582274 0.424887
vt 0.843582 0.366380
vn 0.1204 0.9817 -0.1473
vn 0.2814 0.9521 -0.1192
vn 0.2135 0.9351 -0.2829
vn -0.3548 0.9172 -0.1812
vn -0.2597 0.9480 -0.1843
vn -0.1805 0.9116 -0.3693
vn -0.0950 0.9763 -0.1946
vn 0.0382 0.9822 -0.1837
vn -0.0542 0.9355 -0.3492
vn 0.0397 0.9884 -0.1463
vn -0.0264 0.9879 -0.1531
vn 0.0374 0.9395 -0.3404
vn 0.0331 0.9849 -0.1702
vn -0.2995 0.9218 0.2461
vn -0.2387 0.9680 0.0776
vn -0.3891 0.9180 0.0773
vn -0.1626 0.9864 -0.0230
vn -0.1359 0.9907 0.0111
vn -0.3514 0.9356 0.0347
vn -0.1630 0.9860 0.0361
vn -0.2092 0.9778 0.0086
vn -0.3776 0.9256 -0.0266
vn -0.0375 0.9989 0.0269
vn -0.0876 0.9371 0.3379
vn -0.0895 0.9906 0.1032
vn -0.0416 0.9973 -0.0610
vn -0.0264 0.9994 -0.0220
vn -0.0157 0.9987 0.0477
vn 0.0670 0.9977 0.0083
vn -0.0216 0.9911 0.1314
vn -0.0439 0.9986 -0.0291
vn -0.0941 0.9953 -0.0213
vn -0.0384 0.9991 0.0153
vn 0.0340 0.9988 -0.0358
vn 0.0642 0.9389 0.3383
vn 0.0575 0.9863 0.1544
vn -0.0350 0.9987 0.0365
vn -0.1222 0.9925 -0.0079
vn -0.0788 0.9955 -0.0531
vn -0.0424 0.9979 -0.0498
vn 0.0898 0.9865 0.1366
vn 0.0208 0.9953 0.0948
vn -0.0365 0.9993 -0.0086
vn -0.0421 0.9947 -0.0935
vn -0.0054 0.9986 -0.0520
vn 0.1449 0.9640 0.2229
vn 0.0926 0.9861 0.1378
vn 0.1141 0.9884 0.1005
vn 0.0949 0.9953 -0.0174
vn 0.0513 0.9959 -0.0752
vn 0.1397 0.9887 -0.0553
vn 0.1422 0.9829 0.1173
vn 0.1859 0.9809 0.0574
vn 0.1946 0.9807 -0.0194
vn 0.1716 0.9842 -0.0425
vn 0.2656 0.9629 -0.0472
vn 0.3157 0.9380 0.1434
vn 0.2848 0.9585 0.0081
vn 0.1547 0.9221 0.3547
vn 0.2606 0.9292 0.2620
vn -0.2810 0.9093 -0.3070
vn -0.4422 0.8887 -0.1213
vn -0.1358 0.9097 -0.3924
vn 0.4067 0.9088 0.0933
vn -0.4428 0.8965 0.0154
vn 0.3318 0.9432 -0.0152
vn -0.4471 0.8919 0.0676
vn 0.3294 0.9393 -0.0958
vn -0.3952 0.8893 0.2303
vn 0.3051 0.9192 -0.2490
vn -0.1860 0.9058 0.3806
vn 0.1340 0.9201 -0.3679
vn 0.0043 0.8852 0.4652
vn -0.0263 0.9221 -0.3862
vn 0.0000 -1.0000 -0.0000
usemtl Material
s 1
f 1/1/1 2/2/2 3/3/3
f 4/4/4 5/5/5 6/6/6
f 5/5/5 7/7/7 6/6/6
f 7/7/7 8/8/8 9/9/9 6/6/6
f 8/8/8 10/10/10 9/9/9
f 10/10/10 11/11/11 12/12/12 9/9/9
f 11/11/11 13/13/13 12/12/12
f 13/13/13 1/1/1 3/3/3 12/12/12
f 14/14/14 15/15/15 16/16/16
f 16/16/16 15/15/15 17/17/17
f 16/16/16 17/17/17 18/18/18 19/19/19
f 19/19/19 18/18/18 20/20/20
f 19/19/19 20/20/20 21/21/21 22/22/22
f 23/23/23 7/7/7 5/5/5 21/21/21
f 14/14/14 24/24/24 25/25/25 15/15/15
f 15/15/15 25/25/25 26/26/26 17/17/17
f 17/17/17 26/26/26 27/27/27 18/18/18
f 18/18/18 27/27/27 28/28/28 20/20/20
f 20/20/20 28/28/28 23/23/23 21/21/21
f 29/29/29 8/8/8 7/7/7 23/23/23
f 24/24/24 30/30/30 25/25/25
f 25/25/25 30/30/30 31/31/31 26/26/26
f 26/26/26 31/31/31 32/32/32 27/27/27
f 27/27/27 32/32/32 33/33/33 28/28/28
f 28/28/28 33/33/33 29/29/29 23/23/23
f 34/34/34 10/10/10 8/8/8 29/29/29
f 24/24/24 35/35/35 36/36/36 30/30/30
f 30/30/30 36/36/36 37/37/37 31/31/31
f 31/31/31 37/37/37 38/38/38 32/32/32
f 32/32/32 38/38/38 39/39/39 33/33/33
f 33/33/33 39/39/39 34/34/34 29/29/29
f 40/40/40 11/11/11 10/10/10 34/34/34
f 35/35/35 41/41/41 36/36/36
f 36/36/36 41/41/41 42/42/42 37/37/37
f 37/37/37 42/42/42 43/43/43 38/38/38
f 38/38/38 43/43/43 44/44/44 39/39/39
f 39/39/39 44/44/44 40/40/40 34/34/34
f 45/45/45 13/13/13 11/11/11 40/40/40
f 35/35/35 46/46/46 47/47/47 41/41/41
f 41/41/41 47/47/47 48/48/48 42/42/42
f 42/42/42 48/48/48 49/49/49 43/43/43
f 43/43/43 49/49/49 50/50/50 44/44/44
f 44/44/44 50/50/50 45/45/45 40/40/40
f 51/51/51 1/1/1 13/13/13 45/45/45
f 46/46/46 52/52/52 47/47/47
f 47/47/47 52/52/52 53/53/53 48/48/48
f 48/48/48 53/53/53 54/54/54 49/49/49
f 49/49/49 54/54/54 55/55/55 50/50/50
f 50/50/50 55/55/55 51/51/51 45/45/45
f 2/2/2 1/1/1 51/51/51 56/56/56
f 46/46/46 57/57/57 52/52/52
f 52/52/52 57/57/57 58/58/58 53/53/53
f 53/53/53 58/58/58 54/54/54
f 54/54/54 58/58/58 56/56/56 55/55/55
f 55/55/55 56/56/56 51/51/51
f 46/46/46 59/59/59 60/60/60
f 4/4/4 61/61/61 62/62/62
f 6/6/6 63/63/63 61/61/61
f 57/57/57 60/60/60 64/64/64
f 22/22/22 4/4/4 62/62/62
f 58/58/58 57/57/57 64/64/64
f 22/22/22 62/62/62 65/65/65
f 58/58/58 64/64/64 66/66/66
f 19/19/19 22/22/22 65/65/65
f 56/56/56 58/58/58 66/66/66
f 19/19/19 65/65/65 67/67/67
f 56/56/56 66/66/66 68/68/68
f 16/16/16 19/19/19 67/67/67
f 2/2/2 56/56/56 68/68/68
f 16/16/16 67/67/67 69/69/69
f 2/2/2 68/68/68 70/70/70
f 14/14/14 69/69/69 71/71/71
f 3/3/3 70/70/70 72/72/72
f 24/24/24 14/14/14 71/71/71
f 12/12/12 3/3/3 72/72/72
f 24/24/24 71/71/71 73/73/73
f 14/14/14 16/16/16 69/69/69
f 12/12/12 72/72/72 74/74/74
f 35/35/35 24/24/24 73/73/73
f 57/57/57 46/46/46 60/60/60
f 9/9/9 12/12/12 74/74/74
f 35/35/35 73/73/73 59/59/59
f 3/3/3 2/2/2 70/70/70
f 9/9/9 74/74/74 63/63/63
f 46/46/46 35/35/35 59/59/59
f 4/4/4 6/6/6 61/61/61
f 6/6/6 9/9/9 63/63/63
f 64/75/75 59/76/75 67/77/75
f 22/22/22 21/21/21 5/5/5 4/4/4
f 71/78/75 69/79/75 67/77/75
f 67/77/75 65/80/75 66/81/75
f 65/80/75 62/82/75 63/83/75
f 72/84/75 65/80/75 63/83/75
f 62/82/75 61/85/75 63/83/75
f 63/83/75 74/86/75 72/84/75
f 72/84/75 70/87/75 68/88/75
f 68/88/75 66/81/75 65/80/75
f 66/81/75 64/75/75 67/77/75
f 64/75/75 60/89/75 59/76/75
f 59/76/75 73/90/75 71/78/75
f 71/78/75 67/77/75 59/76/75
f 65/80/75 72/84/75 68/88/75
