# Blender v2.81 (sub 16) OBJ File: 'Nebula Assets Nov 10 (1).blend'
# www.blender.org
mtllib joshua base.mtl
o Cylinder.002_Cylinder.003
v -0.000000 6.954673 -0.297294
v 0.282743 6.954673 -0.091869
v 0.174745 6.954673 0.240516
v -0.174745 6.954673 0.240516
v -0.282743 6.954673 -0.091869
v 0.000000 0.000000 -0.714300
v 0.679340 0.000000 -0.220731
v 0.419855 0.000000 0.577881
v -0.419855 0.000000 0.577881
v -0.679340 0.000000 -0.220731
v 0.679340 6.284849 -0.220731
v 0.000000 6.284849 -0.714300
v 0.419855 6.284849 0.577881
v -0.419855 6.284849 0.577881
v -0.679340 6.284849 -0.220731
v 0.114036 6.158550 -0.602504
v 0.586673 6.184117 -0.291953
v 0.478277 6.498756 0.166014
v -0.061353 6.667649 0.138502
v -0.286467 6.457390 -0.336468
v 1.159434 7.987857 -2.041960
v 0.686797 7.962290 -2.352512
v 1.051038 8.302497 -1.583993
v 0.511408 8.471389 -1.611506
v 0.286294 8.261129 -2.086476
v 1.718959 10.280611 -2.646613
v 1.273655 10.199493 -2.986622
v 1.524336 10.422656 -2.134336
v 0.958748 10.429328 -2.157741
v 0.803818 10.291405 -2.684482
v 1.690078 9.968919 -2.387846
v 1.427101 9.617033 -2.744921
v 1.295379 10.230380 -2.077471
v 0.788464 10.040087 -2.242724
v 0.869873 9.661019 -2.655231
v 0.675418 11.784529 -3.827043
v 0.595736 11.755922 -3.912729
v 0.614690 11.804800 -3.725010
v 0.497475 11.788722 -3.747635
v 0.485761 11.758514 -3.863652
v 0.980020 10.089738 -2.103054
v 1.415719 9.737852 -2.185672
v 0.870945 10.351199 -2.593179
v 1.239233 10.160906 -2.978711
v 1.575921 9.781838 -2.726858
v 2.681431 11.922549 -2.419267
v 2.799982 11.908638 -2.403092
v 2.657386 11.904355 -2.535887
v 2.761076 11.879197 -2.591789
v 2.849206 11.881845 -2.509717
v 2.652792 10.493824 -2.618771
v 2.394243 10.736130 -2.821878
v 2.153958 10.925817 -2.554984
v 2.264003 10.800743 -2.186927
v 2.572299 10.533757 -2.226348
v 0.294524 10.481582 -3.591412
v 0.223258 10.723887 -3.270443
v 0.567836 10.913574 -3.169270
v 0.852062 10.788501 -3.427711
v 0.683146 10.521515 -3.688610
v 0.482458 6.181280 0.041109
v 0.134572 6.206847 0.486982
v -0.313087 6.521486 0.341774
v -0.241869 6.690379 -0.193842
v 0.249805 6.480120 -0.379664
v 1.169373 7.199097 0.897779
v 1.517260 7.173530 0.451906
v 0.721714 7.513737 0.752572
v 0.792933 7.682629 0.216955
v 1.284607 7.472370 0.031133
v 1.954244 9.540359 1.408462
v 2.350668 9.478682 1.009055
v 1.450514 9.570148 1.151847
v 1.535616 9.526880 0.593844
v 2.091942 9.470350 0.505593
v 1.580771 9.260948 1.294931
v 2.018557 8.954458 1.108143
v 1.277365 9.424406 0.845812
v 1.527636 9.218939 0.381452
v 1.985718 8.928497 0.543581
v 2.802247 11.197675 0.220523
v 2.899867 11.177238 0.152979
v 2.705708 11.193656 0.148595
v 2.743664 11.170736 0.036596
v 2.863660 11.160589 0.039306
v 1.361110 9.261094 0.552209
v 1.451838 8.972610 1.030779
v 1.809994 9.593660 0.460642
v 2.178147 9.510715 0.882620
v 1.956795 9.126886 1.234983
v 1.175643 11.274735 2.057148
v 1.148847 11.269550 2.174471
v 1.295614 11.275287 2.046357
v 1.342963 11.270441 2.157010
v 1.252257 11.266895 2.236189
v 1.611973 9.907868 2.209366
v 1.799577 10.156548 1.945216
v 1.533432 10.272135 1.661039
v 1.181340 10.094891 1.749557
v 1.229881 9.869761 2.088442
v 2.830765 9.843297 -0.030720
v 2.483979 10.016965 -0.158744
v 2.314751 10.217710 0.151118
v 2.556950 10.168107 0.470647
v 2.875865 9.936708 0.358265
v -0.479381 6.181280 0.444408
v -0.612414 6.206847 -0.105256
v -0.220408 6.521486 -0.365669
v 0.154897 6.690379 0.023050
v -0.005157 6.480120 0.523706
v -1.657937 7.506280 0.509227
v -1.524904 7.480713 1.058891
v -1.265931 7.820920 0.248813
v -0.890626 7.989812 0.637533
v -1.050679 7.779552 1.138189
v -2.449991 9.604356 0.639148
v -2.336594 9.584673 1.193437
v -1.957962 9.635777 0.360935
v -1.540475 9.635514 0.743279
v -1.774482 9.603930 1.257793
v -2.235203 9.349727 0.385402
v -2.311165 9.072109 0.872886
v -1.700411 9.534854 0.371009
v -1.445853 9.371653 0.849598
v -1.823320 9.085661 1.159775
v -1.936566 12.841359 1.592328
v -1.949972 12.831382 1.711619
v -1.818601 12.840932 1.567963
v -1.759100 12.830690 1.672196
v -1.840292 12.824787 1.760980
v -1.494890 9.343554 0.678405
v -1.930617 9.024632 0.508365
v -1.682409 9.696526 1.079316
v -2.234028 9.595753 1.157053
v -2.387429 9.180500 0.804186
v -2.751956 11.938503 -0.476548
v -2.834192 11.924025 -0.563365
v -2.809782 11.943802 -0.371012
v -2.927756 11.932599 -0.392606
v -2.942842 11.920377 -0.511486
v -3.047965 10.711659 -0.187509
v -2.943414 10.984737 0.097640
v -2.564258 11.111539 0.026138
v -2.434479 10.916830 -0.303202
v -2.733426 10.669690 -0.435244
v -1.864581 10.848454 2.068260
v -1.572531 11.019277 1.839484
v -1.743781 11.191545 1.513988
v -2.141670 11.127191 1.541598
v -2.216329 10.915148 1.884156
v 0.323919 3.166085 -0.737927
v 1.003259 3.166085 -0.244357
v 0.743775 3.166085 0.554254
v -0.095936 3.166085 0.554254
v -0.355420 3.166085 -0.244358
vt 0.342632 0.290712
vt 0.113165 0.290386
vt 0.137157 0.235408
vt 0.353758 0.226464
vt 0.131622 0.190179
vt 0.348424 0.167707
vt 0.100533 0.144702
vt 0.328415 0.108853
vt 0.097873 0.228349
vt 0.077956 0.240470
vt 0.028859 0.218973
vt 0.078400 0.196686
vt 0.095475 0.210061
vt 0.025917 0.097448
vt 0.284965 0.048859
vt 0.286184 0.367439
vt 0.000269 0.367439
vt 0.174985 0.377408
vt 0.177954 0.562487
vt 0.135781 0.561210
vt 0.130031 0.373579
vt 0.091608 0.562661
vt 0.087994 0.367977
vt 0.045751 0.565670
vt 0.045590 0.368950
vt 0.000269 0.566388
vt 0.004327 0.375374
vt 0.218597 0.373166
vt 0.220422 0.563915
vt 0.045120 0.736880
vt 0.003284 0.739009
vt 0.129377 0.751609
vt 0.087131 0.744837
vt 0.174751 0.748123
vt 0.220422 0.738551
vt 0.125080 0.982577
vt 0.127219 0.940358
vt 0.207894 0.916580
vt 0.219750 0.957481
vt 0.128357 0.893090
vt 0.125209 0.841590
vt 0.215192 0.842130
vt 0.208028 0.879581
vt 0.121284 0.794175
vt 0.219131 0.803965
vt 0.121645 0.752147
vt 0.219750 0.761181
vt 0.638135 0.787991
vt 0.600564 0.787241
vt 0.592199 0.699049
vt 0.635670 0.682478
vt 0.756865 0.779451
vt 0.712013 0.784015
vt 0.728621 0.688869
vt 0.773438 0.702370
vt 0.672391 0.787969
vt 0.684986 0.678269
vt 0.556350 0.788819
vt 0.545839 0.709472
vt 0.588994 0.888412
vt 0.543462 0.902401
vt 0.684261 0.890210
vt 0.635625 0.882104
vt 0.727910 0.898852
vt 0.773438 0.889671
vt 0.025003 0.922260
vt 0.009602 0.887082
vt 0.008363 0.812095
vt 0.018511 0.769914
vt 0.000269 0.849775
vt 0.022121 0.965492
vt 0.522578 0.500888
vt 0.416694 0.502143
vt 0.420828 0.463832
vt 0.531837 0.453592
vt 0.422136 0.421967
vt 0.542924 0.411176
vt 0.417569 0.376008
vt 0.536980 0.367977
vt 0.542924 0.592534
vt 0.422196 0.582001
vt 0.417320 0.540038
vt 0.528661 0.548064
vt 0.250820 0.592158
vt 0.241027 0.546546
vt 0.220960 0.453642
vt 0.236238 0.409449
vt 0.223273 0.500431
vt 0.248438 0.369126
vt 0.956251 0.804888
vt 0.996137 0.808832
vt 0.999731 0.897163
vt 0.955490 0.898715
vt 0.821256 0.804846
vt 0.872417 0.804529
vt 0.870678 0.895370
vt 0.831399 0.886850
vt 0.918429 0.803016
vt 0.910844 0.899652
vt 0.773976 0.800646
vt 0.792525 0.884559
vt 0.875475 0.464639
vt 0.872444 0.503345
vt 0.783676 0.503003
vt 0.771211 0.459466
vt 0.871445 0.551215
vt 0.874889 0.599538
vt 0.778466 0.587388
vt 0.787091 0.545592
vt 0.875773 0.389805
vt 0.877412 0.430017
vt 0.770010 0.411385
vt 0.782963 0.367977
vt 0.973897 0.516310
vt 0.988299 0.555650
vt 0.978980 0.424169
vt 0.968590 0.470983
vt 0.990394 0.380438
vt 0.990394 0.597097
vt 0.799201 0.697332
vt 0.837030 0.684255
vt 0.914780 0.690738
vt 0.956568 0.706901
vt 0.876635 0.678269
vt 0.999731 0.703976
vt 0.521412 0.686992
vt 0.391265 0.686000
vt 0.393411 0.645585
vt 0.525426 0.641547
vt 0.391884 0.603473
vt 0.530393 0.597624
vt 0.530393 0.817263
vt 0.391117 0.816622
vt 0.387713 0.771408
vt 0.530021 0.772855
vt 0.388389 0.726852
vt 0.524027 0.731164
vt 0.243896 0.773213
vt 0.234628 0.728782
vt 0.222617 0.636729
vt 0.238395 0.593072
vt 0.220960 0.683165
vt 0.236307 0.817811
vt 0.677401 0.524733
vt 0.640056 0.513555
vt 0.628513 0.371350
vt 0.675668 0.374428
vt 0.596902 0.503099
vt 0.551693 0.509967
vt 0.543462 0.372201
vt 0.585851 0.367977
vt 0.755290 0.509853
vt 0.715885 0.523355
vt 0.723503 0.374196
vt 0.769472 0.371914
vt 0.730515 0.180484
vt 0.740519 0.139317
vt 0.816621 0.141052
vt 0.827460 0.182229
vt 0.745905 0.092028
vt 0.738376 0.044728
vt 0.821201 0.060302
vt 0.813756 0.100177
vt 0.729127 0.000269
vt 0.831902 0.019773
vt 0.729596 0.221744
vt 0.831902 0.224483
vt 0.593187 0.132044
vt 0.585658 0.092108
vt 0.574024 0.218422
vt 0.586017 0.177076
vt 0.573645 0.051631
vt 0.572637 0.009507
vt 0.631360 0.659617
vt 0.590474 0.665812
vt 0.723524 0.677732
vt 0.678728 0.667280
vt 0.769472 0.675184
vt 0.547052 0.676749
vt 0.572099 0.367439
vt 0.572099 0.291038
vt 0.556297 0.073004
vt 0.544014 0.000269
vt 0.565226 0.145235
vt 0.570358 0.217520
vn 0.0382 0.0001 -0.9993
vn -0.0219 0.2526 -0.9673
vn 0.9057 0.2994 -0.3001
vn 0.9537 0.0007 -0.3007
vn 0.5493 0.2758 0.7888
vn 0.6131 0.0004 0.7899
vn -0.5866 0.2180 0.7800
vn -0.5628 -0.0005 0.8266
vn 0.5760 0.7957 -0.1871
vn 0.0000 0.7957 -0.6056
vn -0.5760 0.7957 -0.1871
vn -0.3560 0.7957 0.4899
vn 0.3560 0.7957 0.4899
vn -0.9332 0.2051 -0.2950
vn -0.9462 -0.0007 -0.3235
vn -0.1566 -0.6616 -0.7332
vn -0.0816 -0.4810 -0.8729
vn 0.8607 -0.4144 -0.2957
vn 0.8972 -0.4193 -0.1385
vn 0.6904 0.2076 0.6930
vn 0.6663 0.3993 0.6297
vn -0.5453 0.5217 0.6560
vn -0.3721 0.7045 0.6043
vn -0.9250 0.0488 -0.3768
vn -0.9724 0.1089 -0.2060
vn -0.5286 0.3396 0.7780
vn -0.9164 0.1172 -0.3826
vn 0.9318 -0.2877 -0.2213
vn 0.6201 0.0634 0.7819
vn 0.0796 -0.2862 -0.9548
vn -0.7340 -0.4449 -0.5130
vn -0.9278 0.1451 0.3437
vn -0.8473 0.3807 0.3703
vn -0.7117 -0.0374 -0.7015
vn 0.0515 0.7042 0.7081
vn 0.9226 0.3290 -0.2015
vn 0.9863 0.1610 -0.0346
vn 0.2834 0.4973 0.8199
vn 0.2793 -0.3708 -0.8857
vn 0.3611 -0.1419 -0.9217
vn 0.8039 -0.4805 -0.3503
vn 0.1472 0.1089 -0.9831
vn 0.1239 0.1535 -0.9803
vn 0.9672 -0.1117 -0.2281
vn -0.6550 0.7190 -0.2322
vn -0.2203 0.3382 0.9149
vn -0.4088 0.3237 0.8533
vn -0.8551 0.4418 -0.2714
vn 0.6193 -0.3701 0.6924
vn 0.6557 -0.0079 0.7550
vn -0.0529 0.3462 -0.9366
vn -0.4133 0.9105 -0.0109
vn 0.3513 -0.4726 0.8082
vn 0.5269 -0.7213 -0.4494
vn -0.2093 0.4933 0.8443
vn -0.7926 0.2036 0.5748
vn 0.2229 0.8821 0.4149
vn 0.5577 -0.3349 -0.7595
vn -0.5748 -0.7559 -0.3132
vn 0.8144 0.5209 -0.2558
vn 0.7107 -0.6943 -0.1132
vn 0.8433 -0.5374 -0.0044
vn 0.2059 -0.4154 0.8860
vn 0.0440 -0.4209 0.9060
vn -0.7136 0.2758 0.6439
vn -0.6598 0.4343 0.6132
vn -0.5913 0.5641 -0.5763
vn -0.5489 0.7363 -0.3956
vn 0.4293 0.0013 -0.9031
vn 0.2672 0.1173 -0.9565
vn -0.6645 0.3931 -0.6355
vn 0.5290 -0.0049 -0.8486
vn 0.2365 -0.2853 0.9288
vn -0.7743 0.1551 0.6135
vn 0.9124 -0.3699 0.1753
vn 0.6588 -0.4149 -0.6275
vn -0.2571 -0.0073 -0.9663
vn -0.3314 0.2265 -0.9159
vn 0.7731 0.0198 -0.6339
vn -0.8167 0.5692 -0.0952
vn 0.0394 0.4460 0.8942
vn -0.1032 0.2579 0.9606
vn -0.9178 0.3689 0.1471
vn 0.8981 -0.1796 0.4013
vn 0.8862 0.0587 0.4596
vn 0.3332 -0.3319 0.8825
vn 0.9285 0.2950 0.2254
vn 0.9210 0.3359 0.1971
vn 0.1339 0.0232 0.9907
vn 0.1812 0.6830 -0.7076
vn -0.9279 0.1482 -0.3420
vn -0.8440 0.1268 -0.5210
vn 0.2880 0.3993 -0.8704
vn -0.6861 -0.4262 0.5896
vn -0.8117 -0.0790 0.5787
vn 0.8660 0.5000 -0.0037
vn -0.0945 0.8544 -0.5110
vn -0.7525 -0.5726 0.3253
vn 0.5014 -0.5766 0.6450
vn -0.8858 0.3136 -0.3421
vn -0.5083 0.0220 -0.8609
vn -0.5782 0.8118 0.0817
vn 0.7374 -0.1403 0.6607
vn 0.4969 -0.7398 -0.4536
vn 0.0728 0.6332 0.7705
vn -0.4185 -0.6410 0.6434
vn -0.5277 -0.4735 0.7052
vn -0.8448 -0.3964 -0.3594
vn -0.7758 -0.3895 -0.4964
vn -0.0375 0.2223 -0.9742
vn -0.0645 0.3836 -0.9212
vn 0.8492 0.5123 -0.1281
vn 0.7146 0.6700 -0.2010
vn 0.4487 0.0468 0.8925
vn 0.5734 0.0756 0.8158
vn 0.9072 0.3682 -0.2033
vn 0.3795 0.0910 0.9207
vn -0.8784 -0.3124 -0.3617
vn -0.0146 0.0594 -0.9981
vn -0.6879 -0.3054 0.6584
vn 0.1235 -0.1897 0.9740
vn 0.9490 0.0502 0.3113
vn 0.9826 0.1104 0.1491
vn 0.1165 0.1558 0.9809
vn 0.5192 0.2669 -0.8119
vn -0.7652 0.2678 -0.5854
vn -0.6616 0.0977 -0.7435
vn 0.4494 0.0524 -0.8918
vn -0.8477 -0.0323 0.5294
vn -0.8828 0.1625 0.4407
vn -0.9362 -0.2582 -0.2385
vn -0.6573 0.3117 0.6861
vn -0.6890 0.3382 0.6409
vn -0.9026 -0.0290 -0.4295
vn 0.5285 0.5899 0.6104
vn 0.8321 0.1713 -0.5274
vn 0.8818 0.1950 -0.4294
vn 0.5294 0.4846 0.6962
vn -0.0916 -0.3432 -0.9348
vn -0.0444 -0.0998 -0.9940
vn -0.5418 0.3171 0.7783
vn 0.6014 0.6816 0.4168
vn 0.0385 -0.4816 -0.8755
vn -0.8690 -0.4718 -0.1486
vn 0.8188 0.1428 -0.5561
vn 0.9878 -0.0165 0.1548
vn 0.3399 0.5380 -0.7713
vn -0.9225 -0.1467 0.3571
vn 0.0581 -0.4569 0.8876
vn -0.7596 0.3826 -0.5259
vn -0.9509 0.0951 -0.2946
vn -0.0382 -0.0035 -0.9992
vn -0.6089 0.0682 0.7903
vn 0.5596 -0.0511 0.8271
vn 0.9434 -0.0988 -0.3166
usemtl Joshua_Tree
s 1
f 151/1/1 12/2/2 11/3/3 152/4/4
f 152/4/4 11/3/3 13/5/5 153/6/6
f 153/6/6 13/5/5 14/7/7 154/8/8
f 2/9/9 1/10/10 5/11/11 4/12/12 3/13/13
f 154/8/8 14/7/7 15/14/14 155/15/15
f 155/16/15 15/17/14 12/2/2 151/1/1
f 1/10/10 2/9/9 11/3/3 12/2/2
f 2/9/9 3/13/13 13/5/5 11/3/3
f 3/13/13 4/12/12 14/7/7 13/5/5
f 4/12/12 5/11/11 15/14/14 14/7/7
f 5/11/11 1/10/10 12/2/2 15/17/14
f 16/18/16 22/19/17 21/20/18 17/21/19
f 17/21/19 21/20/18 23/22/20 18/23/21
f 18/23/21 23/22/20 24/24/22 19/25/23
f 19/25/23 24/24/22 25/26/24 20/27/25
f 20/28/25 25/29/24 22/19/17 16/18/16
f 25/26/24 24/24/22 29/30/26 30/31/27
f 23/22/20 21/20/18 26/32/28 28/33/29
f 21/20/18 22/19/17 27/34/30 26/32/28
f 22/19/17 25/29/24 30/35/27 27/34/30
f 24/24/22 23/22/20 28/33/29 29/30/26
f 56/36/31 57/37/32 39/38/33 40/39/34
f 58/40/35 59/41/36 36/42/37 38/43/38
f 59/41/36 60/44/39 37/45/40 36/42/37
f 60/44/39 56/46/31 40/47/34 37/45/40
f 57/37/32 58/40/35 38/43/38 39/38/33
f 51/48/41 52/49/42 49/50/43 50/51/44
f 53/52/45 54/53/46 46/54/47 48/55/48
f 54/53/46 55/56/49 47/57/50 46/54/47
f 55/56/49 51/48/41 50/51/44 47/57/50
f 52/49/42 53/58/45 48/59/48 49/50/43
f 44/60/51 43/61/52 53/58/45 52/49/42
f 42/62/53 45/63/54 51/48/41 55/56/49
f 41/64/55 42/62/53 55/56/49 54/53/46
f 43/65/52 41/64/55 54/53/46 53/52/45
f 45/63/54 44/60/51 52/49/42 51/48/41
f 34/66/56 33/67/57 58/40/35 57/37/32
f 32/68/58 35/69/59 56/46/31 60/44/39
f 31/70/60 32/68/58 60/44/39 59/41/36
f 33/67/57 31/70/60 59/41/36 58/40/35
f 35/71/59 34/66/56 57/37/32 56/36/31
f 61/72/61 67/73/62 66/74/63 62/75/64
f 62/75/64 66/74/63 68/76/65 63/77/66
f 63/77/66 68/76/65 69/78/67 64/79/68
f 64/80/68 69/81/67 70/82/69 65/83/70
f 65/83/70 70/82/69 67/73/62 61/72/61
f 70/82/69 69/81/67 74/84/71 75/85/72
f 68/76/65 66/74/63 71/86/73 73/87/74
f 66/74/63 67/73/62 72/88/75 71/86/73
f 67/73/62 70/82/69 75/85/72 72/88/75
f 69/78/67 68/76/65 73/87/74 74/89/71
f 101/90/76 102/91/77 84/92/78 85/93/79
f 103/94/80 104/95/81 81/96/82 83/97/83
f 104/95/81 105/98/84 82/99/85 81/96/82
f 105/98/84 101/90/76 85/93/79 82/99/85
f 102/100/77 103/94/80 83/97/83 84/101/78
f 96/102/86 97/103/87 94/104/88 95/105/89
f 98/106/90 99/107/91 91/108/92 93/109/93
f 99/110/91 100/111/94 92/112/95 91/113/92
f 100/111/94 96/102/86 95/105/89 92/112/95
f 97/103/87 98/106/90 93/109/93 94/104/88
f 89/114/96 88/115/97 98/106/90 97/103/87
f 87/116/98 90/117/99 96/102/86 100/111/94
f 86/118/100 87/116/98 100/111/94 99/110/91
f 88/115/97 86/119/100 99/107/91 98/106/90
f 90/117/99 89/114/96 97/103/87 96/102/86
f 79/120/101 78/121/102 103/94/80 102/100/77
f 77/122/103 80/123/104 101/90/76 105/98/84
f 76/124/105 77/122/103 105/98/84 104/95/81
f 78/121/102 76/124/105 104/95/81 103/94/80
f 80/123/104 79/125/101 102/91/77 101/90/76
f 106/126/106 112/127/107 111/128/108 107/129/109
f 107/129/109 111/128/108 113/130/110 108/131/111
f 108/132/111 113/133/110 114/134/112 109/135/113
f 109/135/113 114/134/112 115/136/114 110/137/115
f 110/137/115 115/136/114 112/127/107 106/126/106
f 115/136/114 114/134/112 119/138/116 120/139/117
f 113/130/110 111/128/108 116/140/118 118/141/119
f 111/128/108 112/127/107 117/142/120 116/140/118
f 112/127/107 115/136/114 120/139/117 117/142/120
f 114/134/112 113/133/110 118/143/119 119/138/116
f 146/144/121 147/145/122 129/146/123 130/147/124
f 148/148/125 149/149/126 126/150/127 128/151/128
f 149/152/126 150/153/129 127/154/130 126/155/127
f 150/153/129 146/144/121 130/147/124 127/154/130
f 147/145/122 148/148/125 128/151/128 129/146/123
f 141/156/131 142/157/132 139/158/133 140/159/134
f 143/160/135 144/161/136 136/162/137 138/163/138
f 144/161/136 145/164/139 137/165/140 136/162/137
f 145/166/139 141/156/131 140/159/134 137/167/140
f 142/157/132 143/160/135 138/163/138 139/158/133
f 134/168/141 133/169/142 143/160/135 142/157/132
f 132/170/143 135/171/144 141/156/131 145/166/139
f 131/172/145 132/173/143 145/164/139 144/161/136
f 133/169/142 131/172/145 144/161/136 143/160/135
f 135/171/144 134/168/141 142/157/132 141/156/131
f 124/174/146 123/175/147 148/148/125 147/145/122
f 122/176/148 125/177/149 146/144/121 150/153/129
f 121/178/150 122/176/148 150/153/129 149/152/126
f 123/175/147 121/179/150 149/149/126 148/148/125
f 125/177/149 124/174/146 147/145/122 146/144/121
f 10/180/151 155/16/15 151/1/1 6/181/152
f 9/182/153 154/8/8 155/15/15 10/183/151
f 8/184/154 153/6/6 154/8/8 9/182/153
f 7/185/155 152/4/4 153/6/6 8/184/154
f 6/181/152 151/1/1 152/4/4 7/185/155
