# Blender v2.81 (sub 16) OBJ File: 'Nebula Assets Nov 10 (1).blend'
# www.blender.org
mtllib joshua_pines.mtl
o Joshua_leaf.002_Plane.002
v -2.727518 10.908849 -4.019890
v -0.643595 9.553370 -5.097601
v -4.212122 10.378503 -6.223569
v -2.128200 9.023025 -7.301280
v -3.915559 9.500990 -4.546435
v -1.831636 8.145512 -5.624146
v -3.024081 11.786362 -5.697024
v -0.940159 10.430883 -6.774734
v -2.131295 9.088424 -3.983451
v -3.615900 8.558078 -6.187129
v -1.239818 11.373796 -5.134040
v -2.724422 10.843450 -7.337719
v 0.273917 9.120714 -1.962204
v 2.983441 9.120714 -1.962204
v 0.273917 9.120714 -4.671727
v 2.983441 9.120714 -4.671727
v 0.273917 7.765953 -3.316965
v 2.983441 7.765953 -3.316965
v 0.273918 10.475476 -3.316965
v 2.983440 10.475475 -3.316965
v 1.628679 7.765953 -1.962204
v 1.628679 7.765953 -4.671727
v 1.628679 10.475475 -1.962204
v 1.628679 10.475475 -4.671726
v -0.194996 11.012192 -3.761197
v 1.888927 9.656713 -4.838908
v -1.679600 10.481846 -5.964876
v 0.404323 9.126368 -7.042587
v -1.383037 9.604332 -4.287742
v 0.700886 8.248854 -5.365453
v -0.491559 11.889705 -5.438331
v 1.592364 10.534226 -6.516042
v 0.401227 9.191766 -3.724758
v -1.083377 8.661421 -5.928436
v 1.292705 11.477139 -4.875347
v -0.191900 10.946793 -7.079026
v -6.139384 9.242128 -0.880970
v -3.473025 9.052538 -1.323809
v -6.456683 10.425056 -3.297894
v -3.790325 10.235468 -3.740732
v -6.479259 8.618454 -2.660373
v -3.812901 8.428864 -3.103211
v -6.116808 11.048731 -1.518491
v -3.450450 10.859141 -1.961329
v -4.987430 7.932195 -1.673331
v -5.304729 9.115124 -4.090254
v -4.624979 10.362472 -0.531449
v -4.942279 11.545402 -2.948371
v -4.575190 9.992440 -2.990524
v -2.156006 8.851226 -2.558439
v -3.554630 11.358643 -5.096103
v -1.135447 10.217428 -4.664018
v -4.399397 9.654190 -4.868140
v -1.980214 8.512976 -4.436055
v -3.730422 11.696894 -3.218487
v -1.311239 10.555678 -2.786402
v -3.700085 8.400482 -3.599308
v -2.679526 9.766685 -5.704887
v -3.031110 10.443185 -1.949655
v -2.010551 11.809387 -4.055234
v -4.874060 10.057619 1.942386
v -2.437367 8.883011 1.786385
v -5.524822 9.029140 -0.478411
v -3.088127 7.854531 -0.634411
v -5.694555 8.436125 1.335503
v -3.257861 7.261518 1.179502
v -4.704327 10.650633 0.128472
v -2.267633 9.476025 -0.027528
v -4.150827 8.363061 2.467901
v -4.801588 7.334582 0.047104
v -3.160599 10.577568 1.260870
v -3.811361 9.549088 -1.159927
v -3.195120 10.361369 4.858809
v -3.355220 7.915329 3.704352
v -4.008481 11.507858 2.542449
v -4.168581 9.061817 1.387991
v -4.891600 10.829772 4.101634
v -5.051700 8.383732 2.947176
v -2.312001 11.039454 3.299624
v -2.472101 8.593415 2.145166
v -4.564970 9.033508 4.682585
v -5.378330 10.179996 2.366226
v -1.985370 9.243191 3.880575
v -2.798732 10.389679 1.564215
v 0.420192 10.630020 6.662405
v 0.260092 8.183981 5.507948
v -0.393169 11.776509 4.346044
v -0.553269 9.330469 3.191588
v -1.276288 11.098423 5.905230
v -1.436388 8.652384 4.750773
v 1.303311 11.308106 5.103221
v 1.143211 8.862066 3.948762
v -0.949657 9.302159 6.486182
v -1.763019 10.448647 4.169821
v 1.629941 9.511842 5.684171
v 0.816580 10.658331 3.367811
v 3.285548 9.425959 6.958126
v 2.377212 7.965258 4.864612
v 2.920276 11.699563 5.530255
v 2.011941 10.238863 3.436743
v 1.839680 10.660986 6.723749
v 0.931345 9.200286 4.630236
v 4.366144 10.464536 5.764632
v 3.457808 9.003836 3.671118
v 1.568148 8.793833 6.390927
v 1.202876 11.067438 4.963057
v 4.094612 8.597383 5.431810
v 3.729340 10.870988 4.003940
v 4.495577 10.344750 2.824561
v 3.152665 8.256747 3.910076
v 3.359665 9.825288 0.420109
v 2.016752 7.737285 1.505626
v 2.897110 10.908414 1.931281
v 1.554198 8.820412 3.016798
v 4.958131 9.261623 1.313388
v 3.615218 7.173620 2.398903
v 2.793611 10.124144 3.676263
v 1.657699 9.604682 1.271814
v 4.854631 8.477353 3.058371
v 3.718720 7.957891 0.653922
v 3.572661 10.862753 -1.523126
v 4.120948 9.486583 0.745584
v 4.575716 8.825504 -3.001306
v 5.124002 7.449334 -0.732594
v 2.845899 9.274636 -2.310818
v 3.394185 7.898466 -0.042107
v 5.302478 10.413621 -2.213615
v 5.850765 9.037451 0.055097
v 2.618515 9.605176 -0.437373
v 3.621569 7.567926 -1.915552
v 5.075094 10.744161 -0.340168
v 6.078148 8.706911 -1.818348
vt 0.000100 0.000100
vt 0.999900 0.000100
vt 0.999900 0.999900
vt 0.000100 0.999900
vt 0.000100 0.000100
vt 0.999900 0.000100
vt 0.999900 0.999900
vt 0.000100 0.999900
vt 0.000100 0.000100
vt 0.999900 0.000100
vt 0.999900 0.999900
vt 0.000100 0.999900
vt 0.000100 0.000100
vt 0.999900 0.000100
vt 0.999900 0.999900
vt 0.000100 0.999900
vt 0.000100 0.000100
vt 0.999900 0.000100
vt 0.999900 0.999900
vt 0.000100 0.999900
vt 0.000100 0.000100
vt 0.999900 0.000100
vt 0.999900 0.999900
vt 0.000100 0.999900
vt 0.000100 0.000100
vt 0.999900 0.000100
vt 0.999900 0.999900
vt 0.000100 0.999900
vt 0.000100 0.000100
vt 0.999900 0.000100
vt 0.999900 0.999900
vt 0.000100 0.999900
vt 0.000100 0.000100
vt 0.999900 0.000100
vt 0.999900 0.999900
vt 0.000100 0.999900
vt 0.000100 0.000100
vt 0.999900 0.000100
vt 0.999900 0.999900
vt 0.000100 0.999900
vt 0.000100 0.000100
vt 0.999900 0.000100
vt 0.999900 0.999900
vt 0.000100 0.999900
vt 0.000100 0.000100
vt 0.999900 0.000100
vt 0.999900 0.999900
vt 0.000100 0.999900
vt 0.000100 0.000100
vt 0.999900 0.000100
vt 0.999900 0.999900
vt 0.000100 0.999900
vt 0.000100 0.000100
vt 0.999900 0.000100
vt 0.999900 0.999900
vt 0.000100 0.999900
vt 0.000100 0.000100
vt 0.999900 0.000100
vt 0.999900 0.999900
vt 0.000100 0.999900
vt 0.000100 0.000100
vt 0.999900 0.000100
vt 0.999900 0.999900
vt 0.000100 0.999900
vt 0.000100 0.000100
vt 0.999900 0.000100
vt 0.999900 0.999900
vt 0.000100 0.999900
vt 0.000100 0.000100
vt 0.999900 0.000100
vt 0.999900 0.999900
vt 0.000100 0.999900
vt 0.000100 0.000100
vt 0.999900 0.000100
vt 0.999900 0.999900
vt 0.000100 0.999900
vt 0.000100 0.000100
vt 0.999900 0.000100
vt 0.999900 0.999900
vt 0.000100 0.999900
vt 0.000100 0.000100
vt 0.999900 0.000100
vt 0.999900 0.999900
vt 0.000100 0.999900
vt 0.000100 0.000100
vt 0.999900 0.000100
vt 0.999900 0.999900
vt 0.000100 0.999900
vt 0.000100 0.000100
vt 0.999900 0.000100
vt 0.999900 0.999900
vt 0.000100 0.999900
vt 0.000100 0.000100
vt 0.999900 0.000100
vt 0.999900 0.999900
vt 0.000100 0.999900
vt 0.000100 0.000100
vt 0.999900 0.000100
vt 0.999900 0.999900
vt 0.000100 0.999900
vt 0.000100 0.000100
vt 0.999900 0.000100
vt 0.999900 0.999900
vt 0.000100 0.999900
vt 0.000100 0.000100
vt 0.999900 0.000100
vt 0.999900 0.999900
vt 0.000100 0.999900
vt 0.000100 0.000100
vt 0.999900 0.000100
vt 0.999900 0.999900
vt 0.000100 0.999900
vt 0.000100 0.000100
vt 0.999900 0.000100
vt 0.999900 0.999900
vt 0.000100 0.999900
vt 0.000100 0.000100
vt 0.999900 0.000100
vt 0.999900 0.999900
vt 0.000100 0.999900
vt 0.000100 0.000100
vt 0.999900 0.000100
vt 0.999900 0.999900
vt 0.000100 0.999900
vt 0.000100 0.000100
vt 0.999900 0.000100
vt 0.999900 0.999900
vt 0.000100 0.999900
vt 0.000100 0.000100
vt 0.999900 0.000100
vt 0.999900 0.999900
vt 0.000100 0.999900
vn 0.3290 0.8435 -0.4246
vn 0.5479 0.1957 0.8133
vn 0.7691 -0.5003 -0.3977
vn 0.0000 1.0000 0.0000
vn 0.0000 -0.0000 1.0000
vn 1.0000 -0.0000 0.0000
vn 0.1338 0.8969 0.4214
vn 0.1171 -0.4366 0.8920
vn 0.9841 -0.0700 -0.1634
vn 0.2469 0.7539 0.6088
vn -0.3767 -0.5042 0.7771
vn 0.8928 -0.4212 0.1595
vn 0.3655 0.8173 -0.4455
vn 0.2402 0.3796 0.8934
vn 0.8993 -0.4335 -0.0576
vn 0.9520 0.0774 -0.2960
vn 0.3002 -0.4231 0.8549
vn -0.0591 -0.9028 -0.4261
vn 0.9324 -0.0725 -0.3540
vn 0.1348 -0.8391 0.5270
vn -0.3352 -0.5391 -0.7727
vn 0.7607 -0.6078 -0.2280
vn 0.4192 0.1917 0.8874
vn -0.4956 -0.7706 0.4006
vn 0.9066 0.4204 0.0359
vn -0.3702 0.7519 0.5455
vn 0.2024 -0.5079 0.8373
usemtl Material.002
s off
f 1/1/1 2/2/1 4/3/1 3/4/1
f 5/5/2 6/6/2 8/7/2 7/8/2
f 9/9/3 10/10/3 12/11/3 11/12/3
f 13/13/4 14/14/4 16/15/4 15/16/4
f 17/17/5 18/18/5 20/19/5 19/20/5
f 21/21/6 22/22/6 24/23/6 23/24/6
f 25/25/1 26/26/1 28/27/1 27/28/1
f 29/29/2 30/30/2 32/31/2 31/32/2
f 33/33/3 34/34/3 36/35/3 35/36/3
f 37/37/7 38/38/7 40/39/7 39/40/7
f 41/41/8 42/42/8 44/43/8 43/44/8
f 45/45/9 46/46/9 48/47/9 47/48/9
f 49/49/10 50/50/10 52/51/10 51/52/10
f 53/53/11 54/54/11 56/55/11 55/56/11
f 57/57/12 58/58/12 60/59/12 59/60/12
f 61/61/13 62/62/13 64/63/13 63/64/13
f 65/65/14 66/66/14 68/67/14 67/68/14
f 69/69/15 70/70/15 72/71/15 71/72/15
f 73/73/16 74/74/16 76/75/16 75/76/16
f 77/77/17 78/78/17 80/79/17 79/80/17
f 81/81/18 82/82/18 84/83/18 83/84/18
f 85/85/16 86/86/16 88/87/16 87/88/16
f 89/89/17 90/90/17 92/91/17 91/92/17
f 93/93/18 94/94/18 96/95/18 95/96/18
f 97/97/19 98/98/19 100/99/19 99/100/19
f 101/101/20 102/102/20 104/103/20 103/104/20
f 105/105/21 106/106/21 108/107/21 107/108/21
f 109/109/22 110/110/22 112/111/22 111/112/22
f 113/113/23 114/114/23 116/115/23 115/116/23
f 117/117/24 118/118/24 120/119/24 119/120/24
f 121/121/25 122/122/25 124/123/25 123/124/25
f 125/125/26 126/126/26 128/127/26 127/128/26
f 129/129/27 130/130/27 132/131/27 131/132/27
