# Blender v2.80 (sub 45) OBJ File: 'Models Layed out FINAL.blend'
# www.blender.org
mtllib plateau.mtl
o plateau_Plane.007
v 4.744486 0.010173 -2.813651
v 4.644326 0.008463 -3.114401
v 4.645556 0.408403 -3.104781
v 4.742536 0.445763 -2.821981
v 5.254266 0.016673 -3.423541
v 5.360436 0.016103 -3.120831
v 5.364906 0.375943 -3.128751
v 5.247556 0.364953 -3.398291
v 5.252646 0.011653 -2.814661
v 5.260176 0.406483 -2.834101
v 5.145416 -0.189937 -2.392481
v 4.839466 -0.195137 -2.432091
v 4.868656 -0.009327 -2.494501
v 5.100016 -0.013497 -2.460541
v 5.719106 -0.519957 -2.583981
v 5.539456 -0.519957 -2.263481
v 5.419316 -0.287227 -2.552401
v 4.366726 -0.519957 -3.777921
v 4.535746 -0.287117 -3.615001
v 4.366666 -0.292347 -3.070541
v 4.107136 -0.519957 -3.040371
v 4.612916 -0.294387 -2.483951
v 4.255666 -0.519957 -2.618361
v 4.741276 -0.519957 -2.120231
v 4.450506 -0.519957 -2.261981
v 4.792086 -0.300477 -2.292761
v 4.992676 0.004793 -2.723781
v 5.001196 0.436153 -2.724981
v 5.184136 0.416163 -3.181661
v 5.125256 0.448533 -3.023831
v 5.124116 0.556883 -3.017591
v 5.180406 0.566713 -3.169641
v 4.996946 0.392913 -3.354781
v 5.117796 0.400903 -3.323851
v 5.121906 0.579203 -3.309291
v 5.007886 0.576393 -3.334921
v 5.002176 0.456823 -2.970841
v 5.003576 0.552473 -2.965681
v 4.739066 0.011743 -3.419091
v 4.746856 0.369733 -3.392881
v 4.995846 0.011743 -3.519961
v 4.992136 0.349373 -3.468691
v 5.494846 -0.165827 -3.087511
v 5.296266 -0.181627 -2.636211
v 5.620146 -0.519957 -3.777921
v 5.456406 -0.280707 -3.621691
v 4.994716 -0.287097 -3.810311
v 4.993436 -0.519957 -4.051841
v 4.902706 -0.004317 -2.640581
v 4.740196 -0.195597 -2.607041
v 5.078216 -0.005547 -2.622231
v 5.037586 0.489693 -2.530421
v 5.038496 0.449703 -2.606791
v 4.963786 0.492703 -2.530731
v 4.963716 0.455833 -2.605781
v 4.826916 0.428623 -3.155741
v 4.882826 0.455423 -3.003341
v 4.878746 0.399743 -3.311441
v 5.007736 0.568443 -3.146071
v 4.836616 0.564573 -3.139691
v 4.892146 0.570223 -3.286411
v 4.887596 0.557173 -2.995291
v 4.539746 -0.191327 -3.066151
v 4.645976 -0.180367 -3.485961
v 5.646966 -0.280227 -3.081621
v 5.879746 -0.519957 -3.040371
v 5.273236 -0.519957 -2.133701
v 5.198816 -0.293777 -2.268701
v 4.995726 -0.180057 -3.632081
v 5.350036 -0.165837 -3.498951
vt 0.351719 0.481330
vt 0.355932 0.868730
vt 0.498976 0.835509
vt 0.503843 0.479809
vt 0.660207 0.487111
vt 0.647437 0.796864
vt 0.511100 0.806639
vt 0.507095 0.486609
vt 0.362065 0.833798
vt 0.352233 0.482646
vt 0.138689 0.303360
vt 0.173116 0.460278
vt 0.190291 0.463991
vt 0.158726 0.298738
vt 0.235550 0.009847
vt 0.219579 0.216827
vt 0.073438 0.009847
vt 0.839456 0.009847
vt 0.466396 0.009847
vt 0.481659 0.212278
vt 0.757050 0.216932
vt 0.252942 0.009847
vt 0.184954 0.210462
vt 0.000983 0.009847
vt 0.088252 0.205043
vt 0.072680 0.009847
vt 0.306869 0.860189
vt 0.306264 0.476547
vt 0.537862 0.842408
vt 0.531785 0.976301
vt 0.454878 0.967565
vt 0.458032 0.871197
vt 0.625428 0.821735
vt 0.615386 0.984916
vt 0.602418 0.987409
vt 0.609782 0.828838
vt 0.428618 0.963644
vt 0.431229 0.878569
vt 0.644700 0.801116
vt 0.657959 0.482724
vt 0.683045 0.783007
vt 0.708978 0.482724
vt 0.261968 0.310747
vt 0.490239 0.324804
vt 0.839456 0.009847
vt 0.978007 0.009847
vt 0.855841 0.216943
vt 0.760435 0.222632
vt 0.247217 0.298323
vt 0.264179 0.468442
vt 0.254896 0.467353
vt 0.247088 0.872241
vt 0.208462 0.907808
vt 0.246579 0.877689
vt 0.208618 0.910484
vt 0.524751 0.853491
vt 0.447668 0.877322
vt 0.603507 0.827803
vt 0.519863 0.977846
vt 0.516635 0.974401
vt 0.590846 0.979429
vt 0.443593 0.967815
vt 0.691780 0.311873
vt 0.479439 0.302125
vt 0.466396 0.009847
vt 0.487263 0.223058
vt 0.007797 0.009847
vt 0.076080 0.211007
vt 0.765690 0.312150
vt 0.698353 0.324792
vn -0.7526 0.3444 0.5613
vn -0.5739 0.6283 0.5253
vn -0.8037 0.5925 -0.0542
vn -0.9668 0.2554 0.0093
vn 0.6437 0.3417 -0.6848
vn 0.5611 0.5592 -0.6103
vn 0.8402 0.5400 -0.0493
vn 0.9479 0.3185 -0.0058
vn 0.6220 0.5731 0.5336
vn 0.7158 0.4112 0.5644
vn 0.2940 0.7429 0.6014
vn 0.5142 0.4406 0.7359
vn -0.6918 0.3766 0.6161
vn -0.4051 0.7125 0.5730
vn 0.6250 0.7264 0.2859
vn 0.5488 0.7573 0.3541
vn 0.5170 0.7164 0.4686
vn -0.5052 0.7241 -0.4695
vn -0.6565 0.7540 0.0216
vn -0.6055 0.7958 0.0109
vn -0.4586 0.7824 -0.4214
vn -0.5981 0.7577 0.2613
vn -0.4963 0.7912 0.3573
vn -0.2204 0.6589 0.7192
vn -0.2364 0.7335 0.6373
vn -0.4952 0.7326 0.4670
vn 0.0379 0.6178 0.7854
vn 0.0012 0.6443 0.7648
vn 0.6970 0.7064 -0.1234
vn 0.7725 0.6346 0.0211
vn 0.5625 0.5923 0.5769
vn 0.5917 0.7013 0.3976
vn -0.0397 0.6838 -0.7286
vn -0.0488 0.7042 -0.7083
vn 0.5011 0.6649 -0.5539
vn 0.3813 0.7087 -0.5936
vn 0.0595 0.5854 0.8086
vn 0.1022 0.7244 0.6818
vn -0.5682 0.5618 -0.6013
vn -0.6876 0.3109 -0.6562
vn -0.0105 0.5628 -0.8265
vn -0.0171 0.3292 -0.9441
vn 0.5905 0.7376 0.3274
vn 0.6951 0.7180 0.0370
vn 0.5237 0.6956 -0.4918
vn -0.0023 0.7094 -0.7048
vn -0.0053 0.7692 -0.6390
vn 0.4749 0.7532 -0.4552
vn -0.6178 0.7290 0.2949
vn -0.6945 0.7154 -0.0768
vn 0.7040 0.7081 -0.0539
vn 0.5906 0.4287 -0.6837
vn 0.4976 0.7752 0.3892
vn -0.4892 0.4937 -0.7190
vn -0.5483 0.7634 0.3415
vn -0.6523 0.7443 -0.1432
vn -0.4782 0.7850 0.3938
vn -0.3767 0.7563 -0.5349
vn -0.0058 0.9980 0.0627
vn -0.7503 0.6596 0.0435
vn -0.5426 0.6814 -0.4911
vn -0.5192 0.5884 0.6199
vn -0.5206 0.7379 -0.4295
vn -0.6998 0.7113 0.0660
vn 0.6972 0.7164 0.0259
vn 0.6576 0.7534 0.0038
vn 0.2552 0.6670 0.7000
vn 0.2256 0.7289 0.6464
vn -0.0169 0.7248 -0.6887
vn 0.4968 0.7283 -0.4719
usemtl plateau
s 1
f 1/1/1 4/2/2 3/3/3 2/4/4
f 5/5/5 8/6/6 7/7/7 6/8/8
f 6/8/8 7/7/7 10/9/9 9/10/10
f 11/11/11 14/12/12 13/13/13 12/14/14
f 15/15/15 17/16/16 16/17/17
f 18/18/18 21/19/19 20/20/20 19/21/21
f 21/19/19 23/22/22 22/23/23 20/20/20
f 24/24/24 26/25/25 22/23/23 25/26/26
f 9/10/10 10/9/9 28/27/27 27/28/28
f 29/29/29 32/30/30 31/31/31 30/32/32
f 33/33/33 36/34/34 35/35/35 34/36/36
f 30/32/32 31/31/31 38/37/37 37/38/38
f 2/4/4 3/3/3 40/39/39 39/40/40
f 39/40/40 40/39/39 42/41/41 41/42/42
f 41/42/42 42/41/41 8/6/6 5/5/5
f 27/28/28 28/27/27 4/2/2 1/1/1
f 6/8/8 9/10/10 44/43/43 43/44/44
f 34/36/36 35/35/35 32/30/30 29/29/29
f 45/45/45 48/46/46 47/47/47 46/48/48
f 22/23/23 23/22/22 25/26/26
f 18/18/18 19/21/21 47/47/47 48/46/46
f 1/1/1 50/49/49 49/50/50 27/28/28
f 51/51/51 53/52/52 52/53/53 14/12/12
f 53/52/52 55/54/54 54/55/55 52/53/53
f 49/50/50 55/54/54 53/52/52 51/51/51
f 13/13/13 54/55/55 55/54/54 49/50/50
f 14/12/12 52/53/53 54/55/55 13/13/13
f 51/51/51 27/28/28 49/50/50
f 56/56/56 3/3/3 4/2/2 57/57/57
f 29/29/29 7/7/7 8/6/6 34/36/36
f 30/32/32 10/9/9 7/7/7 29/29/29
f 58/58/58 40/39/39 3/3/3 56/56/56
f 34/36/36 8/6/6 42/41/41 33/33/33
f 33/33/33 42/41/41 40/39/39 58/58/58
f 37/38/38 28/27/27 10/9/9 30/32/32
f 57/57/57 4/2/2 28/27/27 37/38/38
f 32/30/30 59/59/59 38/37/37 31/31/31
f 60/60/60 59/59/59 36/34/34 61/61/61
f 59/59/59 32/30/30 35/35/35 36/34/34
f 59/59/59 60/60/60 62/62/62 38/37/37
f 57/57/57 62/62/62 60/60/60 56/56/56
f 37/38/38 38/37/37 62/62/62 57/57/57
f 58/58/58 61/61/61 36/34/34 33/33/33
f 56/56/56 60/60/60 61/61/61 58/58/58
f 13/13/13 49/50/50 50/49/49 12/14/14
f 9/10/10 27/28/28 51/51/51 44/43/43
f 2/4/4 39/40/40 64/63/63 63/64/64
f 15/15/15 66/65/65 65/66/66 17/16/16
f 67/67/67 16/17/17 17/16/16 68/68/68
f 50/49/49 1/1/1 2/4/4 63/64/64
f 65/66/66 66/65/65 45/45/45 46/48/48
f 39/40/40 41/42/42 69/69/69 64/63/63
f 41/42/42 5/5/5 70/70/70 69/69/69
f 68/68/68 26/25/25 24/24/24 67/67/67
f 69/69/69 47/47/47 19/21/21 64/63/63
f 68/68/68 11/11/11 12/14/14 26/25/25
f 63/64/64 20/20/20 22/23/23 50/49/49
f 70/70/70 46/48/48 47/47/47 69/69/69
f 46/48/48 70/70/70 43/44/44 65/66/66
f 70/70/70 5/5/5 6/8/8 43/44/44
f 50/49/49 22/23/23 26/25/25 12/14/14
f 44/43/43 17/16/16 65/66/66 43/44/44
f 64/63/63 19/21/21 20/20/20 63/64/64
f 11/11/11 68/68/68 17/16/16 44/43/43
f 51/51/51 14/12/12 11/11/11 44/43/43
