# Blender v2.80 (sub 45) OBJ File: 'all_models.blend'
# www.blender.org
mtllib stump.mtl
o stump_Cube.009
v 0.009089 -0.002047 -0.009412
v 0.009958 -0.002047 0.011107
v -0.011361 -0.001810 0.008880
v -0.012811 -0.002047 -0.010025
v 0.004454 0.008770 -0.004777
v 0.004454 0.007314 0.004735
v -0.005058 0.007314 0.004735
v -0.005058 0.007314 -0.004777
v 0.008599 -0.002047 -0.000021
v -0.000302 -0.002047 -0.008923
v 0.005984 0.002531 -0.006307
v -0.000302 -0.002047 0.008881
v 0.005984 0.002531 0.006265
v -0.009204 -0.002047 -0.000021
v -0.006588 0.002531 0.006265
v -0.006588 0.002531 -0.006307
v 0.005512 0.011736 -0.000021
v -0.000302 0.007314 -0.005836
v -0.000302 0.007314 0.005793
v -0.006117 0.009348 -0.000021
v -0.000302 0.002531 -0.007205
v -0.007486 0.002531 -0.000021
v -0.000302 0.002531 0.007163
v 0.006882 0.002531 -0.000021
v -0.008462 -0.002047 -0.003730
v -0.005602 0.007314 -0.002594
v 0.007858 -0.002047 -0.003730
v 0.004998 0.007314 -0.002594
v -0.007037 0.002531 -0.003164
v 0.006433 0.002531 -0.003164
v 0.003407 -0.002047 -0.008181
v 0.003407 -0.002047 0.008139
v 0.002271 0.007314 -0.005321
v 0.002271 0.009016 0.005279
v 0.002841 0.002531 -0.006756
v 0.002841 0.002531 0.006714
v -0.004011 -0.002047 -0.008181
v -0.004011 -0.002047 0.008139
v -0.002875 0.007314 -0.005321
v -0.002875 0.007314 0.005279
v -0.003445 0.002531 -0.006756
v -0.003445 0.002531 0.006714
v 0.007858 -0.002047 0.003688
v 0.005122 0.009517 0.001933
v -0.008462 -0.002047 0.003688
v -0.005602 0.008187 0.002552
v -0.007037 0.002531 0.003122
v 0.006433 0.002531 0.003122
v 0.005841 0.009517 0.002054
v 0.005055 0.007314 0.005336
v -0.003035 0.007314 -0.006033
v -0.005659 0.007314 -0.005378
v -0.003035 0.007314 0.005990
v -0.005659 0.007314 0.005336
v -0.006314 0.007314 -0.002754
v 0.005709 0.007314 -0.002754
v 0.006256 0.011736 -0.000021
v 0.002430 0.007314 -0.006033
v -0.000302 0.007314 -0.006579
v 0.002430 0.009016 0.005990
v -0.000302 0.007314 0.006537
v -0.006314 0.008187 0.002711
v -0.006860 0.009348 -0.000021
v 0.005055 0.008770 -0.005378
v -0.000302 0.005879 0.005290
v -0.000302 0.005879 -0.000021
v 0.005009 0.005879 -0.000021
v -0.000302 0.005879 -0.005333
v 0.004539 0.005879 -0.002371
v 0.002048 0.005879 -0.004863
v 0.002048 0.005879 0.004820
v -0.005614 0.005879 -0.000021
v -0.005144 0.005879 -0.002371
v -0.002652 0.005879 -0.004863
v -0.002652 0.005879 0.004820
v 0.004539 0.005879 0.002329
v -0.005144 0.005879 0.002329
v 0.004042 0.005879 0.004323
v -0.004647 0.005879 -0.004365
v -0.004647 0.005879 0.004323
v 0.004042 0.005879 -0.004365
v -0.007134 -0.002047 -0.008835
v -0.006904 -0.001954 0.008431
v -0.009744 -0.001942 0.005984
v -0.009938 -0.002047 -0.005866
v 0.005686 -0.002047 0.009172
v 0.008645 -0.002047 0.006469
v 0.008472 -0.002047 -0.006567
v 0.005999 -0.002047 -0.008743
vt 0.258180 0.469105
vt 0.250453 0.541232
vt 0.244610 0.398061
vt 0.251668 0.398061
vt 0.278553 0.232256
vt 0.270150 0.578196
vt 0.258993 0.469105
vt 0.272177 0.232256
vt 0.138290 0.232256
vt 0.144117 0.469105
vt 0.106846 0.469105
vt 0.093661 0.232256
vt 0.087286 0.232256
vt 0.097555 0.469105
vt 0.106846 0.469105
vt 0.093661 0.232256
vt 0.138290 0.232256
vt 0.130251 0.005562
vt 0.085914 0.005562
vt 0.144117 0.469105
vt 0.221721 0.469105
vt 0.227548 0.232256
vt 0.182919 0.232256
vt 0.182919 0.469105
vt 0.235587 0.005562
vt 0.182919 0.005562
vt 0.067049 0.005562
vt 0.046095 0.005562
vt 0.067049 0.005562
vt 0.087285 0.232256
vt 0.080910 0.232256
vt 0.056516 0.005562
vt 0.097555 0.512368
vt 0.089795 0.569816
vt 0.130251 0.005562
vt 0.089176 0.010183
vt 0.235587 0.005562
vt 0.227548 0.232256
vt 0.182919 0.232256
vt 0.182919 0.005562
vt 0.221721 0.553393
vt 0.182919 0.469105
vt 0.298789 0.005562
vt 0.309964 0.005562
vt 0.298789 0.005562
vt 0.278553 0.232256
vt 0.284929 0.232256
vt 0.309323 0.005562
vt 0.268283 0.469105
vt 0.276044 0.688116
vt 0.146386 0.469105
vt 0.115386 0.469105
vt 0.121229 0.398061
vt 0.149547 0.398061
vt 0.107659 0.469105
vt 0.100352 0.569816
vt 0.107496 0.398061
vt 0.114170 0.398061
vt 0.107659 0.512368
vt 0.115386 0.469105
vt 0.121229 0.398061
vt 0.114170 0.398061
vt 0.250453 0.469105
vt 0.259937 0.578196
vt 0.251668 0.398061
vt 0.244610 0.398061
vt 0.272177 0.232256
vt 0.258993 0.541232
vt 0.316276 0.005562
vt 0.307520 0.005562
vt 0.265486 0.688116
vt 0.258343 0.398061
vt 0.182919 0.469105
vt 0.219453 0.553393
vt 0.216292 0.398061
vt 0.182919 0.398061
vt 0.146386 0.469105
vt 0.149546 0.398061
vt 0.328607 0.005562
vt 0.267959 0.005562
vt 0.272401 0.005562
vt 0.219453 0.469105
vt 0.182919 0.469105
vt 0.182919 0.398061
vt 0.216292 0.398061
vt 0.025888 0.017304
vt 0.048846 0.010755
vt 0.181714 0.795318
vt 0.228205 0.535109
vt 0.136352 0.535109
vt 0.228205 0.535109
vt 0.136352 0.535109
vt 0.228205 0.535109
vt 0.136352 0.535109
vt 0.228205 0.535109
vt 0.136352 0.535109
vt 0.228205 0.535109
vt 0.136352 0.535109
vt 0.228205 0.535109
vt 0.228205 0.535109
vt 0.136352 0.535109
vt 0.136352 0.535109
vt 0.228205 0.535109
vt 0.228205 0.535109
vt 0.136352 0.535109
vt 0.228205 0.535109
vt 0.136352 0.535109
vt 0.136352 0.535109
vt 0.136352 0.535109
vt 0.228205 0.535109
vt 0.228205 0.535109
vt 0.136352 0.535109
vt 0.228205 0.535109
vt 0.136352 0.535109
vt 0.228205 0.535109
vt 0.136352 0.535109
vt 0.005295 0.005562
vn -0.8092 0.5857 0.0471
vn -0.3401 0.8767 0.3401
vn -0.6835 0.2562 0.6835
vn -0.9649 0.1810 0.1904
vn 0.9576 0.2503 0.1425
vn 0.5906 0.5709 0.5703
vn 0.6012 0.5240 0.6033
vn 0.6328 0.4533 0.6277
vn -0.1352 0.2607 0.9559
vn -0.1152 0.7594 0.6403
vn -0.4962 0.6518 0.5735
vn -0.6199 0.4463 0.6454
vn -0.9550 0.2788 -0.1013
vn -0.6878 0.6493 -0.3244
vn -0.5052 0.6997 -0.5052
vn -0.6067 0.4867 -0.6285
vn -0.1239 0.2669 -0.9557
vn -0.0592 0.3654 -0.9290
vn 0.1164 0.4317 -0.8945
vn -0.1152 0.7594 -0.6403
vn -0.0266 0.6556 -0.7547
vn 0.1164 0.2580 -0.9591
vn 0.0000 0.2434 -0.9699
vn 0.0000 0.7176 -0.6965
vn 0.0656 0.3621 -0.9298
vn 0.0000 0.3337 -0.9427
vn -0.9145 0.4041 0.0206
vn -0.7779 0.5184 0.3552
vn -0.9181 0.3963 -0.0036
vn -0.9565 0.2702 0.1099
vn -0.9732 0.2299 -0.0047
vn -0.9427 0.3337 0.0000
vn -0.6000 0.7117 0.3654
vn -0.5900 0.8032 -0.0828
vn -0.0864 0.3517 0.9321
vn 0.0461 0.4006 0.9151
vn 0.0213 0.3841 0.9230
vn 0.1127 0.2641 0.9579
vn -0.0085 0.2377 0.9713
vn -0.0000 0.3337 0.9427
vn 0.0982 0.8657 0.4908
vn -0.1490 0.6249 0.7664
vn 0.9272 0.3716 0.0469
vn 0.8799 0.4485 -0.1568
vn 0.9293 0.3642 -0.0616
vn 0.9594 0.2489 -0.1329
vn 0.9756 0.2192 -0.0102
vn 0.9427 0.3337 -0.0000
vn 0.8348 0.4793 -0.2708
vn 0.5054 0.8590 -0.0813
vn 0.1264 0.8186 0.5602
vn 0.2818 0.9172 0.2818
vn 0.6553 0.3758 0.6553
vn 0.2060 0.3268 0.9224
vn 0.6909 0.7202 -0.0637
vn 0.5384 0.8362 -0.1047
vn 0.9827 0.1838 -0.0209
vn 0.9507 0.2602 0.1690
vn 0.6832 0.7212 0.1146
vn 0.4173 0.8921 -0.1735
vn 0.6877 0.3387 -0.6422
vn 0.9632 0.2089 -0.1693
vn -0.3800 0.8474 -0.3709
vn -0.7696 0.5618 0.3034
vn -0.9776 0.1524 -0.1454
vn -0.6901 0.2425 -0.6819
vn 0.6449 0.4104 -0.6447
vn 0.4066 0.8181 -0.4066
vn 0.5103 0.6923 -0.5103
vn 0.8949 0.4311 0.1150
vn -0.5630 0.8218 -0.0874
vn -0.9922 0.1204 -0.0319
vn -0.2184 0.7712 -0.5980
vn -0.1183 0.8030 -0.5841
vn -0.2107 0.2086 -0.9550
vn -0.0390 0.2754 -0.9605
vn 0.1264 0.8186 -0.5602
vn 0.2060 0.3268 -0.9224
vn 0.3820 0.8073 0.4498
vn -0.2418 0.4811 0.8427
vn -0.1091 0.4286 -0.8969
vn -0.3207 0.7562 0.5704
vn -0.0000 0.8505 0.5260
vn -0.0000 0.3309 0.9437
vn -0.2456 0.2812 0.9277
vn -0.5332 0.7815 0.3239
vn -0.8061 0.5043 -0.3097
vn 0.0000 1.0000 0.0000
vn -0.4490 0.8454 -0.2894
usemtl stump
s 1
f 28/1/1 5/2/2 81/3/3 69/4/4
f 48/5/5 49/6/6 50/7/7 13/8/8
f 42/9/9 53/10/10 54/11/11 15/12/12
f 29/13/13 55/14/14 52/15/15 16/16/16
f 41/17/17 37/18/18 82/19/19 16/16/16
f 51/20/20 41/17/17 16/16/16 52/15/15
f 58/21/21 35/22/22 21/23/23 59/24/24
f 35/22/22 31/25/25 10/26/26 21/23/23
f 25/27/27 29/13/13 16/16/16 85/28/28
f 45/29/29 47/30/30 22/31/31 14/32/32
f 47/30/30 62/33/33 63/34/34 22/31/31
f 38/35/35 42/9/9 15/12/12 83/36/36
f 32/37/37 36/38/38 23/39/39 12/40/40
f 36/38/38 60/41/41 61/42/42 23/39/39
f 43/43/43 48/5/5 13/8/8 87/44/44
f 27/45/45 30/46/46 24/47/47 9/48/48
f 30/46/46 56/49/49 57/50/50 24/47/47
f 39/51/51 8/52/52 79/53/53 74/54/54
f 26/55/55 20/56/56 72/57/57 73/58/58
f 46/59/59 7/60/60 80/61/61 77/62/62
f 6/63/63 44/64/64 76/65/65 78/66/66
f 20/56/56 46/59/59 77/62/62 72/57/57
f 11/67/67 64/68/68 56/49/49 30/46/46
f 1/69/69 11/67/67 88/70/70
f 14/32/32 22/31/31 29/13/13 25/27/27
f 22/31/31 63/34/34 55/14/14 29/13/13
f 44/64/64 17/71/71 67/72/72 76/65/65
f 19/73/73 34/74/74 71/75/75 65/76/76
f 40/77/77 19/73/73 65/76/76 75/78/78
f 13/8/8 50/7/7 60/41/41 36/38/38
f 2/79/79 13/8/8 86/80/80
f 11/67/67 89/81/81 31/25/25 35/22/22
f 64/68/68 11/67/67 35/22/22 58/21/21
f 33/82/82 18/83/83 68/84/84 70/85/85
f 18/83/83 39/51/51 74/54/54 68/84/84
f 12/40/40 23/39/39 42/9/9 38/35/35
f 59/24/24 21/23/23 41/17/17 51/20/20
f 21/23/23 10/26/26 37/18/18 41/17/17
f 23/39/39 61/42/42 53/10/10 42/9/9
f 17/71/71 28/1/1 69/4/4 67/72/72
f 34/74/74 6/63/63 78/66/66 71/75/75
f 8/52/52 26/55/55 73/58/58 79/53/53
f 5/2/2 33/82/82 70/85/85 81/3/3
f 9/48/48 24/47/47 48/5/5 43/43/43
f 15/12/12 54/11/11 62/33/33 47/30/30
f 3/86/86 15/12/12 84/87/87
f 24/47/47 57/50/50 49/6/6 48/5/5
f 7/60/60 40/77/77 75/78/78 80/61/61
f 44/64/64 6/63/63 50/7/7 49/6/6
f 8/52/52 39/51/51 51/20/20 52/15/15
f 40/77/77 7/60/60 54/11/11 53/10/10
f 26/55/55 8/52/52 52/15/15 55/14/14
f 28/1/1 17/71/71 57/50/50 56/49/49
f 18/83/83 33/82/82 58/21/21 59/24/24
f 34/74/74 19/73/73 61/42/42 60/41/41
f 46/59/59 20/56/56 63/34/34 62/33/33
f 20/56/56 26/55/55 55/14/14 63/34/34
f 5/2/2 28/1/1 56/49/49 64/68/68
f 33/82/82 5/2/2 64/68/68 58/21/21
f 6/63/63 34/74/74 60/41/41 50/7/7
f 39/51/51 18/83/83 59/24/24 51/20/20
f 19/73/73 40/77/77 53/10/10 61/42/42
f 17/71/71 44/64/64 49/6/6 57/50/50
f 7/60/60 46/59/59 62/33/33 54/11/11
f 66/88/88 65/89/88 71/90/88
f 71/90/88 78/91/88 66/88/88
f 78/92/88 76/93/88 66/88/88
f 66/88/88 76/94/88 67/95/88
f 67/96/88 69/97/88 66/88/88
f 69/98/88 81/99/88 66/88/88
f 70/100/88 66/88/88 81/101/88
f 66/88/88 70/102/88 68/103/88
f 74/104/88 66/88/88 68/105/88
f 73/106/88 72/107/88 66/88/88
f 66/88/88 79/108/88 73/106/88
f 74/109/88 79/110/88 66/88/88
f 77/111/88 66/88/88 72/107/88
f 66/88/88 77/112/88 80/113/88
f 80/114/88 75/115/88 66/88/88
f 66/88/88 75/116/88 65/89/88
f 16/16/16 82/19/19 4/117/89
f 84/87/87 15/12/12 47/30/30 45/29/29
f 85/28/28 16/16/16 4/117/89
f 83/36/36 15/12/12 3/86/86
f 87/44/44 13/8/8 2/79/79
f 86/80/80 13/8/8 36/38/38 32/37/37
f 89/81/81 11/67/67 1/69/69
f 88/70/70 11/67/67 30/46/46 27/45/45
