# Blender v2.80 (sub 45) OBJ File: 'all_models.blend'
# www.blender.org
mtllib pine.mtl
o pine_Cylinder.002
v 0.000000 0.018592 -0.003692
v 0.002611 0.018592 -0.002611
v 0.003692 0.018592 0.000000
v 0.002611 0.018592 0.002611
v -0.000000 0.018592 0.003692
v -0.002611 0.018592 0.002611
v -0.003692 0.018592 -0.000000
v -0.002611 0.018592 -0.002611
v 0.006514 -0.002253 -0.006514
v 0.006514 -0.002253 0.006514
v -0.006514 -0.002253 0.006514
v -0.006514 -0.002253 -0.006514
v 0.001834 -0.002253 -0.009189
v -0.001834 -0.002253 -0.009189
v 0.000000 0.003280 -0.006408
v 0.000000 -0.002261 -0.013048
v 0.009189 -0.002253 0.001834
v 0.009189 -0.002253 -0.001834
v 0.006408 0.003280 0.000000
v 0.013048 -0.002261 0.000000
v -0.001834 -0.002253 0.009189
v 0.001834 -0.002253 0.009189
v -0.000000 0.003280 0.006408
v -0.000000 -0.002261 0.013048
v -0.009189 -0.002253 -0.001834
v -0.009189 -0.002253 0.001834
v -0.006408 0.003280 -0.000000
v -0.013048 -0.002261 -0.000000
v -0.004194 0.003280 0.004194
v 0.004194 0.003280 0.004194
v 0.004194 0.003280 -0.004194
v -0.004194 0.003280 -0.004194
v -0.002166 0.032876 -0.002166
v -0.003063 0.032876 -0.000000
v -0.002166 0.032876 0.002166
v -0.000000 0.032876 0.003063
v 0.002166 0.032876 0.002166
v 0.003063 0.032876 0.000000
v 0.002166 0.032876 -0.002166
v -0.000000 0.032876 -0.003063
v -0.000000 0.044172 -0.001630
v 0.001152 0.044172 -0.001152
v 0.001630 0.044172 -0.000000
v 0.001152 0.044172 0.001152
v -0.000000 0.044172 0.001630
v -0.001152 0.044172 0.001152
v -0.001630 0.044172 -0.000000
v -0.001152 0.044172 -0.001152
v -0.000000 0.052427 -0.000000
v -0.009819 0.011649 -0.009819
v -0.010545 0.013002 -0.010545
v -0.017600 0.007716 -0.000000
v -0.016457 0.006852 -0.000000
v -0.009819 0.011649 0.009819
v -0.010545 0.013002 0.010545
v -0.000000 0.006852 0.016457
v -0.000000 0.007716 0.017600
v 0.009819 0.011649 0.009819
v 0.010545 0.013002 0.010545
v 0.016457 0.006852 0.000000
v 0.017600 0.007716 0.000000
v 0.009819 0.011649 -0.009819
v 0.010545 0.013002 -0.010545
v 0.000000 0.007716 -0.017600
v 0.000000 0.006852 -0.016457
v 0.000034 0.023967 -0.011977
v -0.000000 0.025503 -0.012744
v 0.010688 0.020257 -0.010688
v 0.010051 0.019057 -0.010051
v 0.012744 0.025503 0.000000
v 0.011977 0.023967 0.000034
v 0.010688 0.020257 0.010688
v 0.010051 0.019057 0.010051
v -0.000000 0.025503 0.012744
v -0.000034 0.023967 0.011977
v -0.010688 0.020257 0.010688
v -0.010051 0.019057 0.010051
v -0.011977 0.023967 -0.000034
v -0.012744 0.025503 -0.000000
v -0.010688 0.020257 -0.010688
v -0.010051 0.019057 -0.010051
v -0.000005 0.032005 -0.010303
v -0.000000 0.033443 -0.010872
v 0.006255 0.037109 -0.006255
v 0.005943 0.035494 -0.005930
v 0.010872 0.033443 0.000000
v 0.010303 0.032005 -0.000005
v 0.006255 0.037109 0.006255
v 0.005930 0.035494 0.005943
v -0.000000 0.033443 0.010872
v 0.000005 0.032005 0.010303
v -0.006255 0.037109 0.006255
v -0.005943 0.035494 0.005930
v -0.010303 0.032005 0.000005
v -0.010872 0.033443 -0.000000
v -0.006255 0.037109 -0.006255
v -0.005930 0.035494 -0.005943
v -0.000000 0.032876 -0.003063
v -0.002166 0.032876 -0.002166
v -0.003063 0.032876 -0.000000
v -0.002166 0.032876 0.002166
v -0.000000 0.032876 0.003063
v 0.002166 0.032876 0.002166
v 0.003063 0.032876 0.000000
v 0.002166 0.032876 -0.002166
v -0.001152 0.044172 -0.001152
v -0.001630 0.044172 -0.000000
v 0.001152 0.044172 -0.001152
v -0.000000 0.044172 -0.001630
v 0.001630 0.044172 -0.000000
v 0.001152 0.044172 0.001152
v -0.000000 0.044172 0.001630
v -0.001152 0.044172 0.001152
v 0.002611 0.018592 -0.002611
v 0.000000 0.018592 -0.003692
v 0.003692 0.018592 0.000000
v 0.002611 0.018592 0.002611
v -0.000000 0.018592 0.003692
v -0.002611 0.018592 0.002611
v -0.003692 0.018592 -0.000000
v -0.002611 0.018592 -0.002611
vt 0.270885 0.009354
vt 0.237774 0.191566
vt 0.211416 0.191566
vt 0.239032 0.009354
vt 0.139650 0.009354
vt 0.161481 0.191566
vt 0.111547 0.191566
vt 0.083931 0.009354
vt 0.239032 0.009354
vt 0.211416 0.191566
vt 0.270885 0.009354
vt 0.052077 0.009354
vt 0.085189 0.191566
vt 0.111547 0.191566
vt 0.083931 0.009354
vt 0.183313 0.009354
vt 0.052077 0.009354
vt 0.183313 0.009354
vt 0.161481 0.191566
vt 0.139650 0.009354
vt 0.161481 0.009096
vt 0.316823 0.009096
vt 0.161481 0.009097
vt 0.006140 0.009096
vt 0.161481 0.695808
vt 0.130396 0.695808
vt 0.117521 0.695808
vt 0.205442 0.695808
vt 0.192566 0.695808
vt 0.130396 0.695808
vt 0.161481 0.695808
vt 0.192566 0.695808
vt 0.364813 0.034116
vt 0.420075 0.223902
vt 0.485713 0.937466
vt 0.478685 0.937466
vt 0.502680 0.034116
vt 0.585285 0.223902
vt 0.519647 0.937466
vt 0.502680 0.937466
vt 0.640547 0.034116
vt 0.585285 0.223902
vt 0.519647 0.937466
vt 0.526674 0.937466
vt 0.586400 0.013641
vt 0.502680 0.220005
vt 0.502680 0.954293
vt 0.511707 0.954293
vt 0.420075 0.223902
vt 0.485713 0.937466
vt 0.502680 0.034116
vt 0.502680 0.937466
vt 0.402854 0.220005
vt 0.418960 0.013641
vt 0.493653 0.954293
vt 0.489914 0.954293
vt 0.804282 0.525142
vt 0.794153 0.525142
vt 0.674600 0.014716
vt 0.736770 0.223261
vt 0.863321 0.525142
vt 0.853191 0.525142
vt 0.920703 0.223261
vt 0.982874 0.014716
vt 0.828737 0.525142
vt 0.853191 0.525142
vt 0.920703 0.223261
vt 0.828737 0.014716
vt 0.804282 0.525142
vt 0.736770 0.223261
vt 0.828737 0.525142
vt 0.828737 0.014716
vt 0.811526 0.698606
vt 0.831813 0.698606
vt 0.831499 0.311222
vt 0.737676 0.097755
vt 0.502680 0.220006
vt 0.586400 0.013641
vt 0.511707 0.954293
vt 0.502680 0.954293
vt 0.418960 0.013641
vt 0.493653 0.954293
vt 0.602506 0.220005
vt 0.515446 0.954293
vt 0.502680 0.032622
vt 0.502680 0.983574
vt 0.570010 0.216295
vt 0.852099 0.698606
vt 0.860502 0.698606
vt 0.943987 0.311222
vt 0.925950 0.097755
vt 0.852099 0.698606
vt 0.831813 0.698606
vt 0.832127 0.311221
vt 0.925950 0.097755
vt 0.803124 0.698606
vt 0.719639 0.311222
vt 0.811526 0.698606
vt 0.737676 0.097755
vt 0.570010 0.216295
vt 0.502680 0.032622
vt 0.435350 0.216295
vt 0.385661 0.032622
vt 0.435350 0.216295
vt 0.619699 0.032622
vt 0.810368 0.957187
vt 0.816806 0.957187
vt 0.752197 0.413826
vt 0.693384 0.195431
vt 0.832348 0.957187
vt 0.847891 0.957187
vt 0.912320 0.413826
vt 0.832420 0.195431
vt 0.854329 0.957187
vt 0.847891 0.957187
vt 0.912499 0.413827
vt 0.971313 0.195431
vt 0.832348 0.957187
vt 0.816806 0.957187
vt 0.752376 0.413826
vt 0.832277 0.195431
vt 0.729970 0.282105
vt 0.828737 0.052288
vt 0.729970 0.282106
vt 0.663896 0.052288
vt 0.828737 0.052288
vt 0.927504 0.282106
vt 0.993577 0.052288
vt 0.927504 0.282105
vt 0.712456 0.378049
vt 0.731713 0.149933
vt 0.831813 0.378049
vt 0.931913 0.149933
vt 0.951170 0.378049
vt 0.931913 0.149934
vt 0.831813 0.378049
vt 0.731713 0.149934
vt 0.685720 0.285410
vt 0.747982 0.514981
vt 0.832348 0.285410
vt 0.916715 0.514981
vt 0.978977 0.285410
vt 0.916715 0.514981
vt 0.832348 0.285410
vt 0.747982 0.514981
vn 0.5775 0.4982 0.6467
vn 0.9100 0.4146 0.0000
vn 0.6603 0.3578 0.6603
vn 0.6040 0.5200 0.6040
vn -0.6467 0.4982 0.5775
vn 0.0000 0.4146 0.9100
vn -0.6603 0.3578 0.6603
vn -0.6040 0.5200 0.6040
vn 0.6040 0.5200 -0.6040
vn 0.6603 0.3578 -0.6603
vn 0.5775 0.4982 -0.6467
vn -0.5775 0.4982 -0.6467
vn -0.9100 0.4146 0.0000
vn -0.6603 0.3578 -0.6603
vn -0.6040 0.5200 -0.6040
vn 0.6467 0.4982 0.5775
vn -0.5775 0.4982 0.6467
vn 0.6467 0.4982 -0.5775
vn 0.0000 0.4146 -0.9100
vn -0.6467 0.4982 -0.5775
vn 0.0000 0.7678 -0.6407
vn 0.6407 0.7678 0.0000
vn 0.0000 0.7678 0.6407
vn -0.6407 0.7678 0.0000
vn 0.0000 0.1632 0.9866
vn -0.6985 0.1557 0.6985
vn -0.9866 0.1632 0.0000
vn 0.9866 0.1632 0.0000
vn 0.6985 0.1557 0.6985
vn -0.6985 0.1557 -0.6985
vn 0.0000 0.1632 -0.9866
vn 0.6985 0.1557 -0.6985
vn -0.9630 -0.2696 0.0000
vn -0.7054 0.0694 0.7054
vn -0.6082 0.5100 0.6082
vn -0.8649 0.5019 0.0000
vn 0.0000 -0.2696 0.9630
vn 0.7054 0.0694 0.7054
vn 0.6082 0.5100 0.6082
vn 0.0000 0.5019 0.8649
vn 0.9630 -0.2696 0.0000
vn 0.7054 0.0694 -0.7054
vn 0.6082 0.5100 -0.6082
vn 0.8649 0.5019 0.0000
vn 0.6963 -0.1734 -0.6964
vn 0.0002 0.1571 -0.9875
vn 0.0000 0.5091 -0.8607
vn 0.6152 0.4930 -0.6152
vn -0.7054 0.0694 -0.7054
vn -0.6082 0.5100 -0.6082
vn 0.0000 -0.2696 -0.9630
vn 0.0000 0.5019 -0.8649
vn -0.9875 0.1571 -0.0002
vn -0.6963 -0.1734 0.6964
vn -0.6152 0.4930 0.6152
vn -0.8607 0.5091 0.0000
vn 0.4182 -0.8063 0.4182
vn 0.6597 -0.7515 0.0000
vn -0.1545 -0.9880 0.0000
vn -0.1858 -0.9648 -0.1858
vn -0.6597 -0.7515 0.0000
vn -0.4182 -0.8063 0.4182
vn 0.1858 -0.9648 -0.1858
vn 0.1545 -0.9880 0.0000
vn 0.0000 -0.7515 -0.6597
vn -0.4182 -0.8063 -0.4182
vn 0.1858 -0.9648 0.1858
vn 0.0000 -0.9880 0.1545
vn 0.4182 -0.8063 -0.4182
vn -0.1858 -0.9648 0.1858
vn 0.0000 -0.7515 0.6597
vn 0.0000 -0.9880 -0.1545
vn 0.5439 -0.6406 -0.5420
vn 0.0005 -0.6895 -0.7243
vn 0.0021 -0.9494 0.3139
vn -0.1504 -0.9770 0.1509
vn -0.0002 0.1571 0.9875
vn 0.6964 -0.1734 0.6963
vn 0.6152 0.4930 0.6152
vn 0.0000 0.5091 0.8607
vn -0.6964 -0.1734 -0.6963
vn -0.6152 0.4930 -0.6152
vn 0.9875 0.1571 0.0002
vn 0.8607 0.5091 0.0000
vn 0.0009 -0.0345 -0.9994
vn 0.0000 1.0000 0.0000
vn 0.6901 0.2187 -0.6899
vn -0.5420 -0.6406 -0.5439
vn -0.7243 -0.6895 -0.0005
vn 0.3139 -0.9494 -0.0021
vn 0.1509 -0.9770 0.1504
vn -0.5439 -0.6406 0.5420
vn -0.0005 -0.6895 0.7243
vn -0.0021 -0.9494 -0.3139
vn 0.1504 -0.9770 -0.1509
vn 0.7243 -0.6895 0.0005
vn -0.3139 -0.9494 0.0021
vn 0.5420 -0.6406 0.5439
vn -0.1509 -0.9770 -0.1504
vn 0.6899 0.2187 0.6901
vn -0.0009 -0.0345 0.9994
vn -0.6899 0.2187 -0.6901
vn -0.9994 -0.0345 -0.0009
vn -0.6901 0.2187 0.6899
vn 0.9994 -0.0345 0.0009
vn 0.8112 -0.5848 0.0004
vn 0.5610 -0.6088 -0.5609
vn -0.2553 -0.9325 0.2555
vn -0.3123 -0.9499 0.0018
vn 0.0004 -0.5848 -0.8112
vn -0.5609 -0.6088 -0.5610
vn 0.2555 -0.9325 0.2553
vn 0.0018 -0.9499 0.3123
vn -0.8112 -0.5848 -0.0004
vn -0.5610 -0.6088 0.5609
vn 0.2553 -0.9325 -0.2555
vn 0.3123 -0.9499 -0.0018
vn -0.0004 -0.5848 0.8112
vn 0.5609 -0.6088 0.5610
vn -0.2555 -0.9325 -0.2553
vn -0.0018 -0.9499 -0.3123
usemtl pine
s 1
f 17/1/1 19/2/2 30/3/3 10/4/4
f 21/5/5 23/6/6 29/7/7 11/8/8
f 9/9/9 31/10/10 19/2/2 18/11/11
f 25/12/12 27/13/13 32/14/14 12/15/15
f 10/4/4 30/3/3 23/6/6 22/16/16
f 11/8/8 29/7/7 27/13/13 26/17/17
f 13/18/18 15/19/19 31/10/10 9/9/9
f 12/15/15 32/14/14 15/19/19 14/20/20
f 13/18/18 16/21/21 15/19/19
f 16/21/21 14/20/20 15/19/19
f 17/1/1 20/22/22 19/2/2
f 20/22/22 18/11/11 19/2/2
f 21/5/5 24/23/23 23/6/6
f 24/23/23 22/16/16 23/6/6
f 25/12/12 28/24/24 27/13/13
f 28/24/24 26/17/17 27/13/13
f 29/7/7 23/6/6 118/25/25 119/26/26
f 27/13/13 29/7/7 119/26/26 120/27/27
f 30/3/3 19/2/2 116/28/28 117/29/29
f 23/6/6 30/3/3 117/29/29 118/25/25
f 15/19/19 32/14/14 121/30/30 115/31/31
f 19/2/2 31/10/10 114/32/32 116/28/28
f 32/14/14 27/13/13 120/27/27 121/30/30
f 31/10/10 15/19/19 115/31/31 114/32/32
f 52/33/33 55/34/34 101/35/35 100/36/36
f 57/37/37 59/38/38 103/39/39 102/40/40
f 61/41/41 63/42/42 105/43/43 104/44/44
f 68/45/45 67/46/46 109/47/47 108/48/48
f 51/49/49 52/33/33 100/36/36 33/50/50
f 55/34/34 57/37/37 102/40/40 101/35/35
f 59/38/38 61/41/41 104/44/44 103/39/39
f 63/42/42 64/51/51 40/52/52 105/43/43
f 79/53/53 76/54/54 113/55/55 107/56/56
f 8/57/57 7/58/58 53/59/59 50/60/60
f 3/61/61 2/62/62 62/63/63 60/64/64
f 5/65/65 4/66/66 58/67/67 56/68/68
f 7/58/58 6/69/69 54/70/70 53/59/59
f 2/62/62 1/71/71 65/72/72 62/63/63
f 4/66/66 3/61/61 60/64/64 58/67/67
f 6/69/69 5/65/65 56/68/68 54/70/70
f 35/73/73 36/74/74 75/75/75 77/76/76
f 74/77/77 72/78/78 111/79/79 112/80/80
f 67/46/46 80/81/81 106/82/82 109/47/47
f 80/81/81 79/53/53 107/56/56 106/82/82
f 76/54/54 74/77/77 112/80/80 113/55/55
f 72/78/78 70/83/83 110/84/84 111/79/79
f 83/85/85 49/86/86 84/87/87
f 70/83/83 68/45/45 108/48/48 110/84/84
f 1/71/71 8/57/57 50/60/60 65/72/72
f 37/88/88 38/89/89 71/90/90 73/91/91
f 39/92/92 98/93/93 66/94/94 69/95/95
f 34/96/96 35/73/73 77/76/76 78/97/97
f 36/74/74 37/88/88 73/91/91 75/75/75
f 38/89/89 39/92/92 69/95/95 71/90/90
f 99/98/98 34/96/96 78/97/97 81/99/99
f 98/93/93 99/98/98 81/99/99 66/94/94
f 88/100/100 49/86/86 90/101/101
f 96/102/102 49/86/86 83/85/85
f 95/103/103 49/86/86 96/102/102
f 90/101/101 49/86/86 92/104/104
f 86/105/105 49/86/86 88/100/100
f 84/87/87 49/86/86 86/105/105
f 92/104/104 49/86/86 95/103/103
f 47/106/106 46/107/107 93/108/108 94/109/109
f 45/110/110 44/111/111 89/112/112 91/113/113
f 43/114/114 42/115/115 85/116/116 87/117/117
f 41/118/118 48/119/119 97/120/120 82/121/121
f 46/107/107 45/110/110 91/113/113 93/108/108
f 44/111/111 43/114/114 87/117/117 89/112/112
f 42/115/115 41/118/118 82/121/121 85/116/116
f 48/119/119 47/106/106 94/109/109 97/120/120
f 65/72/72 50/60/60 51/122/49 64/123/51
f 53/59/59 54/70/70 55/124/34 52/125/33
f 54/70/70 56/68/68 57/126/37 55/124/34
f 56/68/68 58/67/67 59/127/38 57/126/37
f 58/67/67 60/64/64 61/128/41 59/127/38
f 60/64/64 62/63/63 63/129/42 61/128/41
f 62/63/63 65/72/72 64/123/51 63/129/42
f 50/60/60 53/59/59 52/125/33 51/122/49
f 81/99/99 78/97/97 79/130/53 80/131/81
f 69/95/95 66/94/94 67/132/46 68/133/45
f 71/90/90 69/95/95 68/133/45 70/134/83
f 73/91/91 71/90/90 70/134/83 72/135/78
f 75/75/75 73/91/91 72/135/78 74/136/77
f 77/76/76 75/75/75 74/136/77 76/137/54
f 78/97/97 77/76/76 76/137/54 79/130/53
f 66/94/94 81/99/99 80/131/81 67/132/46
f 97/120/120 94/109/109 95/138/103 96/139/102
f 85/116/116 82/121/121 83/140/85 84/141/87
f 87/117/117 85/116/116 84/141/87 86/142/105
f 89/112/112 87/117/117 86/142/105 88/143/100
f 91/113/113 89/112/112 88/143/100 90/144/101
f 93/108/108 91/113/113 90/144/101 92/145/104
f 94/109/109 93/108/108 92/145/104 95/138/103
f 82/121/121 97/120/120 96/139/102 83/140/85
f 64/51/51 51/49/49 33/50/50 40/52/52
