# Blender v2.81 (sub 16) OBJ File: 'Fresh Nebula Assets.blend'
# www.blender.org
mtllib deciduous_rocks.mtl
o deciduous_rocks_Cube.021_Cube.012
v -0.014503 -0.001552 0.008127
v -0.013787 0.003655 0.006813
v -0.016683 0.003683 0.003749
v -0.018308 -0.001552 0.004285
v -0.018063 0.002362 -0.000432
v -0.019190 -0.001552 -0.001300
v -0.015708 0.003855 -0.003372
v -0.016200 -0.001552 -0.005389
v -0.011717 0.003560 -0.004660
v -0.011442 -0.001552 -0.005922
v -0.009098 0.004697 -0.001209
v -0.007637 -0.001552 -0.002081
v -0.007872 0.003560 0.003073
v -0.006754 -0.001552 0.003505
v -0.010471 0.005274 0.005498
v -0.009745 -0.001552 0.007594
v -0.013364 0.006570 0.001160
v -0.010131 -0.001552 -0.005848
v -0.008534 0.008869 -0.005127
v -0.008102 0.010425 -0.013085
v -0.011711 -0.001552 -0.015828
v -0.004736 0.008080 -0.021740
v -0.006089 -0.001552 -0.023828
v 0.006378 0.010465 -0.021730
v 0.004220 -0.001552 -0.024595
v 0.013846 0.008374 -0.017962
v 0.013004 -0.001552 -0.018580
v 0.013904 0.010465 -0.010116
v 0.014584 -0.001552 -0.008601
v 0.010530 0.008374 -0.003214
v 0.008961 -0.001552 -0.000600
v 0.001933 0.010374 -0.001620
v -0.001347 -0.001552 0.000167
v 0.004713 0.013917 -0.010779
v 0.014863 -0.001552 0.015813
v 0.012253 0.005624 0.014150
v 0.005552 0.007386 0.016013
v 0.006573 -0.001552 0.020288
v 0.000163 0.005624 0.016838
v 0.000546 -0.001552 0.019390
v -0.003859 0.007386 0.012386
v -0.006321 -0.001552 0.012444
v -0.004011 0.005624 0.006389
v -0.005492 -0.001552 0.004275
v 0.001820 0.007386 0.005437
v -0.000386 -0.001552 0.001634
v 0.007359 0.005624 0.004551
v 0.008104 -0.001552 0.001548
v 0.009203 0.007386 0.007168
v 0.015821 0.005319 0.008129
v 0.015025 0.004656 0.004315
v 0.020370 -0.001552 0.009412
v 0.003008 0.011085 0.009643
v 0.014296 -0.001552 -0.002717
v 0.011884 0.005319 0.001348
v 0.020734 -0.001552 0.002034
vt 0.641158 0.473787
vt 0.677974 0.554130
vt 0.645426 0.584985
vt 0.563982 0.553942
vt 0.623552 0.635608
vt 0.562700 0.668557
vt 0.665485 0.659504
vt 0.631000 0.748104
vt 0.708031 0.671659
vt 0.732426 0.750430
vt 0.728872 0.631779
vt 0.821336 0.675849
vt 0.745276 0.588484
vt 0.821336 0.555761
vt 0.709559 0.572738
vt 0.750114 0.473452
vt 0.687557 0.611505
vt 0.416321 0.544250
vt 0.322387 0.399827
vt 0.373163 0.333520
vt 0.562444 0.390413
vt 0.414090 0.238844
vt 0.562444 0.189490
vt 0.314672 0.176464
vt 0.428847 0.022129
vt 0.234151 0.162252
vt 0.202324 0.000128
vt 0.196887 0.223105
vt 0.010379 0.139444
vt 0.163358 0.290483
vt 0.000128 0.386909
vt 0.226985 0.357212
vt 0.170460 0.561222
vt 0.266223 0.270005
vt 0.562700 0.243014
vt 0.686508 0.251308
vt 0.738701 0.317640
vt 0.620020 0.412787
vt 0.772639 0.374386
vt 0.717119 0.473195
vt 0.836053 0.352145
vt 0.898687 0.468294
vt 0.890254 0.325056
vt 0.999872 0.347651
vt 0.856353 0.267696
vt 0.999872 0.237607
vt 0.827257 0.196894
vt 0.917545 0.109615
vt 0.778706 0.211315
vt 0.701301 0.161626
vt 0.740520 0.123107
vt 0.594951 0.091313
vt 0.805140 0.290949
vt 0.825876 0.005002
vt 0.800168 0.128252
vt 0.685811 0.000128
vn -0.3076 0.3036 0.9018
vn -0.2844 0.5327 0.7971
vn -0.7195 0.5984 0.3525
vn -0.8535 0.2865 0.4352
vn -0.8670 0.4780 -0.1412
vn -0.9229 0.3127 -0.2247
vn -0.4625 0.6592 -0.5929
vn -0.5009 0.3209 -0.8038
vn 0.2398 0.5551 -0.7965
vn 0.2885 0.3004 -0.9091
vn 0.6309 0.6793 -0.3748
vn 0.8658 0.2378 -0.4403
vn 0.8458 0.5015 0.1822
vn 0.9381 0.2555 0.2339
vn 0.3231 0.7492 0.5782
vn 0.4844 0.2745 0.8307
vn -0.1425 0.9894 -0.0266
vn -0.8346 0.2050 0.5112
vn -0.6791 0.5317 0.5061
vn -0.6776 0.7247 -0.1252
vn -0.9321 0.2715 -0.2395
vn -0.4304 0.5667 -0.7025
vn -0.4987 0.2971 -0.8143
vn 0.2091 0.6543 -0.7267
vn 0.1985 0.1678 -0.9656
vn 0.7811 0.4135 -0.4678
vn 0.8338 0.0320 -0.5511
vn 0.7823 0.6032 0.1555
vn 0.9680 0.0304 0.2490
vn 0.5343 0.4483 0.7166
vn 0.4845 0.1351 0.8643
vn -0.0829 0.6413 0.7628
vn -0.2035 0.1580 0.9662
vn 0.0624 0.9974 0.0360
vn 0.5856 0.4488 0.6750
vn 0.5221 0.6848 0.5083
vn 0.1722 0.7311 0.6601
vn 0.1749 0.4010 0.8992
vn -0.3676 0.5073 0.7794
vn -0.3610 0.3243 0.8744
vn -0.7169 0.6479 0.2575
vn -0.9163 0.2465 0.3157
vn -0.6962 0.5219 -0.4928
vn -0.7298 0.3752 -0.5715
vn -0.1765 0.6627 -0.7278
vn -0.1953 0.3967 -0.8969
vn -0.0393 0.6646 -0.7462
vn -0.3238 0.3396 -0.8831
vn 0.2717 0.9406 -0.2038
vn 0.6148 0.7758 0.1421
vn 0.5131 0.8094 -0.2856
vn 0.7875 0.5754 0.2209
vn -0.0316 0.9969 -0.0724
vn 0.1083 0.5733 -0.8122
vn -0.0362 0.7164 -0.6967
vn 0.6868 0.6441 -0.3368
usemtl None.003
s 1
f 1/1/1 2/2/2 3/3/3 4/4/4
f 4/4/4 3/3/3 5/5/5 6/6/6
f 6/6/6 5/5/5 7/7/7 8/8/8
f 8/8/8 7/7/7 9/9/9 10/10/10
f 10/10/10 9/9/9 11/11/11 12/12/12
f 12/12/12 11/11/11 13/13/13 14/14/14
f 14/14/14 13/13/13 15/15/15 16/16/16
f 16/16/16 15/15/15 2/2/2 1/1/1
f 9/9/9 7/7/7 17/17/17 11/11/11
f 7/7/7 5/5/5 3/3/3 17/17/17
f 17/17/17 3/3/3 2/2/2 15/15/15
f 11/11/11 17/17/17 15/15/15 13/13/13
f 18/18/18 19/19/19 20/20/20 21/21/21
f 21/21/21 20/20/20 22/22/22 23/23/23
f 23/23/23 22/22/22 24/24/24 25/25/25
f 25/25/25 24/24/24 26/26/26 27/27/27
f 27/27/27 26/26/26 28/28/28 29/29/29
f 29/29/29 28/28/28 30/30/30 31/31/31
f 31/31/31 30/30/30 32/32/32 33/33/33
f 33/33/33 32/32/32 19/19/19 18/18/18
f 26/26/26 24/24/24 34/34/34 28/28/28
f 24/24/24 22/22/22 20/20/20 34/34/34
f 34/34/34 20/20/20 19/19/19 32/32/32
f 28/28/28 34/34/34 32/32/32 30/30/30
f 35/35/35 36/36/36 37/37/37 38/38/38
f 38/38/38 37/37/37 39/39/39 40/40/40
f 40/40/40 39/39/39 41/41/41 42/42/42
f 42/42/42 41/41/41 43/43/43 44/44/44
f 44/44/44 43/43/43 45/45/45 46/46/46
f 46/46/46 45/45/45 47/47/47 48/48/48
f 49/49/49 36/36/36 50/50/50 51/51/51
f 36/36/36 35/35/35 52/52/52 50/50/50
f 43/43/43 41/41/41 53/53/53 45/45/45
f 41/41/41 39/39/39 37/37/37 53/53/53
f 53/53/53 37/37/37 36/36/36 49/49/49
f 45/45/45 53/53/53 49/49/49 47/47/47
f 54/54/54 55/55/55 51/51/51 56/56/56
f 56/56/56 51/51/51 50/50/50 52/52/52
f 48/48/48 47/47/47 55/55/55 54/54/54
f 47/47/47 49/49/49 51/51/51 55/55/55
