# Blender v2.81 (sub 16) OBJ File: 'Fresh Nebula Assets.blend'
# www.blender.org
mtllib acia_leaves.mtl
o acacia_leaves_Plane.027
v -0.000934 0.030569 -0.027208
v 0.008180 0.027917 -0.025216
v 0.008928 0.020877 -0.032847
v -0.000227 0.022898 -0.034593
v -0.001946 0.033525 -0.017991
v 0.007208 0.031504 -0.016244
v -0.011324 0.032094 -0.018397
v -0.010352 0.028507 -0.027369
v -0.009604 0.021467 -0.034999
v -0.000362 0.039988 -0.001759
v 0.013940 0.035946 -0.001759
v 0.013940 0.032987 -0.016060
v -0.000362 0.035946 -0.016060
v -0.000362 0.035946 0.012542
v 0.013940 0.032987 0.012542
v -0.014663 0.032987 0.012542
v -0.014663 0.035946 -0.001759
v -0.014663 0.032987 -0.016060
v 0.017144 0.033022 -0.011839
v 0.030615 0.026030 -0.010119
v 0.031068 0.020250 -0.023870
v 0.017444 0.026189 -0.025467
v 0.015703 0.031992 0.002717
v 0.029327 0.026052 0.004313
v 0.001244 0.032173 0.001800
v 0.002532 0.032151 -0.012631
v 0.002985 0.026371 -0.026383
v -0.010863 0.033901 -0.020752
v 0.003608 0.033144 -0.018551
v 0.006079 0.028675 -0.032389
v -0.008254 0.028371 -0.034497
v -0.012440 0.031505 -0.006310
v 0.001892 0.031809 -0.004202
v -0.026018 0.025396 -0.007908
v -0.024302 0.026731 -0.022256
v -0.021831 0.022262 -0.036095
v -0.014301 0.034635 0.013691
v 0.000253 0.034921 0.012034
v -0.000893 0.035757 -0.002395
v -0.015270 0.034440 -0.000926
v -0.012013 0.027128 0.026904
v 0.002364 0.028445 0.025435
v -0.025424 0.020170 0.027345
v -0.027535 0.026646 0.013944
v -0.028681 0.027482 -0.000484
v 0.012577 0.035505 0.020506
v 0.025983 0.027989 0.020613
v 0.027043 0.029130 0.006191
v 0.013482 0.035612 0.005885
v 0.010516 0.027678 0.033642
v 0.024077 0.021196 0.033948
v -0.003891 0.028507 0.032249
v -0.001985 0.035301 0.018914
v -0.000925 0.036442 0.004492
v -0.025241 0.036603 0.001221
v -0.011295 0.034056 -0.002790
v -0.015163 0.029459 -0.016278
v -0.029021 0.030932 -0.012213
v -0.020803 0.034251 0.015059
v -0.006945 0.032778 0.010994
v -0.034180 0.029849 0.019421
v -0.038530 0.031126 0.005637
v -0.042398 0.026530 -0.007851
v 0.027914 0.037180 0.002367
v 0.041591 0.030575 0.003142
v 0.041917 0.027152 -0.011092
v 0.028117 0.032687 -0.011850
v 0.026794 0.033677 0.016711
v 0.040594 0.028142 0.017469
v 0.012322 0.033356 0.016048
v 0.013319 0.035789 0.001720
v 0.013645 0.032366 -0.012513
v -0.017485 0.023149 -0.015644
v -0.007974 0.023344 -0.016582
v -0.008493 0.019911 -0.025628
v -0.017868 0.019035 -0.024631
v -0.016093 0.022178 -0.006218
v -0.006717 0.023054 -0.007215
v -0.024729 0.017579 -0.004901
v -0.025987 0.017869 -0.014268
v -0.026505 0.014437 -0.023314
v 0.004155 0.024420 0.016913
v 0.013565 0.022384 0.016413
v 0.013925 0.026150 0.007441
v 0.004540 0.027559 0.007686
v 0.003956 0.016602 0.024235
v 0.013342 0.015193 0.023990
v -0.005293 0.014587 0.023085
v -0.005069 0.021778 0.015508
v -0.004709 0.025544 0.006537
vt 0.500000 0.500000
vt 1.000000 0.500000
vt 1.000000 1.000000
vt 0.500000 1.000000
vt 0.500000 0.000000
vt 1.000000 0.000000
vt 0.000000 0.000000
vt 0.000000 0.500000
vt 0.000000 1.000000
vt 0.500000 0.500000
vt 1.000000 0.500000
vt 1.000000 1.000000
vt 0.500000 1.000000
vt 0.500000 0.000000
vt 1.000000 0.000000
vt 0.000000 0.000000
vt 0.000000 0.500000
vt 0.000000 1.000000
vt 0.500000 0.500000
vt 1.000000 0.500000
vt 1.000000 1.000000
vt 0.500000 1.000000
vt 0.500000 0.000000
vt 1.000000 0.000000
vt 0.000000 0.000000
vt 0.000000 0.500000
vt 0.000000 1.000000
vt 0.500000 0.500000
vt 1.000000 0.500000
vt 1.000000 1.000000
vt 0.500000 1.000000
vt 0.500000 0.000000
vt 1.000000 0.000000
vt 0.000000 0.000000
vt 0.000000 0.500000
vt 0.000000 1.000000
vt 0.500000 0.500000
vt 1.000000 0.500000
vt 1.000000 1.000000
vt 0.500000 1.000000
vt 0.500000 0.000000
vt 1.000000 0.000000
vt 0.000000 0.000000
vt 0.000000 0.500000
vt 0.000000 1.000000
vt 0.500000 0.500000
vt 1.000000 0.500000
vt 1.000000 1.000000
vt 0.500000 1.000000
vt 0.500000 0.000000
vt 1.000000 0.000000
vt 0.000000 0.000000
vt 0.000000 0.500000
vt 0.000000 1.000000
vt 0.500000 0.500000
vt 1.000000 0.500000
vt 1.000000 1.000000
vt 0.500000 1.000000
vt 0.500000 0.000000
vt 1.000000 0.000000
vt 0.000000 0.000000
vt 0.000000 0.500000
vt 0.000000 1.000000
vt 0.500000 0.500000
vt 1.000000 0.500000
vt 1.000000 1.000000
vt 0.500000 1.000000
vt 0.500000 0.000000
vt 1.000000 0.000000
vt 0.000000 0.000000
vt 0.000000 0.500000
vt 0.000000 1.000000
vt 0.500000 0.500000
vt 1.000000 0.500000
vt 1.000000 1.000000
vt 0.500000 1.000000
vt 0.500000 0.000000
vt 1.000000 0.000000
vt 0.000000 0.000000
vt 0.000000 0.500000
vt 0.000000 1.000000
vt 0.500000 0.500000
vt 1.000000 0.500000
vt 1.000000 1.000000
vt 0.500000 1.000000
vt 0.500000 0.000000
vt 1.000000 0.000000
vt 0.000000 0.000000
vt 0.000000 0.500000
vt 0.000000 1.000000
vn 0.0864 0.8511 -0.5179
vn 0.3088 0.8158 -0.4890
vn 0.3105 0.6939 -0.6497
vn 0.1038 0.7155 -0.6909
vn 0.0673 0.9411 -0.3313
vn 0.2931 0.9094 -0.2952
vn -0.1610 0.9230 -0.3496
vn -0.1378 0.8292 -0.5417
vn -0.1098 0.7047 -0.7010
vn -0.0000 1.0000 0.0000
vn 0.2377 0.9713 0.0000
vn 0.2313 0.9450 -0.2313
vn -0.0000 0.9713 -0.2377
vn 0.0000 0.9713 0.2377
vn 0.2313 0.9450 0.2313
vn -0.2313 0.9450 0.2313
vn -0.2377 0.9713 0.0000
vn -0.2313 0.9450 -0.2313
vn 0.2178 0.9597 -0.1773
vn 0.4409 0.8839 -0.1560
vn 0.4369 0.8215 -0.3664
vn 0.2304 0.8862 -0.4019
vn 0.2046 0.9774 0.0532
vn 0.4225 0.9036 0.0712
vn -0.0256 0.9991 0.0323
vn -0.0116 0.9799 -0.1989
vn 0.0030 0.9083 -0.4184
vn -0.1976 0.9711 -0.1336
vn 0.0311 0.9941 -0.1039
vn 0.0641 0.9419 -0.3296
vn -0.1629 0.9176 -0.3626
vn -0.2328 0.9675 0.0987
vn -0.0036 0.9918 0.1281
vn -0.4461 0.8926 0.0646
vn -0.4201 0.8928 -0.1624
vn -0.3735 0.8479 -0.3762
vn -0.2497 0.9312 0.2656
vn -0.0264 0.9674 0.2517
vn -0.0526 0.9983 0.0259
vn -0.2773 0.9599 0.0414
vn -0.2218 0.8476 0.4820
vn 0.0011 0.8853 0.4650
vn -0.4209 0.7725 0.4755
vn -0.4644 0.8409 0.2779
vn -0.4874 0.8715 0.0547
vn 0.2189 0.9343 0.2814
vn 0.4370 0.8506 0.2923
vn 0.4588 0.8859 0.0691
vn 0.2442 0.9680 0.0581
vn 0.1936 0.8462 0.4964
vn 0.3960 0.7774 0.4887
vn -0.0305 0.8769 0.4798
vn -0.0070 0.9631 0.2691
vn 0.0170 0.9989 0.0441
vn -0.1267 0.9889 -0.0779
vn 0.0992 0.9840 -0.1483
vn 0.0290 0.9312 -0.3634
vn -0.1937 0.9337 -0.3011
vn -0.0589 0.9872 0.1485
vn 0.1645 0.9834 0.0769
vn -0.2776 0.9371 0.2115
vn -0.3499 0.9368 -0.0086
vn -0.4026 0.8875 -0.2241
vn 0.1763 0.9840 -0.0247
vn 0.4047 0.9144 -0.0131
vn 0.4036 0.8834 -0.2383
vn 0.1872 0.9473 -0.2601
vn 0.1657 0.9632 0.2117
vn 0.3847 0.8978 0.2143
vn -0.0665 0.9780 0.1976
vn -0.0571 0.9977 -0.0367
vn -0.0446 0.9622 -0.2686
vn -0.2944 0.9471 -0.1278
vn -0.0720 0.9849 -0.1574
vn -0.0911 0.9203 -0.3805
vn -0.3144 0.8812 -0.3530
vn -0.2732 0.9565 0.1027
vn -0.0489 0.9961 0.0738
vn -0.4805 0.8679 0.1260
vn -0.5085 0.8554 -0.0987
vn -0.5109 0.8018 -0.3100
vn -0.0526 0.8418 0.5373
vn 0.1720 0.8201 0.5457
vn 0.1822 0.9168 0.3554
vn -0.0463 0.9346 0.3527
vn -0.0580 0.7042 0.7077
vn 0.1551 0.6938 0.7033
vn -0.2662 0.6829 0.6803
vn -0.2756 0.8065 0.5231
vn -0.2735 0.9030 0.3315
usemtl Material.004
s 1
f 1/1/1 2/2/2 3/3/3 4/4/4
f 5/5/5 6/6/6 2/2/2 1/1/1
f 7/7/7 5/5/5 1/1/1 8/8/8
f 8/8/8 1/1/1 4/4/4 9/9/9
f 10/10/10 11/11/11 12/12/12 13/13/13
f 14/14/14 15/15/15 11/11/11 10/10/10
f 16/16/16 14/14/14 10/10/10 17/17/17
f 17/17/17 10/10/10 13/13/13 18/18/18
f 19/19/19 20/20/20 21/21/21 22/22/22
f 23/23/23 24/24/24 20/20/20 19/19/19
f 25/25/25 23/23/23 19/19/19 26/26/26
f 26/26/26 19/19/19 22/22/22 27/27/27
f 28/28/28 29/29/29 30/30/30 31/31/31
f 32/32/32 33/33/33 29/29/29 28/28/28
f 34/34/34 32/32/32 28/28/28 35/35/35
f 35/35/35 28/28/28 31/31/31 36/36/36
f 37/37/37 38/38/38 39/39/39 40/40/40
f 41/41/41 42/42/42 38/38/38 37/37/37
f 43/43/43 41/41/41 37/37/37 44/44/44
f 44/44/44 37/37/37 40/40/40 45/45/45
f 46/46/46 47/47/47 48/48/48 49/49/49
f 50/50/50 51/51/51 47/47/47 46/46/46
f 52/52/52 50/50/50 46/46/46 53/53/53
f 53/53/53 46/46/46 49/49/49 54/54/54
f 55/55/55 56/56/56 57/57/57 58/58/58
f 59/59/59 60/60/60 56/56/56 55/55/55
f 61/61/61 59/59/59 55/55/55 62/62/62
f 62/62/62 55/55/55 58/58/58 63/63/63
f 64/64/64 65/65/65 66/66/66 67/67/67
f 68/68/68 69/69/69 65/65/65 64/64/64
f 70/70/70 68/68/68 64/64/64 71/71/71
f 71/71/71 64/64/64 67/67/67 72/72/72
f 73/73/73 74/74/74 75/75/75 76/76/76
f 77/77/77 78/78/78 74/74/74 73/73/73
f 79/79/79 77/77/77 73/73/73 80/80/80
f 80/80/80 73/73/73 76/76/76 81/81/81
f 82/82/82 83/83/83 84/84/84 85/85/85
f 86/86/86 87/87/87 83/83/83 82/82/82
f 88/88/88 86/86/86 82/82/82 89/89/89
f 89/89/89 82/82/82 85/85/85 90/90/90
