# Blender v2.82 (sub 7) OBJ File: ''
# www.blender.org
mtllib grass_clump.mtl
v -0.012116 0.000000 -0.006014
v 0.000165 0.000000 -0.023694
v 0.004652 0.023446 -0.017212
v -0.010213 0.016862 -0.003102
v -0.016654 0.000000 -0.013498
v 0.004702 0.000000 -0.016210
v 0.007767 0.018167 -0.010965
v -0.013329 0.022142 -0.009348
v -0.006050 -0.000000 0.017516
v 0.006050 0.000000 -0.000290
v 0.001919 0.018107 -0.005206
v -0.009329 0.022097 0.012711
v -0.010664 -0.000000 0.010079
v 0.010664 -0.000000 0.007148
v 0.006472 0.022275 0.001000
v -0.013882 0.017930 0.006506
v -0.010262 -0.000000 0.010412
v -0.027299 0.000000 -0.002747
v -0.021726 0.021361 -0.005557
v -0.008284 0.014116 0.009616
v -0.017966 -0.000000 0.014566
v -0.019595 0.000000 -0.006900
v -0.017087 0.014343 -0.007970
v -0.012923 0.021134 0.012030
v 0.017173 -0.000000 0.001589
v 0.003998 0.000000 -0.015436
v 0.009771 0.021323 -0.015710
v 0.023386 0.019249 0.000836
v 0.008671 -0.000000 0.003669
v 0.012500 0.000000 -0.017516
v 0.017583 0.018048 -0.017918
v 0.015575 0.022523 0.003044
v 0.009502 -0.000000 0.024688
v 0.014742 -0.000000 0.003807
v 0.018466 0.024279 0.008526
v 0.010913 0.016385 0.027077
v 0.002612 -0.000000 0.019290
v 0.021632 -0.000000 0.009205
v 0.024049 0.018959 0.012666
v 0.005330 0.021705 0.022938
v 0.000304 -0.000000 0.021720
v -0.021133 -0.000000 0.019751
v -0.023501 0.017945 0.024081
v -0.003214 0.024027 0.027936
v -0.003971 -0.000000 0.029357
v -0.016858 -0.000000 0.012113
v -0.019874 0.022558 0.017587
v -0.006841 0.019415 0.034430
v 0.000165 0.010764 -0.023694
v -0.012116 0.010764 -0.006014
v 0.004702 0.010764 -0.016210
v -0.016654 0.010764 -0.013498
v 0.012500 0.010764 -0.017516
v 0.008671 0.010764 0.003669
v 0.003998 0.010764 -0.015436
v 0.017173 0.010764 0.001589
v 0.021632 0.010764 0.009205
v 0.002612 0.010764 0.019290
v 0.014742 0.010764 0.003807
v 0.009502 0.010764 0.024688
v -0.021133 0.010764 0.019751
v 0.000304 0.010764 0.021720
v -0.016858 0.010764 0.012113
v -0.003971 0.010764 0.029357
v 0.006050 0.010764 -0.000290
v -0.006050 0.010764 0.017516
v 0.010664 0.010764 0.007148
v -0.010664 0.010764 0.010079
v -0.019595 0.010764 -0.006900
v -0.017966 0.010764 0.014566
v -0.027299 0.010764 -0.002747
v -0.010262 0.010764 0.010412
v -0.012116 0.000000 -0.006014
v 0.000165 0.000000 -0.023694
v 0.004652 0.023446 -0.017212
v -0.010213 0.016862 -0.003102
v -0.016654 0.000000 -0.013498
v 0.004702 0.000000 -0.016210
v 0.007767 0.018167 -0.010965
v -0.013329 0.022142 -0.009348
v -0.006050 -0.000000 0.017516
v 0.006050 0.000000 -0.000290
v 0.001919 0.018107 -0.005206
v -0.009329 0.022097 0.012711
v -0.010664 -0.000000 0.010079
v 0.010664 -0.000000 0.007148
v 0.006472 0.022275 0.001000
v -0.013882 0.017930 0.006506
v -0.010262 -0.000000 0.010412
v -0.027299 0.000000 -0.002747
v -0.021726 0.021361 -0.005557
v -0.008284 0.014116 0.009616
v -0.017966 -0.000000 0.014566
v -0.019595 0.000000 -0.006900
v -0.017087 0.014343 -0.007970
v -0.012923 0.021134 0.012030
v 0.017173 -0.000000 0.001589
v 0.003998 0.000000 -0.015436
v 0.009771 0.021323 -0.015710
v 0.023386 0.019249 0.000836
v 0.008671 -0.000000 0.003669
v 0.012500 0.000000 -0.017516
v 0.017583 0.018048 -0.017918
v 0.015575 0.022523 0.003044
v 0.009502 -0.000000 0.024688
v 0.014742 -0.000000 0.003807
v 0.018466 0.024279 0.008526
v 0.010913 0.016385 0.027077
v 0.002612 -0.000000 0.019290
v 0.021632 -0.000000 0.009205
v 0.024049 0.018959 0.012666
v 0.005330 0.021705 0.022938
v 0.000304 -0.000000 0.021720
v -0.021133 -0.000000 0.019751
v -0.023501 0.017945 0.024081
v -0.003214 0.024027 0.027936
v -0.003971 -0.000000 0.029357
v -0.016858 -0.000000 0.012113
v -0.019874 0.022558 0.017587
v -0.006841 0.019415 0.034430
v 0.000165 0.010764 -0.023694
v -0.012116 0.010764 -0.006014
v 0.004702 0.010764 -0.016210
v -0.016654 0.010764 -0.013498
v 0.012500 0.010764 -0.017516
v 0.008671 0.010764 0.003669
v 0.003998 0.010764 -0.015436
v 0.017173 0.010764 0.001589
v 0.021632 0.010764 0.009205
v 0.002612 0.010764 0.019290
v 0.014742 0.010764 0.003807
v 0.009502 0.010764 0.024688
v -0.021133 0.010764 0.019751
v 0.000304 0.010764 0.021720
v -0.016858 0.010764 0.012113
v -0.003971 0.010764 0.029357
v 0.006050 0.010764 -0.000290
v -0.006050 0.010764 0.017516
v 0.010664 0.010764 0.007148
v -0.010664 0.010764 0.010079
v -0.019595 0.010764 -0.006900
v -0.017966 0.010764 0.014566
v -0.027299 0.010764 -0.002747
v -0.010262 0.010764 0.010412
vt 0.088953 0.369009
vt 0.088953 0.737917
vt 0.858340 0.737917
vt 0.858340 0.369009
vt 0.088953 0.369009
vt 0.088953 0.737917
vt 0.858340 0.737917
vt 0.858340 0.369009
vt 0.088953 0.369009
vt 0.858340 0.369009
vt 0.858340 0.737917
vt 0.088953 0.737917
vt 0.088953 0.369009
vt 0.858340 0.369009
vt 0.858340 0.737917
vt 0.088953 0.737917
vt 0.088953 0.369009
vt 0.088953 0.737917
vt 0.858340 0.737917
vt 0.858340 0.369009
vt 0.088953 0.369009
vt 0.088953 0.737917
vt 0.858340 0.737917
vt 0.858340 0.369009
vt 0.088953 0.369009
vt 0.088953 0.737917
vt 0.858340 0.737917
vt 0.858340 0.369009
vt 0.088953 0.369009
vt 0.088953 0.737917
vt 0.858340 0.737917
vt 0.858340 0.369009
vt 0.088953 0.369009
vt 0.088953 0.737917
vt 0.858340 0.737917
vt 0.858340 0.369009
vt 0.088953 0.369009
vt 0.088953 0.737917
vt 0.858340 0.737917
vt 0.858340 0.369009
vt 0.088953 0.369009
vt 0.858340 0.369009
vt 0.858340 0.737917
vt 0.088953 0.737917
vt 0.088953 0.369009
vt 0.858340 0.369009
vt 0.858340 0.737917
vt 0.088953 0.737917
vt 0.088953 0.000100
vt 0.858340 0.000100
vt 0.088953 0.000100
vt 0.858340 0.000100
vt 0.088953 0.000100
vt 0.858340 0.000100
vt 0.088953 0.000100
vt 0.858340 0.000100
vt 0.088953 0.000100
vt 0.858340 0.000100
vt 0.088953 0.000100
vt 0.858340 0.000100
vt 0.088953 0.000100
vt 0.858340 0.000100
vt 0.088953 0.000100
vt 0.858340 0.000100
vt 0.088953 0.000100
vt 0.858340 0.000100
vt 0.088953 0.000100
vt 0.858340 0.000100
vt 0.088953 0.000100
vt 0.858340 0.000100
vt 0.088953 0.000100
vt 0.858340 0.000100
vt 0.088953 0.369009
vt 0.088953 0.737917
vt 0.858340 0.737917
vt 0.858340 0.369009
vt 0.088953 0.369009
vt 0.088953 0.737917
vt 0.858340 0.737917
vt 0.858340 0.369009
vt 0.088953 0.369009
vt 0.858340 0.369009
vt 0.858340 0.737917
vt 0.088953 0.737917
vt 0.088953 0.369009
vt 0.858340 0.369009
vt 0.858340 0.737917
vt 0.088953 0.737917
vt 0.088953 0.369009
vt 0.088953 0.737917
vt 0.858340 0.737917
vt 0.858340 0.369009
vt 0.088953 0.369009
vt 0.088953 0.737917
vt 0.858340 0.737917
vt 0.858340 0.369009
vt 0.088953 0.369009
vt 0.088953 0.737917
vt 0.858340 0.737917
vt 0.858340 0.369009
vt 0.088953 0.369009
vt 0.088953 0.737917
vt 0.858340 0.737917
vt 0.858340 0.369009
vt 0.088953 0.369009
vt 0.088953 0.737917
vt 0.858340 0.737917
vt 0.858340 0.369009
vt 0.088953 0.369009
vt 0.088953 0.737917
vt 0.858340 0.737917
vt 0.858340 0.369009
vt 0.088953 0.369009
vt 0.858340 0.369009
vt 0.858340 0.737917
vt 0.088953 0.737917
vt 0.088953 0.369009
vt 0.858340 0.369009
vt 0.858340 0.737917
vt 0.088953 0.737917
vt 0.088953 0.000100
vt 0.858340 0.000100
vt 0.088953 0.000100
vt 0.858340 0.000100
vt 0.088953 0.000100
vt 0.858340 0.000100
vt 0.088953 0.000100
vt 0.858340 0.000100
vt 0.088953 0.000100
vt 0.858340 0.000100
vt 0.088953 0.000100
vt 0.858340 0.000100
vt 0.088953 0.000100
vt 0.858340 0.000100
vt 0.088953 0.000100
vt 0.858340 0.000100
vt 0.088953 0.000100
vt 0.858340 0.000100
vt 0.088953 0.000100
vt 0.858340 0.000100
vt 0.088953 0.000100
vt 0.858340 0.000100
vt 0.088953 0.000100
vt 0.858340 0.000100
vn 0.0590 0.9974 0.0419
vn 0.0669 0.9966 0.0481
vn 0.0685 0.9966 0.0467
vn 0.0594 0.9975 0.0395
vn 0.0048 0.9975 0.0701
vn 0.0029 0.9967 0.0810
vn 0.0053 0.9967 0.0808
vn 0.0071 0.9974 0.0714
vn 0.0438 0.9986 0.0296
vn 0.0441 0.9987 0.0273
vn 0.0358 0.9992 0.0200
vn 0.0346 0.9992 0.0216
vn 0.0060 0.9986 0.0518
vn 0.0085 0.9985 0.0534
vn 0.0066 0.9991 0.0417
vn 0.0044 0.9991 0.0422
vn 0.0437 0.9974 -0.0573
vn 0.0493 0.9967 -0.0645
vn 0.0478 0.9967 -0.0659
vn 0.0408 0.9975 -0.0572
vn 0.0702 0.9975 -0.0033
vn 0.0815 0.9967 -0.0030
vn 0.0811 0.9967 -0.0048
vn 0.0712 0.9974 -0.0052
vn 0.0588 0.9972 -0.0458
vn 0.0652 0.9965 -0.0524
vn 0.0637 0.9965 -0.0540
vn 0.0561 0.9974 -0.0459
vn 0.0728 0.9972 0.0140
vn 0.0845 0.9963 0.0171
vn 0.0847 0.9963 0.0152
vn 0.0742 0.9972 0.0124
vn 0.0690 0.9974 0.0192
vn 0.0751 0.9970 0.0209
vn 0.0759 0.9969 0.0193
vn 0.0684 0.9975 0.0171
vn 0.0329 0.9974 0.0648
vn 0.0363 0.9967 0.0732
vn 0.0384 0.9966 0.0723
vn 0.0352 0.9973 0.0642
vn 0.0041 0.9987 -0.0517
vn 0.0017 0.9987 -0.0506
vn 0.0001 0.9992 -0.0411
vn 0.0024 0.9992 -0.0408
vn 0.0420 0.9987 -0.0282
vn 0.0416 0.9987 -0.0305
vn 0.0334 0.9992 -0.0233
vn 0.0347 0.9992 -0.0220
vn 0.0296 0.9979 0.0571
vn 0.0303 0.9979 0.0571
vn 0.0351 0.9973 0.0642
vn 0.0619 0.9979 0.0175
vn 0.0624 0.9979 0.0157
vn 0.0685 0.9975 0.0171
vn 0.0691 0.9974 0.0192
vn 0.0503 0.9981 0.0353
vn 0.0506 0.9981 0.0352
vn 0.0590 0.9974 0.0418
vn 0.0060 0.9981 0.0612
vn 0.0077 0.9981 0.0610
vn 0.0070 0.9974 0.0714
vn 0.0049 0.9975 0.0702
vn 0.0057 0.9981 -0.0607
vn 0.0056 0.9981 -0.0607
vn 0.0499 0.9981 -0.0351
vn 0.0487 0.9982 -0.0364
vn 0.0627 0.9980 0.0115
vn 0.0628 0.9980 0.0114
vn 0.0515 0.9979 -0.0382
vn 0.0505 0.9980 -0.0391
vn 0.0589 0.9972 -0.0456
vn 0.0513 0.9980 0.0368
vn 0.0524 0.9980 0.0356
vn 0.0074 0.9980 0.0631
vn 0.0086 0.9980 0.0629
vn 0.0607 0.9981 -0.0035
vn 0.0606 0.9982 -0.0046
vn 0.0702 0.9975 -0.0034
vn 0.0373 0.9981 -0.0488
vn 0.0374 0.9981 -0.0484
vn -0.0437 0.9986 -0.0303
vn -0.0355 0.9991 -0.0246
vn -0.0339 0.9991 -0.0259
vn -0.0435 0.9985 -0.0325
vn -0.0070 0.9985 -0.0548
vn -0.0037 0.9990 -0.0444
vn -0.0014 0.9990 -0.0446
vn -0.0042 0.9986 -0.0537
vn -0.0624 0.9973 -0.0376
vn -0.0622 0.9973 -0.0395
vn -0.0729 0.9964 -0.0426
vn -0.0743 0.9964 -0.0409
vn -0.0115 0.9973 -0.0725
vn -0.0088 0.9974 -0.0710
vn -0.0111 0.9965 -0.0826
vn -0.0134 0.9965 -0.0821
vn -0.0330 0.9986 0.0422
vn -0.0272 0.9990 0.0350
vn -0.0287 0.9990 0.0338
vn -0.0358 0.9985 0.0423
vn -0.0551 0.9985 0.0046
vn -0.0439 0.9990 0.0031
vn -0.0444 0.9990 0.0014
vn -0.0541 0.9985 0.0027
vn -0.0389 0.9987 0.0331
vn -0.0310 0.9991 0.0282
vn -0.0325 0.9991 0.0268
vn -0.0419 0.9986 0.0326
vn -0.0505 0.9987 -0.0095
vn -0.0386 0.9992 -0.0080
vn -0.0383 0.9992 -0.0098
vn -0.0491 0.9987 -0.0112
vn -0.0527 0.9985 -0.0114
vn -0.0467 0.9989 -0.0098
vn -0.0459 0.9989 -0.0114
vn -0.0534 0.9985 -0.0134
vn -0.0247 0.9986 -0.0468
vn -0.0200 0.9990 -0.0390
vn -0.0180 0.9990 -0.0399
vn -0.0224 0.9986 -0.0474
vn -0.0056 0.9973 0.0735
vn -0.0080 0.9972 0.0746
vn -0.0078 0.9964 0.0842
vn -0.0054 0.9964 0.0845
vn -0.0597 0.9972 0.0454
vn -0.0599 0.9973 0.0433
vn -0.0695 0.9964 0.0487
vn -0.0680 0.9964 0.0501
vn -0.0287 0.9981 -0.0541
vn -0.0271 0.9981 -0.0547
vn -0.0595 0.9981 -0.0149
vn -0.0593 0.9981 -0.0150
vn -0.0527 0.9979 -0.0366
vn -0.0515 0.9980 -0.0379
vn -0.0081 0.9979 -0.0636
vn -0.0074 0.9979 -0.0636
vn -0.0059 0.9979 0.0643
vn -0.0081 0.9972 0.0746
vn -0.0081 0.9979 0.0642
vn -0.0518 0.9979 0.0387
vn -0.0599 0.9973 0.0432
vn -0.0521 0.9979 0.0386
vn -0.0608 0.9981 -0.0110
vn -0.0605 0.9981 -0.0127
vn -0.0486 0.9981 0.0376
vn -0.0493 0.9981 0.0371
vn -0.0517 0.9980 -0.0351
vn -0.0623 0.9973 -0.0376
vn -0.0513 0.9981 -0.0354
vn -0.0085 0.9981 -0.0615
vn -0.0073 0.9981 -0.0616
vn -0.0646 0.9979 0.0049
vn -0.0647 0.9979 0.0042
vn -0.0392 0.9979 0.0508
vn -0.0414 0.9979 0.0494
usemtl Grass
s 1
f 50/1/1 4/2/2 3/3/3 49/4/4
f 52/5/5 8/6/6 7/7/7 51/8/8
f 66/9/9 65/10/10 11/11/11 12/12/12
f 68/13/13 67/14/14 15/15/15 16/16/16
f 72/17/17 20/18/18 19/19/19 71/20/20
f 70/21/21 24/22/22 23/23/23 69/24/24
f 56/25/25 28/26/26 27/27/27 55/28/28
f 54/29/29 32/30/30 31/31/31 53/32/32
f 60/33/33 36/34/34 35/35/35 59/36/36
f 58/37/37 40/38/38 39/39/39 57/40/40
f 62/41/41 61/42/42 43/43/43 44/44/44
f 64/45/45 63/46/46 47/47/47 48/48/48
f 37/49/49 38/50/50 57/40/51 58/37/37
f 33/51/52 34/52/53 59/36/54 60/33/55
f 1/53/56 2/54/57 49/4/4 50/1/58
f 5/55/59 6/56/60 51/8/61 52/5/62
f 41/57/63 42/58/64 61/42/42 62/41/41
f 45/59/65 46/60/66 63/46/46 64/45/45
f 29/61/67 30/62/68 53/32/32 54/29/29
f 25/63/69 26/64/70 55/28/28 56/25/71
f 9/65/72 10/66/73 65/10/10 66/9/9
f 13/67/74 14/68/75 67/14/14 68/13/13
f 21/69/76 22/70/77 69/24/24 70/21/78
f 17/71/79 18/72/80 71/20/20 72/17/17
f 122/73/81 76/74/82 75/75/83 121/76/84
f 124/77/85 80/78/86 79/79/87 123/80/88
f 138/81/89 137/82/90 83/83/91 84/84/92
f 140/85/93 139/86/94 87/87/95 88/88/96
f 144/89/97 92/90/98 91/91/99 143/92/100
f 142/93/101 96/94/102 95/95/103 141/96/104
f 128/97/105 100/98/106 99/99/107 127/100/108
f 126/101/109 104/102/110 103/103/111 125/104/112
f 132/105/113 108/106/114 107/107/115 131/108/116
f 130/109/117 112/110/118 111/111/119 129/112/120
f 134/113/121 133/114/122 115/115/123 116/116/124
f 136/117/125 135/118/126 119/119/127 120/120/128
f 109/121/129 130/109/117 129/112/120 110/122/130
f 105/123/131 132/105/113 131/108/116 106/124/132
f 73/125/133 122/73/81 121/76/84 74/126/134
f 77/127/135 124/77/85 123/80/88 78/128/136
f 113/129/137 134/113/121 133/114/138 114/130/139
f 117/131/140 136/117/125 135/118/141 118/132/142
f 101/133/143 126/101/109 125/104/112 102/134/144
f 97/135/145 128/97/105 127/100/108 98/136/146
f 81/137/147 138/81/148 137/82/90 82/138/149
f 85/139/150 140/85/93 139/86/94 86/140/151
f 93/141/152 142/93/101 141/96/104 94/142/153
f 89/143/154 144/89/97 143/92/100 90/144/155
