# Blender v2.80 (sub 54) OBJ File: 'all_models.blend'
# www.blender.org
mtllib rock.mtl
o rock_Cube.026
v 0.023409 -0.003510 -0.017380
v 0.024658 -0.003430 0.015185
v -0.009257 -0.003412 0.015861
v -0.016543 -0.003491 -0.025128
v 0.011025 0.045322 -0.007880
v 0.013648 0.042845 0.008655
v -0.003073 0.035705 0.008655
v -0.009047 0.040222 -0.010461
v -0.012284 -0.003410 0.015861
v -0.019570 -0.003486 -0.023900
v -0.012682 0.022023 0.007488
v -0.016591 0.024979 -0.007156
v -0.027730 -0.003405 0.014690
v -0.037065 -0.003460 -0.009330
v -0.021668 0.019546 0.007390
v -0.025328 0.019564 -0.004097
v 0.003433 -0.003500 -0.031515
v 0.007700 -0.003421 0.015523
v 0.000989 0.042772 -0.013434
v 0.005288 0.039275 0.008655
v 0.014183 0.025815 -0.011305
v 0.013689 0.023833 -0.018238
v 0.002569 0.025476 -0.017926
v 0.020425 -0.003822 -0.017442
v 0.020416 -0.003447 -0.025321
v 0.002267 -0.003296 -0.026962
v 0.007653 -0.003397 -0.032906
v -0.009733 0.012777 -0.020674
v -0.011726 0.012781 -0.023977
v -0.016921 0.011438 -0.013877
v -0.020814 0.009800 -0.018630
v -0.006908 -0.003359 -0.023362
v -0.020965 -0.003316 -0.016144
v -0.027515 -0.003276 -0.023059
v -0.014064 -0.003276 -0.031418
v 0.003880 0.025579 0.008174
v -0.008913 0.023044 0.008174
v -0.007690 0.019843 0.019570
v 0.007082 -0.003393 0.013469
v -0.010740 -0.003393 0.013469
v 0.004775 -0.003393 0.029128
v -0.010740 -0.003393 0.024318
v 0.002628 0.022144 0.019822
v 0.025305 0.015916 0.001736
v 0.009818 -0.003262 0.001568
v 0.015521 0.015784 0.013893
v 0.016039 0.015916 0.000886
v 0.025849 -0.003262 0.001622
v 0.029762 0.015828 0.011754
v 0.010604 -0.003393 0.021329
v 0.014075 -0.003393 0.029151
v 0.032660 -0.003393 0.013502
v 0.032660 -0.003393 0.025913
v 0.001399 0.035003 -0.016470
v -0.010306 0.032883 -0.012923
v -0.012819 0.032600 -0.008808
v 0.005724 0.031550 0.009897
v -0.007878 0.028864 0.008071
v 0.015513 0.035007 0.009761
v -0.004192 0.028627 0.009959
v 0.013105 0.037123 -0.009475
v 0.005454 0.024366 -0.020153
v 0.009026 0.002075 0.017699
vt 0.600099 0.973646
vt 0.458781 0.904061
vt 0.529911 0.889000
vt 0.655573 0.954072
vt 0.956636 0.181641
vt 0.822437 0.726287
vt 0.841488 0.722175
vt 0.976102 0.001575
vt 0.711633 0.001760
vt 0.679301 0.733340
vt 0.388920 0.677026
vt 0.447163 0.001945
vt 0.401403 0.667780
vt 0.329472 0.873309
vt 0.399955 0.001975
vt 0.393606 0.670049
vt 0.625789 0.748272
vt 0.645085 0.181828
vt 0.333535 0.182015
vt 0.368334 0.662403
vt 0.266491 0.805403
vt 0.286326 0.000464
vt 0.013470 0.000994
vt 0.115831 0.969218
vt 0.170898 0.973548
vt 0.159051 0.002072
vt 0.760522 0.992145
vt 0.781898 0.979951
vt 0.874194 0.300572
vt 0.839919 0.311172
vt 0.812996 0.864198
vt 0.841538 0.980378
vt 0.635686 0.907294
vt 0.520040 0.989507
vt 0.514017 0.974568
vt 0.510121 0.866175
vt 0.339533 0.848685
vt 0.348695 0.974272
vt 0.525900 0.000000
vt 0.462624 0.001660
vt 0.131167 0.001660
vt 0.261537 0.000849
vt 0.350354 0.001660
vt 0.562447 0.958326
vt 0.307824 0.907883
vt 0.332172 0.844168
vt 0.536209 0.898082
vt 0.475272 0.885847
vt 0.269007 0.003217
vt 0.577808 0.003217
vt 0.269007 0.003217
vt 0.356684 0.000892
vt 0.356684 0.000892
vt 0.548104 0.865350
vt 0.572361 0.976476
vt 0.466016 0.003505
vt 0.831534 0.865350
vt 0.845486 0.976476
vt 0.920635 0.003505
vt 0.920635 0.000892
vt 0.920635 0.000892
vt 0.699678 0.311172
vt 0.530860 0.311172
vt 0.623728 0.003217
vn -0.3074 0.9229 0.2317
vn -0.2694 0.9305 0.2482
vn -0.3207 0.9199 0.2258
vn 0.9689 0.2402 -0.0589
vn 0.9673 0.2404 -0.0812
vn 0.9675 0.2404 -0.0780
vn -0.0027 0.1588 0.9873
vn -0.0276 0.1585 0.9870
vn -0.0233 0.1705 0.9851
vn -0.0038 0.1697 0.9855
vn -0.3467 0.2508 0.9038
vn -0.3897 0.2402 0.8891
vn -0.3756 0.2437 0.8941
vn -0.3167 0.3400 -0.8855
vn -0.3192 0.3399 -0.8846
vn -0.3018 0.3410 -0.8903
vn -0.7927 0.4962 0.3542
vn -0.7961 0.4976 0.3443
vn -0.7966 0.4978 0.3429
vn -0.5591 0.4555 -0.6928
vn -0.7727 0.3379 -0.5374
vn -0.7811 0.3324 -0.5286
vn -0.7431 0.3563 -0.5665
vn -0.3682 0.9058 0.2097
vn -0.8782 0.3544 0.3211
vn -0.0810 0.3157 0.9454
vn 0.4769 0.3126 -0.8215
vn 0.4677 0.3127 -0.8267
vn 0.5127 0.3119 -0.7999
vn -0.3643 0.9083 0.2058
vn 0.9703 0.2347 -0.0584
vn 0.1322 0.9491 -0.2858
vn -0.2604 0.9655 -0.0056
vn 0.7631 0.2044 -0.6131
vn -0.7475 0.1320 0.6510
vn -0.5058 0.4554 -0.7327
vn -0.2000 0.9416 0.2709
vn -0.2084 0.2744 0.9388
vn -0.9912 0.1116 0.0706
vn -0.8511 0.3647 0.3777
vn -0.9597 0.2808 0.0101
vn -0.0013 1.0000 0.0097
vn 0.0357 -0.0201 -0.9992
vn 0.9313 0.0831 -0.3547
vn 0.9701 0.1115 -0.2156
vn 0.8878 0.0602 -0.4562
vn 0.9888 0.1491 0.0000
vn 0.4235 0.3126 -0.8502
vn -0.8225 0.3026 -0.4816
vn -0.3363 0.3387 -0.8788
vn -0.4319 0.2290 0.8724
vn -0.0262 0.1452 0.9891
vn -0.0476 0.1422 0.9887
vn -0.0516 0.1538 0.9868
vn -0.8008 0.4993 0.3308
vn 0.9650 0.2405 -0.1048
vn -0.0578 0.1718 0.9834
vn -0.6616 0.2502 -0.7068
vn 0.9802 0.1350 0.1447
vn 0.3918 0.3675 -0.8435
vn 0.1278 0.6062 0.7850
vn -0.0016 0.1486 0.9889
usemtl rock
s 1
f 19/1/1 8/2/2 7/3/2 20/4/3
f 1/5/4 61/6/5 59/7/6 2/8/4
f 18/9/7 57/10/8 60/11/9 3/12/10
f 3/12/11 60/11/12 58/13/13 11/14/11 9/15/11
f 55/16/14 54/17/15 17/18/16 4/19/16
f 7/3/17 8/2/17 56/20/18 58/13/19
f 12/21/20 10/22/20 14/23/20 16/24/20
f 56/20/21 55/16/22 4/19/23 10/22/23 12/21/23
f 11/14/24 12/21/24 16/24/24 15/25/24
f 13/26/25 15/25/25 16/24/25 14/23/25
f 9/15/26 11/14/26 15/25/26 13/26/26
f 54/17/27 61/6/28 1/5/29 17/18/29
f 5/27/30 19/1/1 20/4/3 6/28/30
f 24/29/31 25/30/31 22/31/31 21/32/31
f 62/33/32 23/34/32 21/32/32 22/31/32
f 28/35/33 29/36/33 31/37/33 30/38/33
f 32/39/34 35/40/34 29/36/34 28/35/34
f 34/41/35 33/42/35 30/38/35 31/37/35
f 35/43/36 34/41/36 31/37/36 29/36/36
f 36/44/37 37/45/37 38/46/37 43/47/37
f 43/48/38 38/46/38 42/49/38 41/50/38
f 38/46/39 37/45/39 40/51/39 42/49/39
f 50/52/40 51/53/40 46/54/40
f 50/52/41 46/54/41 47/55/41 45/56/41
f 46/54/42 49/57/42 44/58/42 47/55/42
f 47/55/43 44/58/43 48/59/43 45/56/43
f 49/57/44 52/60/45 48/59/46 44/58/46
f 49/57/44 53/61/47 52/60/45
f 5/27/48 61/6/28 54/17/27 19/1/48
f 8/2/49 55/16/22 56/20/21
f 19/1/50 54/17/15 55/16/14 8/2/50
f 58/13/13 60/11/12 7/3/51
f 57/10/8 59/7/52 6/28/53 20/4/54
f 58/13/19 56/20/18 12/21/55 11/14/55
f 59/7/6 61/6/5 5/27/56 6/28/56
f 60/11/9 57/10/8 20/4/54 7/3/57
f 62/33/58 27/62/58 26/63/58 23/34/58
f 43/47/59 41/50/59 39/64/59 36/44/59
f 62/33/60 22/31/60 25/30/60 27/62/60
f 51/53/61 53/61/61 49/57/61 46/54/61
f 2/8/62 59/7/52 57/10/8 18/9/7
