# Blender v2.80 (sub 54) OBJ File: 'all_models.blend'
# www.blender.org
mtllib volcano_3.mtl
o volcano_3_volcano_3_Cube.000
v -0.048421 -0.017402 -0.110329
v -0.101476 -0.014368 0.007756
v -0.063650 0.025730 0.001664
v -0.030048 0.023744 -0.070274
v 0.094248 -0.020904 0.042389
v 0.065966 -0.015836 -0.094655
v 0.041962 0.024204 -0.061665
v 0.058528 0.021375 0.023553
v -0.022601 -0.018095 0.111298
v -0.016008 0.022588 0.066402
v 0.028500 0.037462 -0.040029
v -0.017907 0.038834 -0.042133
v -0.011549 0.009443 -0.026439
v 0.019536 0.009074 -0.025452
v 0.035214 0.034453 0.012438
v 0.022337 0.013731 0.005401
v -0.040399 0.038492 -0.002030
v -0.015449 0.033315 0.038267
v -0.009169 0.020898 0.022197
v -0.026204 0.016545 -0.002484
v 0.000262 0.014784 -0.002009
vt 0.765440 0.026237
vt 0.685995 0.026237
vt 0.731392 0.448511
vt 0.786093 0.447021
vt 0.972540 0.089158
vt 0.932564 0.164776
vt 0.900606 0.531193
vt 0.925998 0.485580
vt 0.800374 0.026238
vt 0.806589 0.430114
vt 0.292506 0.972443
vt 0.236028 0.963185
vt 0.228184 0.066920
vt 0.340994 0.100841
vt 0.300281 0.946029
vt 0.349288 0.232854
vt 0.208270 0.948161
vt 0.238481 0.910449
vt 0.233112 0.387304
vt 0.172921 0.243025
vt 0.801109 0.873958
vt 0.817518 0.888773
vt 0.850903 0.897902
vt 0.855499 0.871855
vt 0.818968 0.836771
vt 0.269249 0.231431
vn -0.3210 0.7244 -0.6101
vn -0.7156 0.6927 0.0898
vn -0.6263 0.7768 0.0656
vn -0.3046 0.7900 -0.5321
vn 0.6525 0.6927 0.3074
vn 0.4722 0.7165 -0.5135
vn 0.4357 0.7892 -0.4329
vn 0.5848 0.7718 0.2496
vn -0.0934 0.7419 0.6639
vn -0.1020 0.8076 0.5808
vn 0.0796 0.9963 0.0316
vn 0.0050 0.9992 0.0400
vn 0.3278 0.8417 0.4290
vn -0.4133 0.8315 0.3712
vn 0.0223 0.9997 -0.0085
vn -0.4855 0.8152 -0.3158
vn 0.0143 0.9996 0.0226
vn -0.0171 0.9951 0.0978
vn 0.1456 0.8080 -0.5709
vn 0.6018 0.7956 -0.0694
vn 0.0760 0.9749 -0.2094
usemtl Volcano.002
s 1
f 1/1/1 2/2/2 3/3/3 4/4/4
f 5/5/5 6/6/6 7/7/7 8/8/8
f 9/9/9 5/5/5 8/8/8 10/10/10
f 11/11/11 12/12/12 13/13/13 14/14/14
f 15/15/15 11/11/11 14/14/14 16/16/16
f 17/17/17 18/18/18 19/19/19 20/20/20
f 6/6/6 1/1/1 4/4/4 7/7/7
f 2/2/2 9/9/9 10/10/10 3/3/3
f 17/21/17 12/22/12 4/4/4 3/3/3
f 12/22/12 11/23/11 7/7/7 4/4/4
f 11/23/11 15/24/15 8/8/8 7/7/7
f 18/25/18 17/21/17 3/3/3 10/10/10
f 15/24/15 18/25/18 10/10/10 8/8/8
f 16/16/16 21/26/21 19/19/19
f 14/14/14 13/13/13 21/26/21 16/16/16
f 18/18/18 15/15/15 16/16/16 19/19/19
f 12/12/12 17/17/17 20/20/20 13/13/13
f 13/13/13 20/20/20 19/19/19 21/26/21
