# Blender v2.81 (sub 16) OBJ File: 'Fresh Nebula Assets.blend'
# www.blender.org
mtllib elephant_grass.mtl
o elephant_grass_Plane.029
v -0.008386 -0.000524 -0.003630
v 0.006614 -0.000524 -0.003630
v 0.006614 0.040568 -0.003630
v -0.008386 0.040568 -0.003630
v -0.002729 -0.000524 -0.010900
v 0.000957 -0.000524 0.003640
v 0.000957 0.040568 0.003640
v -0.002729 0.040568 -0.010900
v -0.005681 -0.000524 0.010900
v -0.009354 -0.000524 -0.003644
v -0.009354 0.034788 -0.003644
v -0.005681 0.034788 0.010900
v -0.014115 -0.000524 0.007195
v -0.000920 -0.000524 0.000061
v -0.000920 0.034788 0.000061
v -0.014115 0.034788 0.007195
v 0.004969 -0.000524 -0.002799
v 0.012699 -0.000524 0.010055
v 0.012699 0.038326 0.010055
v 0.004969 0.038326 -0.002799
v 0.014115 -0.000524 -0.001698
v 0.003554 -0.000524 0.008954
v 0.003554 0.038326 0.008954
v 0.014115 0.038326 -0.001698
vt 0.060582 0.010851
vt 1.002977 0.010851
vt 1.002977 0.937992
vt 0.060582 0.937992
vt 0.060582 0.010851
vt 1.002977 0.010851
vt 1.002977 0.937992
vt 0.060582 0.937992
vt 0.060582 0.010851
vt 1.002977 0.010851
vt 1.002977 0.937992
vt 0.060582 0.937992
vt 0.060582 0.010851
vt 1.002977 0.010851
vt 1.002977 0.937992
vt 0.060582 0.937992
vt 0.060582 0.010851
vt 1.002977 0.010851
vt 1.002977 0.937992
vt 0.060582 0.937992
vt 0.060582 0.010851
vt 1.002977 0.010851
vt 1.002977 0.937992
vt 0.060582 0.937992
vn 0.0000 -0.0000 1.0000
vn -0.9693 -0.0000 0.2457
vn 0.9696 -0.0000 -0.2449
vn 0.4756 -0.0000 0.8797
vn -0.8570 -0.0000 0.5154
vn -0.7101 0.0000 -0.7041
usemtl Material.006
s 1
f 1/1/1 2/2/1 3/3/1 4/4/1
f 5/5/2 6/6/2 7/7/2 8/8/2
f 9/9/3 10/10/3 11/11/3 12/12/3
f 13/13/4 14/14/4 15/15/4 16/16/4
f 17/17/5 18/18/5 19/19/5 20/20/5
f 21/21/6 22/22/6 23/23/6 24/24/6
