# Blender v2.79 (sub 0) OBJ File: ''
# www.blender.org
mtllib bush.mtl
o bush.010_bush_Cube.001
v -0.516064 0.045835 -0.418241
v -0.525227 0.045852 -0.425901
v -0.521128 0.060846 -0.430564
v -0.512153 0.060175 -0.421758
v -0.534730 0.052373 -0.427333
v -0.533832 0.062520 -0.431240
v -0.531955 0.072935 -0.428592
v -0.521046 0.076838 -0.427798
v -0.512081 0.075352 -0.420048
v -0.530141 0.083054 -0.415880
v -0.520402 0.080498 -0.408319
v -0.539611 0.076758 -0.421825
v -0.544156 0.075599 -0.411975
v -0.539433 0.080852 -0.402758
v -0.529596 0.079176 -0.396194
v -0.544460 0.065940 -0.398789
v -0.533507 0.064836 -0.392678
v -0.548792 0.065786 -0.410867
v -0.546931 0.055037 -0.410717
v -0.543614 0.049866 -0.400861
v -0.533580 0.049659 -0.394387
v -0.535447 0.043733 -0.413473
v -0.525258 0.044513 -0.406116
v -0.543014 0.051547 -0.420282
v -0.545200 0.064499 -0.423963
vt 0.713309 0.012961
vt 0.707539 0.427691
vt 0.674801 0.447920
vt 0.687901 0.012961
vt 0.372872 0.427691
vt 0.413824 0.738223
vt 0.395562 0.819800
vt 0.340135 0.447920
vt 0.413824 0.738223
vt 0.372872 0.427691
vt 0.707539 0.427691
vt 0.713309 0.012961
vt 0.829254 0.447920
vt 0.829254 0.012961
vt 0.494587 0.819800
vt 0.494587 0.447920
vt 0.575350 0.738223
vt 0.616301 0.427691
vt 0.950968 0.427691
vt 0.945198 0.012961
vt 0.983706 0.447920
vt 0.970605 0.012961
vt 0.593612 0.819800
vt 0.649039 0.447920
vt 0.575350 0.738223
vt 0.616301 0.427691
vt 0.950968 0.427691
vt 0.945198 0.012961
vt 0.829254 0.447920
vt 0.829254 0.012961
vt 0.494587 0.819800
vt 0.494587 0.447920
vt 0.494587 0.989496
vn 0.4148 -0.7929 -0.4463
vn 0.1282 -0.7525 -0.6460
vn 0.3687 -0.1063 -0.9234
vn 0.6686 -0.1350 -0.7313
vn -0.3545 -0.4954 -0.7930
vn -0.2815 -0.0207 -0.9593
vn -0.2239 0.4727 -0.8523
vn 0.3119 0.6089 -0.7294
vn 0.6022 0.5958 -0.5314
vn -0.0704 0.9756 -0.2081
vn 0.2177 0.9760 0.0034
vn -0.5556 0.6544 -0.5129
vn -0.7984 0.5981 -0.0700
vn -0.4959 0.7852 0.3707
vn -0.2218 0.7757 0.5909
vn -0.7680 0.1419 0.6246
vn -0.4987 0.1199 0.8584
vn -0.9909 0.1341 0.0068
vn -0.9290 -0.3700 -0.0107
vn -0.6796 -0.5761 0.4541
vn -0.4092 -0.6130 0.6759
vn -0.3289 -0.9400 -0.0908
vn -0.0478 -0.9912 0.1238
vn -0.7169 -0.5410 -0.4397
vn -0.7985 0.0712 -0.5978
usemtl bush.001
s 1
f 1/1/1 2/2/2 3/3/3 4/4/4
f 2/5/2 5/6/5 6/7/6 3/8/3
f 3/8/3 6/7/6 7/9/7 8/10/8
f 4/4/4 3/3/3 8/11/8 9/12/9
f 9/12/9 8/11/8 10/13/10 11/14/11
f 8/10/8 7/9/7 12/15/12 10/16/10
f 10/16/10 12/15/12 13/17/13 14/18/14
f 11/14/11 10/13/10 14/19/14 15/20/15
f 15/20/15 14/19/14 16/21/16 17/22/17
f 14/18/14 13/17/13 18/23/18 16/24/16
f 16/24/16 18/23/18 19/25/19 20/26/20
f 17/22/17 16/21/16 20/27/20 21/28/21
f 21/28/21 20/27/20 22/29/22 23/30/23
f 20/26/20 19/25/19 24/31/24 22/32/22
f 22/32/22 24/31/24 5/6/5 2/5/2
f 23/30/23 22/29/22 2/2/2 1/1/1
f 13/17/13 12/15/12 25/33/25 18/23/18
f 12/15/12 7/9/7 6/7/6 25/33/25
f 25/33/25 6/7/6 5/6/5 24/31/24
f 18/23/18 25/33/25 24/31/24 19/25/19
o bush.009_bush_Cube.001
v -0.460246 -0.098910 -0.473105
v -0.467924 -0.100127 -0.482172
v -0.470986 -0.084201 -0.481541
v -0.463236 -0.084006 -0.471619
v -0.479269 -0.098136 -0.483658
v -0.482958 -0.087890 -0.484322
v -0.486275 -0.079242 -0.478558
v -0.478482 -0.071654 -0.474487
v -0.470304 -0.071787 -0.465784
v -0.490079 -0.074300 -0.463446
v -0.480710 -0.074944 -0.455059
v -0.495200 -0.081542 -0.472720
v -0.499238 -0.087780 -0.464733
v -0.498017 -0.084521 -0.453653
v -0.488913 -0.084044 -0.445938
v -0.495776 -0.100529 -0.455104
v -0.485923 -0.098949 -0.447424
v -0.498852 -0.098359 -0.467371
v -0.492232 -0.106674 -0.469833
v -0.487460 -0.112994 -0.461338
v -0.478856 -0.111168 -0.453259
v -0.476682 -0.110431 -0.473198
v -0.468449 -0.108010 -0.463984
v -0.486610 -0.104707 -0.478973
v -0.494338 -0.093471 -0.479280
vt 0.713309 0.012961
vt 0.707539 0.427691
vt 0.674801 0.447920
vt 0.687901 0.012961
vt 0.372872 0.427691
vt 0.413824 0.738223
vt 0.395562 0.819800
vt 0.340135 0.447920
vt 0.413824 0.738223
vt 0.372872 0.427691
vt 0.707539 0.427691
vt 0.713309 0.012961
vt 0.829254 0.447920
vt 0.829254 0.012961
vt 0.494587 0.819800
vt 0.494587 0.447920
vt 0.575350 0.738223
vt 0.616301 0.427691
vt 0.950968 0.427691
vt 0.945198 0.012961
vt 0.983706 0.447920
vt 0.970605 0.012961
vt 0.593612 0.819800
vt 0.649039 0.447920
vt 0.575350 0.738223
vt 0.616301 0.427691
vt 0.950968 0.427691
vt 0.945198 0.012961
vt 0.829254 0.447920
vt 0.829254 0.012961
vt 0.494587 0.819800
vt 0.494587 0.447920
vt 0.494587 0.989496
vn 0.7596 -0.3411 -0.5538
vn 0.4986 -0.3592 -0.7889
vn 0.4275 0.3799 -0.8203
vn 0.6951 0.4160 -0.5863
vn -0.0391 -0.2951 -0.9547
vn -0.1851 0.1915 -0.9639
vn -0.3689 0.5944 -0.7146
vn 0.0348 0.8917 -0.4513
vn 0.2864 0.9349 -0.2094
vn -0.5027 0.8623 0.0612
vn -0.2601 0.9114 0.3190
vn -0.7656 0.4926 -0.4137
vn -0.9792 0.1924 -0.0637
vn -0.8235 0.3264 0.4640
vn -0.5891 0.3583 0.7243
vn -0.7802 -0.4155 0.4677
vn -0.5451 -0.4009 0.7363
vn -0.9388 -0.3049 -0.1601
vn -0.6494 -0.6971 -0.3038
vn -0.3596 -0.9245 0.1264
vn -0.1159 -0.9177 0.3799
vn 0.1500 -0.8979 -0.4139
vn 0.4102 -0.8962 -0.1689
vn -0.3583 -0.6060 -0.7102
vn -0.7053 -0.0712 -0.7053
usemtl bush.001
s 1
f 26/34/26 27/35/27 28/36/28 29/37/29
f 27/38/27 30/39/30 31/40/31 28/41/28
f 28/41/28 31/40/31 32/42/32 33/43/33
f 29/37/29 28/36/28 33/44/33 34/45/34
f 34/45/34 33/44/33 35/46/35 36/47/36
f 33/43/33 32/42/32 37/48/37 35/49/35
f 35/49/35 37/48/37 38/50/38 39/51/39
f 36/47/36 35/46/35 39/52/39 40/53/40
f 40/53/40 39/52/39 41/54/41 42/55/42
f 39/51/39 38/50/38 43/56/43 41/57/41
f 41/57/41 43/56/43 44/58/44 45/59/45
f 42/55/42 41/54/41 45/60/45 46/61/46
f 46/61/46 45/60/45 47/62/47 48/63/48
f 45/59/45 44/58/44 49/64/49 47/65/47
f 47/65/47 49/64/49 30/39/30 27/38/27
f 48/63/48 47/62/47 27/35/27 26/34/26
f 38/50/38 37/48/37 50/66/50 43/56/43
f 37/48/37 32/42/32 31/40/31 50/66/50
f 50/66/50 31/40/31 30/39/30 49/64/49
f 43/56/43 50/66/50 49/64/49 44/58/44
o bush.008_bush_Cube.001
v -0.540057 -0.263659 -0.288021
v -0.549563 -0.268788 -0.293118
v -0.545153 -0.262461 -0.307398
v -0.535806 -0.256908 -0.301046
v -0.558883 -0.264931 -0.298874
v -0.557808 -0.261097 -0.309031
v -0.555438 -0.252281 -0.315003
v -0.544371 -0.249724 -0.317424
v -0.535111 -0.245498 -0.311176
v -0.552670 -0.236199 -0.314018
v -0.542685 -0.232874 -0.307105
v -0.562628 -0.244259 -0.313276
v -0.566745 -0.237466 -0.305798
v -0.561410 -0.227397 -0.303552
v -0.551343 -0.224229 -0.297961
v -0.566775 -0.234129 -0.289794
v -0.555593 -0.230980 -0.284936
v -0.571671 -0.242932 -0.297744
v -0.570189 -0.250116 -0.289669
v -0.566601 -0.246461 -0.279246
v -0.556288 -0.242390 -0.274806
v -0.559258 -0.260391 -0.283173
v -0.548714 -0.255014 -0.278877
v -0.566851 -0.259770 -0.293499
v -0.568744 -0.253712 -0.305574
vt 0.713309 0.012961
vt 0.707539 0.427691
vt 0.674801 0.447920
vt 0.687901 0.012961
vt 0.372872 0.427691
vt 0.413824 0.738223
vt 0.395562 0.819800
vt 0.340135 0.447920
vt 0.413824 0.738223
vt 0.372872 0.427691
vt 0.707539 0.427691
vt 0.713309 0.012961
vt 0.829254 0.447920
vt 0.829254 0.012961
vt 0.494587 0.819800
vt 0.494587 0.447920
vt 0.575350 0.738223
vt 0.616301 0.427691
vt 0.950968 0.427691
vt 0.945198 0.012961
vt 0.983706 0.447920
vt 0.970605 0.012961
vt 0.593612 0.819800
vt 0.649039 0.447920
vt 0.575350 0.738223
vt 0.616301 0.427691
vt 0.950968 0.427691
vt 0.945198 0.012961
vt 0.829254 0.447920
vt 0.829254 0.012961
vt 0.494587 0.819800
vt 0.494587 0.447920
vt 0.494587 0.989496
vn 0.3649 -0.8853 0.2881
vn 0.0708 -0.9895 0.1258
vn 0.3210 -0.7773 -0.5411
vn 0.6284 -0.6716 -0.3926
vn -0.4088 -0.8983 -0.1613
vn -0.3267 -0.7085 -0.6255
vn -0.2466 -0.3027 -0.9206
vn 0.2989 -0.1520 -0.9421
vn 0.5976 -0.0310 -0.8012
vn -0.0452 0.5021 -0.8636
vn 0.2523 0.6422 -0.7238
vn -0.5553 0.0899 -0.8268
vn -0.7789 0.3949 -0.4873
vn -0.4497 0.8289 -0.3327
vn -0.1660 0.9696 -0.1795
vn -0.7323 0.6030 0.3165
vn -0.4533 0.7458 0.4881
vn -0.9841 0.1529 -0.0903
vn -0.9411 -0.2008 0.2721
vn -0.6778 -0.0086 0.7352
vn -0.3987 0.1153 0.9098
vn -0.3661 -0.6764 0.6391
vn -0.0773 -0.5681 0.8194
vn -0.7556 -0.6456 0.1110
vn -0.8226 -0.3487 -0.4492
usemtl bush.001
s 1
f 51/67/51 52/68/52 53/69/53 54/70/54
f 52/71/52 55/72/55 56/73/56 53/74/53
f 53/74/53 56/73/56 57/75/57 58/76/58
f 54/70/54 53/69/53 58/77/58 59/78/59
f 59/78/59 58/77/58 60/79/60 61/80/61
f 58/76/58 57/75/57 62/81/62 60/82/60
f 60/82/60 62/81/62 63/83/63 64/84/64
f 61/80/61 60/79/60 64/85/64 65/86/65
f 65/86/65 64/85/64 66/87/66 67/88/67
f 64/84/64 63/83/63 68/89/68 66/90/66
f 66/90/66 68/89/68 69/91/69 70/92/70
f 67/88/67 66/87/66 70/93/70 71/94/71
f 71/94/71 70/93/70 72/95/72 73/96/73
f 70/92/70 69/91/69 74/97/74 72/98/72
f 72/98/72 74/97/74 55/72/55 52/71/52
f 73/96/73 72/95/72 52/68/52 51/67/51
f 63/83/63 62/81/62 75/99/75 68/89/68
f 62/81/62 57/75/57 56/73/56 75/99/75
f 75/99/75 56/73/56 55/72/55 74/97/74
f 68/89/68 75/99/75 74/97/74 69/91/69
o bush.007_bush_Cube.001
v -0.622473 -0.152031 -0.185141
v -0.633726 -0.154585 -0.188219
v -0.628539 -0.168194 -0.195379
v -0.616954 -0.164348 -0.192291
v -0.639325 -0.156251 -0.198257
v -0.637631 -0.165380 -0.203986
v -0.631205 -0.170170 -0.211387
v -0.621489 -0.175559 -0.208006
v -0.610815 -0.172012 -0.203991
v -0.618892 -0.167355 -0.221766
v -0.608125 -0.163580 -0.216439
v -0.631446 -0.164842 -0.220904
v -0.629236 -0.155374 -0.225853
v -0.618522 -0.153262 -0.229806
v -0.607988 -0.150771 -0.224758
v -0.624773 -0.139900 -0.223043
v -0.613508 -0.138454 -0.217608
v -0.635217 -0.147238 -0.221723
v -0.637356 -0.141456 -0.212723
v -0.630759 -0.132288 -0.210019
v -0.619646 -0.130790 -0.205908
v -0.634421 -0.140739 -0.196656
v -0.622336 -0.139222 -0.193460
v -0.641402 -0.147776 -0.204805
v -0.640881 -0.157341 -0.214517
vt 0.713309 0.012961
vt 0.707539 0.427691
vt 0.674801 0.447920
vt 0.687901 0.012961
vt 0.372872 0.427691
vt 0.413824 0.738223
vt 0.395562 0.819800
vt 0.340135 0.447920
vt 0.413824 0.738223
vt 0.372872 0.427691
vt 0.707539 0.427691
vt 0.713309 0.012961
vt 0.829254 0.447920
vt 0.829254 0.012961
vt 0.494587 0.819800
vt 0.494587 0.447920
vt 0.575350 0.738223
vt 0.616301 0.427691
vt 0.950968 0.427691
vt 0.945198 0.012961
vt 0.983706 0.447920
vt 0.970605 0.012961
vt 0.593612 0.819800
vt 0.649039 0.447920
vt 0.575350 0.738223
vt 0.616301 0.427691
vt 0.950968 0.427691
vt 0.945198 0.012961
vt 0.829254 0.447920
vt 0.829254 0.012961
vt 0.494587 0.819800
vt 0.494587 0.447920
vt 0.494587 0.989496
vn -0.2300 -0.0040 0.9732
vn -0.5449 -0.0779 0.8349
vn -0.3206 -0.7422 0.5885
vn 0.0032 -0.6852 0.7283
vn -0.8985 -0.1737 0.4031
vn -0.7868 -0.5991 0.1484
vn -0.5162 -0.8290 -0.2151
vn -0.0072 -0.9994 -0.0344
vn 0.3184 -0.9440 0.0864
vn 0.1494 -0.7013 -0.6970
vn 0.4859 -0.6432 -0.5918
vn -0.4935 -0.5736 -0.6538
vn -0.4235 -0.1324 -0.8962
vn 0.1231 -0.0198 -0.9922
vn 0.4514 0.0553 -0.8906
vn -0.1372 0.6362 -0.7592
vn 0.1916 0.7303 -0.6557
vn -0.6723 0.2612 -0.6927
vn -0.8058 0.5229 -0.2780
vn -0.4145 0.9017 -0.1229
vn -0.0970 0.9953 -0.0038
vn -0.6072 0.5953 0.5263
vn -0.2910 0.6884 0.6644
vn -0.9656 0.2357 0.1096
vn -0.9156 -0.2120 -0.3415
usemtl bush.001
s 1
f 76/100/76 77/101/77 78/102/78 79/103/79
f 77/104/77 80/105/80 81/106/81 78/107/78
f 78/107/78 81/106/81 82/108/82 83/109/83
f 79/103/79 78/102/78 83/110/83 84/111/84
f 84/111/84 83/110/83 85/112/85 86/113/86
f 83/109/83 82/108/82 87/114/87 85/115/85
f 85/115/85 87/114/87 88/116/88 89/117/89
f 86/113/86 85/112/85 89/118/89 90/119/90
f 90/119/90 89/118/89 91/120/91 92/121/92
f 89/117/89 88/116/88 93/122/93 91/123/91
f 91/123/91 93/122/93 94/124/94 95/125/95
f 92/121/92 91/120/91 95/126/95 96/127/96
f 96/127/96 95/126/95 97/128/97 98/129/98
f 95/125/95 94/124/94 99/130/99 97/131/97
f 97/131/97 99/130/99 80/105/80 77/104/77
f 98/129/98 97/128/97 77/101/77 76/100/76
f 88/116/88 87/114/87 100/132/100 93/122/93
f 87/114/87 82/108/82 81/106/81 100/132/100
f 100/132/100 81/106/81 80/105/80 99/130/99
f 93/122/93 100/132/100 99/130/99 94/124/94
o bush.006_bush_Cube.001
v -0.612188 -0.047025 -0.257850
v -0.623453 -0.046849 -0.261814
v -0.627466 -0.057763 -0.250493
v -0.615248 -0.057784 -0.247450
v -0.630739 -0.054745 -0.266223
v -0.635082 -0.062367 -0.259738
v -0.633499 -0.072189 -0.255262
v -0.627613 -0.073137 -0.245296
v -0.616150 -0.072068 -0.242115
v -0.623546 -0.085157 -0.255413
v -0.611660 -0.082854 -0.251953
v -0.632569 -0.079931 -0.262893
v -0.626638 -0.083395 -0.271369
v -0.617274 -0.090024 -0.269568
v -0.606301 -0.088154 -0.265238
v -0.614347 -0.079192 -0.281294
v -0.603241 -0.077395 -0.275638
v -0.626671 -0.076106 -0.279486
v -0.623878 -0.065951 -0.282330
v -0.613115 -0.063735 -0.286086
v -0.602339 -0.063112 -0.280973
v -0.618268 -0.051798 -0.276374
v -0.606830 -0.052325 -0.271135
v -0.629185 -0.058542 -0.276332
v -0.635426 -0.069583 -0.271309
vt 0.713309 0.012961
vt 0.707539 0.427691
vt 0.674801 0.447920
vt 0.687901 0.012961
vt 0.372872 0.427691
vt 0.413824 0.738223
vt 0.395562 0.819800
vt 0.340135 0.447920
vt 0.413824 0.738223
vt 0.372872 0.427691
vt 0.707539 0.427691
vt 0.713309 0.012961
vt 0.829254 0.447920
vt 0.829254 0.012961
vt 0.494587 0.819800
vt 0.494587 0.447920
vt 0.575350 0.738223
vt 0.616301 0.427691
vt 0.950968 0.427691
vt 0.945198 0.012961
vt 0.983706 0.447920
vt 0.970605 0.012961
vt 0.593612 0.819800
vt 0.649039 0.447920
vt 0.575350 0.738223
vt 0.616301 0.427691
vt 0.950968 0.427691
vt 0.945198 0.012961
vt 0.829254 0.447920
vt 0.829254 0.012961
vt 0.494587 0.819800
vt 0.494587 0.447920
vt 0.494587 0.989496
vn -0.0255 0.9761 0.2159
vn -0.3510 0.9320 0.0901
vn -0.5532 0.5042 0.6631
vn -0.2288 0.5436 0.8076
vn -0.7712 0.6231 -0.1305
vn -0.9441 0.2691 0.1905
vn -0.9011 -0.1982 0.3855
vn -0.5337 -0.2229 0.8158
vn -0.2119 -0.2021 0.9562
vn -0.3622 -0.8304 0.4234
vn -0.0326 -0.8269 0.5614
vn -0.8249 -0.5638 0.0409
vn -0.5781 -0.7258 -0.3728
vn -0.0795 -0.9648 -0.2506
vn 0.2514 -0.9589 -0.1316
vn 0.0860 -0.5398 -0.8374
vn 0.4276 -0.5285 -0.7334
vn -0.5452 -0.3825 -0.7460
vn -0.4482 0.0955 -0.8888
vn 0.1033 0.1901 -0.9763
vn 0.4378 0.2193 -0.8719
vn -0.1051 0.7948 -0.5977
vn 0.2315 0.8420 -0.4872
vn -0.6644 0.4504 -0.5964
vn -0.9346 -0.0712 -0.3486
usemtl bush.001
s 1
f 101/133/101 102/134/102 103/135/103 104/136/104
f 102/137/102 105/138/105 106/139/106 103/140/103
f 103/140/103 106/139/106 107/141/107 108/142/108
f 104/136/104 103/135/103 108/143/108 109/144/109
f 109/144/109 108/143/108 110/145/110 111/146/111
f 108/142/108 107/141/107 112/147/112 110/148/110
f 110/148/110 112/147/112 113/149/113 114/150/114
f 111/146/111 110/145/110 114/151/114 115/152/115
f 115/152/115 114/151/114 116/153/116 117/154/117
f 114/150/114 113/149/113 118/155/118 116/156/116
f 116/156/116 118/155/118 119/157/119 120/158/120
f 117/154/117 116/153/116 120/159/120 121/160/121
f 121/160/121 120/159/120 122/161/122 123/162/123
f 120/158/120 119/157/119 124/163/124 122/164/122
f 122/164/122 124/163/124 105/138/105 102/137/102
f 123/162/123 122/161/122 102/134/102 101/133/101
f 113/149/113 112/147/112 125/165/125 118/155/118
f 112/147/112 107/141/107 106/139/106 125/165/125
f 125/165/125 106/139/106 105/138/105 124/163/124
f 118/155/118 125/165/125 124/163/124 119/157/119
