# Blender v2.79 (sub 0) OBJ File: ''
# www.blender.org
mtllib ice_chunk.mtl
o ice_chunk.008_ice_chunk_Cube.001
v 0.180666 0.527856 -0.362332
v 0.220518 0.562913 -0.413519
v 0.186665 0.533400 -0.428965
v 0.153129 0.505672 -0.402581
v 0.186901 0.472845 -0.421447
v 0.205989 0.502006 -0.436421
v 0.232081 0.478304 -0.432099
v 0.226236 0.443667 -0.433128
v 0.236560 0.521441 -0.408822
v 0.220518 0.562913 -0.413519
v 0.241467 0.565569 -0.374440
v 0.263906 0.537412 -0.381460
v 0.266742 0.480043 -0.416658
v 0.292882 0.493504 -0.387087
v 0.254663 0.513722 -0.337991
v 0.263906 0.537412 -0.381460
v 0.241467 0.565569 -0.374440
v 0.215676 0.544603 -0.324184
v 0.232081 0.478304 -0.432099
v 0.205989 0.502006 -0.436421
v 0.186665 0.533400 -0.428965
v 0.215676 0.544603 -0.324184
v 0.241467 0.565569 -0.374440
v 0.153129 0.505672 -0.402581
v 0.186665 0.533400 -0.428965
v 0.292882 0.493504 -0.387087
v 0.299827 0.469277 -0.363839
v 0.266742 0.480043 -0.416658
v 0.292882 0.493504 -0.387087
v 0.299827 0.469277 -0.363839
v 0.268197 0.449215 -0.403911
v 0.232081 0.478304 -0.432099
v 0.226236 0.443667 -0.433128
vt 0.497530 0.239616
vt 0.497530 0.996798
vt 0.862410 0.656643
vt 0.960962 0.239616
vt 0.985499 0.239616
vt 0.891356 0.492335
vt 0.788365 0.334142
vt 0.924640 0.239616
vt 0.497530 0.596310
vt 0.497530 0.996798
vt 0.132650 0.767839
vt 0.132650 0.649486
vt 0.497530 0.384936
vt 0.132650 0.384936
vt 0.031240 0.239616
vt 0.132650 0.649486
vt 0.132650 0.767839
vt 0.021493 0.239616
vt 0.788365 0.334142
vt 0.891356 0.492335
vt 0.862410 0.656643
vt 0.021493 0.239616
vt 0.132650 0.767839
vt 0.960962 0.239616
vt 0.862410 0.656643
vt 0.132650 0.384936
vt 0.018731 0.239616
vt 0.497530 0.384936
vt 0.132650 0.384936
vt 0.018731 0.239616
vt 0.497530 0.239616
vt 0.788365 0.334142
vt 0.924640 0.239616
vn -0.5761 0.8137 0.0779
vn -0.5726 0.8158 0.0813
vn -0.6469 0.7626 0.0052
vn -0.3845 -0.1189 -0.9154
vn -0.4088 -0.1172 -0.9051
vn -0.2128 -0.1285 -0.9686
vn 0.5102 0.3786 -0.7722
vn 0.5651 0.3258 -0.7580
vn 0.6850 0.3989 -0.6097
vn 0.6026 0.4355 -0.6687
vn 0.4704 0.4407 -0.7645
vn 0.5105 0.4679 -0.7214
vn 0.7235 0.5201 0.4540
vn 0.7226 0.5203 0.4551
vn 0.6805 0.5294 0.5066
vn 0.4110 0.3995 -0.8194
vn 0.4129 0.3128 -0.8554
vn 0.4116 0.2331 -0.8811
vn -0.4999 0.8534 0.1478
vn -0.5413 -0.1057 -0.8341
vn 0.7690 0.5063 0.3901
vn 0.6620 -0.2145 -0.7181
vn 0.8007 -0.2374 -0.5500
vn 0.6750 -0.2168 -0.7052
vn 0.5079 -0.1847 -0.8414
usemtl ice_chunk.001
s 1
f 1/1/1 2/2/2 3/3/3 4/4/3
f 5/5/4 6/6/5 7/7/6 8/8/6
f 9/9/7 10/10/8 11/11/9 12/12/10
f 13/13/11 9/9/7 12/12/10 14/14/12
f 15/15/13 16/16/14 17/17/15 18/18/15
f 19/19/16 20/20/17 9/9/7 13/13/11
f 20/20/17 21/21/18 10/10/8 9/9/7
f 22/22/19 23/23/19 2/2/2 1/1/1
f 24/24/20 25/25/20 6/6/5 5/5/4
f 26/26/21 16/16/14 15/15/13 27/27/21
f 28/28/22 29/29/23 30/30/23 31/31/24
f 32/32/25 28/28/22 31/31/24 33/33/25
o ice_chunk.007_ice_chunk_Cube.001
v -0.269923 0.436963 -0.416701
v -0.299595 0.500824 -0.438576
v -0.252190 0.498488 -0.436869
v -0.221940 0.459447 -0.424606
v -0.219257 0.492130 -0.385893
v -0.244434 0.514280 -0.403627
v -0.250516 0.522878 -0.369710
v -0.225413 0.521106 -0.345181
v -0.288138 0.504382 -0.395501
v -0.299595 0.500824 -0.438576
v -0.330864 0.476303 -0.418727
v -0.327407 0.493175 -0.386339
v -0.282003 0.525671 -0.348648
v -0.319764 0.511954 -0.337471
v -0.323275 0.450567 -0.359813
v -0.327407 0.493175 -0.386339
v -0.330864 0.476303 -0.418727
v -0.319184 0.419878 -0.401113
v -0.250516 0.522878 -0.369710
v -0.244434 0.514280 -0.403627
v -0.252190 0.498488 -0.436869
v -0.319184 0.419878 -0.401113
v -0.330864 0.476303 -0.418727
v -0.221940 0.459447 -0.424606
v -0.252190 0.498488 -0.436869
v -0.319764 0.511954 -0.337471
v -0.319129 0.494821 -0.307778
v -0.282003 0.525671 -0.348648
v -0.319764 0.511954 -0.337471
v -0.319129 0.494821 -0.307778
v -0.269569 0.515207 -0.319477
v -0.250516 0.522878 -0.369710
v -0.225413 0.521106 -0.345181
vt 0.497530 0.239616
vt 0.497530 0.996798
vt 0.862410 0.656643
vt 0.960962 0.239616
vt 0.985499 0.239616
vt 0.891356 0.492335
vt 0.788365 0.334142
vt 0.924640 0.239616
vt 0.497530 0.596310
vt 0.497530 0.996798
vt 0.132650 0.767839
vt 0.132650 0.649486
vt 0.497530 0.384936
vt 0.132650 0.384936
vt 0.031240 0.239616
vt 0.132650 0.649486
vt 0.132650 0.767839
vt 0.021493 0.239616
vt 0.788365 0.334142
vt 0.891356 0.492335
vt 0.862410 0.656643
vt 0.021493 0.239616
vt 0.132650 0.767839
vt 0.960962 0.239616
vt 0.862410 0.656643
vt 0.132650 0.384936
vt 0.018731 0.239616
vt 0.497530 0.384936
vt 0.132650 0.384936
vt 0.018731 0.239616
vt 0.497530 0.239616
vt 0.788365 0.334142
vt 0.924640 0.239616
vn -0.1039 -0.3433 -0.9335
vn -0.1088 -0.3446 -0.9324
vn 0.0043 -0.3126 -0.9499
vn 0.6908 0.6249 -0.3639
vn 0.7030 0.6042 -0.3750
vn 0.5949 0.7529 -0.2815
vn -0.2938 0.9208 -0.2566
vn -0.3069 0.9343 -0.1815
vn -0.4915 0.8602 -0.1357
vn -0.4324 0.8732 -0.2249
vn -0.3054 0.8950 -0.3252
vn -0.3663 0.8759 -0.3139
vn -0.9944 -0.0589 0.0875
vn -0.9944 -0.0603 0.0872
vn -0.9894 -0.1256 0.0726
vn -0.2179 0.9154 -0.3386
vn -0.1542 0.9481 -0.2780
vn -0.0962 0.9703 -0.2218
vn -0.2080 -0.3689 -0.9059
vn 0.7634 0.4790 -0.4334
vn -0.9944 0.0189 0.1044
vn -0.0699 0.9464 0.3152
vn -0.2186 0.8640 0.4536
vn -0.0827 0.9412 0.3276
vn 0.0684 0.9820 0.1759
usemtl ice_chunk.001
s 1
f 34/34/26 35/35/27 36/36/28 37/37/28
f 38/38/29 39/39/30 40/40/31 41/41/31
f 42/42/32 43/43/33 44/44/34 45/45/35
f 46/46/36 42/42/32 45/45/35 47/47/37
f 48/48/38 49/49/39 50/50/40 51/51/40
f 52/52/41 53/53/42 42/42/32 46/46/36
f 53/53/42 54/54/43 43/43/33 42/42/32
f 55/55/44 56/56/44 35/35/27 34/34/26
f 57/57/45 58/58/45 39/39/30 38/38/29
f 59/59/46 49/49/39 48/48/38 60/60/46
f 61/61/47 62/62/48 63/63/48 64/64/49
f 65/65/50 61/61/47 64/64/49 66/66/50
o ice_chunk.006_ice_chunk_Cube.001
v -0.005175 0.589974 -0.313754
v 0.002580 0.632435 -0.373538
v -0.039148 0.610463 -0.367908
v -0.055262 0.580367 -0.330169
v -0.047491 0.550055 -0.370106
v -0.035418 0.580127 -0.389826
v -0.017771 0.553877 -0.405974
v -0.030347 0.521100 -0.407558
v 0.008866 0.589776 -0.385373
v 0.002580 0.632435 -0.373538
v 0.042678 0.623989 -0.356397
v 0.049772 0.596410 -0.379521
v 0.018608 0.548892 -0.415700
v 0.059362 0.552684 -0.407720
v 0.063501 0.564080 -0.343432
v 0.049772 0.596410 -0.379521
v 0.042678 0.623989 -0.356397
v 0.048262 0.594154 -0.304348
v -0.017771 0.553877 -0.405974
v -0.035418 0.580127 -0.389826
v -0.039148 0.610463 -0.367908
v 0.048262 0.594154 -0.304348
v 0.042678 0.623989 -0.356397
v -0.055262 0.580367 -0.330169
v -0.039148 0.610463 -0.367908
v 0.059362 0.552684 -0.407720
v 0.073406 0.523161 -0.397384
v 0.018608 0.548892 -0.415700
v 0.059362 0.552684 -0.407720
v 0.073406 0.523161 -0.397384
v 0.020719 0.515927 -0.410817
v -0.017771 0.553877 -0.405974
v -0.030347 0.521100 -0.407558
vt 0.497530 0.239616
vt 0.497530 0.996798
vt 0.862410 0.656643
vt 0.960962 0.239616
vt 0.985499 0.239616
vt 0.891356 0.492335
vt 0.788365 0.334142
vt 0.924640 0.239616
vt 0.497530 0.596310
vt 0.497530 0.996798
vt 0.132650 0.767839
vt 0.132650 0.649486
vt 0.497530 0.384936
vt 0.132650 0.384936
vt 0.031240 0.239616
vt 0.132650 0.649486
vt 0.132650 0.767839
vt 0.021493 0.239616
vt 0.788365 0.334142
vt 0.891356 0.492335
vt 0.862410 0.656643
vt 0.021493 0.239616
vt 0.132650 0.767839
vt 0.960962 0.239616
vt 0.862410 0.656643
vt 0.132650 0.384936
vt 0.018731 0.239616
vt 0.497530 0.384936
vt 0.132650 0.384936
vt 0.018731 0.239616
vt 0.497530 0.239616
vt 0.788365 0.334142
vt 0.924640 0.239616
vn -0.2237 0.8199 0.5269
vn -0.2186 0.8209 0.5276
vn -0.3328 0.7938 0.5091
vn -0.8694 0.1336 -0.4757
vn -0.8816 0.1350 -0.4522
vn -0.7706 0.1217 -0.6256
vn 0.0143 0.5031 -0.8641
vn 0.0540 0.4438 -0.8945
vn 0.2508 0.4692 -0.8467
vn 0.1598 0.5257 -0.8355
vn 0.0015 0.5649 -0.8252
vn 0.0641 0.5776 -0.8138
vn 0.9420 0.3334 -0.0396
vn 0.9420 0.3334 -0.0382
vn 0.9422 0.3337 0.0290
vn -0.0860 0.5431 -0.8352
vn -0.1246 0.4675 -0.8752
vn -0.1581 0.3965 -0.9043
vn -0.1145 0.8353 0.5378
vn -0.9392 0.1411 -0.3130
vn 0.9361 0.3310 -0.1190
vn 0.0365 -0.0971 -0.9946
vn 0.2392 -0.1709 -0.9558
vn 0.0538 -0.1036 -0.9932
vn -0.1498 -0.0258 -0.9884
usemtl ice_chunk.001
s 1
f 67/67/51 68/68/52 69/69/53 70/70/53
f 71/71/54 72/72/55 73/73/56 74/74/56
f 75/75/57 76/76/58 77/77/59 78/78/60
f 79/79/61 75/75/57 78/78/60 80/80/62
f 81/81/63 82/82/64 83/83/65 84/84/65
f 85/85/66 86/86/67 75/75/57 79/79/61
f 86/86/67 87/87/68 76/76/58 75/75/57
f 88/88/69 89/89/69 68/68/52 67/67/51
f 90/90/70 91/91/70 72/72/55 71/71/54
f 92/92/71 82/82/64 81/81/63 93/93/71
f 94/94/72 95/95/73 96/96/73 97/97/74
f 98/98/75 94/94/72 97/97/74 99/99/75
o ice_chunk.005_ice_chunk_Cube.001
v -0.396205 0.492518 -0.204018
v -0.426931 0.559458 -0.200526
v -0.383509 0.556581 -0.219551
v -0.354229 0.515791 -0.227825
v -0.332952 0.540883 -0.189201
v -0.361315 0.566028 -0.190693
v -0.351956 0.568357 -0.156514
v -0.319145 0.562017 -0.145639
v -0.398291 0.555067 -0.166471
v -0.426931 0.559458 -0.200526
v -0.448963 0.531917 -0.173525
v -0.430927 0.542606 -0.143424
v -0.371430 0.567456 -0.123913
v -0.402067 0.552153 -0.100121
v -0.419624 0.495865 -0.128466
v -0.430927 0.542606 -0.143424
v -0.448963 0.531917 -0.173525
v -0.435686 0.473166 -0.171952
v -0.351956 0.568357 -0.156514
v -0.361315 0.566028 -0.190693
v -0.383509 0.556581 -0.219551
v -0.435686 0.473166 -0.171952
v -0.448963 0.531917 -0.173525
v -0.354229 0.515791 -0.227825
v -0.383509 0.556581 -0.219551
v -0.402067 0.552153 -0.100121
v -0.390509 0.529907 -0.076729
v -0.371430 0.567456 -0.123913
v -0.402067 0.552153 -0.100121
v -0.390509 0.529907 -0.076729
v -0.348863 0.551798 -0.104925
v -0.351956 0.568357 -0.156514
v -0.319145 0.562017 -0.145639
vt 0.497530 0.239616
vt 0.497530 0.996798
vt 0.862410 0.656643
vt 0.960962 0.239616
vt 0.985499 0.239616
vt 0.891356 0.492335
vt 0.788365 0.334142
vt 0.924640 0.239616
vt 0.497530 0.596310
vt 0.497530 0.996798
vt 0.132650 0.767839
vt 0.132650 0.649486
vt 0.497530 0.384936
vt 0.132650 0.384936
vt 0.031240 0.239616
vt 0.132650 0.649486
vt 0.132650 0.767839
vt 0.021493 0.239616
vt 0.788365 0.334142
vt 0.891356 0.492335
vt 0.862410 0.656643
vt 0.021493 0.239616
vt 0.132650 0.767839
vt 0.960962 0.239616
vt 0.862410 0.656643
vt 0.132650 0.384936
vt 0.018731 0.239616
vt 0.497530 0.384936
vt 0.132650 0.384936
vt 0.018731 0.239616
vt 0.497530 0.239616
vt 0.788365 0.334142
vt 0.924640 0.239616
vn -0.5119 -0.1674 -0.8426
vn -0.5161 -0.1689 -0.8397
vn -0.4183 -0.1349 -0.8982
vn 0.5247 0.6766 -0.5166
vn 0.5295 0.6583 -0.5351
vn 0.4828 0.7881 -0.3817
vn -0.2972 0.9537 0.0457
vn -0.2765 0.9534 0.1203
vn -0.4307 0.8733 0.2276
vn -0.4133 0.9019 0.1252
vn -0.3384 0.9409 -0.0146
vn -0.3904 0.9205 0.0182
vn -0.8683 -0.0682 0.4914
vn -0.8684 -0.0695 0.4909
vn -0.8755 -0.1311 0.4652
vn -0.2632 0.9629 -0.0605
vn -0.1775 0.9837 -0.0283
vn -0.0997 0.9950 0.0006
vn -0.5967 -0.1970 -0.7779
vn 0.5494 0.5454 -0.6330
vn -0.8548 0.0053 0.5190
vn 0.1462 0.8738 0.4637
vn 0.0626 0.7684 0.6368
vn 0.1393 0.8665 0.4793
vn 0.2162 0.9333 0.2866
usemtl ice_chunk.001
s 1
f 100/100/76 101/101/77 102/102/78 103/103/78
f 104/104/79 105/105/80 106/106/81 107/107/81
f 108/108/82 109/109/83 110/110/84 111/111/85
f 112/112/86 108/108/82 111/111/85 113/113/87
f 114/114/88 115/115/89 116/116/90 117/117/90
f 118/118/91 119/119/92 108/108/82 112/112/86
f 119/119/92 120/120/93 109/109/83 108/108/82
f 121/121/94 122/122/94 101/101/77 100/100/76
f 123/123/95 124/124/95 105/105/80 104/104/79
f 125/125/96 115/115/89 114/114/88 126/126/96
f 127/127/97 128/128/98 129/129/98 130/130/99
f 131/131/100 127/127/97 130/130/99 132/132/100
