# Blender v2.79 (sub 0) OBJ File: 'mainmenu.blend'
# www.blender.org
mtllib volcano_2.mtl
o volcano_2.003_volcano_2_volcano_2_Cube.002
v -0.636718 0.157596 0.116643
v -0.660255 0.168764 0.171572
v -0.650687 0.226054 0.213984
v -0.614939 0.246823 0.119634
v -0.577806 0.282633 0.196956
v -0.626099 0.231390 0.276595
v -0.543984 0.276041 0.291729
v -0.542425 0.198110 0.344297
v -0.642524 0.175972 0.302347
v -0.569154 0.103646 0.331284
v -0.610493 0.058748 0.248326
v -0.656099 0.109108 0.215096
v -0.640283 0.073235 0.159463
v -0.712456 0.182493 0.237776
v -0.709652 0.208513 0.250530
v -0.698642 0.210440 0.277726
v -0.694976 0.180020 0.284745
v -0.702746 0.157946 0.253932
v -0.705384 0.201319 0.273441
v -0.712379 0.200223 0.256484
v -0.679868 0.209367 0.238511
v -0.666553 0.211986 0.272610
v -0.700610 0.181185 0.276702
v -0.665685 0.175732 0.279782
v -0.713247 0.183643 0.249073
v -0.705808 0.169091 0.258468
v -0.683840 0.151475 0.249313
v -0.689918 0.178778 0.227040
v -0.677055 0.181610 0.255438
vt 0.696566 0.065097
vt 0.747114 0.369499
vt 0.807245 0.496967
vt 0.725608 0.065097
vt 0.831479 0.065097
vt 0.886254 0.496967
vt 0.946907 0.065097
vt 0.989839 0.065097
vt 0.896555 0.583143
vt 0.946907 0.065097
vt 0.831479 0.065097
vt 0.786599 0.334796
vt 0.725608 0.065097
vt 0.797547 0.892426
vt 0.817193 0.944531
vt 0.851587 0.941796
vt 0.855214 0.888939
vt 0.814713 0.831241
vt 0.309680 0.912876
vt 0.262750 0.921166
vt 0.255660 0.182701
vt 0.349472 0.182886
vt 0.313947 0.749253
vt 0.352738 0.051755
vt 0.237969 0.807002
vt 0.261398 0.661575
vt 0.254177 0.075115
vt 0.206939 0.156594
vt 0.809525 0.926854
vt 0.820869 0.964307
vt 0.842352 0.961588
vt 0.844305 0.907908
vt 0.820250 0.879144
vt 0.287037 0.124423
vn -0.9466 0.0799 -0.3125
vn -0.9074 0.0494 -0.4174
vn -0.6370 0.7471 -0.1897
vn -0.8164 0.5296 -0.2301
vn -0.5759 0.8122 0.0932
vn -0.4304 0.7364 0.5221
vn -0.5011 0.6863 0.5271
vn -0.4195 0.2923 0.8594
vn -0.4676 -0.0604 0.8819
vn -0.6075 -0.2653 0.7487
vn -0.7571 -0.4962 0.4249
vn -0.8519 -0.5157 0.0909
vn -0.9313 -0.3477 -0.1083
vn -0.9085 -0.0000 -0.4178
vn -0.7256 0.6694 -0.1596
vn -0.4997 0.6549 0.5670
vn -0.4787 -0.2264 0.8483
vn -0.7301 -0.6598 0.1778
vn -0.9191 -0.3539 0.1733
vn -0.7950 -0.3570 0.4903
vn -0.3247 -0.6717 0.6659
vn -0.6371 -0.6760 -0.3702
vn -0.9794 0.0084 -0.2017
vn -0.6961 0.3793 -0.6095
vn -0.6690 -0.1263 0.7325
vn -0.8134 0.3767 0.4433
vn -0.2272 0.9504 0.2124
vn -0.0628 0.1913 0.9795
vn -0.9061 0.1145 0.4072
usemtl Volcano.003
s 1
f 1/1/1 2/2/2 3/3/3 4/4/4
f 5/5/5 3/3/3 6/6/6 7/7/7
f 8/8/8 9/9/9 10/10/10
f 11/11/11 12/12/12 13/13/13
f 3/3/3 2/2/2 14/14/14 15/15/15
f 9/9/9 6/6/6 16/16/16 17/17/17
f 13/13/13 12/12/12 2/2/2 1/1/1
f 7/7/7 6/6/6 9/9/9 8/8/8
f 12/12/12 9/9/9 17/17/17 18/18/18
f 10/10/10 9/9/9 12/12/12 11/11/11
f 4/4/4 3/3/3 5/5/5
f 19/19/19 20/20/20 21/21/21 22/22/22
f 23/23/23 19/19/19 22/22/22 24/24/24
f 25/25/25 26/26/26 27/27/27 28/28/28
f 6/6/6 3/3/3 15/15/15 16/16/16
f 2/2/2 12/12/12 18/18/18 14/14/14
f 25/29/25 20/30/20 15/15/15 14/14/14
f 20/30/20 19/31/19 16/16/16 15/15/15
f 19/31/19 23/32/23 17/17/17 16/16/16
f 26/33/26 25/29/25 14/14/14 18/18/18
f 23/32/23 26/33/26 18/18/18 17/17/17
f 24/24/24 29/34/29 27/27/27
f 22/22/22 21/21/21 29/34/29 24/24/24
f 26/26/26 23/23/23 24/24/24 27/27/27
f 20/20/20 25/25/25 28/28/28 21/21/21
f 21/21/21 28/28/28 27/27/27 29/34/29
o volcano_2.002_volcano_2_volcano_2_Cube.002
v 0.238487 0.573557 0.253003
v 0.296173 0.591433 0.246018
v 0.329785 0.613133 0.186254
v 0.228193 0.610392 0.169445
v 0.291041 0.592799 0.103259
v 0.384104 0.588782 0.154479
v 0.375387 0.549674 0.068688
v 0.432932 0.494033 0.117999
v 0.417898 0.564486 0.202141
v 0.435168 0.459223 0.210684
v 0.368677 0.475332 0.287667
v 0.342704 0.546084 0.281356
v 0.288387 0.519315 0.312424
v 0.371284 0.631789 0.251130
v 0.380614 0.643720 0.226267
v 0.404167 0.632647 0.212583
v 0.412845 0.610338 0.232956
v 0.386850 0.607103 0.261433
v 0.402430 0.632946 0.224579
v 0.387767 0.640016 0.233103
v 0.361896 0.622541 0.210991
v 0.391523 0.609163 0.193956
v 0.406282 0.616529 0.237006
v 0.401536 0.585475 0.220511
v 0.382299 0.631599 0.248263
v 0.390954 0.615673 0.253439
v 0.378516 0.588992 0.256623
v 0.355926 0.613329 0.243361
v 0.380123 0.601196 0.227638
vt 0.696566 0.065097
vt 0.747114 0.369499
vt 0.807245 0.496967
vt 0.725608 0.065097
vt 0.831479 0.065097
vt 0.886254 0.496967
vt 0.946907 0.065097
vt 0.989839 0.065097
vt 0.896555 0.583143
vt 0.946907 0.065097
vt 0.831479 0.065097
vt 0.786599 0.334796
vt 0.725608 0.065097
vt 0.797547 0.892426
vt 0.817193 0.944531
vt 0.851587 0.941796
vt 0.855214 0.888939
vt 0.814713 0.831241
vt 0.309680 0.912876
vt 0.262750 0.921166
vt 0.255660 0.182701
vt 0.349472 0.182886
vt 0.313947 0.749253
vt 0.352738 0.051755
vt 0.237969 0.807002
vt 0.261398 0.661575
vt 0.254177 0.075115
vt 0.206939 0.156594
vt 0.809525 0.926854
vt 0.820869 0.964307
vt 0.842352 0.961588
vt 0.844305 0.907908
vt 0.820250 0.879144
vt 0.287037 0.124423
vn -0.0868 0.8309 0.5496
vn -0.1948 0.7957 0.5734
vn -0.1012 0.9782 -0.1813
vn -0.0784 0.9917 0.1023
vn 0.1524 0.9322 -0.3283
vn 0.5400 0.7149 -0.4442
vn 0.5660 0.7392 -0.3650
vn 0.9040 0.3913 -0.1725
vn 0.9689 0.2114 0.1286
vn 0.8914 0.2140 0.3994
vn 0.6342 0.2338 0.7369
vn 0.3350 0.3407 0.8784
vn 0.1458 0.5317 0.8343
vn -0.1905 0.7666 0.6132
vn -0.0441 0.9962 -0.0754
vn 0.6071 0.7136 -0.3495
vn 0.9540 0.1236 0.2731
vn 0.4035 0.1462 0.9032
vn 0.4160 0.4807 0.7719
vn 0.6939 0.3394 0.6351
vn 0.7815 -0.2434 0.5745
vn -0.1472 0.1367 0.9796
vn 0.0346 0.7984 0.6012
vn -0.4602 0.8568 0.2326
vn 0.8777 0.3489 0.3286
vn 0.5863 0.8064 0.0771
vn 0.1732 0.7275 -0.6639
vn 0.9454 0.0347 -0.3242
vn 0.5970 0.7243 0.3451
usemtl Volcano.003
s 1
f 30/35/30 31/36/31 32/37/32 33/38/33
f 34/39/34 32/37/32 35/40/35 36/41/36
f 37/42/37 38/43/38 39/44/39
f 40/45/40 41/46/41 42/47/42
f 32/37/32 31/36/31 43/48/43 44/49/44
f 38/43/38 35/40/35 45/50/45 46/51/46
f 42/47/42 41/46/41 31/36/31 30/35/30
f 36/41/36 35/40/35 38/43/38 37/42/37
f 41/46/41 38/43/38 46/51/46 47/52/47
f 39/44/39 38/43/38 41/46/41 40/45/40
f 33/38/33 32/37/32 34/39/34
f 48/53/48 49/54/49 50/55/50 51/56/51
f 52/57/52 48/53/48 51/56/51 53/58/53
f 54/59/54 55/60/55 56/61/56 57/62/57
f 35/40/35 32/37/32 44/49/44 45/50/45
f 31/36/31 41/46/41 47/52/47 43/48/43
f 54/63/54 49/64/49 44/49/44 43/48/43
f 49/64/49 48/65/48 45/50/45 44/49/44
f 48/65/48 52/66/52 46/51/46 45/50/45
f 55/67/55 54/63/54 43/48/43 47/52/47
f 52/66/52 55/67/55 47/52/47 46/51/46
f 53/58/53 58/68/58 56/61/56
f 51/56/51 50/55/50 58/68/58 53/58/53
f 55/60/55 52/57/52 53/58/53 56/61/56
f 49/54/49 54/59/54 57/62/57 50/55/50
f 50/55/50 57/62/57 56/61/56 58/68/58
