# Blender v2.81 (sub 16) OBJ File: 'Nebula Assets Nov 10 (1).blend'
# www.blender.org
mtllib coniferous_mountain.mtl
o Plane_Plane.026
v -17.300079 -4.798800 45.471851
v -21.084280 -4.798800 8.348362
v -20.428389 -4.798800 -25.484478
v 23.901945 -4.798800 -17.239571
v 3.543643 -4.798800 -49.020958
v 23.346825 -4.798800 19.895422
v 19.119923 9.018995 -12.649513
v 1.316836 15.757580 6.790425
v 19.251385 9.786665 10.537289
v -5.564645 12.666637 -30.620850
v 4.058842 12.516262 23.083015
v 8.548602 19.760151 -2.524909
v -24.284788 -4.798800 -9.242186
v -3.494326 13.791599 -16.051786
v -8.821446 9.501513 5.765692
v 0.504050 30.395061 -27.057531
v 0.213675 30.518723 -26.670641
v 1.031593 30.932129 -25.266953
v 2.049056 30.650703 -26.125391
v -5.751279 27.963852 21.014881
v -5.551333 28.120804 20.558470
v -6.029091 28.292137 19.000992
v -7.971066 27.706253 19.829094
v -7.458473 27.646065 21.584375
v 0.386244 34.190945 -1.703238
v 1.536412 34.143600 -0.944136
v 3.110048 34.382484 -1.437347
v 3.273310 34.607903 -2.500739
v -9.404516 20.646282 -40.244011
v 12.757536 18.866966 27.360027
v 10.969790 19.290886 27.237661
v 10.907508 19.237755 28.199078
v 16.054482 23.414570 -3.211092
v -13.807664 24.602474 -10.203017
v -14.207013 24.473961 -8.788296
v -13.830552 24.693119 -7.324326
v -12.684579 24.952644 -6.743772
v -11.528844 24.960300 -10.038445
v 25.786196 -4.798800 -41.771179
v 28.630163 -4.798800 -36.934372
v 1.336243 30.227776 -27.553782
v 36.857143 -4.798800 -5.097633
v 37.227577 -4.798800 0.415814
v 18.821362 23.068764 -1.213265
v 18.821970 22.881596 -4.710981
v 16.605001 -4.798800 44.855518
v 14.010787 -4.798800 46.597572
v 11.477035 19.090408 28.412952
v 12.618253 18.870018 27.776793
v -23.993694 -4.798800 -48.977699
v -20.206844 -4.798800 -53.849621
v -9.385686 19.641552 -42.310623
v -11.455767 19.791531 -40.512596
v -0.834801 16.461060 -15.355656
v 3.448381 16.643051 -15.023417
v 1.316836 20.268223 -17.204916
v 3.094714 34.794785 -3.524343
v 0.690255 34.374935 -2.493888
v -14.319026 -4.798800 -23.427416
v -28.375446 -4.798800 -35.686924
v -14.908906 -4.798800 -33.735134
v -20.691978 8.207739 -27.343628
v -20.503670 -4.798800 -12.843069
v -31.663551 -4.798800 -20.541178
v -24.358456 7.484747 -27.849850
v -21.907713 7.309513 -22.988007
v -16.436064 -4.798800 34.512325
v -24.764969 -4.798800 18.397478
v -13.930570 -4.798800 18.610985
v -19.444443 11.825142 24.831453
v -24.382784 -4.798800 32.778179
v -26.550793 -4.798800 28.900675
v -21.437510 10.740730 24.242668
v -20.467171 10.477894 28.047131
v -0.272943 -4.659346 45.127789
v -16.644354 -4.659346 44.698635
v -10.362871 -4.659346 35.434158
v -8.979666 11.544567 43.145317
v -6.021799 -4.659346 51.176193
v -10.053750 -4.659346 51.214634
v -10.532831 10.937006 44.589447
v -7.231050 10.789747 45.551712
v 4.571469 -4.798800 49.273937
v 24.115608 -4.798800 39.293056
v 6.007691 -4.798800 32.591877
v 15.516493 -4.798800 27.064581
v 15.245198 7.042800 35.427448
v 10.230217 6.879439 41.193600
v 29.405855 12.024624 15.313795
v 26.001274 12.268059 8.559694
v 15.852987 -4.798800 18.712944
v 31.356367 -4.798800 29.407204
v 20.420845 -4.798800 -2.327609
v 39.948112 -4.798800 14.703367
v 27.341637 -4.798800 -50.539703
v 8.628830 -4.798800 -36.431019
v 8.756897 -4.798800 -54.551956
v 17.369162 15.189903 -44.183495
v 25.406733 -4.798800 -37.230900
v 20.905939 -4.798800 -33.561958
v 17.006073 14.803795 -42.359631
v 19.424837 14.710213 -43.269062
v 2.767196 -4.798800 -38.054256
v 5.214355 -4.798800 -58.462353
v 14.131104 -4.798800 -49.230045
v 5.902249 9.798752 -48.646950
v -2.853021 -4.798800 -46.142323
v -2.400993 -4.798800 -51.189857
v 4.582400 9.077202 -50.803867
v 3.173525 8.902317 -46.818165
v 30.644350 12.939667 10.876637
v 29.729740 13.003277 9.074476
v 37.682423 -4.798800 0.174211
v 39.227634 -4.798800 2.113498
v 14.996451 -4.798800 52.797577
v 12.987086 -4.798800 53.497070
v 13.137367 7.507916 44.036194
v 14.307536 7.596405 43.274429
v 18.966417 14.757000 -41.831352
v 23.156336 -4.798800 -35.396427
v 16.896257 -4.798800 -11.042589
v 32.792828 -4.798800 -23.661692
v 32.989017 -4.798800 -8.033620
v 26.521683 13.331757 -15.747009
v 18.339453 -4.798800 -22.565166
v 22.158218 -4.798800 -25.837881
v 27.038429 12.646416 -18.642752
v 23.247721 12.480305 -17.099497
v -28.180923 -4.798800 14.219259
v -13.651929 -4.798800 2.685769
v -13.472613 -4.798800 16.969372
v -19.383568 5.348455 9.919558
v -26.861885 -4.798800 3.687963
v -23.371645 -4.798800 0.696800
v -18.911274 4.948145 7.272934
v -22.375874 4.851120 8.683424
vt 0.824236 0.253567
vt 0.749009 0.087980
vt 0.754406 0.081700
vt 0.903723 0.132006
vt 0.207403 0.641715
vt 0.273962 0.811882
vt 0.135038 0.573633
vt 0.137044 0.571739
vt 0.835012 0.782068
vt 0.795951 0.707643
vt 0.799243 0.691296
vt 0.835012 0.659651
vt 0.626418 0.427874
vt 0.484742 0.641384
vt 0.479586 0.641751
vt 0.445186 0.595398
vt 0.743286 0.072463
vt 0.754881 0.074224
vt 0.741593 0.562759
vt 0.753169 0.561206
vt 0.880117 0.654261
vt 0.711735 0.617026
vt 0.508310 0.220054
vt 0.512736 0.217724
vt 0.697082 0.292186
vt 0.522193 0.299458
vt 0.440547 0.427189
vt 0.424568 0.230196
vt 0.437251 0.209912
vt 0.461349 0.200379
vt 0.504217 0.214646
vt 0.506070 0.220303
vt 0.360888 0.303377
vt 0.235161 0.200643
vt 0.236141 0.196729
vt 0.299060 0.201420
vt 0.000342 0.413128
vt 0.126135 0.559903
vt 0.127284 0.572529
vt 0.064776 0.644113
vt 0.137632 0.558801
vt 0.273962 0.398005
vt 0.213318 0.110333
vt 0.423883 0.000342
vt 0.364308 0.101386
vt 0.235883 0.192416
vt 0.228187 0.190513
vt 0.741397 0.087426
vt 0.697767 0.176786
vt 0.180185 0.280593
vt 0.150324 0.280173
vt 0.125516 0.115249
vt 0.222541 0.193671
vt 0.224698 0.196716
vt 0.880117 0.459989
vt 0.627103 0.463743
vt 0.738406 0.551930
vt 0.508430 0.211296
vt 0.424568 0.763372
vt 0.477663 0.652061
vt 0.485183 0.645593
vt 0.626418 0.717593
vt 0.783903 0.693833
vt 0.721975 0.654945
vt 0.903723 0.000342
vt 0.700316 0.012370
vt 0.445244 0.181386
vt 0.528224 0.000342
vt 0.639769 0.801390
vt 0.627103 0.675325
vt 0.000342 0.076606
vt 0.697082 0.075981
vt 0.677809 0.045386
vt 0.660429 0.829937
vt 0.815497 0.895177
vt 0.612324 0.734276
vt 0.480024 0.651956
vt 0.844857 0.427874
vt 0.209589 0.289719
vt 0.423883 0.397320
vt 0.774498 0.323947
vt 0.776215 0.342951
vt 0.697767 0.326781
vt 0.737416 0.254252
vt 0.737838 0.419245
vt 0.855147 0.270871
vt 0.793378 0.323447
vt 0.855147 0.391596
vt 0.353460 0.809369
vt 0.348152 0.799510
vt 0.397739 0.732747
vt 0.397739 0.886086
vt 0.302957 0.731541
vt 0.275753 0.863799
vt 0.344165 0.812791
vt 0.274647 0.758473
vt 0.225343 0.860981
vt 0.223122 0.853069
vt 0.255326 0.816156
vt 0.255326 0.903484
vt 0.198344 0.812567
vt 0.184395 0.891986
vt 0.219158 0.859753
vt 0.180709 0.828668
vt 0.085746 0.903752
vt 0.089494 0.883884
vt 0.097154 0.882322
vt 0.120575 0.906073
vt 0.083352 0.991037
vt 0.000342 0.892042
vt 0.041068 0.819350
vt 0.180024 0.960671
vt 0.180024 0.838238
vt 0.626418 0.783993
vt 0.626418 0.954858
vt 0.542386 0.857547
vt 0.459421 0.986914
vt 0.516990 0.884024
vt 0.411840 0.855349
vt 0.472309 0.764057
vt 0.522458 0.855853
vt 0.515995 0.862854
vt 0.931876 0.753153
vt 0.929067 0.739834
vt 0.999658 0.654945
vt 0.999658 0.855306
vt 0.876364 0.656540
vt 0.835697 0.824167
vt 0.921830 0.751349
vt 0.922530 0.741431
vt 0.860757 0.670167
vt 0.845199 0.685526
vt 0.349980 0.660169
vt 0.346027 0.645105
vt 0.401812 0.585035
vt 0.401812 0.730856
vt 0.305210 0.578025
vt 0.281566 0.713364
vt 0.338324 0.658323
vt 0.274647 0.606167
vt 0.458285 0.771805
vt 0.055452 0.812567
vt 0.362729 0.493568
vt 0.358326 0.477827
vt 0.421989 0.405182
vt 0.421989 0.577340
vt 0.309510 0.398005
vt 0.282014 0.554837
vt 0.350431 0.491154
vt 0.274647 0.429858
vt 0.922480 0.327646
vt 0.918435 0.310153
vt 0.969883 0.262043
vt 0.969883 0.387057
vt 0.884443 0.254252
vt 0.864555 0.375843
vt 0.909247 0.326482
vt 0.855832 0.281566
vn -0.9321 0.3193 0.1713
vn 0.5243 0.4408 0.7286
vn -0.2972 0.6427 0.7062
vn -0.6723 0.7371 -0.0685
vn -0.1581 0.9864 0.0450
vn -0.4377 0.5855 0.6824
vn -0.6359 0.3683 -0.6782
vn -0.7371 0.4694 0.4862
vn 0.8258 0.3300 0.4574
vn -0.4710 0.4572 -0.7544
vn -0.6536 0.3590 -0.6662
vn 0.4552 0.4240 0.7830
vn -0.0177 0.4627 0.8863
vn -0.4334 0.5020 0.7484
vn -0.9120 0.3361 -0.2351
vn -0.9008 0.4122 0.1367
vn 0.8887 0.4581 -0.0171
vn 0.0180 0.9562 -0.2921
vn 0.1785 0.3696 -0.9119
vn -0.0306 0.6050 0.7956
vn -0.9314 0.3489 0.1035
vn 0.7334 0.6453 -0.2136
vn 0.1612 0.9855 -0.0527
vn -0.3183 0.4715 -0.8225
vn -0.0155 0.4643 -0.8856
vn 0.5965 0.5328 0.6003
vn 0.6112 0.4167 -0.6729
vn 0.8544 0.3466 -0.3872
vn -0.9212 0.3211 -0.2197
vn 0.8436 0.4489 0.2946
vn -0.3019 0.8563 -0.4191
vn -0.3440 0.3786 0.8593
vn -0.3654 0.4595 0.8095
vn 0.2258 0.9718 0.0683
vn 0.2655 0.5159 -0.8145
vn 0.8123 0.5496 0.1950
vn 0.8357 0.5472 -0.0457
vn 0.6962 0.5019 0.5133
vn 0.4658 0.5674 0.6791
vn 0.9109 0.3306 0.2469
vn -0.6306 0.5313 -0.5657
vn 0.1866 0.3507 -0.9177
vn -0.0881 0.4751 0.8755
vn -0.1357 0.5576 -0.8190
vn 0.3496 0.4654 -0.8131
vn -0.2939 0.9361 0.1931
vn -0.0876 0.9771 0.1937
vn -0.1874 0.9723 0.1395
vn -0.2038 0.9760 -0.0768
vn 0.8881 0.4549 0.0658
vn 0.7651 0.4633 0.4471
vn 0.1031 0.4932 -0.8638
vn -0.2102 0.9675 0.1408
vn -0.5537 0.5690 0.6080
vn -0.8895 0.4141 -0.1931
vn 0.9396 0.2826 0.1933
vn -0.2008 0.3364 0.9201
vn 0.0287 0.3528 -0.9353
vn -0.5117 0.8382 0.1884
vn -0.8585 0.3622 0.3631
vn -0.9508 0.2644 -0.1617
vn 0.6928 0.2915 -0.6596
vn 0.6928 0.2940 0.6585
vn -0.7747 0.3138 -0.5490
vn -0.0559 0.9404 0.3356
vn -0.1095 0.3597 0.9266
vn -0.6769 0.2701 0.6847
vn -0.1302 0.9878 -0.0852
vn -0.9175 0.3899 -0.0790
vn -0.4487 0.5958 0.6661
vn -0.5137 0.5570 -0.6526
vn 0.7528 0.3911 -0.5294
vn -0.8895 0.4140 -0.1931
vn -0.5537 0.5689 0.6080
vn 0.7652 0.4633 0.4471
vn 0.1065 0.4962 -0.8616
vn 0.2220 0.3943 -0.8917
vn 0.9346 0.3286 0.1359
vn -0.9183 0.3957 -0.0150
vn 0.0850 0.9886 0.1243
vn 0.7169 0.3744 0.5881
vn -0.2119 0.3648 0.9067
vn 0.6169 0.3712 0.6941
vn -0.7652 0.3628 0.5318
vn 0.6720 0.3911 -0.6288
vn -0.3635 0.9274 -0.0878
vn -0.8911 0.4185 -0.1755
vn -0.6482 0.3451 -0.6788
vn 0.7016 0.5510 -0.4519
vn 0.8797 0.4727 0.0522
vn 0.3267 0.5804 0.7459
vn 0.7850 0.5066 0.3566
vn 0.2759 0.3974 0.8752
vn -0.2203 0.3529 0.9094
vn -0.9447 0.3058 -0.1183
vn 0.9456 0.3252 0.0043
vn -0.1446 0.9568 -0.2523
vn -0.4925 0.4173 -0.7638
vn 0.1893 0.3287 -0.9253
vn -0.2010 0.5248 0.8272
vn -0.8783 0.4653 -0.1100
vn 0.8718 0.4899 0.0035
vn -0.0948 0.9817 -0.1654
vn -0.4335 0.6007 -0.6717
vn 0.1742 0.4947 -0.8514
vn 0.6596 0.6256 -0.4167
usemtl None
s off
f 2/1/1 36/2/1 35/3/1 13/4/1
f 11/5/2 6/6/2 21/7/2 20/8/2
f 9/9/3 44/10/3 33/11/3 12/12/3
f 1/13/4 32/14/4 31/15/4 11/16/4
f 38/17/5 34/18/5 35/3/5
f 29/19/6 53/20/6 3/21/6 10/22/6
f 16/23/7 41/24/7 5/25/7 10/26/7
f 3/27/8 14/28/8 54/29/8 56/30/8 18/31/8 17/32/8
f 7/33/9 57/34/9 28/35/9 12/36/9
f 2/37/10 23/38/10 22/39/10 8/40/10
f 3/27/11 17/32/11 16/23/11 10/26/11
f 20/8/12 24/41/12 1/42/12 11/5/12
f 8/43/13 6/44/13 9/45/13 27/46/13 26/47/13
f 37/48/14 36/2/14 2/1/14 15/49/14
f 54/50/15 14/51/15 15/52/15 25/53/15 58/54/15
f 50/55/16 3/21/16 53/20/16
f 10/22/17 5/56/17 52/57/17 29/19/17
f 41/24/18 16/23/18 19/58/18
f 6/59/19 11/16/19 31/15/19 30/60/19
f 48/61/20 32/14/20 1/13/20 47/62/20
f 2/37/21 1/42/21 24/41/21 23/38/21
f 22/39/22 21/7/22 6/6/22 8/40/22
f 44/10/23 45/63/23 33/11/23
f 33/11/24 45/63/24 7/64/24 12/12/24
f 3/65/25 34/18/25 38/17/25 14/66/25
f 56/30/26 55/67/26 4/68/26 19/58/26 18/31/26
f 7/64/27 45/63/27 42/69/27 4/70/27
f 28/35/28 27/46/28 9/45/28 12/36/28
f 35/3/29 34/18/29 3/65/29 13/4/29
f 14/66/30 38/17/30 37/48/30 15/49/30
f 53/20/31 29/19/31 52/57/31
f 8/43/32 26/47/32 25/53/32 15/52/32
f 2/71/33 8/43/33 15/52/33
f 32/14/34 48/61/34 31/15/34
f 41/24/35 39/72/35 5/25/35
f 4/68/36 40/73/36 19/58/36
f 42/69/37 45/63/37 44/10/37 43/74/37
f 44/10/38 9/9/38 6/75/38 43/74/38
f 46/76/39 49/77/39 48/61/39 47/62/39
f 30/60/40 49/77/40 46/76/40 6/59/40
f 52/57/41 51/78/41 50/55/41 53/20/41
f 5/56/42 51/78/42 52/57/42
f 54/29/43 55/67/43 56/30/43
f 54/50/44 58/54/44 57/34/44 55/79/44
f 57/34/45 7/33/45 4/80/45 55/79/45
f 20/8/46 21/7/46 22/39/46
f 58/54/47 25/53/47 26/47/47
f 28/35/47 26/47/47 27/46/47
f 57/34/47 58/54/47 26/47/47 28/35/47
f 20/8/48 22/39/48 23/38/48 24/41/48
f 37/48/49 38/17/49 35/3/49 36/2/49
f 49/77/34 30/60/34 31/15/34 48/61/34
f 18/31/18 19/58/18 16/23/18 17/32/18
f 62/81/50 66/82/50 59/83/50 61/84/50
f 63/85/51 59/83/51 66/82/51
f 61/84/52 60/86/52 65/87/52 62/81/52
f 66/82/53 62/81/53 65/87/53
f 65/87/54 64/88/54 63/85/54 66/82/54
f 60/86/55 64/88/55 65/87/55
f 70/89/56 74/90/56 67/91/56 69/92/56
f 71/93/57 67/91/57 74/90/57
f 69/92/58 68/94/58 73/95/58 70/89/58
f 74/90/59 70/89/59 73/95/59
f 73/95/60 72/96/60 71/93/60 74/90/60
f 68/94/61 72/96/61 73/95/61
f 78/97/62 82/98/62 75/99/62 77/100/62
f 79/101/63 75/99/63 82/98/63
f 77/100/64 76/102/64 81/103/64 78/97/64
f 82/98/65 78/97/65 81/103/65
f 81/103/66 80/104/66 79/101/66 82/98/66
f 76/102/67 80/104/67 81/103/67
f 88/105/68 117/106/68 118/107/68 87/108/68
f 85/109/69 83/110/69 88/105/69
f 117/106/70 88/105/70 83/110/70 116/111/70
f 87/108/71 86/112/71 85/109/71 88/105/71
f 84/113/72 86/112/72 87/108/72
f 93/114/73 91/115/73 90/116/73
f 90/116/74 91/115/74 92/117/74 89/118/74
f 92/117/75 94/119/75 89/118/75
f 113/120/76 93/114/76 90/116/76 112/121/76
f 89/118/53 111/122/53 112/121/53 90/116/53
f 98/123/77 102/124/77 95/125/77 97/126/77
f 99/127/78 95/125/78 102/124/78
f 97/126/79 96/128/79 101/129/79 98/123/79
f 102/124/80 98/123/80 101/129/80 119/130/80
f 119/130/81 120/131/81 99/127/81 102/124/81
f 96/128/82 100/132/82 101/129/82
f 106/133/83 110/134/83 103/135/83 105/136/83
f 107/137/84 103/135/84 110/134/84
f 105/136/85 104/138/85 109/139/85 106/133/85
f 110/134/86 106/133/86 109/139/86
f 109/139/87 108/140/87 107/137/87 110/134/87
f 104/138/88 108/140/88 109/139/88
f 113/120/89 112/121/89 111/122/89 114/141/89
f 111/122/90 89/118/90 94/119/90 114/141/90
f 115/142/91 118/107/91 117/106/91 116/111/91
f 115/142/92 84/113/92 87/108/92 118/107/92
f 101/129/93 100/132/93 120/131/93 119/130/93
f 124/143/94 128/144/94 121/145/94 123/146/94
f 125/147/95 121/145/95 128/144/95
f 123/146/96 122/148/96 127/149/96 124/143/96
f 128/144/97 124/143/97 127/149/97
f 127/149/98 126/150/98 125/147/98 128/144/98
f 122/148/99 126/150/99 127/149/99
f 132/151/100 136/152/100 129/153/100 131/154/100
f 133/155/101 129/153/101 136/152/101
f 131/154/102 130/156/102 135/157/102 132/151/102
f 136/152/103 132/151/103 135/157/103
f 135/157/104 134/158/104 133/155/104 136/152/104
f 130/156/105 134/158/105 135/157/105
f 39/72/106 41/24/106 19/58/106 40/73/106
