# Blender v2.81 (sub 16) OBJ File: 'Nebula Assets Nov 10 (1).blend'
# www.blender.org
mtllib coniferous_boulder.mtl
o coniferous_rock_Cube.019
v -0.738756 2.878992 2.229191
v -1.303282 0.000350 3.964953
v 1.527771 0.000350 -3.723382
v 0.704745 4.323895 -1.733562
v 0.374886 5.271565 -0.846357
v 3.485076 0.000350 -0.485166
v 3.763181 0.000350 0.609726
v -3.138263 0.000350 -4.166726
v -2.121036 0.000350 -4.920742
v 2.112731 2.043623 2.855460
v 1.468086 2.754588 2.770901
v 2.703383 0.000350 3.499564
v 1.707380 0.000350 4.180858
v 2.229320 2.934100 -0.441477
v 2.695779 2.192919 -0.171423
v 2.050166 3.503324 0.793036
v 2.509795 2.746066 1.075504
v -3.119777 4.197676 0.466565
v -2.483427 4.509712 0.964973
v -4.406472 0.000350 2.094014
v -4.886356 0.000350 0.669563
v -1.213760 3.780567 -3.019758
v -0.674653 4.323940 -2.593780
v -1.892892 4.749288 -2.242509
v -1.353625 5.294595 -1.829449
v 0.703933 1.827894 -5.415112
v 0.807501 0.012109 -6.950125
v 0.138063 0.012109 -0.138581
v 0.368890 2.739309 -1.904867
v 0.448158 3.337078 -2.691013
v -1.587582 0.012109 -2.889335
v -1.926488 0.012109 -3.833804
v 3.177618 0.012109 0.073019
v 2.640561 0.012109 0.768793
v -1.206047 1.300962 -5.854327
v -0.782670 1.749423 -5.804765
v -1.677618 0.012109 -6.393919
v -1.143352 0.012109 -7.025472
v -0.793621 1.862656 -2.974551
v -1.130808 1.395134 -3.192577
v -0.861684 2.221709 -4.057944
v -1.196352 1.744048 -4.287054
v 2.481805 2.659693 -3.967180
v 2.002617 2.856518 -4.377989
v 3.061670 0.012109 -5.434822
v 3.577842 0.012109 -4.210501
v 1.781620 2.396589 -0.855097
v 1.375108 2.739337 -1.206386
v 2.099747 3.007637 -1.558450
v 1.695039 3.351606 -1.898464
vt 0.855887 0.165932
vt 0.743110 0.171697
vt 0.745121 0.085370
vt 0.823002 0.093898
vt 0.914033 0.227755
vt 0.997162 0.290212
vt 0.961801 0.324167
vt 0.879701 0.239147
vt 0.664605 0.064304
vt 0.653470 0.183877
vt 0.764818 0.349543
vt 0.798115 0.254912
vt 0.870345 0.219696
vt 0.787886 0.232863
vt 0.997162 0.137669
vt 0.887149 0.160707
vt 0.867456 0.095472
vt 0.865693 0.071317
vt 0.898019 0.025391
vt 0.901449 0.207110
vt 0.819010 0.069993
vt 0.857718 0.002953
vt 0.733354 0.002842
vt 0.751430 0.055964
vt 0.688848 0.023797
vt 0.711247 0.317231
vt 0.855887 0.165932
vt 0.743110 0.171697
vt 0.745121 0.085370
vt 0.823002 0.093898
vt 0.914033 0.227755
vt 0.997162 0.290212
vt 0.961801 0.324167
vt 0.879701 0.239147
vt 0.664605 0.064304
vt 0.653470 0.183877
vt 0.764818 0.349543
vt 0.798115 0.254912
vt 0.870345 0.219696
vt 0.787886 0.232863
vt 0.997162 0.137669
vt 0.887149 0.160707
vt 0.867456 0.095472
vt 0.865693 0.071317
vt 0.898019 0.025391
vt 0.901449 0.207110
vt 0.819010 0.069993
vt 0.857718 0.002953
vt 0.733354 0.002842
vt 0.751430 0.055964
vt 0.688848 0.023797
vt 0.711247 0.317231
vn 0.0903 0.8513 0.5168
vn 0.0928 0.8433 0.5294
vn 0.0966 0.8305 0.5486
vn -0.4375 0.4576 -0.7741
vn -0.1139 0.4894 0.8646
vn -0.2722 0.4658 0.8420
vn -0.2482 0.4703 0.8469
vn -0.8776 0.3570 -0.3199
vn 0.0870 0.8618 0.4997
vn 0.5737 0.3981 -0.7157
vn 0.5632 0.3987 -0.7237
vn 0.7906 0.3644 -0.4922
vn 0.3460 0.3963 -0.8504
vn 0.5906 0.6763 -0.4402
vn 0.7816 0.5807 -0.2276
vn 0.6019 0.6728 -0.4301
vn 0.3630 0.7102 -0.6032
vn 0.9089 0.3964 -0.1294
vn 0.4645 0.4153 0.7822
vn 0.8623 0.4969 -0.0978
vn 0.6757 0.6112 0.4121
vn 0.8779 0.3502 0.3266
vn -0.8166 0.4084 0.4078
vn -0.0113 0.6174 -0.7866
vn -0.5668 0.8228 -0.0429
vn -0.3773 0.4425 0.8135
vn -0.1177 0.9178 -0.3793
vn -0.1235 0.9098 -0.3962
vn -0.1281 0.9031 -0.4098
vn 0.5703 0.5657 0.5956
vn 0.0930 0.6060 -0.7900
vn 0.2850 0.5585 -0.7790
vn 0.2296 0.5748 -0.7854
vn 0.9220 0.3769 0.0882
vn -0.1138 0.9229 -0.3678
vn -0.5495 0.4512 0.7032
vn -0.6020 0.4394 0.6667
vn -0.7797 0.3768 0.5001
vn -0.3642 0.4760 0.8005
vn -0.6110 0.6803 0.4049
vn -0.7583 0.5822 0.2934
vn -0.5439 0.7115 0.4449
vn -0.3570 0.7678 0.5320
vn -0.8852 0.3964 0.2434
vn -0.6082 0.5174 -0.6020
vn -0.8411 0.4970 0.2132
vn -0.7290 0.6558 -0.1964
vn -0.9242 0.3703 -0.0933
vn 0.7980 0.4163 -0.4357
vn 0.0529 0.7388 0.6719
vn 0.5596 0.8263 -0.0636
vn 0.3940 0.5199 -0.7580
usemtl Rock_Texture.001
s 1
f 5/1/1 1/2/2 11/3/3 16/4/3
f 22/5/4 9/6/4 8/7/4 24/8/4
f 13/9/5 11/3/5 1/2/6 2/10/7
f 21/11/8 18/12/8 24/8/8 8/7/8
f 1/2/2 5/1/1 25/13/9 19/14/9
f 3/15/10 4/16/11 14/17/12 15/18/12 6/19/12
f 4/16/11 3/15/10 9/6/13 22/5/13 23/20/13
f 5/1/14 16/4/15 14/17/15 4/16/16
f 25/13/17 5/1/14 4/16/16 23/20/17
f 17/21/18 7/22/18 6/19/18 15/18/18
f 12/23/19 10/24/19 11/3/19 13/25/19
f 17/21/20 15/18/20 14/17/20 16/4/20
f 10/24/21 17/21/21 16/4/21 11/3/21
f 7/22/22 17/21/22 10/24/22 12/23/22
f 18/12/23 21/11/23 20/26/23 19/14/23
f 22/5/24 24/8/24 25/13/24 23/20/24
f 24/8/25 18/12/25 19/14/25 25/13/25
f 2/10/7 1/2/6 19/14/26 20/26/26
f 30/27/27 26/28/28 36/29/29 41/30/29
f 47/31/30 34/32/30 33/33/30 49/34/30
f 38/35/31 36/29/31 26/28/32 27/36/33
f 46/37/34 43/38/34 49/34/34 33/33/34
f 26/28/28 30/27/27 50/39/35 44/40/35
f 28/41/36 29/42/37 39/43/38 40/44/38 31/45/38
f 29/42/37 28/41/36 34/32/39 47/31/39 48/46/39
f 30/27/40 41/30/41 39/43/41 29/42/42
f 50/39/43 30/27/40 29/42/42 48/46/43
f 42/47/44 32/48/44 31/45/44 40/44/44
f 37/49/45 35/50/45 36/29/45 38/51/45
f 42/47/46 40/44/46 39/43/46 41/30/46
f 35/50/47 42/47/47 41/30/47 36/29/47
f 32/48/48 42/47/48 35/50/48 37/49/48
f 43/38/49 46/37/49 45/52/49 44/40/49
f 47/31/50 49/34/50 50/39/50 48/46/50
f 49/34/51 43/38/51 44/40/51 50/39/51
f 27/36/33 26/28/32 44/40/52 45/52/52
