# Blender v2.80 (sub 54) OBJ File: 'all_models.blend'
# www.blender.org
mtllib bush.mtl
o bush_Cube.024
v -0.014920 -0.002697 0.014920
v -0.010393 0.018108 0.010393
v -0.014920 -0.002697 -0.014920
v -0.010393 0.018108 -0.010393
v 0.014920 -0.002697 0.014920
v 0.010393 0.018108 0.010393
v 0.014920 -0.002697 -0.014920
v 0.010393 0.018108 -0.010393
v -0.018189 -0.002697 0.000000
v -0.015662 0.009200 0.015662
v -0.012743 0.020449 0.000000
v -0.015662 0.009200 -0.015662
v -0.000000 -0.002697 -0.018189
v -0.000000 0.020449 -0.012743
v 0.015662 0.009200 -0.015662
v 0.018189 -0.002697 0.000000
v 0.012743 0.020449 0.000000
v 0.015662 0.009200 0.015662
v -0.000000 -0.002697 0.018189
v -0.000000 0.020449 0.012743
v -0.019875 0.009781 0.000000
v -0.000000 0.009781 -0.019875
v 0.019875 0.009781 0.000000
v -0.000000 0.009781 0.019875
v -0.000000 0.025317 0.000000
vt 0.713309 0.012961
vt 0.707539 0.427691
vt 0.674801 0.447920
vt 0.687901 0.012961
vt 0.372872 0.427691
vt 0.413824 0.738223
vt 0.395562 0.819800
vt 0.340135 0.447920
vt 0.413824 0.738223
vt 0.372872 0.427691
vt 0.707539 0.427691
vt 0.713309 0.012961
vt 0.829254 0.447920
vt 0.829254 0.012961
vt 0.494587 0.819800
vt 0.494587 0.447920
vt 0.575350 0.738223
vt 0.616301 0.427691
vt 0.950968 0.427691
vt 0.945198 0.012961
vt 0.983706 0.447920
vt 0.970605 0.012961
vt 0.593612 0.819800
vt 0.649039 0.447920
vt 0.575350 0.738223
vt 0.616301 0.427691
vt 0.950968 0.427691
vt 0.945198 0.012961
vt 0.829254 0.447920
vt 0.829254 0.012961
vt 0.494587 0.819800
vt 0.494587 0.447920
vt 0.494587 0.989496
vn -0.7019 -0.1209 0.7019
vn -0.6881 0.2303 0.6881
vn -0.9682 0.2499 0.0000
vn -0.9943 -0.1064 0.0000
vn -0.4893 0.7219 0.4893
vn -0.6042 0.7968 0.0000
vn -0.4893 0.7219 -0.4893
vn -0.6881 0.2303 -0.6881
vn -0.7019 -0.1209 -0.7019
vn 0.0000 0.2499 -0.9682
vn 0.0000 -0.1064 -0.9943
vn 0.0000 0.7968 -0.6042
vn 0.4893 0.7219 -0.4893
vn 0.6881 0.2303 -0.6881
vn 0.7019 -0.1209 -0.7019
vn 0.9682 0.2499 0.0000
vn 0.9943 -0.1064 0.0000
vn 0.6042 0.7968 0.0000
vn 0.4893 0.7219 0.4893
vn 0.6881 0.2303 0.6881
vn 0.7019 -0.1209 0.7019
vn 0.0000 0.2499 0.9682
vn 0.0000 -0.1064 0.9943
vn 0.0000 0.7968 0.6042
vn 0.0000 1.0000 0.0000
usemtl bush
s 1
f 1/1/1 10/2/2 21/3/3 9/4/4
f 10/5/2 2/6/5 11/7/6 21/8/3
f 21/8/3 11/7/6 4/9/7 12/10/8
f 9/4/4 21/3/3 12/11/8 3/12/9
f 3/12/9 12/11/8 22/13/10 13/14/11
f 12/10/8 4/9/7 14/15/12 22/16/10
f 22/16/10 14/15/12 8/17/13 15/18/14
f 13/14/11 22/13/10 15/19/14 7/20/15
f 7/20/15 15/19/14 23/21/16 16/22/17
f 15/18/14 8/17/13 17/23/18 23/24/16
f 23/24/16 17/23/18 6/25/19 18/26/20
f 16/22/17 23/21/16 18/27/20 5/28/21
f 5/28/21 18/27/20 24/29/22 19/30/23
f 18/26/20 6/25/19 20/31/24 24/32/22
f 24/32/22 20/31/24 2/6/5 10/5/2
f 19/30/23 24/29/22 10/2/2 1/1/1
f 8/17/13 14/15/12 25/33/25 17/23/18
f 14/15/12 4/9/7 11/7/6 25/33/25
f 25/33/25 11/7/6 2/6/5 20/31/24
f 17/23/18 25/33/25 20/31/24 6/25/19
