# Blender v2.81 (sub 16) OBJ File: 'Fresh Nebula Assets.blend'
# www.blender.org
mtllib cactus.mtl
o cactus_Cylinder.001_Cylinder.005
v 0.001893 0.052934 -0.002937
v 0.001893 0.054179 -0.001907
v 0.004156 0.054179 -0.000601
v 0.005048 0.052934 -0.001116
v 0.004156 0.054179 0.002012
v 0.005048 0.052934 0.002527
v 0.001893 0.054179 0.003318
v 0.001893 0.052934 0.004348
v -0.000369 0.054179 0.002012
v -0.001261 0.052934 0.002527
v 0.001893 0.054972 0.000706
v -0.000369 0.054179 -0.000601
v -0.001261 0.052934 -0.001116
v -0.003939 -0.000000 -0.001938
v -0.004188 0.015234 -0.002705
v -0.000553 0.015139 -0.004806
v -0.000717 -0.000000 -0.003798
v -0.003939 -0.000000 0.001783
v -0.004188 0.015234 0.001499
v -0.000717 -0.000000 0.003644
v -0.000553 0.015139 0.003600
v 0.003960 0.034394 0.001387
v 0.003082 0.015044 0.001499
v 0.003082 0.015044 -0.002705
v 0.003960 0.034394 -0.002716
v 0.002506 -0.000000 0.001783
v 0.000425 0.034570 0.003438
v 0.002506 -0.000000 -0.001938
v -0.003110 0.034747 0.001387
v -0.003110 0.034747 -0.002716
v 0.000425 0.034570 -0.004767
v -0.003308 0.041534 -0.013279
v -0.003468 0.042716 -0.012637
v -0.002056 0.042905 -0.012084
v -0.001340 0.041796 -0.012507
v -0.001816 0.042901 -0.010569
v -0.001006 0.041791 -0.010396
v -0.002988 0.042709 -0.009608
v -0.002639 0.041523 -0.009056
v -0.004399 0.042520 -0.010161
v -0.004607 0.041261 -0.009827
v -0.003390 0.043467 -0.011094
v -0.004639 0.042524 -0.011676
v -0.004941 0.041266 -0.011939
v -0.001707 0.026675 -0.013489
v 0.001075 0.027112 -0.012469
v 0.001489 0.027853 -0.009627
v -0.000880 0.028156 -0.007805
v -0.003662 0.027719 -0.008826
v -0.004076 0.026979 -0.011667
v -0.001100 0.021867 -0.010791
v -0.003373 0.022299 -0.009123
v -0.003011 0.023292 -0.006550
v -0.000377 0.023852 -0.005645
v 0.001895 0.023419 -0.007313
v 0.001534 0.022427 -0.009886
v -0.002377 0.018921 -0.004026
v -0.002237 0.020889 -0.002634
v 0.000216 0.021936 -0.002309
v 0.002529 0.021013 -0.003375
v 0.002389 0.019044 -0.004767
v -0.000064 0.017998 -0.005092
v 0.000220 0.017241 -0.003460
v -0.002613 0.018395 -0.002324
v -0.002495 0.020854 -0.000951
v 0.000456 0.022158 -0.000714
v 0.003288 0.021004 -0.001851
v 0.003170 0.018545 -0.003223
v 0.004238 0.035869 0.011341
v 0.004507 0.036889 0.010837
v 0.003425 0.037190 0.010414
v 0.002729 0.036288 0.010752
v 0.003225 0.037213 0.009224
v 0.002450 0.036320 0.009092
v 0.004107 0.036936 0.008457
v 0.003679 0.035934 0.008022
v 0.005189 0.036636 0.008880
v 0.005188 0.035516 0.008612
v 0.004529 0.037557 0.009625
v 0.005389 0.036612 0.010070
v 0.005467 0.035483 0.010272
v 0.002417 0.025617 0.011323
v 0.000435 0.026113 0.010608
v 0.000166 0.026734 0.008558
v 0.001878 0.026858 0.007224
v 0.003860 0.026362 0.007939
v 0.004129 0.025741 0.009988
v 0.001581 0.021370 0.009387
v 0.003383 0.021625 0.008054
v 0.003151 0.022520 0.006032
v 0.001118 0.023160 0.005342
v -0.000684 0.022906 0.006675
v -0.000452 0.022011 0.008697
v 0.002303 0.018715 0.004048
v 0.002329 0.020454 0.002955
v 0.000480 0.021512 0.002720
v -0.001396 0.020830 0.003580
v -0.001422 0.019090 0.004673
v 0.000428 0.018032 0.004907
v -0.000834 0.017145 -0.001980
v 0.000783 0.017805 -0.002233
v 0.000980 0.019433 -0.002229
v -0.000441 0.020400 -0.001972
v -0.002059 0.019739 -0.001719
v -0.002255 0.018111 -0.001723
v 0.001435 0.055747 0.000441
v 0.003438 0.056609 -0.001383
v 0.004016 0.057128 0.001263
v 0.002013 0.056232 0.003087
v -0.000567 0.056609 0.002264
v 0.000858 0.056609 -0.002205
v -0.001145 0.056189 -0.000382
v -0.002522 0.043296 -0.011317
v -0.001192 0.043591 -0.012528
v -0.000809 0.044392 -0.010770
v -0.002139 0.043868 -0.009560
v -0.003852 0.043959 -0.010106
v -0.002906 0.044072 -0.013074
v -0.004236 0.043868 -0.011863
v 0.004193 0.037723 0.009855
v 0.005327 0.038211 0.008823
v 0.005654 0.038211 0.010321
v 0.004430 0.037924 0.010941
v 0.002969 0.037924 0.010476
v 0.003866 0.038211 0.008357
v 0.002732 0.038211 0.009389
vt 0.146214 0.378434
vt 0.129190 0.381726
vt 0.112427 0.344580
vt 0.124979 0.333942
vt 0.078853 0.318993
vt 0.086098 0.303310
vt 0.010249 0.310368
vt 0.000188 0.277814
vt 0.000171 0.507308
vt 0.010406 0.470889
vt 0.085113 0.463567
vt 0.096545 0.484922
vt 0.059102 0.389668
vt 0.122886 0.426339
vt 0.141006 0.434456
vt 0.568760 0.471516
vt 0.411840 0.468441
vt 0.399181 0.368129
vt 0.557929 0.348333
vt 0.568760 0.591518
vt 0.408946 0.574889
vt 0.559675 0.709978
vt 0.386920 0.700559
vt 0.185368 0.219891
vt 0.354972 0.155035
vt 0.380439 0.264228
vt 0.227631 0.303910
vt 0.511366 0.113732
vt 0.326675 0.034667
vt 0.491083 0.000171
vt 0.131136 0.124559
vt 0.533558 0.228894
vt 0.231702 0.544394
vt 0.165734 0.644915
vt 0.258421 0.454125
vt 0.253734 0.376940
vt 0.651450 0.315976
vt 0.641397 0.314358
vt 0.646353 0.293510
vt 0.659101 0.292617
vt 0.640128 0.269994
vt 0.653753 0.263543
vt 0.615929 0.252076
vt 0.625964 0.238850
vt 0.572136 0.254792
vt 0.569101 0.235418
vt 0.601585 0.298367
vt 0.590130 0.372724
vt 0.589273 0.352972
vt 0.626341 0.332555
vt 0.634591 0.338313
vt 0.707312 0.321932
vt 0.721191 0.292414
vt 0.741824 0.251828
vt 0.731412 0.177383
vt 0.661209 0.120335
vt 0.723264 0.429906
vt 0.702459 0.362329
vt 0.750408 0.328920
vt 0.758547 0.385005
vt 0.744819 0.084305
vt 0.813528 0.147374
vt 0.813254 0.238345
vt 0.765525 0.281384
vt 0.817366 0.423985
vt 0.914573 0.409447
vt 0.948235 0.449694
vt 0.924250 0.102383
vt 0.943157 0.191868
vt 0.910982 0.238443
vt 0.897064 0.324622
vt 0.871042 0.037025
vt 0.951641 0.322525
vt 0.970602 0.425358
vt 0.912945 0.000171
vt 0.973409 0.078191
vt 0.999829 0.177609
vt 0.968492 0.220252
vt 0.999829 0.469719
vt 0.028701 0.816770
vt 0.026976 0.826495
vt 0.002421 0.821025
vt 0.000171 0.797963
vt 0.010310 0.909500
vt 0.009955 0.888424
vt 0.036653 0.882780
vt 0.045790 0.896325
vt 0.047232 0.865767
vt 0.056004 0.871175
vt 0.044743 0.850504
vt 0.050819 0.850462
vt 0.022155 0.853761
vt 0.037637 0.837943
vt 0.041044 0.833677
vt 0.070098 0.774187
vt 0.069234 0.727843
vt 0.080113 0.985592
vt 0.120472 0.950457
vt 0.134156 0.891996
vt 0.110831 0.840909
vt 0.084474 0.808389
vt 0.118111 0.760413
vt 0.133004 0.808171
vt 0.176950 0.837089
vt 0.206790 0.894501
vt 0.189999 0.959384
vt 0.143161 0.990622
vt 0.137565 0.710319
vt 0.243995 0.817074
vt 0.269588 0.839719
vt 0.288257 0.890893
vt 0.281807 0.949634
vt 0.254592 0.711848
vt 0.237122 0.760418
vt 0.258565 0.974718
vt 0.428279 0.779464
vt 0.422005 0.825743
vt 0.419131 0.842061
vt 0.421353 0.881132
vt 0.427114 0.924070
vt 0.431910 0.939909
vt 0.431910 0.738403
vt 0.819112 0.760168
vt 0.818570 0.692717
vt 0.877645 0.725312
vt 0.877645 0.793091
vt 0.819768 0.827618
vt 0.760508 0.726770
vt 0.761231 0.794180
vt 0.799715 0.872970
vt 0.838642 0.851280
vt 0.838642 0.896588
vt 0.798933 0.917736
vt 0.760508 0.894793
vt 0.800216 0.827960
vt 0.761256 0.850045
vt 0.872105 0.855522
vt 0.838984 0.874557
vt 0.839011 0.836438
vt 0.872146 0.827960
vt 0.905053 0.847090
vt 0.871934 0.893722
vt 0.905053 0.874852
vn 0.0164 0.3543 -0.9350
vn 0.0000 0.7901 -0.6130
vn 0.5309 0.7901 -0.3065
vn 0.8349 0.3033 -0.4594
vn 0.5309 0.7901 0.3065
vn 0.8315 0.2705 0.4852
vn 0.0000 0.7901 0.6130
vn 0.0138 0.2845 0.9586
vn -0.5309 0.7901 0.3065
vn -0.8066 0.3336 0.4880
vn 0.0000 1.0000 0.0000
vn -0.5309 0.7901 -0.3065
vn -0.8066 0.3704 -0.4606
vn -0.8713 -0.0390 -0.4893
vn -0.8656 0.0042 -0.5007
vn -0.0068 -0.0316 -0.9995
vn -0.0042 -0.0663 -0.9978
vn -0.8622 -0.0047 0.5066
vn -0.8695 0.0228 0.4933
vn -0.0034 0.0030 1.0000
vn -0.0061 0.0059 1.0000
vn 0.8686 -0.0589 0.4920
vn 0.8663 -0.0302 0.4987
vn 0.8613 -0.0491 -0.5058
vn 0.8595 -0.0224 -0.5107
vn 0.8601 -0.0233 0.5096
vn -0.0054 -0.0203 0.9998
vn 0.8685 -0.0583 -0.4923
vn -0.8709 0.0549 0.4884
vn -0.8583 0.0887 -0.5055
vn -0.0027 0.0501 -0.9987
vn -0.1707 0.2151 -0.9616
vn -0.2238 0.6516 -0.7248
vn 0.4628 0.7657 -0.4467
vn 0.7074 0.3530 -0.6124
vn 0.5791 0.7635 0.2858
vn 0.8621 0.3807 0.3345
vn 0.0118 0.6471 0.7623
vn 0.1280 0.2679 0.9549
vn -0.6891 0.5284 0.4959
vn -0.7789 0.1262 0.6143
vn -0.1580 0.9870 0.0277
vn -0.8081 0.5307 -0.2556
vn -0.9266 0.1002 -0.3625
vn -0.1306 -0.2568 -0.9576
vn 0.7523 -0.0770 -0.6543
vn 0.9403 0.2038 0.2727
vn 0.1489 0.2929 0.9445
vn -0.8182 0.0711 0.5705
vn -0.8980 -0.1944 -0.3948
vn -0.0953 -0.6664 -0.7395
vn -0.8558 -0.4407 -0.2708
vn -0.8435 0.2487 0.4761
vn 0.0889 0.7113 0.6972
vn 0.9286 0.3151 0.1958
vn 0.7595 -0.3835 -0.5254
vn -0.8337 -0.5077 -0.2172
vn -0.8474 0.5144 0.1316
vn -0.0007 0.9861 0.1664
vn 0.8111 0.5709 -0.1274
vn 0.7589 -0.4521 -0.4687
vn -0.0510 -0.8714 -0.4879
vn -0.0386 -0.9052 -0.4233
vn -0.9211 -0.3086 -0.2375
vn -0.7358 0.6705 -0.0949
vn -0.0456 0.9922 -0.1162
vn 0.6315 0.7126 -0.3056
vn 0.8232 -0.2460 -0.5117
vn 0.1936 0.1673 0.9667
vn 0.3122 0.5815 0.7512
vn -0.3837 0.7936 0.4721
vn -0.6750 0.3954 0.6230
vn -0.5112 0.8098 -0.2881
vn -0.8359 0.4418 -0.3258
vn 0.0529 0.6150 -0.7867
vn -0.1206 0.2609 -0.9578
vn 0.7579 0.3974 -0.5174
vn 0.7786 0.0308 -0.6268
vn 0.2911 0.9563 -0.0292
vn 0.8885 0.3803 0.2568
vn 0.9346 -0.0173 0.3554
vn 0.1282 -0.2364 0.9632
vn -0.7467 0.0072 0.6651
vn -0.9218 0.2838 -0.2640
vn -0.1346 0.2993 -0.9446
vn 0.8160 0.0232 -0.5777
vn 0.8930 -0.2312 0.3861
vn 0.0642 -0.6234 0.7792
vn 0.8422 -0.4592 0.2826
vn 0.8561 0.1831 -0.4832
vn -0.0489 0.6930 -0.7193
vn -0.9024 0.3909 -0.1812
vn -0.7827 -0.2714 0.5601
vn 0.7801 -0.6231 0.0564
vn 0.8764 0.3165 -0.3628
vn 0.0296 0.9187 -0.3938
vn -0.8548 0.5147 -0.0670
vn -0.8346 -0.4408 0.3303
vn -0.0327 -0.9214 0.3872
vn -0.0807 -0.9871 0.1382
vn 0.7450 -0.6617 -0.0847
vn 0.8860 0.3559 -0.2972
vn 0.0601 0.9686 -0.2412
vn -0.8343 0.5513 -0.0055
vn -0.8563 -0.4821 0.1853
vn 0.0872 -0.9961 -0.0105
vn 0.2946 -0.9475 -0.1244
vn 0.4532 -0.8887 0.0697
vn 0.1397 -0.9789 0.1489
vn -0.2183 -0.9529 0.2107
vn 0.0200 -0.9493 -0.3136
vn -0.1533 -0.9870 -0.0489
vn 0.0220 -0.9992 0.0335
vn 0.1819 -0.9825 -0.0401
vn 0.4721 -0.8516 0.2277
vn 0.1924 -0.9447 0.2657
vn -0.2560 -0.9382 0.2331
vn -0.1643 -0.9151 -0.3683
vn -0.2781 -0.9523 -0.1254
vn 0.0377 -0.9965 -0.0749
vn 0.2243 -0.9529 -0.2042
vn 0.3156 -0.9489 0.0044
vn 0.1335 -0.9793 0.1522
vn -0.1881 -0.9807 -0.0534
vn -0.0647 -0.9529 -0.2963
vn -0.2430 -0.9433 -0.2261
usemtl Cactus
s 1
f 1/1/1 2/2/2 3/3/3 4/4/4
f 4/4/4 3/3/3 5/5/5 6/6/6
f 6/6/6 5/5/5 7/7/7 8/8/8
f 8/9/8 7/10/7 9/11/9 10/12/10
f 7/7/7 5/5/5 11/13/11
f 10/12/10 9/11/9 12/14/12 13/15/13
f 13/15/13 12/14/12 2/2/2 1/1/1
f 14/16/14 15/17/15 16/18/16 17/19/17
f 18/20/18 19/21/19 15/17/15 14/16/14
f 20/22/20 21/23/21 19/21/19 18/20/18
f 22/24/22 23/25/23 24/26/24 25/27/25
f 26/28/26 23/25/23 21/29/21 20/30/20
f 2/2/2 12/14/12 11/13/11
f 9/11/9 7/10/7 11/13/11
f 5/5/5 3/3/3 11/13/11
f 12/14/12 9/11/9 11/13/11
f 3/3/3 2/2/2 11/13/11
f 27/31/27 21/29/21 23/25/23 22/24/22
f 17/19/17 16/18/16 24/26/24 28/32/28
f 29/33/29 19/21/19 21/23/21 27/34/27
f 30/35/30 15/17/15 19/21/19 29/33/29
f 31/36/31 16/18/16 15/17/15 30/35/30
f 28/32/28 24/26/24 23/25/23 26/28/26
f 32/37/32 33/38/33 34/39/34 35/40/35
f 35/40/35 34/39/34 36/41/36 37/42/37
f 37/42/37 36/41/36 38/43/38 39/44/39
f 39/44/39 38/43/38 40/45/40 41/46/41
f 38/43/38 36/41/36 42/47/42
f 41/48/41 40/49/40 43/50/43 44/51/44
f 44/51/44 43/50/43 33/38/33 32/37/32
f 45/52/45 32/37/32 35/40/35 46/53/46
f 33/38/33 43/50/43 42/47/42
f 40/45/40 38/43/38 42/47/42
f 36/41/36 34/39/34 42/47/42
f 43/50/43 40/49/40 42/47/42
f 34/39/34 33/38/33 42/47/42
f 46/53/46 35/40/35 37/42/37 47/54/47
f 47/54/47 37/42/37 39/44/39 48/55/48
f 48/55/48 39/44/39 41/46/41 49/56/49
f 49/57/49 41/48/41 44/51/44 50/58/50
f 50/58/50 44/51/44 32/37/32 45/52/45
f 50/58/50 45/52/45 51/59/51 52/60/52
f 48/55/48 49/56/49 53/61/53 54/62/54
f 46/53/46 47/54/47 55/63/55 56/64/56
f 49/57/49 50/58/50 52/60/52 53/65/53
f 47/54/47 48/55/48 54/62/54 55/63/55
f 45/52/45 46/53/46 56/64/56 51/59/51
f 53/65/53 52/60/52 57/66/57 58/67/58
f 55/63/55 54/62/54 59/68/59 60/69/60
f 51/59/51 56/64/56 61/70/61 62/71/62
f 52/60/52 51/59/51 62/71/62 57/66/57
f 54/62/54 53/61/53 58/72/58 59/68/59
f 56/64/56 55/63/55 60/69/60 61/70/61
f 57/66/57 62/71/62 63/73/63 64/74/64
f 59/68/59 58/72/58 65/75/65 66/76/66
f 61/70/61 60/69/60 67/77/67 68/78/68
f 58/67/58 57/66/57 64/74/64 65/79/65
f 60/69/60 59/68/59 66/76/66 67/77/67
f 62/71/62 61/70/61 68/78/68 63/73/63
f 69/80/69 70/81/70 71/82/71 72/83/72
f 72/84/72 71/85/71 73/86/73 74/87/74
f 74/87/74 73/86/73 75/88/75 76/89/76
f 76/89/76 75/88/75 77/90/77 78/91/78
f 75/88/75 73/86/73 79/92/79
f 78/91/78 77/90/77 80/93/80 81/94/81
f 81/94/81 80/93/80 70/81/70 69/80/69
f 82/95/82 69/80/69 72/83/72 83/96/83
f 70/81/70 80/93/80 79/92/79
f 77/90/77 75/88/75 79/92/79
f 73/86/73 71/85/71 79/92/79
f 80/93/80 77/90/77 79/92/79
f 71/82/71 70/81/70 79/92/79
f 83/97/83 72/84/72 74/87/74 84/98/84
f 84/98/84 74/87/74 76/89/76 85/99/85
f 85/99/85 76/89/76 78/91/78 86/100/86
f 86/100/86 78/91/78 81/94/81 87/101/87
f 87/101/87 81/94/81 69/80/69 82/95/82
f 87/101/87 82/95/82 88/102/88 89/103/89
f 85/99/85 86/100/86 90/104/90 91/105/91
f 83/97/83 84/98/84 92/106/92 93/107/93
f 86/100/86 87/101/87 89/103/89 90/104/90
f 84/98/84 85/99/85 91/105/91 92/106/92
f 82/95/82 83/96/83 93/108/93 88/102/88
f 90/104/90 89/103/89 94/109/94 95/110/95
f 92/106/92 91/105/91 96/111/96 97/112/97
f 88/102/88 93/108/93 98/113/98 99/114/99
f 89/103/89 88/102/88 99/114/99 94/109/94
f 91/105/91 90/104/90 95/110/95 96/111/96
f 93/107/93 92/106/92 97/112/97 98/115/98
f 94/109/94 99/114/99 100/116/100 101/117/101
f 96/111/96 95/110/95 102/118/102 103/119/103
f 98/115/98 97/112/97 104/120/104 105/121/105
f 95/110/95 94/109/94 101/117/101 102/118/102
f 97/112/97 96/111/96 103/119/103 104/120/104
f 99/114/99 98/113/98 105/122/105 100/116/100
f 25/27/25 24/26/24 16/18/16 31/36/31
f 4/4/4 25/27/25 31/36/31 1/1/1
f 1/1/1 31/36/31 30/35/30 13/15/13
f 13/15/13 30/35/30 29/33/29 10/12/10
f 10/12/10 29/33/29 27/34/27 8/9/8
f 8/8/8 27/31/27 22/24/22 6/6/6
f 6/6/6 22/24/22 25/27/25 4/4/4
usemtl Material.001
f 106/123/106 107/124/107 108/125/108
f 106/123/106 109/126/109 110/127/110
f 106/123/106 111/128/111 107/124/107
f 106/123/106 108/125/108 109/126/109
f 106/123/106 110/127/110 112/129/112
f 106/123/106 112/129/112 111/128/111
f 113/130/113 114/131/114 115/132/115
f 113/130/113 116/133/116 117/134/117
f 113/130/113 118/135/118 114/131/114
f 113/130/113 115/132/115 116/133/116
f 113/130/113 117/134/117 119/136/119
f 113/130/113 119/136/119 118/135/118
f 120/137/120 121/138/121 122/139/122
f 120/137/120 123/140/123 124/141/124
f 120/137/120 125/142/125 121/138/121
f 120/137/120 122/139/122 123/140/123
f 120/137/120 124/141/124 126/143/126
f 120/137/120 126/143/126 125/142/125
