# Blender v2.80 (sub 45) OBJ File: 'all_models.blend'
# www.blender.org
mtllib ice_chunk.mtl
o ice_chunk_Cube.011
v -0.049327 -0.005706 0.047175
v -0.030652 0.041613 0.036203
v -0.043468 -0.005706 -0.045558
v -0.030652 0.035195 -0.035830
v 0.054057 -0.005706 0.047448
v 0.043354 0.019513 0.036203
v 0.043354 -0.005706 -0.041973
v 0.027747 0.016582 -0.028521
v 0.000285 -0.005706 -0.047980
v 0.000285 0.025712 -0.038687
v -0.004930 -0.005706 0.051217
v 0.000285 0.034782 0.036203
v -0.050442 -0.005706 0.000186
v -0.030652 0.054828 0.000186
v 0.057346 -0.005706 0.000186
v 0.043354 0.019513 0.000186
v 0.000285 0.031713 0.000186
v -0.030652 0.054828 0.000186
v -0.030652 0.035195 -0.035830
v -0.030652 0.035195 -0.035830
v 0.000285 0.025712 -0.038687
v 0.027747 0.016582 -0.028521
v 0.027747 0.016582 -0.028521
v 0.043354 0.019513 0.000186
v 0.043354 0.019513 0.036203
v 0.043354 0.019513 0.036203
v 0.000285 0.034782 0.036203
v -0.030652 0.041613 0.036203
v -0.030652 0.041613 0.036203
v -0.049327 -0.005706 0.047175
v -0.043468 -0.005706 -0.045558
v 0.043354 -0.005706 -0.041973
v 0.054057 -0.005706 0.047448
vt 0.497530 0.239616
vt 0.497530 0.996798
vt 0.862410 0.656643
vt 0.960962 0.239616
vt 0.985499 0.239616
vt 0.891356 0.492335
vt 0.788365 0.334142
vt 0.924640 0.239616
vt 0.497530 0.596310
vt 0.497530 0.996798
vt 0.132650 0.767839
vt 0.132650 0.649486
vt 0.497530 0.384936
vt 0.132650 0.384936
vt 0.031240 0.239616
vt 0.132650 0.649486
vt 0.132650 0.767839
vt 0.021493 0.239616
vt 0.788365 0.334142
vt 0.891356 0.492335
vt 0.862410 0.656643
vt 0.021493 0.239616
vt 0.132650 0.767839
vt 0.960962 0.239616
vt 0.862410 0.656643
vt 0.132650 0.384936
vt 0.018731 0.239616
vt 0.497530 0.384936
vt 0.132650 0.384936
vt 0.018731 0.239616
vt 0.497530 0.239616
vt 0.788365 0.334142
vt 0.924640 0.239616
vn -0.9427 0.3307 -0.0432
vn -0.9427 0.3313 -0.0380
vn -0.9360 0.3158 -0.1556
vn 0.1103 0.3544 -0.9286
vn 0.0887 0.3410 -0.9359
vn 0.2544 0.4389 -0.8618
vn 0.3765 0.9203 -0.1056
vn 0.4435 0.8928 -0.0781
vn 0.4322 0.8930 0.1258
vn 0.3710 0.9275 0.0441
vn 0.3069 0.9459 -0.1050
vn 0.3035 0.9519 -0.0406
vn 0.0284 0.3307 0.9433
vn 0.0273 0.3299 0.9436
vn -0.0250 0.2899 0.9567
vn 0.3095 0.9308 -0.1945
vn 0.3774 0.8925 -0.2467
vn 0.4353 0.8518 -0.2915
vn -0.9376 0.3412 0.0669
vn -0.0352 0.2600 -0.9649
vn 0.0903 0.3760 0.9221
vn 0.8387 0.5194 -0.1635
vn 0.8944 0.4458 0.0353
vn 0.8450 0.5141 -0.1469
vn 0.7529 0.5647 -0.3378
usemtl ice_chunk
s 1
f 13/1/1 18/2/2 19/3/3 3/4/3
f 9/5/4 21/6/5 22/7/6 7/8/6
f 17/9/7 14/10/8 28/11/9 27/12/10
f 24/13/11 17/9/7 27/12/10 25/14/12
f 11/15/13 12/16/14 29/17/15 1/18/15
f 23/19/16 10/20/17 17/9/7 24/13/11
f 10/20/17 20/21/18 14/10/8 17/9/7
f 30/22/19 2/23/19 18/2/2 13/1/1
f 31/24/20 4/25/20 21/6/5 9/5/4
f 26/26/21 12/16/14 11/15/13 33/27/21
f 16/28/22 6/29/23 5/30/23 15/31/24
f 8/32/25 16/28/22 15/31/24 32/33/25
