# Blender v2.81 (sub 16) OBJ File: ''
# www.blender.org
mtllib smoke_mesh_1.mtl
o Cube.001_Cube.004
v -0.702152 -0.680910 0.641534
v -0.561966 0.477407 0.511390
v -0.562503 -0.522789 -0.488512
v -0.702152 0.592448 -0.631825
v 0.545789 -0.483305 0.491584
v 0.907221 0.714962 0.579772
v 0.448143 -0.518908 -0.490468
v 0.636213 0.616150 -0.643773
v -0.795022 -0.773780 -0.372887
v -0.841671 -0.820429 0.004855
v -0.635435 -0.595722 0.308138
v -0.635435 -0.319439 0.584421
v -0.841671 -0.044231 0.781053
v -0.635435 0.273861 0.584421
v -0.795022 0.685318 0.382596
v -0.672070 0.586779 0.011488
v -0.635435 0.550144 -0.285162
v -0.795022 0.333511 -0.724694
v -0.841671 -0.044231 -0.771344
v -0.795022 -0.421973 -0.724694
v 0.312269 -0.773780 -0.724694
v -0.065473 -0.820429 -0.771344
v -0.359153 -0.595722 -0.561445
v -0.443215 0.685318 -0.724694
v -0.058915 0.588087 -0.598739
v 0.327132 0.690737 -0.727426
v 0.714985 0.352073 -0.734051
v 0.734531 -0.035551 -0.775719
v 0.538966 -0.309035 -0.566689
v 0.604304 -0.561494 0.290884
v 0.734531 -0.811749 0.000479
v 0.539745 -0.585033 -0.290550
v 0.819234 0.741889 -0.401406
v 0.995662 0.835857 -0.047518
v 1.020638 0.815323 0.317058
v 1.020638 0.463516 0.668865
v 0.844773 0.085758 0.566336
v 0.702298 -0.249482 0.549155
v -0.359153 -0.595722 0.584421
v -0.065473 -0.820429 0.781053
v 0.327131 -0.768360 0.731671
v 0.471474 0.636675 0.540799
v 0.048594 0.627286 0.600636
v -0.439629 0.686625 0.733744
v -0.791492 -0.338946 0.327645
v -1.061021 -0.044231 0.429062
v -0.993738 0.358350 0.407436
v -1.061021 -0.468438 0.004854
v -0.902009 -0.022789 0.011488
v -0.844331 0.310352 0.011488
v -0.791493 -0.338946 -0.304669
v -0.844331 -0.022789 -0.321652
v -0.993738 0.358350 -0.397727
v -0.468054 -0.446812 -0.923411
v -0.489680 -0.044231 -0.990693
v -0.378660 0.293368 -0.717502
v -0.065473 -0.468438 -0.990693
v -0.062503 -0.022789 -0.828018
v -0.062503 0.310351 -0.770340
v 0.253685 -0.338935 -0.717507
v 0.275497 -0.021017 -0.771234
v 0.337760 0.358588 -0.923530
v 0.762632 -0.303891 -0.322341
v 1.063097 0.004270 -0.443803
v 0.877073 0.370149 -0.343375
v 1.063097 -0.419937 -0.019596
v 1.281487 0.057118 -0.046237
v 1.061679 0.435176 -0.051438
v 1.045479 -0.380203 0.373857
v 1.277845 0.082569 0.365140
v 1.292295 0.514951 0.328491
v 0.404941 -0.422080 0.920652
v 0.510868 0.011238 0.972440
v 0.546853 0.434825 0.894567
v -0.033299 -0.345282 0.787949
v -0.031543 -0.031860 1.067610
v 0.000443 0.404010 0.988287
v -0.468054 -0.446812 0.933120
v -0.489680 -0.044231 1.000402
v -0.467402 0.358588 0.933000
v -0.378660 -0.751779 -0.304669
v -0.065473 -1.039779 -0.419353
v 0.253731 -0.751751 -0.304683
v -0.489680 -1.039779 0.004855
v -0.062503 -0.862295 0.011488
v 0.276410 -0.802513 0.010427
v -0.468054 -0.972496 0.407436
v -0.062503 -0.804618 0.344629
v 0.274547 -0.744161 0.323805
v 0.404941 0.908766 -0.410195
v -0.061120 0.952904 -0.420153
v -0.468054 0.884034 -0.397727
v 0.510868 1.006786 -0.023108
v 0.002039 0.840250 -0.000375
v -0.489680 0.951317 0.004855
v 0.479871 0.788681 0.286066
v 0.000443 0.975350 0.416946
v -0.467402 0.884272 0.407316
vt 0.315128 0.379462
vt 0.314108 0.500000
vt 0.250000 0.500000
vt 0.250000 0.371783
vt 0.315128 0.620538
vt 0.250000 0.628217
vt 0.185892 0.500000
vt 0.184872 0.379462
vt 0.184872 0.620538
vt 0.375000 0.304087
vt 0.375000 0.388285
vt 0.326039 0.268856
vt 0.375000 0.500000
vt 0.375000 0.611715
vt 0.375000 0.695913
vt 0.326039 0.731144
vt 0.250000 0.750000
vt 0.173961 0.731144
vt 0.125000 0.695913
vt 0.125000 0.611715
vt 0.125000 0.500000
vt 0.125000 0.388285
vt 0.173961 0.268856
vt 0.125000 0.304087
vt 0.250000 0.250000
vt 0.065128 0.379462
vt 0.064108 0.500000
vt 0.000000 0.500000
vt 0.000000 0.371783
vt 0.065128 0.620538
vt 0.000000 0.628217
vt 1.000000 0.371783
vt 1.000000 0.500000
vt 0.935892 0.500000
vt 0.934872 0.379462
vt 1.000000 0.628217
vt 0.934872 0.620538
vt 0.076039 0.268856
vt 0.076039 0.731144
vt 0.000000 0.750000
vt 1.000000 0.750000
vt 0.923961 0.731144
vt 0.875000 0.695913
vt 0.875000 0.611715
vt 0.875000 0.500000
vt 0.875000 0.388285
vt 0.923961 0.268856
vt 0.875000 0.304087
vt 1.000000 0.250000
vt 0.000000 0.250000
vt 0.815128 0.379462
vt 0.814108 0.500000
vt 0.750000 0.500000
vt 0.750000 0.371783
vt 0.815128 0.620538
vt 0.750000 0.628217
vt 0.685892 0.500000
vt 0.684872 0.379462
vt 0.684872 0.620538
vt 0.826039 0.268856
vt 0.826039 0.731144
vt 0.750000 0.750000
vt 0.673961 0.731144
vt 0.625000 0.695913
vt 0.625000 0.611715
vt 0.625000 0.500000
vt 0.625000 0.388285
vt 0.673961 0.268856
vt 0.625000 0.304087
vt 0.750000 0.250000
vt 0.565128 0.379462
vt 0.564108 0.500000
vt 0.500000 0.500000
vt 0.500000 0.371783
vt 0.565128 0.620538
vt 0.500000 0.628217
vt 0.435892 0.500000
vt 0.434872 0.379462
vt 0.434872 0.620538
vt 0.576039 0.268856
vt 0.576039 0.731144
vt 0.500000 0.750000
vt 0.423961 0.731144
vt 0.423961 0.268856
vt 0.500000 0.250000
vt 0.125000 0.175123
vt 1.000000 0.128217
vt 0.617127 0.000000
vt 0.250000 0.128217
vt 0.875000 0.175123
vt 0.750000 0.128217
vt 0.500000 0.128217
vt 0.375000 0.175123
vt 0.625000 0.175123
vt 0.000000 0.128217
vt 0.875000 0.824877
vt 1.000000 0.871783
vt 0.581549 1.000000
vt 0.750000 0.871783
vt 0.125000 0.824877
vt 0.250000 0.871783
vt 0.500000 0.871783
vt 0.625000 0.824877
vt 0.375000 0.824877
vt 0.000000 0.871783
vn -0.8399 -0.3884 0.3790
vn -0.9503 -0.0767 0.3017
vn -0.9891 0.0034 -0.1469
vn -0.9753 -0.2200 0.0169
vn -0.8608 0.4413 0.2534
vn -0.9287 0.3447 -0.1365
vn -0.9889 -0.0711 -0.1306
vn -0.9309 -0.1495 -0.3332
vn -0.9446 0.3233 -0.0569
vn -0.7071 -0.5017 0.4982
vn -0.7451 -0.4769 0.4662
vn -0.7521 -0.4610 0.4710
vn -0.7562 -0.0841 0.6488
vn -0.6518 0.3954 0.6471
vn -0.6667 0.3461 0.6600
vn -0.7785 0.5604 0.2827
vn -0.7979 0.5872 -0.1359
vn -0.7662 0.6404 -0.0526
vn -0.6030 0.6032 -0.5220
vn -0.6441 0.3484 -0.6809
vn -0.8041 0.0017 -0.5945
vn -0.7510 -0.4730 -0.4607
vn -0.5393 -0.6116 -0.5788
vn -0.3631 -0.7683 -0.5271
vn -0.7598 -0.6486 0.0433
vn -0.3397 -0.4795 -0.8091
vn -0.1598 0.1949 -0.9677
vn 0.1433 0.1456 -0.9789
vn 0.1247 -0.2360 -0.9637
vn -0.0115 0.3237 -0.9460
vn -0.0743 0.2705 -0.9598
vn 0.1750 -0.1629 -0.9710
vn 0.4636 -0.1543 -0.8725
vn 0.0291 0.1867 -0.9820
vn -0.4217 -0.7606 -0.4936
vn -0.1939 0.5321 -0.8241
vn -0.0755 0.5267 -0.8466
vn 0.0269 0.6106 -0.7915
vn 0.5383 0.5022 -0.6767
vn 0.5943 0.2185 -0.7739
vn 0.5134 -0.2899 -0.8077
vn 0.5296 -0.4994 -0.6856
vn 0.6300 -0.5547 -0.5434
vn 0.7481 -0.4678 -0.4707
vn -0.0566 -0.7657 -0.6407
vn 0.5875 -0.5783 -0.5660
vn 0.7902 -0.1269 -0.5995
vn 0.9335 -0.0755 -0.3504
vn 0.7494 -0.6319 -0.1978
vn 0.8066 0.2785 -0.5212
vn 0.8544 0.3030 -0.4222
vn 0.8966 -0.1849 0.4023
vn 0.6250 -0.5376 0.5660
vn 0.9365 0.2886 0.1990
vn 0.5358 -0.6803 -0.5000
vn 0.6482 0.5480 -0.5287
vn 0.6586 0.7147 -0.2356
vn 0.5065 0.8210 0.2633
vn 0.2137 0.7755 0.5940
vn 0.5576 0.2349 0.7961
vn 0.5925 -0.2207 0.7747
vn 0.6074 -0.4260 0.6704
vn 0.4376 -0.7833 0.4415
vn 0.6509 -0.6559 0.3822
vn 0.4581 -0.8845 -0.0884
vn 0.4057 -0.4188 0.8123
vn 0.4364 -0.1815 0.8813
vn 0.0190 -0.1238 0.9921
vn -0.0368 -0.3889 0.9205
vn 0.2847 0.4270 0.8583
vn 0.0420 0.5059 0.8615
vn -0.4229 -0.0846 0.9022
vn -0.3070 -0.4932 0.8139
vn -0.4568 0.4707 0.7548
vn 0.3933 -0.7682 0.5051
vn 0.0719 0.8002 0.5954
vn 0.1168 0.7465 0.6551
vn -0.3711 0.6151 0.6956
vn -0.3064 -0.6637 0.6824
vn -0.0638 -0.7548 0.6528
vn -0.3118 -0.8220 -0.4765
vn -0.0158 -0.9780 -0.2080
vn 0.2341 -0.9688 0.0815
vn -0.2130 -0.9770 0.0110
vn 0.4758 -0.8673 -0.1464
vn 0.2720 -0.9585 0.0851
vn 0.1534 -0.9693 0.1920
vn -0.2434 -0.8693 0.4301
vn 0.3149 -0.9330 0.1744
vn 0.0920 0.9014 -0.4231
vn -0.0262 0.9241 -0.3811
vn -0.0067 0.9994 0.0325
vn 0.1152 0.9931 0.0196
vn -0.4124 0.8645 -0.2873
vn -0.4442 0.8920 -0.0834
vn 0.1068 0.9091 0.4026
vn 0.0801 0.9111 0.4042
vn -0.3910 0.8475 0.3589
usemtl Material.001
s 1
f 45/1/1 46/2/2 49/3/3 48/4/4
f 46/2/2 47/5/5 50/6/6 49/3/3
f 48/4/4 49/3/3 52/7/7 51/8/8
f 49/3/3 50/6/6 53/9/9 52/7/7
f 1/10/10 12/11/11 45/1/1 11/12/12
f 12/11/11 13/13/13 46/2/2 45/1/1
f 13/13/13 14/14/14 47/5/5 46/2/2
f 14/14/14 2/15/15 15/16/16 47/5/5
f 47/5/5 15/16/16 16/17/17 50/6/6
f 50/6/6 16/17/17 17/18/18 53/9/9
f 53/9/9 17/18/18 4/19/19 18/20/20
f 52/7/7 53/9/9 18/20/20 19/21/21
f 51/8/8 52/7/7 19/21/21 20/22/22
f 9/23/23 51/8/8 20/22/22 3/24/24
f 10/25/25 48/4/4 51/8/8 9/23/23
f 11/12/12 45/1/1 48/4/4 10/25/25
f 54/26/26 55/27/27 58/28/28 57/29/29
f 55/27/27 56/30/30 59/31/31 58/28/28
f 57/32/29 58/33/28 61/34/32 60/35/33
f 58/33/28 59/36/31 62/37/34 61/34/32
f 3/24/24 20/22/22 54/26/26 23/38/35
f 20/22/22 19/21/21 55/27/27 54/26/26
f 19/21/21 18/20/20 56/30/30 55/27/27
f 18/20/20 4/19/19 24/39/36 56/30/30
f 56/30/30 24/39/36 25/40/37 59/31/31
f 59/36/31 25/41/37 26/42/38 62/37/34
f 62/37/34 26/42/38 8/43/39 27/44/40
f 61/34/32 62/37/34 27/44/40 28/45/41
f 60/35/33 61/34/32 28/45/41 29/46/42
f 21/47/43 60/35/33 29/46/42 7/48/44
f 22/49/45 57/32/29 60/35/33 21/47/43
f 23/38/35 54/26/26 57/29/29 22/50/45
f 63/51/46 64/52/47 67/53/48 66/54/49
f 64/52/47 65/55/50 68/56/51 67/53/48
f 66/54/49 67/53/48 70/57/52 69/58/53
f 67/53/48 68/56/51 71/59/54 70/57/52
f 7/48/44 29/46/42 63/51/46 32/60/55
f 29/46/42 28/45/41 64/52/47 63/51/46
f 28/45/41 27/44/40 65/55/50 64/52/47
f 27/44/40 8/43/39 33/61/56 65/55/50
f 65/55/50 33/61/56 34/62/57 68/56/51
f 68/56/51 34/62/57 35/63/58 71/59/54
f 71/59/54 35/63/58 6/64/59 36/65/60
f 70/57/52 71/59/54 36/65/60 37/66/61
f 69/58/53 70/57/52 37/66/61 38/67/62
f 30/68/63 69/58/53 38/67/62 5/69/64
f 31/70/65 66/54/49 69/58/53 30/68/63
f 32/60/55 63/51/46 66/54/49 31/70/65
f 72/71/66 73/72/67 76/73/68 75/74/69
f 73/72/67 74/75/70 77/76/71 76/73/68
f 75/74/69 76/73/68 79/77/72 78/78/73
f 76/73/68 77/76/71 80/79/74 79/77/72
f 5/69/64 38/67/62 72/71/66 41/80/75
f 38/67/62 37/66/61 73/72/67 72/71/66
f 37/66/61 36/65/60 74/75/70 73/72/67
f 36/65/60 6/64/59 42/81/76 74/75/70
f 74/75/70 42/81/76 43/82/77 77/76/71
f 77/76/71 43/82/77 44/83/78 80/79/74
f 80/79/74 44/83/78 2/15/15 14/14/14
f 79/77/72 80/79/74 14/14/14 13/13/13
f 78/78/73 79/77/72 13/13/13 12/11/11
f 39/84/79 78/78/73 12/11/11 1/10/10
f 40/85/80 75/74/69 78/78/73 39/84/79
f 41/80/75 72/71/66 75/74/69 40/85/80
f 81/86/81 82/87/82 85/88/83 84/89/84
f 82/87/82 83/90/85 86/91/86 85/88/83
f 84/89/84 85/88/83 88/92/87 87/93/88
f 85/88/83 86/91/86 89/94/89 88/92/87
f 3/24/24 23/38/35 81/86/81 9/23/23
f 23/38/35 22/50/45 82/95/82 81/86/81
f 22/49/45 21/47/43 83/90/85 82/87/82
f 21/47/43 7/48/44 32/60/55 83/90/85
f 83/90/85 32/60/55 31/70/65 86/91/86
f 86/91/86 31/70/65 30/68/63 89/94/89
f 89/94/89 30/68/63 5/69/64 41/80/75
f 88/92/87 89/94/89 41/80/75 40/85/80
f 87/93/88 88/92/87 40/85/80 39/84/79
f 11/12/12 87/93/88 39/84/79 1/10/10
f 10/25/25 84/89/84 87/93/88 11/12/12
f 9/23/23 81/86/81 84/89/84 10/25/25
f 90/96/90 91/97/91 94/98/92 93/99/93
f 91/97/91 92/100/94 95/101/95 94/98/92
f 93/99/93 94/98/92 97/102/96 96/103/97
f 94/98/92 95/101/95 98/104/98 97/102/96
f 8/43/39 26/42/38 90/96/90 33/61/56
f 26/42/38 25/41/37 91/97/91 90/96/90
f 25/40/37 24/39/36 92/100/94 91/105/91
f 24/39/36 4/19/19 17/18/18 92/100/94
f 92/100/94 17/18/18 16/17/17 95/101/95
f 95/101/95 16/17/17 15/16/16 98/104/98
f 98/104/98 15/16/16 2/15/15 44/83/78
f 97/102/96 98/104/98 44/83/78 43/82/77
f 96/103/97 97/102/96 43/82/77 42/81/76
f 35/63/58 96/103/97 42/81/76 6/64/59
f 34/62/57 93/99/93 96/103/97 35/63/58
f 33/61/56 90/96/90 93/99/93 34/62/57
