# Blender v2.81 (sub 16) OBJ File: ''
# www.blender.org
mtllib smoke_mesh_2.mtl
o Cube.001_Cube.004
v -0.874473 -0.859501 0.809133
v -0.540659 0.458517 0.498734
v -0.728151 -0.687116 -0.627014
v -0.675632 0.569281 -0.601969
v 0.678731 -0.613559 0.622504
v 0.873895 0.687239 0.564573
v 0.578293 -0.682098 -0.629543
v 0.636213 0.616150 -0.643773
v -0.795022 -0.773780 -0.372887
v -1.089027 -1.071870 0.010753
v -0.635435 -0.595722 0.308138
v -0.791437 -0.409609 0.738050
v -0.809963 -0.043723 0.758369
v -0.822430 0.342700 0.759949
v -0.795022 0.685318 0.382596
v -0.837033 0.718282 0.024970
v -0.822430 0.699846 -0.364146
v -0.765048 0.319972 -0.691385
v -0.841671 -0.044231 -0.771344
v -1.028724 -0.556792 -0.932322
v 0.312269 -0.773780 -0.724694
v -0.062628 -0.791057 -0.736300
v -0.345387 -0.574706 -0.534206
v -0.573949 0.874583 -0.932322
v -0.073892 0.719910 -0.734527
v 0.327132 0.690737 -0.727426
v 0.714985 0.352073 -0.734051
v 0.948503 -0.057272 -0.998282
v 0.695699 -0.410799 -0.728072
v 0.751560 -0.710875 0.372709
v 0.707627 -0.782700 0.006822
v 0.671209 -0.740171 -0.350951
v 0.789180 0.713165 -0.380119
v 0.959047 0.803639 -0.039391
v 1.269735 1.002731 0.405286
v 1.318348 0.587864 0.869108
v 1.050850 0.094704 0.715541
v 0.873524 -0.322540 0.694157
v -0.345387 -0.574706 0.569049
v -0.082054 -1.033149 0.982780
v 0.327131 -0.768360 0.731671
v 0.608453 0.811704 0.703560
v 0.059916 0.768697 0.758231
v -0.569315 0.876273 0.952976
v -0.791492 -0.338946 0.327645
v -1.021156 -0.043723 0.419467
v -1.237386 0.433976 0.517772
v -1.321126 -0.595056 0.016714
v -0.868057 -0.023078 0.017422
v -0.844331 0.310352 0.011488
v -0.761650 -0.327479 -0.286979
v -1.051432 -0.040395 -0.389661
v -1.285602 0.451918 -0.509657
v -0.606059 -0.588902 -1.189200
v -0.471061 -0.043723 -0.947493
v -0.490500 0.367917 -0.923025
v -0.085649 -0.616858 -1.276175
v -0.062503 -0.022789 -0.828018
v -0.078357 0.374237 -0.948105
v 0.326921 -0.449451 -0.923032
v 0.355117 -0.038484 -0.992483
v 0.337760 0.358588 -0.923530
v 0.734683 -0.293727 -0.303994
v 1.373235 -0.005796 -0.569219
v 0.844868 0.355248 -0.324246
v 1.023975 -0.405458 -0.012506
v 1.655543 0.062520 -0.055293
v 1.061679 0.435176 -0.051438
v 1.350460 -0.502798 0.487756
v 1.230738 0.078362 0.357922
v 1.244651 0.494665 0.322636
v 0.390293 -0.407521 0.892777
v 0.635267 0.001956 1.220983
v 0.680055 0.529158 1.124063
v -0.031651 -0.333579 0.765009
v -0.029959 -0.031812 1.034271
v 0.000443 0.404010 0.988287
v -0.606059 -0.588902 1.210706
v -0.489680 -0.044231 1.000402
v -0.449611 0.344117 0.904666
v -0.490500 -0.983127 -0.389363
v -0.062628 -1.002251 -0.397398
v 0.315232 -0.947671 -0.368541
v -0.610028 -1.306154 0.016714
v -0.081809 -1.125990 0.019328
v 0.356298 -1.048710 0.017957
v -0.450239 -0.937470 0.398645
v -0.062503 -0.804618 0.344629
v 0.274547 -0.744161 0.323805
v 0.522447 1.163432 -0.525774
v -0.080022 1.220488 -0.538647
v -0.583112 1.088250 -0.484344
v 0.659377 1.290140 -0.025394
v 0.002039 0.840250 -0.000375
v -0.610028 1.171991 0.016714
v 0.596688 0.969572 0.366713
v -0.000441 1.249504 0.543456
v -0.605216 1.131768 0.531008
vt 0.315128 0.379462
vt 0.314108 0.500000
vt 0.250000 0.500000
vt 0.250000 0.371783
vt 0.315128 0.620538
vt 0.250000 0.628217
vt 0.185892 0.500000
vt 0.184872 0.379462
vt 0.184872 0.620538
vt 0.375000 0.304087
vt 0.375000 0.388285
vt 0.326039 0.268856
vt 0.375000 0.500000
vt 0.375000 0.611715
vt 0.375000 0.695913
vt 0.326039 0.731144
vt 0.250000 0.750000
vt 0.173961 0.731144
vt 0.125000 0.695913
vt 0.125000 0.611715
vt 0.125000 0.500000
vt 0.125000 0.388285
vt 0.173961 0.268856
vt 0.125000 0.304087
vt 0.250000 0.250000
vt 0.065128 0.379462
vt 0.064108 0.500000
vt 0.000000 0.500000
vt 0.000000 0.371783
vt 0.065128 0.620538
vt 0.000000 0.628217
vt 1.000000 0.371783
vt 1.000000 0.500000
vt 0.935892 0.500000
vt 0.934872 0.379462
vt 1.000000 0.628217
vt 0.934872 0.620538
vt 0.076039 0.268856
vt 0.076039 0.731144
vt 0.000000 0.750000
vt 1.000000 0.750000
vt 0.923961 0.731144
vt 0.875000 0.695913
vt 0.875000 0.611715
vt 0.875000 0.500000
vt 0.875000 0.388285
vt 0.923961 0.268856
vt 0.875000 0.304087
vt 1.000000 0.250000
vt 0.000000 0.250000
vt 0.815128 0.379462
vt 0.814108 0.500000
vt 0.750000 0.500000
vt 0.750000 0.371783
vt 0.815128 0.620538
vt 0.750000 0.628217
vt 0.685892 0.500000
vt 0.684872 0.379462
vt 0.684872 0.620538
vt 0.826039 0.268856
vt 0.826039 0.731144
vt 0.750000 0.750000
vt 0.673961 0.731144
vt 0.625000 0.695913
vt 0.625000 0.611715
vt 0.625000 0.500000
vt 0.625000 0.388285
vt 0.673961 0.268856
vt 0.625000 0.304087
vt 0.750000 0.250000
vt 0.565128 0.379462
vt 0.564108 0.500000
vt 0.500000 0.500000
vt 0.500000 0.371783
vt 0.565128 0.620538
vt 0.500000 0.628217
vt 0.435892 0.500000
vt 0.434872 0.379462
vt 0.434872 0.620538
vt 0.576039 0.268856
vt 0.576039 0.731144
vt 0.500000 0.750000
vt 0.423961 0.731144
vt 0.423961 0.268856
vt 0.500000 0.250000
vt 0.125000 0.175123
vt 1.000000 0.128217
vt 0.617127 0.000000
vt 0.250000 0.128217
vt 0.875000 0.175123
vt 0.750000 0.128217
vt 0.500000 0.128217
vt 0.375000 0.175123
vt 0.625000 0.175123
vt 0.000000 0.128217
vt 0.875000 0.824877
vt 1.000000 0.871783
vt 0.581549 1.000000
vt 0.750000 0.871783
vt 0.125000 0.824877
vt 0.250000 0.871783
vt 0.500000 0.871783
vt 0.625000 0.824877
vt 0.375000 0.824877
vt 0.000000 0.871783
vn -0.9112 -0.1603 0.3795
vn -0.9620 -0.1954 0.1907
vn -0.9999 -0.0110 0.0074
vn -0.9939 -0.0923 0.0603
vn -0.9172 0.3024 0.2595
vn -0.9868 0.1579 0.0361
vn -0.9884 -0.1097 -0.1052
vn -0.9591 -0.0941 -0.2670
vn -0.9254 0.2831 -0.2517
vn -0.5443 -0.8162 0.1937
vn -0.9145 -0.2593 0.3104
vn -0.6586 -0.5130 0.5505
vn -0.7625 -0.0799 0.6420
vn -0.5674 0.2692 0.7781
vn -0.7146 0.4061 0.5695
vn -0.8386 0.4852 0.2477
vn -0.8812 0.4726 0.0094
vn -0.8294 0.5267 -0.1862
vn -0.7275 0.3397 -0.5961
vn -0.5954 0.1778 -0.7835
vn -0.7455 0.0975 -0.6593
vn -0.8008 -0.3968 -0.4487
vn -0.5781 -0.4778 -0.6614
vn -0.3950 -0.8853 -0.2452
vn -0.8115 -0.5800 0.0710
vn -0.2860 -0.4031 -0.8693
vn -0.1989 0.2842 -0.9379
vn 0.0301 0.1596 -0.9867
vn 0.0507 -0.3812 -0.9231
vn -0.2911 0.1055 -0.9508
vn 0.0635 0.1545 -0.9859
vn 0.0994 0.0653 -0.9929
vn 0.3301 -0.3507 -0.8763
vn 0.1067 0.3372 -0.9353
vn -0.2138 -0.8380 -0.5020
vn -0.3954 0.4255 -0.8140
vn 0.1148 0.4501 -0.8855
vn 0.2450 0.4198 -0.8739
vn 0.6377 0.3279 -0.6970
vn 0.5115 0.5289 -0.6772
vn 0.5956 -0.0750 -0.7997
vn 0.5924 -0.5990 -0.5387
vn 0.3628 -0.7551 -0.5461
vn 0.6674 -0.5718 -0.4769
vn -0.0504 -0.8752 -0.4810
vn 0.7211 -0.6219 -0.3053
vn 0.8150 -0.0511 -0.5772
vn 0.9640 0.0502 -0.2610
vn 0.6717 -0.6838 -0.2849
vn 0.7102 0.5160 -0.4788
vn 0.7768 0.4810 -0.4065
vn 0.9455 -0.0398 0.3231
vn 0.7491 -0.5303 0.3970
vn 0.9655 0.2596 0.0186
vn 0.7394 -0.5903 -0.3237
vn 0.7955 0.2817 -0.5365
vn 0.7964 0.4382 -0.4167
vn 0.6890 0.7099 0.1460
vn 0.2935 0.7828 0.5486
vn 0.7754 0.2743 0.5687
vn 0.7470 -0.2561 0.6135
vn 0.5132 -0.4427 0.7353
vn 0.3748 -0.8932 0.2484
vn 0.3336 -0.7272 0.5999
vn 0.5984 -0.7943 -0.1043
vn 0.1971 -0.4386 0.8768
vn 0.2140 -0.3053 0.9279
vn -0.0776 -0.1136 0.9905
vn 0.0578 -0.3077 0.9497
vn 0.1769 0.4347 0.8830
vn -0.1076 0.3084 0.9452
vn -0.2697 0.1039 0.9573
vn -0.2131 -0.3399 0.9160
vn -0.3702 0.2295 0.9001
vn 0.3593 -0.7607 0.5406
vn 0.1283 0.7584 0.6390
vn 0.0801 0.5866 0.8058
vn -0.4356 0.3639 0.8233
vn -0.2273 -0.8618 0.4534
vn 0.0030 -0.7919 0.6107
vn -0.1495 -0.7099 -0.6882
vn 0.0054 -0.8518 -0.5238
vn 0.2226 -0.9577 0.1821
vn -0.2203 -0.9681 0.1189
vn 0.3189 -0.8853 -0.3384
vn 0.3177 -0.9293 0.1885
vn 0.0947 -0.9250 0.3679
vn -0.1667 -0.7745 0.6101
vn 0.2610 -0.9188 0.2961
vn 0.3304 0.7783 -0.5338
vn 0.0278 0.9300 -0.3666
vn -0.0282 0.9991 0.0312
vn 0.2851 0.9545 -0.0871
vn -0.4718 0.8287 -0.3009
vn -0.4602 0.8872 -0.0324
vn 0.1258 0.9411 0.3139
vn 0.1878 0.9061 0.3789
vn -0.5419 0.7650 0.3478
usemtl Material.001
s 1
f 45/1/1 46/2/2 49/3/3 48/4/4
f 46/2/2 47/5/5 50/6/6 49/3/3
f 48/4/4 49/3/3 52/7/7 51/8/8
f 49/3/3 50/6/6 53/9/9 52/7/7
f 1/10/10 12/11/11 45/1/1 11/12/12
f 12/11/11 13/13/13 46/2/2 45/1/1
f 13/13/13 14/14/14 47/5/5 46/2/2
f 14/14/14 2/15/15 15/16/16 47/5/5
f 47/5/5 15/16/16 16/17/17 50/6/6
f 50/6/6 16/17/17 17/18/18 53/9/9
f 53/9/9 17/18/18 4/19/19 18/20/20
f 52/7/7 53/9/9 18/20/20 19/21/21
f 51/8/8 52/7/7 19/21/21 20/22/22
f 9/23/23 51/8/8 20/22/22 3/24/24
f 10/25/25 48/4/4 51/8/8 9/23/23
f 11/12/12 45/1/1 48/4/4 10/25/25
f 54/26/26 55/27/27 58/28/28 57/29/29
f 55/27/27 56/30/30 59/31/31 58/28/28
f 57/32/29 58/33/28 61/34/32 60/35/33
f 58/33/28 59/36/31 62/37/34 61/34/32
f 3/24/24 20/22/22 54/26/26 23/38/35
f 20/22/22 19/21/21 55/27/27 54/26/26
f 19/21/21 18/20/20 56/30/30 55/27/27
f 18/20/20 4/19/19 24/39/36 56/30/30
f 56/30/30 24/39/36 25/40/37 59/31/31
f 59/36/31 25/41/37 26/42/38 62/37/34
f 62/37/34 26/42/38 8/43/39 27/44/40
f 61/34/32 62/37/34 27/44/40 28/45/41
f 60/35/33 61/34/32 28/45/41 29/46/42
f 21/47/43 60/35/33 29/46/42 7/48/44
f 22/49/45 57/32/29 60/35/33 21/47/43
f 23/38/35 54/26/26 57/29/29 22/50/45
f 63/51/46 64/52/47 67/53/48 66/54/49
f 64/52/47 65/55/50 68/56/51 67/53/48
f 66/54/49 67/53/48 70/57/52 69/58/53
f 67/53/48 68/56/51 71/59/54 70/57/52
f 7/48/44 29/46/42 63/51/46 32/60/55
f 29/46/42 28/45/41 64/52/47 63/51/46
f 28/45/41 27/44/40 65/55/50 64/52/47
f 27/44/40 8/43/39 33/61/56 65/55/50
f 65/55/50 33/61/56 34/62/57 68/56/51
f 68/56/51 34/62/57 35/63/58 71/59/54
f 71/59/54 35/63/58 6/64/59 36/65/60
f 70/57/52 71/59/54 36/65/60 37/66/61
f 69/58/53 70/57/52 37/66/61 38/67/62
f 30/68/63 69/58/53 38/67/62 5/69/64
f 31/70/65 66/54/49 69/58/53 30/68/63
f 32/60/55 63/51/46 66/54/49 31/70/65
f 72/71/66 73/72/67 76/73/68 75/74/69
f 73/72/67 74/75/70 77/76/71 76/73/68
f 75/74/69 76/73/68 79/77/72 78/78/73
f 76/73/68 77/76/71 80/79/74 79/77/72
f 5/69/64 38/67/62 72/71/66 41/80/75
f 38/67/62 37/66/61 73/72/67 72/71/66
f 37/66/61 36/65/60 74/75/70 73/72/67
f 36/65/60 6/64/59 42/81/76 74/75/70
f 74/75/70 42/81/76 43/82/77 77/76/71
f 77/76/71 43/82/77 44/83/78 80/79/74
f 80/79/74 44/83/78 2/15/15 14/14/14
f 79/77/72 80/79/74 14/14/14 13/13/13
f 78/78/73 79/77/72 13/13/13 12/11/11
f 39/84/79 78/78/73 12/11/11 1/10/10
f 40/85/80 75/74/69 78/78/73 39/84/79
f 41/80/75 72/71/66 75/74/69 40/85/80
f 81/86/81 82/87/82 85/88/83 84/89/84
f 82/87/82 83/90/85 86/91/86 85/88/83
f 84/89/84 85/88/83 88/92/87 87/93/88
f 85/88/83 86/91/86 89/94/89 88/92/87
f 3/24/24 23/38/35 81/86/81 9/23/23
f 23/38/35 22/50/45 82/95/82 81/86/81
f 22/49/45 21/47/43 83/90/85 82/87/82
f 21/47/43 7/48/44 32/60/55 83/90/85
f 83/90/85 32/60/55 31/70/65 86/91/86
f 86/91/86 31/70/65 30/68/63 89/94/89
f 89/94/89 30/68/63 5/69/64 41/80/75
f 88/92/87 89/94/89 41/80/75 40/85/80
f 87/93/88 88/92/87 40/85/80 39/84/79
f 11/12/12 87/93/88 39/84/79 1/10/10
f 10/25/25 84/89/84 87/93/88 11/12/12
f 9/23/23 81/86/81 84/89/84 10/25/25
f 90/96/90 91/97/91 94/98/92 93/99/93
f 91/97/91 92/100/94 95/101/95 94/98/92
f 93/99/93 94/98/92 97/102/96 96/103/97
f 94/98/92 95/101/95 98/104/98 97/102/96
f 8/43/39 26/42/38 90/96/90 33/61/56
f 26/42/38 25/41/37 91/97/91 90/96/90
f 25/40/37 24/39/36 92/100/94 91/105/91
f 24/39/36 4/19/19 17/18/18 92/100/94
f 92/100/94 17/18/18 16/17/17 95/101/95
f 95/101/95 16/17/17 15/16/16 98/104/98
f 98/104/98 15/16/16 2/15/15 44/83/78
f 97/102/96 98/104/98 44/83/78 43/82/77
f 96/103/97 97/102/96 43/82/77 42/81/76
f 35/63/58 96/103/97 42/81/76 6/64/59
f 34/62/57 93/99/93 96/103/97 35/63/58
f 33/61/56 90/96/90 93/99/93 34/62/57
